<?xml version="1.0" encoding="utf-8"?>
<!-- Generator: Adobe Illustrator 21.0.2, SVG Export Plug-In . SVG Version: 6.00 Build 0)  -->
<svg version="1.1" id="Слой_1" xmlns="http://www.w3.org/2000/svg" xmlns:xlink="http://www.w3.org/1999/xlink" x="0px" y="0px"
	 viewBox="0 0 48 48" style="enable-background:new 0 0 48 48;" xml:space="preserve">
<style type="text/css">
	.st0{fill:url(#SVGID_1_);}
</style>
<linearGradient id="SVGID_1_" gradientUnits="userSpaceOnUse" x1="2.4548" y1="42.0145" x2="45.5452" y2="-1.076">
	<stop  offset="0" style="stop-color:#000000"/>
	<stop  offset="1" style="stop-color:#9F233B"/>
</linearGradient>
<path class="st0" d="M45.6,0H2.4C1,0,0,1,0,2.4v36.8C0,39.7,0.3,40,0.8,40h16v6.4h-4V48h25.6c1,0,1.6-0.6,1.6-1.6V40h7.2
	c0.5,0,0.8-0.3,0.8-0.8V2.4C48,1,47,0,45.6,0L45.6,0z M1.6,2.4c0-0.5,0.3-0.8,0.8-0.8h43.2c0.5,0,0.8,0.3,0.8,0.8v28.8H44V4.8
	C44,4.3,43.7,4,43.2,4H4.8C4.3,4,4,4.3,4,4.8v26.4H1.6V2.4z M38.4,27.2H25.6v-4.8h12.8V27.2z M25.6,28.8h12.8v12.8H25.6V28.8z
	 M38.4,20.8H25.6c-1,0-1.6,0.6-1.6,1.6v8.8H5.6V5.6h36.8v25.6H40v-8.8C40,21.4,39.4,20.8,38.4,20.8L38.4,20.8z M1.6,32.8H24v5.6H1.6
	V32.8z M18.4,46.4V40H24v6.4H18.4z M25.6,46.4v-3.2h12.8v3.2H25.6z M40,38.4v-5.6h6.4v5.6H40z M40,38.4 M30.4,24h3.2v1.6h-3.2V24z
	 M30.4,44h3.2v1.6h-3.2V44z"/>
</svg>
