<?xml version="1.0" encoding="utf-8"?>
<!-- Generator: Adobe Illustrator 21.0.2, SVG Export Plug-In . SVG Version: 6.00 Build 0)  -->
<svg version="1.1" id="Слой_1" xmlns="http://www.w3.org/2000/svg" xmlns:xlink="http://www.w3.org/1999/xlink" x="0px" y="0px"
	 viewBox="0 0 48 48" style="enable-background:new 0 0 48 48;" xml:space="preserve">
<style type="text/css">
	.st0{fill:url(#SVGID_1_);}
</style>
<linearGradient id="SVGID_1_" gradientUnits="userSpaceOnUse" x1="4.5655" y1="51.6843" x2="43.4345" y2="12.8154">
	<stop  offset="0" style="stop-color:#000000"/>
	<stop  offset="1" style="stop-color:#47A254"/>
</linearGradient>
<path class="st0" d="M47.2,42.4h-0.8V16.8c0-1.4-1-2.4-2.4-2.4h-4.8V16H44c0.5,0,0.8,0.3,0.8,0.8v26.4c0,0.5,0.3,0.8,0.8,0.8h0.8
	v2.4H1.6V44h41.6v-1.6h-40V16.8C3.2,16.3,3.5,16,4,16h5.6v-1.6H4c-1.4,0-2.4,1-2.4,2.4v25.6H0.8c-0.5,0-0.8,0.3-0.8,0.8v3.2
	c0,1,0.6,1.6,1.6,1.6h44.8c1,0,1.6-0.6,1.6-1.6v-3.2C48,42.7,47.7,42.4,47.2,42.4L47.2,42.4z M47.2,42.4 M21.6,25.3v4.3H20
	c-0.5,0-0.8,0.3-0.8,0.8v8.8H5.6V18.4h4v-1.6H4.8c-0.5,0-0.8,0.3-0.8,0.8V40c0,0.5,0.3,0.8,0.8,0.8h38.4c0.5,0,0.8-0.3,0.8-0.8V17.6
	c0-0.5-0.3-0.8-0.8-0.8h-4v1.6h3.2v20.8H29.6v-8.8c0-0.5-0.3-0.8-0.8-0.8h-1.6v-4.4C33,23.9,37,18.8,37,12.8C37,5.8,31.3,0,24.2,0
	c-7,0-12.8,5.8-12.8,12.8C11.4,18.9,15.7,24.1,21.6,25.3L21.6,25.3z M28,39.2h-7.2v-1.6h4V36h-4v-1.6h4v-1.6h-4v-1.6H28V39.2z
	 M24.2,1.6c6.2,0,11.2,5,11.2,11.2c0,5.4-3.9,10.1-9.2,11c-0.3,0.1-0.6,0.4-0.6,0.8v5h-2.4v-5c0-0.4-0.2-0.7-0.6-0.8
	C17,23,13,18.4,13,12.8C13,6.6,18.1,1.6,24.2,1.6L24.2,1.6z M24.2,1.6 M24.2,22.4c5.3,0,9.6-4.3,9.6-9.6c0-5.3-4.3-9.6-9.6-9.6H24
	c-5.3,0.2-9.4,4.4-9.4,9.6C14.6,18.1,19,22.4,24.2,22.4L24.2,22.4z M32.2,12h-7.4v-1.6h4.8V8.8h-4.8V8h1.6V6.4h-1.6V4.8
	C28.6,5.1,31.8,8.2,32.2,12L32.2,12z M23.2,4.9v7.9c0,0.5,0.3,0.8,0.8,0.8h8.2c-0.5,4-3.8,7.2-8,7.2c-4.4,0-8-3.6-8-8
	C16.2,8.7,19.2,5.4,23.2,4.9L23.2,4.9z M23.2,4.9 M8,27.2h3.2v1.6H8V27.2z M8,23.2h3.2v1.6H8V23.2z M13.6,27.2h3.2v1.6h-3.2V27.2z
	 M13.6,31.2h3.2v1.6h-3.2V31.2z M8,31.2h3.2v1.6H8V31.2z M8,35.2h3.2v1.6H8V35.2z M13.6,35.2h3.2v1.6h-3.2V35.2z M31.2,27.2h3.2v1.6
	h-3.2V27.2z M36.8,27.2H40v1.6h-3.2V27.2z M36.8,23.2H40v1.6h-3.2V23.2z M36.8,31.2H40v1.6h-3.2V31.2z M31.2,31.2h3.2v1.6h-3.2V31.2
	z M31.2,35.2h3.2v1.6h-3.2V35.2z M36.8,35.2H40v1.6h-3.2V35.2z"/>
</svg>
