<?xml version="1.0" encoding="utf-8"?>
<!-- Generator: Adobe Illustrator 21.0.2, SVG Export Plug-In . SVG Version: 6.00 Build 0)  -->
<svg version="1.1" id="Слой_1" xmlns="http://www.w3.org/2000/svg" xmlns:xlink="http://www.w3.org/1999/xlink" x="0px" y="0px"
	 viewBox="0 0 48 48" style="enable-background:new 0 0 48 48;" xml:space="preserve">
<style type="text/css">
	.st0{fill:url(#SVGID_1_);}
</style>
<linearGradient id="SVGID_1_" gradientUnits="userSpaceOnUse" x1="0.2201" y1="47.7799" x2="47.7799" y2="0.2201">
	<stop  offset="0" style="stop-color:#000000"/>
	<stop  offset="1" style="stop-color:#40AFBD"/>
</linearGradient>
<path class="st0" d="M47.2,0H0.8C0.3,0,0,0.3,0,0.8v46.4C0,47.7,0.3,48,0.8,48h46.4c0.5,0,0.8-0.3,0.8-0.8V0.8C48,0.3,47.7,0,47.2,0
	L47.2,0z M5.6,39.2h9.6v-1.6H5.6V23.2h7.2v-1.6H5.6v-8.8h12.8v-1.6H5.6V5.6h36.8v5.6H29.6v1.6h12.8v8.8h-7.2v1.6h7.2v14.4h-9.6v1.6
	h9.6v7.2H29.6V35.2H32c0.5,0,0.8-0.3,0.8-0.8v-4c0-0.5-0.3-0.8-0.8-0.8h-2l2.8-7c0.1-0.2,0.1-0.5-0.1-0.7l-8-12.6
	c-0.3-0.5-1-0.5-1.4,0l-8,12.6c-0.2,0.2-0.2,0.5-0.1,0.7l2.8,7H16c-0.5,0-0.8,0.3-0.8,0.8v4c0,0.5,0.3,0.8,0.8,0.8h2.4v11.2H5.6
	V39.2z M23.2,21.6h-1.6v1.6h4.8v-1.6h-1.6v-9.2l6.3,9.9l-2.9,7.3h-8.5l-2.9-7.3l6.3-9.9V21.6z M20,46.4V35.2h5.6v-1.6h-8.8v-2.4
	h14.4v2.4h-2.4c-0.5,0-0.8,0.3-0.8,0.8v12H20z M46.4,46.4H44V4.8C44,4.3,43.7,4,43.2,4H4.8C4.3,4,4,4.3,4,4.8v41.6H1.6V1.6h44.8
	V46.4z M46.4,46.4 M8,7.2h3.2v1.6H8V7.2z M13.6,7.2h3.2v1.6h-3.2V7.2z"/>
</svg>
