<?xml version="1.0" encoding="utf-8"?>
<!-- Generator: Adobe Illustrator 21.0.2, SVG Export Plug-In . SVG Version: 6.00 Build 0)  -->
<svg version="1.1" id="Слой_1" xmlns="http://www.w3.org/2000/svg" xmlns:xlink="http://www.w3.org/1999/xlink" x="0px" y="0px"
	 viewBox="0 0 48 48" style="enable-background:new 0 0 48 48;" xml:space="preserve">
<style type="text/css">
	.st0{fill:url(#SVGID_1_);}
</style>
<linearGradient id="SVGID_1_" gradientUnits="userSpaceOnUse" x1="0.2201" y1="47.7799" x2="47.7799" y2="0.2201">
	<stop  offset="0" style="stop-color:#000000"/>
	<stop  offset="0.9782" style="stop-color:#9E263B"/>
	<stop  offset="1" style="stop-color:#A02139"/>
</linearGradient>
<path class="st0" d="M47.2,0H0.8C0.3,0,0,0.3,0,0.8v8.8c0,0.5,0.3,0.8,0.8,0.8h46.4c0.5,0,0.8-0.3,0.8-0.8V0.8C48,0.3,47.7,0,47.2,0
	L47.2,0z M46.4,8.8H1.6V1.6h44.8V8.8z M46.4,8.8 M4,3.2h4.8v1.6H4V3.2z M4,5.6h4.8v1.6H4V5.6z M0.8,31.2h26.4c0.5,0,0.8-0.3,0.8-0.8
	v-16c0-0.5-0.3-0.8-0.8-0.8H0.8c-0.5,0-0.8,0.3-0.8,0.8v16C0,30.9,0.3,31.2,0.8,31.2L0.8,31.2z M20.7,25l5.7-2.9v6.8L20.7,25z
	 M24.7,29.6H3.4l11-7L24.7,29.6z M26.4,15.2v5.1l-7.2,3.6l-4.4-3c-0.2-0.2-0.6-0.2-0.9,0l-12.3,8V15.2H26.4z M26.4,15.2 M6.8,22.4
	c1.5,0,2.8-1.3,2.8-2.8c0-1.5-1.3-2.8-2.8-2.8c-1.5,0-2.8,1.3-2.8,2.8C4,21.1,5.3,22.4,6.8,22.4L6.8,22.4z M6.8,18.4
	C7.4,18.4,8,19,8,19.6c0,0.6-0.6,1.2-1.2,1.2c-0.6,0-1.2-0.6-1.2-1.2C5.6,19,6.2,18.4,6.8,18.4L6.8,18.4z M6.8,18.4 M30.4,13.6h12
	v1.6h-12V13.6z M30.4,17.6H48v1.6H30.4V17.6z M30.4,21.6H48v1.6H30.4V21.6z M30.4,25.6H48v1.6H30.4V25.6z M30.4,29.6H48v1.6H30.4
	V29.6z M18.4,34.4H0.8c-0.5,0-0.8,0.3-0.8,0.8v12C0,47.7,0.3,48,0.8,48h17.6c0.5,0,0.8-0.3,0.8-0.8v-12
	C19.2,34.7,18.9,34.4,18.4,34.4L18.4,34.4z M17.6,46.4h-16V36h16V46.4z M17.6,46.4 M47.2,34.4H22.4c-0.5,0-0.8,0.3-0.8,0.8v12
	c0,0.5,0.3,0.8,0.8,0.8h24.8c0.5,0,0.8-0.3,0.8-0.8v-12C48,34.7,47.7,34.4,47.2,34.4L47.2,34.4z M38.4,36v10.4H32V36H38.4z M23.2,36
	h7.2v10.4h-7.2V36z M46.4,46.4H40V36h6.4V46.4z M46.4,46.4 M8,40h3.2v1.6H8V40z M12.8,40H16v1.6h-3.2V40z M3.2,40h3.2v1.6H3.2V40z"
	/>
</svg>
