<?xml version="1.0" encoding="utf-8"?>
<!-- Generator: Adobe Illustrator 21.0.2, SVG Export Plug-In . SVG Version: 6.00 Build 0)  -->
<svg version="1.1" id="Слой_1" xmlns="http://www.w3.org/2000/svg" xmlns:xlink="http://www.w3.org/1999/xlink" x="0px" y="0px"
	 viewBox="0 0 47.4 48" style="enable-background:new 0 0 47.4 48;" xml:space="preserve">
<style type="text/css">
	.st0{fill:url(#SVGID_1_);}
</style>
<linearGradient id="SVGID_1_" gradientUnits="userSpaceOnUse" x1="-1.7799" y1="45.7799" x2="38.3604" y2="5.6396">
	<stop  offset="0" style="stop-color:#000000"/>
	<stop  offset="1" style="stop-color:#46A253"/>
</linearGradient>
<path class="st0" d="M47.4,20c0-7-5.8-12.8-12.8-12.8c-7,0-12.6,5.4-13,12H6.4c-0.5,0-0.8,0.3-0.8,0.8v6.4c0,0.5,0.3,0.8,0.8,0.8
	h32.8c0.5,0,0.8-0.3,0.8-0.8V20c0-0.5-0.3-0.8-0.8-0.8H23.3c0.4-5.8,5.4-10.4,11.4-10.4c6.2,0,11.2,5,11.2,11.2
	c0,5.4-3.8,10.1-9.2,11c-0.4,0.1-0.6,0.4-0.6,0.8v5h-2.4V32H32v4.8h-1.6c-0.5,0-0.8,0.3-0.8,0.8v8.8h-28V1.6h24.8v5.6H28V2.7
	l2.6,2.6l1.1-1.1l-4-4C27.6,0.1,27.4,0,27.2,0H0.8C0.3,0,0,0.3,0,0.8v46.4C0,47.7,0.3,48,0.8,48h38.4c0.5,0,0.8-0.3,0.8-0.8v-9.6
	c0-0.5-0.3-0.8-0.8-0.8h-1.6v-4.3C43.4,31.1,47.4,26,47.4,20L47.4,20z M7.2,20.8h23.2v4.8H7.2V20.8z M38.4,25.6H32v-4.8h6.4V25.6z
	 M38.4,46.4h-7.2v-1.6h4v-1.6h-4v-1.6h4V40h-4v-1.6h7.2V46.4z M38.4,46.4 M5.6,4.8H12v1.6H5.6V4.8z M5.6,12.8h11.2v1.6H5.6V12.8z
	 M5.6,8.8h15.2v1.6H5.6V8.8z M5.6,32h16v1.6h-16V32z M5.6,36.8h20.8v1.6H5.6V36.8z M5.6,41.6h20.8v1.6H5.6V41.6z M9.6,22.4H12V24
	H9.6V22.4z M14.4,22.4h2.4V24h-2.4V22.4z M19.2,22.4h2.4V24h-2.4V22.4z M24,22.4h2.4V24H24V22.4z"/>
</svg>
