<?xml version="1.0" encoding="utf-8"?>
<!-- Generator: Adobe Illustrator 21.0.2, SVG Export Plug-In . SVG Version: 6.00 Build 0)  -->
<svg version="1.1" id="Слой_1" xmlns="http://www.w3.org/2000/svg" xmlns:xlink="http://www.w3.org/1999/xlink" x="0px" y="0px"
	 viewBox="0 0 48 48" style="enable-background:new 0 0 48 48;" xml:space="preserve">
<style type="text/css">
	.st0{fill:url(#SVGID_1_);}
</style>
<linearGradient id="SVGID_1_" gradientUnits="userSpaceOnUse" x1="4.5453" y1="51.6641" x2="44.6853" y2="11.524">
	<stop  offset="0" style="stop-color:#000000"/>
	<stop  offset="1" style="stop-color:#47AFBD"/>
</linearGradient>
<path class="st0" d="M47.2,42.4h-0.8V16.8c0-1.4-1-2.4-2.4-2.4h-4.8V16H44c0.5,0,0.8,0.3,0.8,0.8v26.4c0,0.5,0.3,0.8,0.8,0.8h0.8
	v2.4H1.6V44h41.6v-1.6h-40V16.8C3.2,16.3,3.5,16,4,16h5.6v-1.6H4c-1.4,0-2.4,1-2.4,2.4v25.6H0.8c-0.5,0-0.8,0.3-0.8,0.8v3.2
	c0,1,0.6,1.6,1.6,1.6h44.8c1,0,1.6-0.6,1.6-1.6v-3.2C48,42.7,47.7,42.4,47.2,42.4L47.2,42.4z M47.2,42.4 M5.6,39.2V18.4h4v-1.6H4.8
	c-0.5,0-0.8,0.3-0.8,0.8V40c0,0.5,0.3,0.8,0.8,0.8h38.4c0.5,0,0.8-0.3,0.8-0.8V17.6c0-0.5-0.3-0.8-0.8-0.8h-4v1.6h3.2v20.8h-8.8V0.8
	c0-0.5-0.3-0.8-0.8-0.8h-8C24.3,0,24,0.3,24,0.8v38.4h-3.2V8c0-0.2-0.1-0.4-0.2-0.5l-2.3-7C18.2,0.2,17.9,0,17.6,0
	c-0.3,0-0.6,0.2-0.7,0.6l-2.3,7c-0.1,0.2-0.2,0.3-0.2,0.5v31.2H5.6z M25.6,35.2h3.2v-1.6h-3.2v-3.2h3.2v-1.6h-3.2v-3.2h3.2V24h-3.2
	v-3.2h3.2v-1.6h-3.2V16h3.2v-1.6h-3.2v-3.2h3.2V9.6h-3.2V6.4h3.2V4.8h-3.2V1.6H32v37.6h-6.4V35.2z M16,8.8h0.8v24.8H16V8.8z
	 M18.4,8.8h0.8v24.8h-0.8V8.8z M17.6,3.4l1.3,3.8h-2.6L17.6,3.4z M16,35.2h3.2v4H16V35.2z M16,35.2 M7.2,20h1.6v1.6H7.2V20z
	 M11.2,20h1.6v1.6h-1.6V20z M7.2,23.2h1.6v1.6H7.2V23.2z M11.2,23.2h1.6v1.6h-1.6V23.2z M7.2,26.4h1.6V28H7.2V26.4z M11.2,26.4h1.6
	V28h-1.6V26.4z M7.2,29.6h1.6v1.6H7.2V29.6z M11.2,29.6h1.6v1.6h-1.6V29.6z M7.2,32.8h1.6v1.6H7.2V32.8z M11.2,32.8h1.6v1.6h-1.6
	V32.8z M7.2,36h1.6v1.6H7.2V36z M11.2,36h1.6v1.6h-1.6V36z M35.2,20h1.6v1.6h-1.6V20z M39.2,20h1.6v1.6h-1.6V20z M35.2,23.2h1.6v1.6
	h-1.6V23.2z M39.2,23.2h1.6v1.6h-1.6V23.2z M35.2,26.4h1.6V28h-1.6V26.4z M39.2,26.4h1.6V28h-1.6V26.4z M35.2,29.6h1.6v1.6h-1.6
	V29.6z M39.2,29.6h1.6v1.6h-1.6V29.6z M35.2,32.8h1.6v1.6h-1.6V32.8z M39.2,32.8h1.6v1.6h-1.6V32.8z M35.2,36h1.6v1.6h-1.6V36z
	 M39.2,36h1.6v1.6h-1.6V36z"/>
</svg>
