<?xml version="1.0" encoding="utf-8"?>
<!-- Generator: Adobe Illustrator 21.0.2, SVG Export Plug-In . SVG Version: 6.00 Build 0)  -->
<svg version="1.1" id="Слой_1" xmlns="http://www.w3.org/2000/svg" xmlns:xlink="http://www.w3.org/1999/xlink" x="0px" y="0px"
	 viewBox="0 0 48 48" style="enable-background:new 0 0 48 48;" xml:space="preserve">
<style type="text/css">
	.st0{fill:url(#SVGID_1_);}
</style>
<linearGradient id="SVGID_1_" gradientUnits="userSpaceOnUse" x1="0.2201" y1="47.7799" x2="47.7799" y2="0.2201">
	<stop  offset="0" style="stop-color:#000000"/>
	<stop  offset="1" style="stop-color:#F7A82D"/>
</linearGradient>
<path class="st0" d="M47.2,0H0.8C0.3,0,0,0.3,0,0.8v46.4C0,47.7,0.3,48,0.8,48h46.4c0.5,0,0.8-0.3,0.8-0.8V0.8C48,0.3,47.7,0,47.2,0
	L47.2,0z M46.4,1.6V24H29c2.2-1.6,3.8-4.2,3.8-7.2v-8c0-3-1.4-5.6-3.8-7.2H46.4z M46.4,29.6H1.6v-4h44.8V29.6z M1.6,36.8h44.8v4H1.6
	V36.8z M1.6,35.2v-4h44.8v4H1.6z M24,24c-4,0-7.2-3.2-7.2-7.2v-8c0-4,3.2-7.2,7.2-7.2c4,0,7.2,3.2,7.2,7.2v8C31.2,20.8,28,24,24,24
	L24,24z M1.6,1.6H19c-2.2,1.6-3.8,4.2-3.8,7.2v8c0,3,1.4,5.6,3.8,7.2H1.6V1.6z M1.6,46.4v-4h44.8v4H1.6z M1.6,46.4 M41.6,9.6h1.6
	V4.8c0-0.5-0.3-0.8-0.8-0.8h-4.8v1.6h4V9.6z M41.6,9.6 M5.6,5.6h4V4H4.8C4.3,4,4,4.3,4,4.8v4.8h1.6V5.6z M5.6,5.6 M5.6,16H4v4.8
	c0,0.5,0.3,0.8,0.8,0.8h4.8V20h-4V16z M5.6,16 M41.6,20h-4v1.6h4.8c0.5,0,0.8-0.3,0.8-0.8V16h-1.6V20z M41.6,20 M23.2,7.2h1.6
	c1.4,0,2.4,1,2.4,2.4h1.6c0-2.2-1.8-4-4-4V4h-1.6v1.6c-2.2,0-4,1.8-4,4c0,2.2,1.8,4,4,4h1.6c1.4,0,2.4,1,2.4,2.4
	c0,1.4-1,2.4-2.4,2.4h-1.6c-1.4,0-2.4-1-2.4-2.4h-1.6c0,2.2,1.8,4,4,4v1.6h1.6V20c2.2,0,4-1.8,4-4c0-2.2-1.8-4-4-4h-1.6
	c-1.4,0-2.4-1-2.4-2.4C20.8,8.2,21.8,7.2,23.2,7.2L23.2,7.2z M23.2,7.2 M36,12h2.4v1.6H36V12z M9.6,12H12v1.6H9.6V12z"/>
</svg>
