<?xml version="1.0" encoding="utf-8"?>
<!-- Generator: Adobe Illustrator 21.0.2, SVG Export Plug-In . SVG Version: 6.00 Build 0)  -->
<svg version="1.1" id="Слой_1" xmlns="http://www.w3.org/2000/svg" xmlns:xlink="http://www.w3.org/1999/xlink" x="0px" y="0px"
	 viewBox="0 0 70 70" style="enable-background:new 0 0 70 70;" xml:space="preserve">
<style type="text/css">
	.st0{fill:none;stroke:#000000;stroke-width:3;stroke-linecap:round;stroke-miterlimit:10;}
</style>
<g>
	<path d="M36,3c10.5,0,19,8.5,19,19v26c0,10.5-8.5,19-19,19c-10.5,0-19-8.5-19-19V22C17,11.5,25.5,3,36,3 M36,0L36,0
		C23.8,0,14,9.8,14,22v26c0,12.2,9.8,22,22,22h0c12.2,0,22-9.8,22-22V22C58,9.8,48.2,0,36,0L36,0z"/>
</g>
<g>
	<line class="st0" x1="35.5" y1="43.5" x2="35.5" y2="57.5"/>
</g>
</svg>
