<?xml version="1.0" encoding="utf-8"?>
<!-- Generator: Adobe Illustrator 21.0.2, SVG Export Plug-In . SVG Version: 6.00 Build 0)  -->
<svg version="1.1" id="Слой_1" xmlns="http://www.w3.org/2000/svg" xmlns:xlink="http://www.w3.org/1999/xlink" x="0px" y="0px"
	 viewBox="0 0 48 48" style="enable-background:new 0 0 48 48;" xml:space="preserve">
<style type="text/css">
	.st0{fill:url(#SVGID_1_);}
</style>
<linearGradient id="SVGID_1_" gradientUnits="userSpaceOnUse" x1="2.5306" y1="49.6494" x2="43.051" y2="9.129">
	<stop  offset="0" style="stop-color:#000000"/>
	<stop  offset="1" style="stop-color:#47A254"/>
</linearGradient>
<path class="st0" d="M47.2,42.4h-0.8V16.8c0-1.4-1-2.4-2.4-2.4h-4v-8c0-0.1,0-0.2-0.1-0.2V6.1c-0.1-0.1-0.1-0.2-0.2-0.2l-5.6-5.6
	c-0.1-0.1-0.2-0.1-0.2-0.2h-0.1c-0.1,0-0.2-0.1-0.2-0.1h-24C9.1,0,8.8,0.3,8.8,0.8v13.6H4c-1.4,0-2.4,1-2.4,2.4v25.6H0.8
	c-0.5,0-0.8,0.3-0.8,0.8v3.2c0,1,0.6,1.6,1.6,1.6h44.8c1,0,1.6-0.6,1.6-1.6v-3.2C48,42.7,47.7,42.4,47.2,42.4L47.2,42.4z M40,19.2
	h2.4V40H40V19.2z M37.3,5.6h-2.9V2.7L37.3,5.6z M10.4,1.6h22.4v4.8c0,0.5,0.3,0.8,0.8,0.8h4.8V40h-28V1.6z M5.6,40V19.2h3.2V40H5.6z
	 M46.4,46.4H1.6V44h41.6v-1.6h-40V16.8C3.2,16.3,3.5,16,4,16h4.8v1.6h-4c-0.5,0-0.8,0.3-0.8,0.8v22.4c0,0.5,0.3,0.8,0.8,0.8h38.4
	c0.5,0,0.8-0.3,0.8-0.8V18.4c0-0.5-0.3-0.8-0.8-0.8H40V16h4c0.5,0,0.8,0.3,0.8,0.8v26.4c0,0.5,0.3,0.8,0.8,0.8h0.8V46.4z M46.4,46.4
	 M16.8,16.5l-1-1l-1.1,1.1l1.6,1.6c0.2,0.2,0.3,0.2,0.6,0.2c0.2,0,0.4-0.1,0.6-0.2l4-4L20.2,13L16.8,16.5z M16.8,16.5 M23.2,13.6
	h3.2v1.6h-3.2V13.6z M23.2,16.8h11.2v1.6H23.2V16.8z M16.8,26.1l-1-1l-1.1,1.1l1.6,1.6c0.2,0.2,0.3,0.2,0.6,0.2
	c0.2,0,0.4-0.1,0.6-0.2l4-4l-1.1-1.1L16.8,26.1z M16.8,26.1 M23.2,23.2h3.2v1.6h-3.2V23.2z M23.2,26.4h11.2V28H23.2V26.4z
	 M16.8,34.9l-1-1L14.6,35l1.6,1.6c0.2,0.2,0.3,0.2,0.6,0.2c0.2,0,0.4-0.1,0.6-0.2l4-4l-1.1-1.1L16.8,34.9z M16.8,34.9 M23.2,32h3.2
	v1.6h-3.2V32z M23.2,35.2h11.2v1.6H23.2V35.2z M14.4,4h3.2v1.6h-3.2V4z M14.4,7.2H20v1.6h-5.6V7.2z"/>
</svg>
