<?xml version="1.0" encoding="utf-8"?>
<!-- Generator: Adobe Illustrator 21.0.2, SVG Export Plug-In . SVG Version: 6.00 Build 0)  -->
<svg version="1.1" id="Слой_1" xmlns="http://www.w3.org/2000/svg" xmlns:xlink="http://www.w3.org/1999/xlink" x="0px" y="0px"
	 viewBox="0 0 48 48" style="enable-background:new 0 0 48 48;" xml:space="preserve">
<style type="text/css">
	.st0{fill:url(#SVGID_1_);}
</style>
<linearGradient id="SVGID_1_" gradientUnits="userSpaceOnUse" x1="0" y1="24" x2="48" y2="24">
	<stop  offset="0" style="stop-color:#000000"/>
	<stop  offset="1" style="stop-color:#47AFBD"/>
</linearGradient>
<path class="st0" d="M45.6,0H2.4C1,0,0,1,0,2.4v44.8C0,47.7,0.3,48,0.8,48h46.4c0.5,0,0.8-0.3,0.8-0.8V2.4C48,1,47,0,45.6,0L45.6,0z
	 M2.4,1.6h43.2c0.5,0,0.8,0.3,0.8,0.8v4H1.6v-4C1.6,1.9,1.9,1.6,2.4,1.6L2.4,1.6z M34.4,20H36v-1.6h-4V12h8v6.4h-1.6
	c-0.5,0-0.8,0.3-0.8,0.8v13.6h-3.2V20z M33.6,34.4h8.8v2.4H29.6v-2.4H33.6z M32,46.4v-1.6h3.2v-1.6H32v-1.6h3.2V40H32v-1.6h8v8H32z
	 M41.6,46.4v-8h1.6c0.5,0,0.8-0.3,0.8-0.8v-4c0-0.5-0.3-0.8-0.8-0.8h-4V20h1.6c0.5,0,0.8-0.3,0.8-0.8v-8c0-0.5-0.3-0.8-0.8-0.8h-9.6
	c-0.5,0-0.8,0.3-0.8,0.8v8c0,0.5,0.3,0.8,0.8,0.8h1.6v12.8h-4c-0.5,0-0.8,0.3-0.8,0.8v4c0,0.5,0.3,0.8,0.8,0.8h1.6v8H1.6V8h44.8
	v38.4H41.6z M41.6,46.4 M4,3.2h3.2v1.6H4V3.2z M9.6,3.2h3.2v1.6H9.6V3.2z M12,12h1.6v30.4H12V12z M4.8,12h4v1.6h-4V12z M4.8,16.8h4
	v1.6h-4V16.8z M4.8,21.6h4v1.6h-4V21.6z M4.8,26.4h4V28h-4V26.4z M4.8,31.2h4v1.6h-4V31.2z M4.8,36h4v1.6h-4V36z M4.8,40.8h4v1.6h-4
	V40.8z M16.8,12h10.4v1.6H16.8V12z M16.8,16.8h10.4v1.6H16.8V16.8z M16.8,21.6h12v1.6h-12V21.6z M16.8,26.4h12V28h-12V26.4z
	 M16.8,31.2h8.8v1.6h-8.8V31.2z M16.8,36h8.8v1.6h-8.8V36z M16.8,40.8h8.8v1.6h-8.8V40.8z"/>
</svg>
