<?xml version="1.0" encoding="utf-8"?>
<!-- Generator: Adobe Illustrator 21.0.2, SVG Export Plug-In . SVG Version: 6.00 Build 0)  -->
<svg version="1.1" id="Слой_1" xmlns="http://www.w3.org/2000/svg" xmlns:xlink="http://www.w3.org/1999/xlink" x="0px" y="0px"
	 viewBox="0 0 48 48" style="enable-background:new 0 0 48 48;" xml:space="preserve">
<style type="text/css">
	.st0{fill:url(#SVGID_1_);}
</style>
<linearGradient id="SVGID_1_" gradientUnits="userSpaceOnUse" x1="10.954" y1="44.1154" x2="51.3146" y2="3.7548">
	<stop  offset="0" style="stop-color:#000000"/>
	<stop  offset="1" style="stop-color:#F7A82D"/>
</linearGradient>
<path class="st0" d="M32.8,42.4h-1.6V8c0-0.2-0.1-0.4-0.2-0.5l-2.3-7C28.6,0.2,28.3,0,28,0c-0.3,0-0.6,0.2-0.7,0.6l-2.3,7
	c-0.1,0.2-0.2,0.3-0.2,0.5v39.2c0,0.5,0.3,0.8,0.8,0.8h4.8c0.5,0,0.8-0.3,0.8-0.8V44h2.4c0.5,0,0.8-0.3,0.8-0.8v-24h-1.6V42.4z
	 M26.4,8.8h3.2v28.8h-3.2V8.8z M28,3.4l1.3,3.8h-2.6L28,3.4z M29.6,46.4h-3.2v-7.2h3.2V46.4z M29.6,46.4 M47.2,0h-8.8
	c-0.5,0-0.8,0.3-0.8,0.8v46.4c0,0.5,0.3,0.8,0.8,0.8h8.8c0.5,0,0.8-0.3,0.8-0.8V0.8C48,0.3,47.7,0,47.2,0L47.2,0z M46.4,46.4h-7.2
	v-5.6h4v-1.6h-4v-6.4h4v-1.6h-4v-6.4h4v-1.6h-4v-6.4h4v-1.6h-4V8.8h4V7.2h-4V1.6h7.2V46.4z M46.4,46.4 M11.2,8C5,8,0,13,0,19.2
	c0,4.3,2.5,8.2,6.4,10.1v9.9c0,0.5,0.3,0.8,0.8,0.8h3.2v2.4H12V40h3.2c0.5,0,0.8-0.3,0.8-0.8v-9.9c3.9-1.8,6.4-5.8,6.4-10.1
	C22.4,13,17.4,8,11.2,8L11.2,8z M14.4,38.4H8V36h6.4V38.4z M14.9,28.1c-0.3,0.1-0.5,0.4-0.5,0.7v5.6H8v-1.6h4v-1.6H8v-2.4
	c0-0.3-0.2-0.6-0.5-0.7c-3.6-1.5-5.9-5-5.9-8.9c0-5.3,4.3-9.6,9.6-9.6c5.3,0,9.6,4.3,9.6,9.6C20.8,23,18.5,26.6,14.9,28.1L14.9,28.1
	z M14.9,28.1 M13,14.6l-1.8,1.8l-1.8-1.8l-1.1,1.1l2.2,2.2v8.5H12v-8.5l2.2-2.2L13,14.6z M13,14.6"/>
</svg>
