<?xml version="1.0" encoding="utf-8"?>
<!-- Generator: Adobe Illustrator 21.0.2, SVG Export Plug-In . SVG Version: 6.00 Build 0)  -->
<svg version="1.1" id="Слой_1" xmlns="http://www.w3.org/2000/svg" xmlns:xlink="http://www.w3.org/1999/xlink" x="0px" y="0px"
	 viewBox="0 0 48 48" style="enable-background:new 0 0 48 48;" xml:space="preserve">
<style type="text/css">
	.st0{fill:url(#SVGID_1_);}
</style>
<linearGradient id="SVGID_1_" gradientUnits="userSpaceOnUse" x1="0.4548" y1="48.0145" x2="47.5452" y2="0.924">
	<stop  offset="0" style="stop-color:#000000"/>
	<stop  offset="1" style="stop-color:#47A254"/>
</linearGradient>
<path class="st0" d="M45.6,0H2.4C1,0,0,1,0,2.4v44.8C0,47.7,0.3,48,0.8,48h46.4c0.5,0,0.8-0.3,0.8-0.8V2.4C48,1,47,0,45.6,0L45.6,0z
	 M46.4,46.4H1.6V8h44.8V46.4z M46.4,6.4H1.6v-4c0-0.5,0.3-0.8,0.8-0.8h43.2c0.5,0,0.8,0.3,0.8,0.8V6.4z M46.4,6.4 M4,3.2h3.2v1.6H4
	V3.2z M9.6,3.2h3.2v1.6H9.6V3.2z M5.6,42.4h16c0.5,0,0.8-0.3,0.8-0.8V32c0-0.5-0.3-0.8-0.8-0.8h-7.2v-2.4h19.2v2.4h-7.2
	c-0.5,0-0.8,0.3-0.8,0.8v9.6c0,0.5,0.3,0.8,0.8,0.8h16c0.5,0,0.8-0.3,0.8-0.8V32c0-0.5-0.3-0.8-0.8-0.8h-7.2V28
	c0-0.5-0.3-0.8-0.8-0.8h-9.6v-4h8c0.5,0,0.8-0.3,0.8-0.8v-9.6c0-0.5-0.3-0.8-0.8-0.8H15.2c-0.5,0-0.8,0.3-0.8,0.8v9.6
	c0,0.5,0.3,0.8,0.8,0.8h8v4h-9.6c-0.5,0-0.8,0.3-0.8,0.8v3.2H5.6c-0.5,0-0.8,0.3-0.8,0.8v9.6C4.8,42.1,5.1,42.4,5.6,42.4L5.6,42.4z
	 M41.6,32.8v8H27.2v-8H41.6z M16,21.6v-8h16v8H16z M6.4,32.8h14.4v8H6.4V32.8z M6.4,32.8 M15.2,34.4h3.2V36h-3.2V34.4z M10.4,37.6h8
	v1.6h-8V37.6z M36,34.4h3.2V36H36V34.4z M31.2,37.6h8v1.6h-8V37.6z M26.4,15.2h3.2v1.6h-3.2V15.2z M21.6,18.4h8V20h-8V18.4z"/>
</svg>
