<?xml version="1.0" encoding="utf-8"?>
<!-- Generator: Adobe Illustrator 21.0.2, SVG Export Plug-In . SVG Version: 6.00 Build 0)  -->
<svg version="1.1" id="Слой_1" xmlns="http://www.w3.org/2000/svg" xmlns:xlink="http://www.w3.org/1999/xlink" x="0px" y="0px"
	 viewBox="0 0 48 48" style="enable-background:new 0 0 48 48;" xml:space="preserve">
<style type="text/css">
	.st0{fill:url(#SVGID_1_);}
</style>
<linearGradient id="SVGID_1_" gradientUnits="userSpaceOnUse" x1="2.8308" y1="42.0299" x2="46.2102" y2="-1.3495">
	<stop  offset="0" style="stop-color:#000000"/>
	<stop  offset="1" style="stop-color:#9F233B"/>
</linearGradient>
<path class="st0" d="M47.2,0H0.8C0.3,0,0,0.3,0,0.8v24c0,0.5,0.3,0.8,0.8,0.8h6.4V24H4.8v-9.6h2.4v-1.6H1.6V1.6h44.8v23.2H48v-24
	C48,0.3,47.7,0,47.2,0L47.2,0z M3.2,14.4V24H1.6v-9.6H3.2z M3.2,14.4 M21.6,32.8h-4V20h1.6c0.5,0,0.8-0.3,0.8-0.8v-8
	c0-0.5-0.3-0.8-0.8-0.8H9.6c-0.5,0-0.8,0.3-0.8,0.8v8c0,0.5,0.3,0.8,0.8,0.8h1.6v12.8h-4c-0.5,0-0.8,0.3-0.8,0.8v4
	c0,0.5,0.3,0.8,0.8,0.8h1.6V48h1.6v-2.4h3.2V44h-3.2v-2.4h3.2V40h-3.2v-1.6h8V48H20v-9.6h1.6c0.5,0,0.8-0.3,0.8-0.8v-4
	C22.4,33.1,22.1,32.8,21.6,32.8L21.6,32.8z M10.4,18.4V12h8v6.4h-1.6c-0.5,0-0.8,0.3-0.8,0.8v13.6h-3.2V20h1.6v-1.6H10.4z
	 M20.8,36.8H8v-2.4h12.8V36.8z M20.8,36.8 M4,4h4v1.6H4V4z M11.2,4h4v1.6h-4V4z M18.4,4h4v1.6h-4V4z M25.6,4h4v1.6h-4V4z M21.6,14.4
	h3.2V24h-3.2v1.6h8V24h-3.2v-9.6h3.2v-1.6h-8V14.4z M21.6,14.4 M47.2,33.6H45c-0.1-0.1-0.1-0.2-0.2-0.3l1.6-1.4
	c0.2-0.2,0.2-0.3,0.2-0.6c0-0.2-0.1-0.4-0.2-0.6L43,27.4c-0.3-0.3-0.8-0.3-1.1,0l-1.5,1.5c-0.2-0.1-0.2-0.1-0.3-0.2v-2.3
	c0-0.5-0.3-0.8-0.8-0.8h-4.8c-0.5,0-0.8,0.3-0.8,0.8v2.2c-0.1,0.1-0.2,0.1-0.3,0.2l-1.5-1.5c-0.3-0.3-0.8-0.3-1.1,0l-3.4,3.4
	c-0.2,0.2-0.2,0.3-0.2,0.6c0,0.2,0.1,0.4,0.2,0.6l1.5,1.5c-0.1,0.2-0.1,0.2-0.2,0.3h-2.3c-0.5,0-0.8,0.3-0.8,0.8v4.8
	c0,0.5,0.3,0.8,0.8,0.8h2.2c0.1,0.1,0.1,0.2,0.2,0.3l-1.5,1.5c-0.2,0.2-0.2,0.3-0.2,0.6c0,0.2,0.1,0.4,0.2,0.6l3.4,3.4
	c0.3,0.3,0.8,0.3,1.1,0l1.5-1.5c0.2,0.1,0.2,0.1,0.3,0.2v2.3c0,0.5,0.3,0.8,0.8,0.8h4.8c0.5,0,0.8-0.3,0.8-0.8V45
	c0.1-0.1,0.2-0.1,0.3-0.2l1.5,1.5c0.3,0.3,0.8,0.3,1.1,0l3.4-3.4c0.2-0.2,0.2-0.3,0.2-0.6c0-0.2-0.1-0.4-0.2-0.6l-1.5-1.5
	c0.1-0.1,0.1-0.2,0.2-0.3h2.2c0.5,0,0.8-0.3,0.8-0.8v-4.8C48,33.9,47.7,33.6,47.2,33.6L47.2,33.6z M46.4,38.4h-2
	c-0.4,0-0.7,0.3-0.8,0.6c0,0.2-0.3,0.8-0.4,1c-0.1,0.2-0.2,0.3-0.2,0.5c0,0.2,0.1,0.4,0.2,0.6l1.4,1.4l-2.2,2.2L41,43.3
	c-0.2-0.2-0.3-0.2-0.6-0.2c-0.2,0-0.3,0.1-0.5,0.2c-0.2,0.1-0.8,0.3-1,0.4c-0.4,0.1-0.6,0.4-0.6,0.8v2h-3.2v-2
	c0-0.2-0.1-0.4-0.2-0.6c-0.2-0.2-1.5-0.8-1.8-0.8c-0.2,0-0.4,0.1-0.6,0.2l-1.4,1.4L29,42.4l1.4-1.4c0.2-0.2,0.2-0.3,0.2-0.6
	c0-0.2-0.1-0.3-0.2-0.5c-0.1-0.2-0.3-0.8-0.4-1c-0.1-0.4-0.4-0.6-0.8-0.6h-2v-3.2h2c0.2,0,0.4-0.1,0.6-0.2c0.2-0.2,0.8-1.5,0.8-1.8
	c0-0.2-0.1-0.4-0.2-0.6L29,31.2l2.2-2.2l1.4,1.4c0.2,0.2,0.3,0.2,0.6,0.2c0.2,0,0.3-0.1,0.5-0.2c0.2-0.1,0.8-0.3,1-0.4
	c0.4-0.1,0.6-0.4,0.6-0.8v-2h3.2v2c0,0.2,0.1,0.4,0.2,0.6c0.2,0.2,1.5,0.8,1.8,0.8c0.2,0,0.4-0.1,0.6-0.2l1.4-1.4l2.2,2.2l-1.4,1.4
	c-0.2,0.2-0.2,0.3-0.2,0.6c0,0.2,0.1,0.3,0.2,0.5c0.1,0.2,0.3,0.8,0.4,1c0.1,0.4,0.4,0.6,0.8,0.6h2V38.4z M46.4,38.4 M36.8,33.6
	c-1.8,0-3.2,1.4-3.2,3.2c0,1.8,1.4,3.2,3.2,3.2c1.8,0,3.2-1.4,3.2-3.2C40,35,38.6,33.6,36.8,33.6L36.8,33.6z M36.8,38.4
	c-0.9,0-1.6-0.7-1.6-1.6s0.7-1.6,1.6-1.6s1.6,0.7,1.6,1.6S37.7,38.4,36.8,38.4L36.8,38.4z M36.8,38.4 M34.4,23.2V7.5l1,1l1.1-1.1
	L34.2,5c-0.3-0.3-0.8-0.3-1.1,0l-2.4,2.4l1.1,1.1l1-1v15.7H34.4z M34.4,23.2 M40.8,5.6v15.7l-1-1l-1.1,1.1l2.4,2.4
	c0.2,0.2,0.3,0.2,0.6,0.2c0.2,0,0.4-0.1,0.6-0.2l2.4-2.4l-1.1-1.1l-1,1V5.6H40.8z M40.8,5.6"/>
</svg>
