<?xml version="1.0" encoding="utf-8"?>
<!-- Generator: Adobe Illustrator 21.0.2, SVG Export Plug-In . SVG Version: 6.00 Build 0)  -->
<svg version="1.1" id="Слой_1" xmlns="http://www.w3.org/2000/svg" xmlns:xlink="http://www.w3.org/1999/xlink" x="0px" y="0px"
	 viewBox="0 0 48 48" style="enable-background:new 0 0 48 48;" xml:space="preserve">
<style type="text/css">
	.st0{fill:url(#SVGID_1_);}
</style>
<linearGradient id="SVGID_1_" gradientUnits="userSpaceOnUse" x1="0.1101" y1="48.1101" x2="43.0711" y2="5.1491">
	<stop  offset="0" style="stop-color:#000000"/>
	<stop  offset="1" style="stop-color:#F7A82D"/>
</linearGradient>
<path class="st0" d="M48,10.4c0-0.1,0-0.2-0.1-0.2v-0.1c-0.1-0.1-0.1-0.2-0.2-0.2l-9.6-9.6c-0.1-0.1-0.2-0.1-0.2-0.2h-0.1
	c-0.1,0-0.2-0.1-0.2-0.1H0.8C0.3,0,0,0.3,0,0.8V48h1.6V1.6h35.2v8.8c0,0.5,0.3,0.8,0.8,0.8h8.8V48H48V10.4z M38.4,9.6V2.7l6.9,6.9
	H38.4z M38.4,9.6 M43.9,20.4L40.7,14c-0.3-0.6-1.2-0.6-1.4,0l-3.2,6.4c-0.2,0.2-0.2,0.4-0.1,0.6v27h1.6V21.6h1.6V48h1.6V21.6h1.6V48
	H44V20.9C44,20.7,44,20.6,43.9,20.4L43.9,20.4z M38.1,20l1.9-3.8l1.9,3.8H38.1z M38.1,20 M32.8,10.4h-9.6c-0.5,0-0.8,0.3-0.8,0.8V48
	H24v-2.4h4V44h-4v-5.6h4v-1.6h-4v-6.4h4v-1.6h-4v-6.4h4v-1.6h-4V16h4v-1.6h-4V12h8v36h1.6V11.2C33.6,10.7,33.3,10.4,32.8,10.4
	L32.8,10.4z M32.8,10.4 M4,4h6.4v1.6H4V4z M4,7.2h11.2v1.6H4V7.2z M4,10.4h1.6V12H4V10.4z M7.2,10.4h1.6V12H7.2V10.4z M10.4,10.4H12
	V12h-1.6V10.4z M13.6,10.4h1.6V12h-1.6V10.4z M6.4,20.5l-1-1l-1.1,1.1l1.6,1.6c0.2,0.2,0.3,0.2,0.6,0.2c0.2,0,0.4-0.1,0.6-0.2l4-4
	L9.8,17L6.4,20.5z M6.4,20.5 M6.4,30.9l-1-1L4.2,31l1.6,1.6c0.2,0.2,0.3,0.2,0.6,0.2c0.2,0,0.4-0.1,0.6-0.2l4-4l-1.1-1.1L6.4,30.9z
	 M6.4,30.9 M6.4,41.3l-1-1l-1.1,1.1L5.8,43c0.2,0.2,0.3,0.2,0.6,0.2c0.2,0,0.4-0.1,0.6-0.2l4-4l-1.1-1.1L6.4,41.3z M6.4,41.3
	 M12,20.8h8v1.6h-8V20.8z M15.2,17.6h1.6v1.6h-1.6V17.6z M18.4,17.6H20v1.6h-1.6V17.6z M12,31.2h8v1.6h-8V31.2z M15.2,28h1.6v1.6
	h-1.6V28z M18.4,28H20v1.6h-1.6V28z M12,41.6h8v1.6h-8V41.6z M15.2,38.4h1.6V40h-1.6V38.4z M18.4,38.4H20V40h-1.6V38.4z"/>
</svg>
