<svg xmlns="http://www.w3.org/2000/svg" width="35" height="30" viewBox="0 0 35 30"><path fill="white" fill-rule="nonzero" d="M18.969 21.682a1.053 1.053 0 0 0 0 1.513 1.11 1.11 0 0 0 1.546 0l7.546-7.386c.228-.222.325-.519.31-.81a1.043 1.043 0 0 0-.31-.81l-7.546-7.385a1.11 1.11 0 0 0-1.546 0 1.053 1.053 0 0 0 0 1.513l5.734 5.613H1.093C.49 13.93 0 14.41 0 15c0 .59.49 1.07 1.094 1.07h23.61l-5.735 5.612zM30.625.014H8.75c-2.416 0-4.375 1.917-4.375 4.282v4.281h2.188V4.296c0-1.182.978-2.141 2.187-2.141h21.875c1.209 0 2.188.959 2.188 2.14v21.41c0 1.181-.98 2.14-2.188 2.14H8.75c-1.209 0-2.188-.958-2.188-2.14v-4.282H4.376v4.281c0 2.365 1.959 4.282 4.375 4.282h21.875c2.416 0 4.375-1.917 4.375-4.282V4.296C35 1.93 33.041.014 30.625.014z"></path></svg>