<?xml version="1.0" encoding="utf-8"?>
<!-- Generator: Adobe Illustrator 19.2.0, SVG Export Plug-In . SVG Version: 6.00 Build 0)  -->
<svg version="1.1" id="Слой_1" xmlns="http://www.w3.org/2000/svg" xmlns:xlink="http://www.w3.org/1999/xlink" x="0px" y="0px"
	 viewBox="0 0 299.9 299.9" style="enable-background:new 0 0 299.9 299.9;" xml:space="preserve">
<style type="text/css">
	.st0{fill:url(#SVGID_1_);}
	.st1{enable-background:new    ;}
	.st2{fill:#FEFEFF;}
</style>
<title>ЛевУспенский</title>
<linearGradient id="SVGID_1_" gradientUnits="userSpaceOnUse" x1="-24.5509" y1="190.7957" x2="317.2491" y2="114.8957" gradientTransform="matrix(1 0 0 -1 0 302)">
	<stop  offset="0" style="stop-color:#5B6EC0"/>
	<stop  offset="1" style="stop-color:#4BC4E7"/>
</linearGradient>
<path class="st0" d="M12,0h275.9c6.6,0,12,5.4,12,12v275.9c0,6.6-5.4,12-12,12H12c-6.6,0-12-5.4-12-12V12C0,5.4,5.4,0,12,0z"/>
<g class="st1">
	<path class="st2" d="M77.7,36h-2.6V22.5h-4.5c-0.6,4.6-1,7.7-1.4,9.4c-0.3,1.7-0.8,2.8-1.4,3.5c-0.6,0.6-1.4,1-2.4,0.9
		c-0.5,0-1-0.1-1.5-0.3v-2.1c0.4,0.2,0.8,0.3,1.2,0.3c0.5,0,0.9-0.3,1.2-0.9c0.3-0.6,0.6-2,1-4.1c0.3-2.1,0.8-5,1.2-8.8h9.2V36z"/>
	<path class="st2" d="M86.8,36.2c-1.8,0-3.3-0.5-4.3-1.6c-1-1.1-1.6-2.6-1.6-4.5c0-1.9,0.5-3.5,1.5-4.6s2.3-1.7,4-1.7
		c1.6,0,2.8,0.5,3.7,1.4c0.9,1,1.4,2.3,1.4,3.9v1.4h-7.9c0,1.2,0.3,2,0.9,2.7c0.6,0.6,1.4,0.9,2.5,0.9c0.7,0,1.4-0.1,2-0.2
		c0.6-0.1,1.3-0.4,1.9-0.7v2.1c-0.6,0.3-1.2,0.5-1.9,0.6C88.3,36.2,87.6,36.2,86.8,36.2z M86.3,25.8c-0.8,0-1.4,0.3-1.9,0.8
		s-0.8,1.3-0.9,2.2h5.4c0-1-0.3-1.7-0.7-2.2C87.7,26.1,87.1,25.8,86.3,25.8z"/>
	<path class="st2" d="M104.6,27.2c0,1.4-0.8,2.3-2.5,2.5v0.1c0.9,0.1,1.6,0.4,2.1,0.9c0.5,0.5,0.7,1.1,0.7,1.8c0,1.1-0.4,2-1.3,2.6
		c-0.9,0.6-2.1,0.9-3.7,0.9h-5.7V24.1h5.7C103,24.1,104.6,25.1,104.6,27.2z M102,27.4c0-0.5-0.2-0.8-0.6-1c-0.4-0.2-0.9-0.3-1.6-0.3
		h-3.1v2.9h2.7c0.8,0,1.5-0.1,1.9-0.3C101.8,28.3,102,27.9,102,27.4z M102.3,32.3c0-0.6-0.2-1-0.7-1.2c-0.4-0.2-1.1-0.4-2-0.4h-2.9
		v3.4h3C101.5,34.1,102.3,33.5,102.3,32.3z"/>
	<path class="st2" d="M125.5,20.3l-5,11.2c-0.6,1.4-1.2,2.4-1.7,3c-0.5,0.6-1.1,1.1-1.8,1.3c-0.7,0.3-1.5,0.4-2.4,0.4
		c-0.8,0-1.6-0.1-2.3-0.3v-2.3c0.7,0.3,1.4,0.4,2.2,0.4c0.7,0,1.2-0.2,1.6-0.5c0.4-0.3,0.8-0.9,1.2-1.7l-5.8-11.5h2.8l3.8,7.9
		c0.3,0.7,0.6,1.2,0.6,1.5h0.1c0-0.2,0.2-0.5,0.3-0.9l3.5-8.5H125.5z"/>
	<path class="st2" d="M132.1,36.2c-1.8,0-3.2-0.5-4.1-1.6c-0.9-1-1.4-2.6-1.4-4.5c0-2,0.5-3.5,1.5-4.6s2.4-1.6,4.2-1.6
		c1.3,0,2.4,0.2,3.4,0.7l-0.8,2c-1.1-0.4-1.9-0.6-2.6-0.6c-2.1,0-3.1,1.4-3.1,4.1c0,1.3,0.3,2.3,0.8,3c0.5,0.7,1.3,1,2.3,1
		c1.1,0,2.2-0.3,3.2-0.8v2.2c-0.5,0.3-0.9,0.5-1.4,0.6C133.4,36.2,132.8,36.2,132.1,36.2z"/>
	<path class="st2" d="M148.5,24.1V36H146v-9.9h-5.3V36h-2.5V24.1H148.5z"/>
	<path class="st2" d="M157.3,36.2c-1.8,0-3.3-0.5-4.3-1.6c-1-1.1-1.6-2.6-1.6-4.5c0-1.9,0.5-3.5,1.5-4.6s2.3-1.7,4-1.7
		c1.6,0,2.8,0.5,3.7,1.4c0.9,1,1.4,2.3,1.4,3.9v1.4H154c0,1.2,0.3,2,0.9,2.7c0.6,0.6,1.4,0.9,2.5,0.9c0.7,0,1.4-0.1,2-0.2
		c0.6-0.1,1.3-0.4,2-0.7v2.1c-0.6,0.3-1.2,0.5-1.9,0.6C158.9,36.2,158.1,36.2,157.3,36.2z M156.9,25.8c-0.8,0-1.4,0.3-1.9,0.8
		s-0.8,1.3-0.9,2.2h5.4c0-1-0.3-1.7-0.7-2.2C158.3,26.1,157.7,25.8,156.9,25.8z"/>
	<path class="st2" d="M167.4,24.1v4.8h5.6v-4.8h2.5V36h-2.5v-5.1h-5.6V36h-2.5V24.1H167.4z"/>
	<path class="st2" d="M183.9,36.2c-1.8,0-3.2-0.5-4.1-1.6c-0.9-1-1.4-2.6-1.4-4.5c0-2,0.5-3.5,1.5-4.6s2.4-1.6,4.2-1.6
		c1.3,0,2.4,0.2,3.4,0.7l-0.8,2c-1.1-0.4-1.9-0.6-2.6-0.6c-2.1,0-3.1,1.4-3.1,4.1c0,1.3,0.3,2.3,0.8,3c0.5,0.7,1.3,1,2.3,1
		c1.1,0,2.2-0.3,3.2-0.8v2.2c-0.5,0.3-0.9,0.5-1.4,0.6S184.6,36.2,183.9,36.2z"/>
	<path class="st2" d="M197.3,24.1h2.8l-4.9,5.7l5.3,6.2h-2.9l-5.1-6v6H190V24.1h2.5v5.8L197.3,24.1z"/>
	<path class="st2" d="M204.9,24.1v6.1c0,0.7-0.1,1.8-0.2,3.1l6-9.2h3.1V36h-2.4v-6c0-0.3,0-0.9,0.1-1.6s0.1-1.3,0.1-1.6l-5.9,9.2
		h-3.1V24.1H204.9z"/>
	<path class="st2" d="M219.8,24.1v6.1c0,0.7-0.1,1.8-0.2,3.1l6-9.2h3.1V36h-2.4v-6c0-0.3,0-0.9,0.1-1.6s0.1-1.3,0.1-1.6l-5.9,9.2
		h-3.1V24.1H219.8z M222.9,22.7c-1.5,0-2.6-0.3-3.3-0.8c-0.7-0.5-1.1-1.5-1.2-2.7h2.3c0,0.5,0.1,0.9,0.3,1.2s0.4,0.5,0.7,0.6
		c0.3,0.1,0.7,0.2,1.3,0.2c0.7,0,1.2-0.2,1.6-0.5c0.4-0.3,0.6-0.8,0.7-1.5h2.3c-0.1,1.2-0.5,2.1-1.3,2.7
		C225.5,22.4,224.4,22.7,222.9,22.7z"/>
</g>
<g class="st1">
	<path class="st2" d="M106.2,56.4c0,1.9-0.5,3.5-1.5,4.5c-1,1.1-2.4,1.6-4.2,1.6c-1.1,0-2.1-0.3-2.9-0.8c-0.9-0.5-1.5-1.2-2-2.2
		c-0.5-0.9-0.7-2-0.7-3.3c0-1.9,0.5-3.4,1.5-4.5s2.4-1.6,4.2-1.6c1.7,0,3.1,0.6,4.1,1.7C105.7,53.1,106.2,54.6,106.2,56.4z
		 M97.5,56.4c0,2.7,1,4.1,3,4.1c2,0,3-1.4,3-4.1c0-2.7-1-4.1-3-4.1c-1.1,0-1.8,0.4-2.3,1.1C97.8,54.1,97.5,55.1,97.5,56.4z"/>
	<path class="st2" d="M108.4,55.3c0-2.6,0.4-4.7,1.3-6.1c0.9-1.4,2.3-2.3,4.3-2.8c1.5-0.3,3.2-0.6,5.1-0.9l0.4,2.2
		c-2.3,0.4-4.1,0.6-5.2,0.8c-1.1,0.2-1.9,0.7-2.4,1.4c-0.5,0.7-0.8,1.8-0.9,3.2h0.2c0.4-0.6,0.9-1.1,1.6-1.4
		c0.7-0.3,1.4-0.5,2.1-0.5c1.5,0,2.6,0.5,3.4,1.4s1.2,2.2,1.2,3.9c0,1.9-0.5,3.4-1.5,4.4c-1,1-2.4,1.6-4.1,1.6
		c-1.7,0-3.1-0.6-4.1-1.9S108.4,57.6,108.4,55.3z M114.1,60.6c1.9,0,2.8-1.2,2.8-3.7c0-2.4-0.8-3.6-2.5-3.6c-0.5,0-0.9,0.1-1.4,0.3
		c-0.4,0.2-0.8,0.5-1.2,0.8c-0.4,0.3-0.7,0.7-0.9,1c0,1.7,0.3,3,0.8,3.8C112.3,60.1,113.1,60.6,114.1,60.6z"/>
	<path class="st2" d="M130.6,50.5v6.1c0,0.7-0.1,1.8-0.2,3.1l6-9.2h3.1v11.9h-2.4v-6c0-0.3,0-0.9,0.1-1.6c0-0.7,0.1-1.3,0.1-1.6
		l-5.9,9.2h-3.1V50.5H130.6z"/>
	<path class="st2" d="M149.9,60l0.1-0.5c0.3-1.1,0.5-1.9,0.8-2.5l2.7-6.5h3.4v11.9h-2.3v-9.6l-0.2,0.6c-0.3,1.2-0.6,2-0.8,2.5
		l-2.6,6.4H149l-2.6-6.4c-0.4-0.9-0.7-2-1-3.1v9.6h-2.3V50.5h3.3l2.6,6.3C149.2,57.4,149.5,58.5,149.9,60z"/>
	<path class="st2" d="M165.6,62.6c-1.8,0-3.3-0.5-4.3-1.6c-1-1.1-1.6-2.6-1.6-4.5c0-1.9,0.5-3.5,1.5-4.6s2.3-1.7,4-1.7
		c1.6,0,2.8,0.5,3.7,1.4s1.4,2.3,1.4,3.9V57h-7.9c0,1.2,0.3,2,0.9,2.7c0.6,0.6,1.4,0.9,2.5,0.9c0.7,0,1.4-0.1,2-0.2
		c0.6-0.1,1.3-0.4,1.9-0.7v2.1c-0.6,0.3-1.2,0.5-1.9,0.6S166.4,62.6,165.6,62.6z M165.2,52.2c-0.8,0-1.4,0.3-1.9,0.8
		s-0.8,1.3-0.9,2.2h5.4c0-1-0.3-1.7-0.7-2.2C166.6,52.5,166,52.2,165.2,52.2z"/>
	<path class="st2" d="M175.6,50.5v4.8h5.6v-4.8h2.5v11.9h-2.5v-5.1h-5.6v5.1h-2.5V50.5H175.6z"/>
	<path class="st2" d="M189.8,50.5v6.1c0,0.7-0.1,1.8-0.2,3.1l6-9.2h3.1v11.9h-2.4v-6c0-0.3,0-0.9,0.1-1.6c0-0.7,0.1-1.3,0.1-1.6
		l-5.9,9.2h-3.1V50.5H189.8z"/>
</g>
<g class="st1">
	<path class="st2" d="M55.6,89c-1.8,0-3.2-0.5-4.1-1.6c-0.9-1-1.4-2.6-1.4-4.5c0-2,0.5-3.5,1.5-4.6s2.4-1.6,4.2-1.6
		c1.3,0,2.4,0.2,3.4,0.7l-0.8,2c-1.1-0.4-1.9-0.6-2.6-0.6c-2.1,0-3.1,1.4-3.1,4.1c0,1.3,0.3,2.3,0.8,3c0.5,0.7,1.3,1,2.3,1
		c1.1,0,2.2-0.3,3.2-0.8v2.2c-0.5,0.3-0.9,0.5-1.4,0.6C57,89,56.4,89,55.6,89z"/>
	<path class="st2" d="M59.9,76.9h2.8l2.4,6.7c0.4,1,0.6,1.9,0.7,2.7h0.1c0.1-0.4,0.2-0.9,0.4-1.4c0.2-0.6,1.1-3.2,2.7-8h2.7
		l-5.1,13.5c-0.9,2.5-2.5,3.7-4.6,3.7c-0.6,0-1.1-0.1-1.6-0.2v-2c0.4,0.1,0.8,0.1,1.3,0.1c1.2,0,2.1-0.7,2.6-2.1l0.4-1.1L59.9,76.9z
		"/>
	<path class="st2" d="M90.4,86.8h1.7V93h-2.4v-4.2H73.5V76.9h2.5v9.9h4.6v-9.9h2.5v9.9h4.6v-9.9h2.5V86.8z"/>
	<path class="st2" d="M99.4,89c-1.8,0-3.3-0.5-4.3-1.6c-1-1.1-1.6-2.6-1.6-4.5c0-1.9,0.5-3.5,1.5-4.6s2.3-1.7,4-1.7
		c1.6,0,2.8,0.5,3.7,1.4c0.9,1,1.4,2.3,1.4,3.9v1.4h-7.9c0,1.2,0.3,2,0.9,2.7c0.6,0.6,1.4,0.9,2.5,0.9c0.7,0,1.4-0.1,2-0.2
		c0.6-0.1,1.3-0.4,1.9-0.7v2.1c-0.6,0.3-1.2,0.5-1.9,0.6C100.9,89,100.2,89,99.4,89z M99,78.6c-0.8,0-1.4,0.3-1.9,0.8
		s-0.8,1.3-0.9,2.2h5.4c0-1-0.3-1.7-0.7-2.2C100.4,78.9,99.8,78.6,99,78.6z"/>
	<path class="st2" d="M111.7,89c-1.8,0-3.2-0.5-4.1-1.6c-0.9-1-1.4-2.6-1.4-4.5c0-2,0.5-3.5,1.5-4.6s2.4-1.6,4.2-1.6
		c1.3,0,2.4,0.2,3.4,0.7l-0.8,2c-1.1-0.4-1.9-0.6-2.6-0.6c-2.1,0-3.1,1.4-3.1,4.1c0,1.3,0.3,2.3,0.8,3c0.5,0.7,1.3,1,2.3,1
		c1.1,0,2.2-0.3,3.2-0.8v2.2c-0.5,0.3-0.9,0.5-1.4,0.6C113.1,89,112.4,89,111.7,89z"/>
	<path class="st2" d="M126.7,76.9v2h-3.9v9.9h-2.5v-9.9h-3.9v-2H126.7z"/>
	<path class="st2" d="M139.3,80c0,1.4-0.8,2.3-2.5,2.5v0.1c0.9,0.1,1.6,0.4,2.1,0.9c0.5,0.5,0.7,1.1,0.7,1.8c0,1.1-0.4,2-1.3,2.6
		c-0.9,0.6-2.1,0.9-3.7,0.9H129V76.9h5.7C137.8,76.9,139.3,77.9,139.3,80z M136.8,80.2c0-0.5-0.2-0.8-0.6-1
		c-0.4-0.2-0.9-0.3-1.6-0.3h-3.1v2.9h2.7c0.8,0,1.5-0.1,1.9-0.3C136.6,81.1,136.8,80.7,136.8,80.2z M137.1,85.1c0-0.6-0.2-1-0.7-1.2
		c-0.4-0.2-1.1-0.4-2-0.4h-2.9v3.4h3C136.2,86.9,137.1,86.3,137.1,85.1z"/>
	<path class="st2" d="M144.7,76.9V83c0,0.7-0.1,1.8-0.2,3.1l6-9.2h3.1v11.9h-2.4v-6c0-0.3,0-0.9,0.1-1.6s0.1-1.3,0.1-1.6l-5.9,9.2
		h-3.1V76.9H144.7z"/>
	<path class="st2" d="M166.1,76.9v2h-3.9v9.9h-2.5v-9.9h-3.9v-2H166.1z"/>
	<path class="st2" d="M173.6,89c-1.8,0-3.3-0.5-4.3-1.6c-1-1.1-1.6-2.6-1.6-4.5c0-1.9,0.5-3.5,1.5-4.6s2.3-1.7,4-1.7
		c1.6,0,2.8,0.5,3.7,1.4c0.9,1,1.4,2.3,1.4,3.9v1.4h-7.9c0,1.2,0.3,2,0.9,2.7c0.6,0.6,1.4,0.9,2.5,0.9c0.7,0,1.4-0.1,2-0.2
		c0.6-0.1,1.3-0.4,2-0.7v2.1c-0.6,0.3-1.2,0.5-1.9,0.6C175.1,89,174.4,89,173.6,89z M173.1,78.6c-0.8,0-1.4,0.3-1.9,0.8
		s-0.8,1.3-0.9,2.2h5.4c0-1-0.3-1.7-0.7-2.2C174.6,78.9,173.9,78.6,173.1,78.6z"/>
	<path class="st2" d="M190.8,88.8h-2.5v-9.9H185c-0.2,2.5-0.5,4.5-0.8,6s-0.8,2.5-1.3,3.1s-1.3,1-2.1,1c-0.6,0-1-0.1-1.4-0.2v-2
		c0.3,0.1,0.5,0.2,0.8,0.2c0.7,0,1.3-0.8,1.7-2.5c0.4-1.6,0.7-4.2,1-7.5h8V88.8z"/>
	<path class="st2" d="M197,81.7h3c3.3,0,5,1.1,5,3.4c0,1.2-0.4,2.1-1.3,2.8c-0.8,0.6-2.1,0.9-3.7,0.9h-5.5V76.9h2.5V81.7z
		 M202.4,85.2c0-0.6-0.2-1-0.7-1.2s-1.1-0.4-1.9-0.4H197v3.4h2.9c0.8,0,1.5-0.2,1.9-0.5S202.4,85.7,202.4,85.2z"/>
	<path class="st2" d="M210.2,76.9v4.8h5.6v-4.8h2.5v11.9h-2.5v-5.1h-5.6v5.1h-2.5V76.9H210.2z"/>
	<path class="st2" d="M232.5,82.8c0,1.9-0.5,3.5-1.5,4.5c-1,1.1-2.4,1.6-4.2,1.6c-1.1,0-2.1-0.3-2.9-0.8c-0.9-0.5-1.5-1.2-2-2.2
		c-0.5-0.9-0.7-2-0.7-3.3c0-1.9,0.5-3.4,1.5-4.5s2.4-1.6,4.2-1.6c1.7,0,3.1,0.6,4.1,1.7C232,79.5,232.5,81,232.5,82.8z M223.9,82.8
		c0,2.7,1,4.1,3,4.1c2,0,3-1.4,3-4.1c0-2.7-1-4.1-3-4.1c-1.1,0-1.8,0.4-2.3,1.1S223.9,81.5,223.9,82.8z"/>
	<path class="st2" d="M242.2,86.4l0.1-0.5c0.3-1.1,0.5-1.9,0.8-2.5l2.7-6.5h3.4v11.9h-2.3v-9.6l-0.2,0.6c-0.3,1.2-0.6,2-0.8,2.5
		l-2.6,6.4h-1.9l-2.6-6.4c-0.4-0.9-0.7-2-1-3.1v9.6h-2.3V76.9h3.3l2.6,6.3C241.6,83.8,241.9,84.9,242.2,86.4z"/>
</g>
<g class="st1">
	<path class="st2" d="M21.2,134.2c-1.3-1.6-2.5-3-3.2-3.7c0.7-0.7,1.9-2.1,3.2-3.7l0.4,0.3l-1.9,3.4l1.9,3.3L21.2,134.2z
		 M24.5,134.2c-1.3-1.6-2.5-3-3.2-3.7c0.7-0.7,1.9-2.1,3.2-3.7l0.5,0.3l-1.9,3.4l1.9,3.3L24.5,134.2z"/>
</g>
<g class="st1">
	<path class="st2" d="M38.7,135H37v-6.7h-7.5v6.7h-1.7v-14.3h1.7v6.1H37v-6.1h1.7V135z"/>
	<path class="st2" d="M48.9,135l-0.3-1.5h-0.1c-0.5,0.7-1.1,1.1-1.6,1.4s-1.2,0.4-2,0.4c-1.1,0-1.9-0.3-2.5-0.8s-0.9-1.3-0.9-2.3
		c0-2.2,1.7-3.3,5.2-3.4l1.8-0.1v-0.7c0-0.8-0.2-1.5-0.5-1.9s-0.9-0.6-1.7-0.6c-0.9,0-1.9,0.3-3,0.8l-0.5-1.2
		c0.5-0.3,1.1-0.5,1.7-0.7s1.3-0.2,1.9-0.2c1.3,0,2.2,0.3,2.8,0.8s0.9,1.5,0.9,2.7v7.3H48.9z M45.3,133.9c1,0,1.8-0.3,2.4-0.8
		s0.9-1.3,0.9-2.3v-1l-1.6,0.1c-1.3,0-2.2,0.2-2.8,0.6s-0.9,0.9-0.9,1.7c0,0.6,0.2,1,0.5,1.3S44.6,133.9,45.3,133.9z"/>
	<path class="st2" d="M67.4,127c0,0.7-0.2,1.2-0.6,1.6s-1,0.6-1.7,0.7v0.1c0.9,0.1,1.6,0.4,2,0.8s0.6,1,0.6,1.7c0,1-0.4,1.8-1.1,2.3
		s-1.8,0.8-3.2,0.8h-4.7v-10.7h4.7C66,124.3,67.4,125.2,67.4,127z M65.8,127.1c0-0.5-0.2-0.9-0.6-1.1s-1-0.3-1.8-0.3h-3.1v3H63
		c1,0,1.7-0.1,2.1-0.4S65.8,127.7,65.8,127.1z M66.1,131.8c0-0.6-0.2-1-0.7-1.3s-1.2-0.4-2.2-0.4h-2.9v3.5h3
		C65.1,133.6,66.1,133,66.1,131.8z"/>
	<path class="st2" d="M79.3,129.6c0,1.7-0.4,3.1-1.3,4.1s-2.1,1.5-3.6,1.5c-1,0-1.8-0.2-2.5-0.7s-1.3-1.1-1.7-1.9s-0.6-1.8-0.6-2.9
		c0-1.7,0.4-3.1,1.3-4.1s2.1-1.5,3.6-1.5c1.5,0,2.7,0.5,3.6,1.5S79.3,127.9,79.3,129.6z M71.1,129.6c0,1.4,0.3,2.4,0.8,3.1
		s1.4,1.1,2.4,1.1s1.9-0.4,2.4-1.1s0.8-1.8,0.8-3.1c0-1.4-0.3-2.4-0.8-3.1s-1.4-1.1-2.4-1.1c-1.1,0-1.9,0.3-2.4,1
		S71.1,128.3,71.1,129.6z"/>
	<path class="st2" d="M83.8,135h-1.6v-10.7h9V135h-1.6v-9.3h-5.7V135z"/>
	<path class="st2" d="M99.5,135.2c-0.7,0-1.3-0.1-1.9-0.4s-1.1-0.7-1.5-1.2h-0.1c0.1,0.6,0.1,1.2,0.1,1.8v4.4h-1.6v-15.5h1.3
		l0.2,1.5h0.1c0.4-0.6,0.9-1,1.5-1.3s1.2-0.4,1.9-0.4c1.4,0,2.5,0.5,3.3,1.5s1.2,2.3,1.2,4.1c0,1.8-0.4,3.1-1.2,4.1
		S100.9,135.2,99.5,135.2z M99.3,125.5c-1.1,0-1.9,0.3-2.4,0.9s-0.7,1.6-0.8,2.9v0.4c0,1.5,0.3,2.6,0.8,3.2s1.3,1,2.4,1
		c0.9,0,1.6-0.4,2.2-1.1s0.8-1.8,0.8-3.1c0-1.3-0.3-2.4-0.8-3.1S100.2,125.5,99.3,125.5z"/>
	<path class="st2" d="M116,129.6c0,1.7-0.4,3.1-1.3,4.1s-2.1,1.5-3.6,1.5c-1,0-1.8-0.2-2.5-0.7s-1.3-1.1-1.7-1.9s-0.6-1.8-0.6-2.9
		c0-1.7,0.4-3.1,1.3-4.1s2.1-1.5,3.6-1.5c1.5,0,2.7,0.5,3.6,1.5S116,127.9,116,129.6z M107.9,129.6c0,1.4,0.3,2.4,0.8,3.1
		s1.4,1.1,2.4,1.1s1.9-0.4,2.4-1.1s0.8-1.8,0.8-3.1c0-1.4-0.3-2.4-0.8-3.1s-1.4-1.1-2.4-1.1c-1.1,0-1.9,0.3-2.4,1
		S107.9,128.3,107.9,129.6z"/>
	<path class="st2" d="M123.2,135.2c-1.5,0-2.7-0.5-3.6-1.4s-1.3-2.3-1.3-4c0-1.8,0.4-3.2,1.3-4.2s2.1-1.5,3.7-1.5
		c0.5,0,1,0.1,1.5,0.2s0.9,0.2,1.2,0.4l-0.5,1.4c-0.4-0.1-0.7-0.3-1.2-0.4s-0.8-0.1-1.1-0.1c-2.2,0-3.3,1.4-3.3,4.2
		c0,1.3,0.3,2.3,0.8,3s1.3,1.1,2.4,1.1c0.9,0,1.8-0.2,2.7-0.6v1.4C125.2,135,124.3,135.2,123.2,135.2z"/>
</g>
<g class="st1">
	<path class="st2" d="M136.1,134.2c-1.3-1.6-2.5-3-3.2-3.7c0.7-0.7,1.9-2.1,3.2-3.7l0.4,0.3l-1.9,3.4l1.9,3.3L136.1,134.2z
		 M139.4,134.2c-1.3-1.6-2.5-3-3.2-3.7c0.7-0.7,1.9-2.1,3.2-3.7l0.5,0.3l-1.9,3.4l1.9,3.3L139.4,134.2z"/>
</g>
<g class="st1">
	<path class="st2" d="M148.7,124.3h1.8l-4.6,5.2l5,5.5H149l-4.9-5.4v5.4h-1.6v-10.7h1.6v5.2L148.7,124.3z"/>
	<path class="st2" d="M160.1,125.7h-3.5v9.3H155v-9.3h-3.4v-1.4h8.5V125.7z"/>
	<path class="st2" d="M171.4,129.6c0,1.7-0.4,3.1-1.3,4.1s-2.1,1.5-3.6,1.5c-1,0-1.8-0.2-2.5-0.7s-1.3-1.1-1.7-1.9
		c-0.4-0.8-0.6-1.8-0.6-2.9c0-1.7,0.4-3.1,1.3-4.1c0.9-1,2.1-1.5,3.6-1.5c1.5,0,2.7,0.5,3.6,1.5C171,126.6,171.4,127.9,171.4,129.6z
		 M163.3,129.6c0,1.4,0.3,2.4,0.8,3.1s1.4,1.1,2.4,1.1c1.1,0,1.9-0.4,2.4-1.1c0.5-0.7,0.8-1.8,0.8-3.1c0-1.4-0.3-2.4-0.8-3.1
		c-0.6-0.7-1.4-1.1-2.4-1.1c-1.1,0-1.9,0.3-2.4,1C163.6,127.2,163.3,128.3,163.3,129.6z"/>
	<path class="st2" d="M175.4,131.1v-0.5c0-0.8,0.1-1.4,0.4-1.9s0.7-1,1.3-1.6c0.9-0.7,1.4-1.3,1.7-1.7c0.2-0.4,0.3-0.8,0.3-1.4
		c0-0.7-0.2-1.2-0.6-1.5c-0.4-0.4-1-0.5-1.8-0.5c-0.5,0-1,0.1-1.5,0.2s-1,0.3-1.7,0.7l-0.6-1.3c1.2-0.6,2.5-1,3.9-1
		c1.2,0,2.2,0.3,2.9,0.9c0.7,0.6,1,1.5,1,2.6c0,0.5-0.1,0.9-0.2,1.3s-0.3,0.7-0.6,1c-0.2,0.3-0.8,0.8-1.6,1.6
		c-0.7,0.6-1.1,1-1.3,1.4c-0.2,0.4-0.3,0.9-0.3,1.5v0.3H175.4z M174.9,134c0-0.9,0.4-1.3,1.2-1.3c0.4,0,0.7,0.1,0.9,0.3
		s0.3,0.6,0.3,1c0,0.4-0.1,0.7-0.3,1c-0.2,0.2-0.5,0.3-0.9,0.3c-0.3,0-0.6-0.1-0.8-0.3C175,134.8,174.9,134.4,174.9,134z"/>
</g>
<g class="st1">
	<path class="st2" d="M182.6,126.9c1.3,1.6,2.5,3,3.2,3.7c-0.6,0.7-1.9,2.1-3.2,3.7l-0.5-0.3l1.9-3.4l-1.9-3.4L182.6,126.9z
		 M185.9,126.9c1.3,1.6,2.5,3,3.2,3.7c-0.7,0.7-1.9,2.1-3.2,3.7l-0.4-0.3l1.9-3.4l-1.9-3.4L185.9,126.9z"/>
</g>
<g class="st1">
	<path class="st2" d="M198.5,124.3v6.8l-0.1,1.8l0,0.6l5.8-9.1h2V135h-1.5v-6.5l0-1.3l0-1.3L199,135h-2v-10.7H198.5z"/>
	<path class="st2" d="M217.6,135H216v-9.3h-3.2c-0.2,2.3-0.4,4.2-0.7,5.5s-0.7,2.4-1.2,3s-1.1,0.9-1.9,0.9c-0.4,0-0.6,0-0.8-0.1
		v-1.2c0.1,0,0.3,0.1,0.5,0.1c0.7,0,1.3-0.8,1.8-2.4c0.4-1.6,0.8-4,1-7.2h6.3V135z"/>
	<path class="st2" d="M222.6,124.3v6.8l-0.1,1.8l0,0.6l5.8-9.1h2V135h-1.5v-6.5l0-1.3l0-1.3l-5.8,9.1h-2v-10.7H222.6z"/>
</g>
<g class="st1">
	<path class="st2" d="M21.2,158.2c-1.3-1.6-2.5-3-3.2-3.7c0.7-0.7,1.9-2.1,3.2-3.7l0.4,0.3l-1.9,3.4l1.9,3.3L21.2,158.2z
		 M24.5,158.2c-1.3-1.6-2.5-3-3.2-3.7c0.7-0.7,1.9-2.1,3.2-3.7l0.5,0.3l-1.9,3.4l1.9,3.3L24.5,158.2z"/>
</g>
<g class="st1">
	<path class="st2" d="M29,148.3v3.9c0,1.3,0.7,1.9,2.1,1.9c0.6,0,1.2-0.1,1.7-0.3s1.2-0.5,1.8-0.9v-4.6h1.6V159h-1.6v-4.8
		c-0.7,0.5-1.3,0.8-1.9,1s-1.2,0.3-2,0.3c-1.1,0-1.9-0.3-2.5-0.8s-0.9-1.3-0.9-2.3v-4H29z"/>
	<path class="st2" d="M47,149.7h-3.5v9.3h-1.6v-9.3h-3.4v-1.4H47V149.7z"/>
	<path class="st2" d="M58.3,153.6c0,1.7-0.4,3.1-1.3,4.1s-2.1,1.5-3.6,1.5c-1,0-1.8-0.2-2.5-0.7s-1.3-1.1-1.7-1.9s-0.6-1.8-0.6-2.9
		c0-1.7,0.4-3.1,1.3-4.1s2.1-1.5,3.6-1.5c1.5,0,2.7,0.5,3.6,1.5S58.3,151.9,58.3,153.6z M50.2,153.6c0,1.4,0.3,2.4,0.8,3.1
		s1.4,1.1,2.4,1.1s1.9-0.4,2.4-1.1s0.8-1.8,0.8-3.1c0-1.4-0.3-2.4-0.8-3.1s-1.4-1.1-2.4-1.1c-1.1,0-1.9,0.3-2.4,1
		S50.2,152.3,50.2,153.6z"/>
	<path class="st2" d="M62.3,155.1v-0.5c0-0.8,0.1-1.4,0.4-1.9s0.7-1,1.3-1.6c0.9-0.7,1.4-1.3,1.7-1.7s0.3-0.8,0.3-1.4
		c0-0.7-0.2-1.2-0.6-1.5s-1-0.5-1.8-0.5c-0.5,0-1,0.1-1.5,0.2s-1,0.3-1.7,0.7l-0.6-1.3c1.2-0.6,2.5-1,3.9-1c1.2,0,2.2,0.3,2.9,0.9
		s1,1.5,1,2.6c0,0.5-0.1,0.9-0.2,1.3s-0.3,0.7-0.6,1s-0.8,0.8-1.6,1.6c-0.7,0.6-1.1,1-1.3,1.4s-0.3,0.9-0.3,1.5v0.3H62.3z M61.8,158
		c0-0.9,0.4-1.3,1.2-1.3c0.4,0,0.7,0.1,0.9,0.3s0.3,0.6,0.3,1c0,0.4-0.1,0.7-0.3,1s-0.5,0.3-0.9,0.3c-0.3,0-0.6-0.1-0.8-0.3
		S61.8,158.4,61.8,158z"/>
</g>
<g class="st1">
	<path class="st2" d="M69.5,150.9c1.3,1.6,2.5,3,3.2,3.7c-0.6,0.7-1.9,2.1-3.2,3.7l-0.5-0.3l1.9-3.4l-1.9-3.4L69.5,150.9z
		 M72.8,150.9c1.3,1.6,2.5,3,3.2,3.7c-0.7,0.7-1.9,2.1-3.2,3.7l-0.4-0.3l1.9-3.4l-1.9-3.4L72.8,150.9z"/>
</g>
<g class="st1">
	<path class="st2" d="M93.1,153.6c0,1.7-0.4,3.1-1.3,4.1s-2.1,1.5-3.6,1.5c-1,0-1.8-0.2-2.5-0.7s-1.3-1.1-1.7-1.9s-0.6-1.8-0.6-2.9
		c0-1.7,0.4-3.1,1.3-4.1s2.1-1.5,3.6-1.5c1.5,0,2.7,0.5,3.6,1.5S93.1,151.9,93.1,153.6z M84.9,153.6c0,1.4,0.3,2.4,0.8,3.1
		s1.4,1.1,2.4,1.1s1.9-0.4,2.4-1.1s0.8-1.8,0.8-3.1c0-1.4-0.3-2.4-0.8-3.1s-1.4-1.1-2.4-1.1c-1.1,0-1.9,0.3-2.4,1
		S84.9,152.3,84.9,153.6z"/>
	<path class="st2" d="M103.2,149.7h-3.5v9.3h-1.6v-9.3h-3.4v-1.4h8.5V149.7z"/>
	<path class="st2" d="M114,151c0,0.7-0.2,1.2-0.6,1.6s-1,0.6-1.7,0.7v0.1c0.9,0.1,1.6,0.4,2,0.8s0.6,1,0.6,1.7c0,1-0.4,1.8-1.1,2.3
		s-1.8,0.8-3.2,0.8h-4.7v-10.7h4.7C112.6,148.3,114,149.2,114,151z M112.4,151.1c0-0.5-0.2-0.9-0.6-1.1s-1-0.3-1.8-0.3h-3.1v3h2.7
		c1,0,1.7-0.1,2.1-0.4S112.4,151.7,112.4,151.1z M112.7,155.8c0-0.6-0.2-1-0.7-1.3s-1.2-0.4-2.2-0.4h-2.9v3.5h3
		C111.7,157.6,112.7,157,112.7,155.8z"/>
	<path class="st2" d="M121.2,159.2c-1.6,0-2.8-0.5-3.7-1.4s-1.4-2.3-1.4-4c0-1.7,0.4-3.1,1.3-4.1s2-1.5,3.4-1.5
		c1.3,0,2.4,0.4,3.2,1.3s1.2,2,1.2,3.5v1h-7.4c0,1.3,0.4,2.2,1,2.9s1.5,1,2.5,1c1.2,0,2.3-0.2,3.4-0.7v1.4c-0.6,0.2-1.1,0.4-1.6,0.5
		S121.9,159.2,121.2,159.2z M120.7,149.5c-0.9,0-1.5,0.3-2.1,0.8s-0.8,1.3-0.9,2.3h5.6c0-1-0.2-1.8-0.7-2.3S121.6,149.5,120.7,149.5
		z"/>
	<path class="st2" d="M129.3,148.3v3.9c0,1.3,0.7,1.9,2.1,1.9c0.6,0,1.2-0.1,1.7-0.3s1.2-0.5,1.8-0.9v-4.6h1.6V159H135v-4.8
		c-0.7,0.5-1.3,0.8-1.9,1s-1.2,0.3-2,0.3c-1.1,0-1.9-0.3-2.5-0.8s-0.9-1.3-0.9-2.3v-4H129.3z"/>
	<path class="st2" d="M146.6,159l-0.3-1.5h-0.1c-0.5,0.7-1.1,1.1-1.6,1.4s-1.2,0.4-2,0.4c-1.1,0-1.9-0.3-2.5-0.8s-0.9-1.3-0.9-2.3
		c0-2.2,1.7-3.3,5.2-3.4l1.8-0.1v-0.7c0-0.8-0.2-1.5-0.5-1.9s-0.9-0.6-1.7-0.6c-0.9,0-1.9,0.3-3,0.8l-0.5-1.2
		c0.5-0.3,1.1-0.5,1.7-0.7s1.3-0.2,1.9-0.2c1.3,0,2.2,0.3,2.8,0.8s0.9,1.5,0.9,2.7v7.3H146.6z M142.9,157.9c1,0,1.8-0.3,2.4-0.8
		s0.9-1.3,0.9-2.3v-1l-1.6,0.1c-1.3,0-2.2,0.2-2.8,0.6s-0.9,0.9-0.9,1.7c0,0.6,0.2,1,0.5,1.3S142.3,157.9,142.9,157.9z"/>
	<path class="st2" d="M164.9,153.6c0,1.8-0.4,3.1-1.3,4.1c-0.8,1-2,1.5-3.4,1.5c-1.4,0-2.5-0.4-3.3-1.3c-0.8-0.9-1.3-2.1-1.4-3.7
		h-2.8v4.8h-1.6v-10.7h1.6v4.5h2.8c0.1-1.5,0.6-2.6,1.4-3.5s1.9-1.2,3.3-1.2c1.4,0,2.6,0.5,3.4,1.5
		C164.5,150.6,164.9,151.9,164.9,153.6z M157.3,153.6c0,1.4,0.2,2.4,0.7,3.1c0.5,0.7,1.2,1.1,2.3,1.1c1,0,1.8-0.3,2.3-1
		c0.5-0.7,0.7-1.7,0.7-3.2c0-1.4-0.2-2.4-0.7-3.1c-0.5-0.7-1.2-1.1-2.3-1.1c-1,0-1.8,0.4-2.3,1.1
		C157.5,151.2,157.3,152.3,157.3,153.6z"/>
	<path class="st2" d="M175,149.7h-3.5v9.3h-1.6v-9.3h-3.4v-1.4h8.5V149.7z"/>
	<path class="st2" d="M189.5,149.7H186v9.3h-1.6v-9.3H181v-1.4h8.5V149.7z"/>
	<path class="st2" d="M196.2,159.2c-1.6,0-2.8-0.5-3.7-1.4c-0.9-1-1.4-2.3-1.4-4c0-1.7,0.4-3.1,1.3-4.1s2-1.5,3.4-1.5
		c1.3,0,2.4,0.4,3.2,1.3s1.2,2,1.2,3.5v1h-7.4c0,1.3,0.3,2.2,1,2.9c0.6,0.7,1.5,1,2.5,1c1.2,0,2.3-0.2,3.4-0.7v1.4
		c-0.6,0.2-1.1,0.4-1.6,0.5C197.5,159.1,196.9,159.2,196.2,159.2z M195.7,149.5c-0.9,0-1.5,0.3-2.1,0.8c-0.5,0.6-0.8,1.3-0.9,2.3
		h5.6c0-1-0.2-1.8-0.7-2.3C197.2,149.7,196.6,149.5,195.7,149.5z"/>
	<path class="st2" d="M212.3,159.2c-1.5,0-2.7-0.5-3.6-1.4s-1.3-2.3-1.3-4c0-1.8,0.4-3.2,1.3-4.2c0.9-1,2.1-1.5,3.7-1.5
		c0.5,0,1,0.1,1.5,0.2c0.5,0.1,0.9,0.2,1.2,0.4l-0.5,1.4c-0.4-0.1-0.7-0.3-1.2-0.4c-0.4-0.1-0.8-0.1-1.1-0.1c-2.2,0-3.3,1.4-3.3,4.2
		c0,1.3,0.3,2.3,0.8,3c0.5,0.7,1.3,1.1,2.4,1.1c0.9,0,1.8-0.2,2.7-0.6v1.4C214.3,159,213.4,159.2,212.3,159.2z"/>
	<path class="st2" d="M225.6,159h-1.6v-9.3h-3.2c-0.2,2.3-0.4,4.2-0.7,5.5s-0.7,2.4-1.2,3s-1.1,0.9-1.9,0.9c-0.4,0-0.6,0-0.8-0.1
		v-1.2c0.1,0,0.3,0.1,0.5,0.1c0.7,0,1.3-0.8,1.8-2.4c0.4-1.6,0.8-4,1-7.2h6.3V159z"/>
	<path class="st2" d="M238.2,153.6c0,1.7-0.4,3.1-1.3,4.1s-2.1,1.5-3.6,1.5c-1,0-1.8-0.2-2.5-0.7s-1.3-1.1-1.7-1.9
		c-0.4-0.8-0.6-1.8-0.6-2.9c0-1.7,0.4-3.1,1.3-4.1c0.9-1,2.1-1.5,3.6-1.5c1.5,0,2.7,0.5,3.6,1.5
		C237.8,150.6,238.2,151.9,238.2,153.6z M230.1,153.6c0,1.4,0.3,2.4,0.8,3.1s1.4,1.1,2.4,1.1c1.1,0,1.9-0.4,2.4-1.1
		c0.5-0.7,0.8-1.8,0.8-3.1c0-1.4-0.3-2.4-0.8-3.1c-0.6-0.7-1.4-1.1-2.4-1.1c-1.1,0-1.9,0.3-2.4,1
		C230.3,151.2,230.1,152.3,230.1,153.6z"/>
	<path class="st2" d="M249.8,151c0,0.7-0.2,1.2-0.6,1.6s-1,0.6-1.7,0.7v0.1c0.9,0.1,1.6,0.4,2,0.8s0.6,1,0.6,1.7
		c0,1-0.4,1.8-1.1,2.3s-1.8,0.8-3.2,0.8h-4.7v-10.7h4.7C248.4,148.3,249.8,149.2,249.8,151z M248.2,151.1c0-0.5-0.2-0.9-0.6-1.1
		s-1-0.3-1.8-0.3h-3.1v3h2.7c1,0,1.7-0.1,2.1-0.4S248.2,151.7,248.2,151.1z M248.5,155.8c0-0.6-0.2-1-0.7-1.3s-1.2-0.4-2.2-0.4h-2.9
		v3.5h3C247.5,157.6,248.5,157,248.5,155.8z"/>
	<path class="st2" d="M259,159l-0.3-1.5h-0.1c-0.5,0.7-1.1,1.1-1.6,1.4c-0.5,0.2-1.2,0.4-2,0.4c-1.1,0-1.9-0.3-2.5-0.8
		c-0.6-0.5-0.9-1.3-0.9-2.3c0-2.2,1.7-3.3,5.2-3.4l1.8-0.1v-0.7c0-0.8-0.2-1.5-0.5-1.9s-0.9-0.6-1.7-0.6c-0.9,0-1.9,0.3-3,0.8
		l-0.5-1.2c0.5-0.3,1.1-0.5,1.7-0.7c0.6-0.2,1.3-0.2,1.9-0.2c1.3,0,2.2,0.3,2.8,0.8s0.9,1.5,0.9,2.7v7.3H259z M255.4,157.9
		c1,0,1.8-0.3,2.4-0.8s0.9-1.3,0.9-2.3v-1l-1.6,0.1c-1.3,0-2.2,0.2-2.8,0.6c-0.6,0.4-0.9,0.9-0.9,1.7c0,0.6,0.2,1,0.5,1.3
		C254.2,157.7,254.7,157.9,255.4,157.9z"/>
	<path class="st2" d="M265.3,156.7l0.1,0.2c-0.2,0.7-0.4,1.4-0.7,2.3c-0.3,0.9-0.7,1.7-1,2.4h-1.2c0.2-0.7,0.4-1.5,0.6-2.5
		c0.2-1,0.4-1.8,0.4-2.4H265.3z"/>
</g>
<g class="st1">
	<path class="st2" d="M25,172.3h1.8l-4.6,5.2l5,5.5h-1.9l-4.9-5.4v5.4h-1.6v-10.7h1.6v5.2L25,172.3z"/>
	<path class="st2" d="M38.3,177.6c0,1.7-0.4,3.1-1.3,4.1s-2.1,1.5-3.6,1.5c-1,0-1.8-0.2-2.5-0.7s-1.3-1.1-1.7-1.9s-0.6-1.8-0.6-2.9
		c0-1.7,0.4-3.1,1.3-4.1s2.1-1.5,3.6-1.5c1.5,0,2.7,0.5,3.6,1.5S38.3,175.9,38.3,177.6z M30.2,177.6c0,1.4,0.3,2.4,0.8,3.1
		s1.4,1.1,2.4,1.1s1.9-0.4,2.4-1.1s0.8-1.8,0.8-3.1c0-1.4-0.3-2.4-0.8-3.1s-1.4-1.1-2.4-1.1c-1.1,0-1.9,0.3-2.4,1
		S30.2,176.3,30.2,177.6z"/>
	<path class="st2" d="M48.4,173.7h-3.5v9.3h-1.6v-9.3h-3.4v-1.4h8.5V173.7z"/>
	<path class="st2" d="M59.8,177.6c0,1.7-0.4,3.1-1.3,4.1s-2.1,1.5-3.6,1.5c-1,0-1.8-0.2-2.5-0.7s-1.3-1.1-1.7-1.9s-0.6-1.8-0.6-2.9
		c0-1.7,0.4-3.1,1.3-4.1s2.1-1.5,3.6-1.5c1.5,0,2.7,0.5,3.6,1.5S59.8,175.9,59.8,177.6z M51.6,177.6c0,1.4,0.3,2.4,0.8,3.1
		s1.4,1.1,2.4,1.1s1.9-0.4,2.4-1.1s0.8-1.8,0.8-3.1c0-1.4-0.3-2.4-0.8-3.1s-1.4-1.1-2.4-1.1c-1.1,0-1.9,0.3-2.4,1
		S51.6,176.3,51.6,177.6z"/>
	<path class="st2" d="M67.6,183.2c-0.7,0-1.3-0.1-1.9-0.4s-1.1-0.7-1.5-1.2h-0.1c0.1,0.6,0.1,1.2,0.1,1.8v4.4h-1.6v-15.5h1.3
		l0.2,1.5h0.1c0.4-0.6,0.9-1,1.5-1.3s1.2-0.4,1.9-0.4c1.4,0,2.5,0.5,3.3,1.5s1.2,2.3,1.2,4.1c0,1.8-0.4,3.1-1.2,4.1
		S69,183.2,67.6,183.2z M67.3,173.5c-1.1,0-1.9,0.3-2.4,0.9s-0.7,1.6-0.8,2.9v0.4c0,1.5,0.3,2.6,0.8,3.2s1.3,1,2.4,1
		c0.9,0,1.6-0.4,2.2-1.1s0.8-1.8,0.8-3.1c0-1.3-0.3-2.4-0.8-3.1S68.3,173.5,67.3,173.5z"/>
	<path class="st2" d="M76.5,176.7h2.9c1.4,0,2.4,0.3,3,0.8s1,1.3,1,2.3c0,1.1-0.3,1.9-1,2.4s-1.7,0.8-3.1,0.8h-4.4v-10.7h1.6V176.7z
		 M76.5,178.1v3.5h2.7c1.7,0,2.6-0.6,2.6-1.8c0-0.6-0.2-1-0.6-1.3s-1.1-0.4-2-0.4H76.5z M86.8,183h-1.6v-10.7h1.6V183z"/>
	<path class="st2" d="M95.8,181.4l0.3-0.9l0.4-1.2l2.9-7.1h2.1V183h-1.4v-8.8l-0.2,0.6l-0.6,1.5l-2.8,6.8h-1.4l-2.8-6.8
		c-0.3-0.9-0.6-1.6-0.7-2v8.8h-1.4v-10.7h2l2.8,6.8C95.3,179.8,95.6,180.6,95.8,181.4z"/>
	<path class="st2" d="M106.5,172.3v6.8l-0.1,1.8l0,0.6l5.8-9.1h2V183h-1.5v-6.5l0-1.3l0-1.3L107,183h-2v-10.7H106.5z"/>
	<path class="st2" d="M130.8,183h-1.6v-9.3h-3.2c-0.2,2.3-0.4,4.2-0.7,5.5s-0.7,2.4-1.2,3s-1.1,0.9-1.9,0.9c-0.4,0-0.6,0-0.8-0.1
		v-1.2c0.1,0,0.3,0.1,0.5,0.1c0.7,0,1.3-0.8,1.8-2.4s0.8-4,1-7.2h6.3V183z"/>
	<path class="st2" d="M148,177.6c0,1.8-0.4,3.1-1.3,4.1s-2,1.5-3.4,1.5c-1.4,0-2.5-0.4-3.3-1.3s-1.3-2.1-1.4-3.7h-2.8v4.8h-1.6
		v-10.7h1.6v4.5h2.8c0.1-1.5,0.6-2.6,1.4-3.5s1.9-1.2,3.3-1.2c1.4,0,2.6,0.5,3.4,1.5S148,175.9,148,177.6z M140.3,177.6
		c0,1.4,0.2,2.4,0.7,3.1s1.2,1.1,2.3,1.1c1,0,1.8-0.3,2.3-1s0.7-1.7,0.7-3.2c0-1.4-0.2-2.4-0.7-3.1s-1.2-1.1-2.3-1.1
		s-1.8,0.4-2.3,1.1S140.3,176.3,140.3,177.6z"/>
	<path class="st2" d="M160.2,186.7h-1.6V183h-7.5v3.7h-1.6v-5.1h0.8c0.9-1.2,1.6-2.6,2.1-4.2s0.8-3.3,0.8-5.1h5.4v9.3h1.5V186.7z
		 M157.1,181.6v-8h-2.4c-0.1,1.4-0.4,2.9-0.8,4.4s-1.1,2.7-1.8,3.6H157.1z"/>
	<path class="st2" d="M163.8,172.3v6.8l-0.1,1.8l0,0.6l5.8-9.1h2V183H170v-6.5l0-1.3l0-1.3l-5.8,9.1h-2v-10.7H163.8z"/>
</g>
<g class="st1">
	<path class="st2" d="M28,201.6c0,1.7-0.4,3.1-1.3,4.1s-2.1,1.5-3.6,1.5c-1,0-1.8-0.2-2.5-0.7s-1.3-1.1-1.7-1.9s-0.6-1.8-0.6-2.9
		c0-1.7,0.4-3.1,1.3-4.1s2.1-1.5,3.6-1.5c1.5,0,2.7,0.5,3.6,1.5S28,199.9,28,201.6z M19.8,201.6c0,1.4,0.3,2.4,0.8,3.1
		s1.4,1.1,2.4,1.1s1.9-0.4,2.4-1.1s0.8-1.8,0.8-3.1c0-1.4-0.3-2.4-0.8-3.1s-1.4-1.1-2.4-1.1c-1.1,0-1.9,0.3-2.4,1
		S19.8,200.3,19.8,201.6z"/>
	<path class="st2" d="M30.2,200.6c0-2.3,0.3-4.2,1-5.5s1.8-2.1,3.3-2.5c1.9-0.4,3.5-0.7,4.9-1l0.3,1.4c-2.3,0.4-3.9,0.7-4.8,0.9
		c-0.9,0.2-1.7,0.7-2.1,1.5s-0.7,1.9-0.8,3.3h0.1c0.4-0.5,0.9-1,1.6-1.3s1.3-0.5,2-0.5c1.3,0,2.3,0.4,3.1,1.3s1.1,2,1.1,3.5
		c0,1.7-0.4,3-1.3,3.9s-2,1.4-3.6,1.4c-1.5,0-2.7-0.6-3.5-1.7S30.2,202.7,30.2,200.6z M35.2,205.8c2,0,3-1.3,3-3.8
		c0-2.4-0.9-3.6-2.7-3.6c-0.5,0-1,0.1-1.4,0.3s-0.9,0.5-1.3,0.8s-0.7,0.7-0.9,1c0,1.7,0.3,3,0.8,3.9S34.1,205.8,35.2,205.8z"/>
	<path class="st2" d="M52,201.6c0,1.7-0.4,3.1-1.3,4.1s-2.1,1.5-3.6,1.5c-1,0-1.8-0.2-2.5-0.7s-1.3-1.1-1.7-1.9s-0.6-1.8-0.6-2.9
		c0-1.7,0.4-3.1,1.3-4.1s2.1-1.5,3.6-1.5c1.5,0,2.7,0.5,3.6,1.5S52,199.9,52,201.6z M43.8,201.6c0,1.4,0.3,2.4,0.8,3.1
		s1.4,1.1,2.4,1.1s1.9-0.4,2.4-1.1s0.8-1.8,0.8-3.1c0-1.4-0.3-2.4-0.8-3.1s-1.4-1.1-2.4-1.1c-1.1,0-1.9,0.3-2.4,1
		S43.8,200.3,43.8,201.6z"/>
	<path class="st2" d="M56.8,200.7c2,0,3-0.6,3-1.7c0-1.1-0.8-1.6-2.5-1.6c-0.5,0-1,0-1.4,0.1s-0.9,0.3-1.6,0.5l-0.6-1.3
		c1.1-0.5,2.3-0.7,3.6-0.7c1.2,0,2.2,0.3,2.9,0.8s1.1,1.2,1.1,2.1c0,1.2-0.7,2-2,2.4v0.1c0.8,0.2,1.4,0.6,1.8,1s0.6,1,0.6,1.7
		c0,1-0.4,1.8-1.2,2.3s-1.9,0.8-3.3,0.8c-1.5,0-2.7-0.2-3.6-0.7V205c1.2,0.6,2.4,0.8,3.6,0.8c0.9,0,1.6-0.2,2.1-0.5s0.7-0.8,0.7-1.4
		c0-1.2-1-1.9-3-1.9h-1.5v-1.4H56.8z"/>
	<path class="st2" d="M66.1,196.3v4.5h6v-4.5h1.6V207h-1.6v-4.8h-6v4.8h-1.6v-10.7H66.1z"/>
	<path class="st2" d="M83.7,207l-0.3-1.5h-0.1c-0.5,0.7-1.1,1.1-1.6,1.4s-1.2,0.4-2,0.4c-1.1,0-1.9-0.3-2.5-0.8s-0.9-1.3-0.9-2.3
		c0-2.2,1.7-3.3,5.2-3.4l1.8-0.1v-0.7c0-0.8-0.2-1.5-0.5-1.9s-0.9-0.6-1.7-0.6c-0.9,0-1.9,0.3-3,0.8l-0.5-1.2
		c0.5-0.3,1.1-0.5,1.7-0.7s1.3-0.2,1.9-0.2c1.3,0,2.2,0.3,2.8,0.8s0.9,1.5,0.9,2.7v7.3H83.7z M80.1,205.9c1,0,1.8-0.3,2.4-0.8
		s0.9-1.3,0.9-2.3v-1l-1.6,0.1c-1.3,0-2.2,0.2-2.8,0.6s-0.9,0.9-0.9,1.7c0,0.6,0.2,1,0.5,1.3S79.4,205.9,80.1,205.9z"/>
	<path class="st2" d="M89.7,196.3v3.9c0,1.3,0.7,1.9,2.1,1.9c0.6,0,1.2-0.1,1.7-0.3s1.2-0.5,1.8-0.9v-4.6H97V207h-1.6v-4.8
		c-0.7,0.5-1.3,0.8-1.9,1s-1.2,0.3-2,0.3c-1.1,0-1.9-0.3-2.5-0.8s-0.9-1.3-0.9-2.3v-4H89.7z"/>
	<path class="st2" d="M107,207l-0.3-1.5h-0.1c-0.5,0.7-1.1,1.1-1.6,1.4s-1.2,0.4-2,0.4c-1.1,0-1.9-0.3-2.5-0.8s-0.9-1.3-0.9-2.3
		c0-2.2,1.7-3.3,5.2-3.4l1.8-0.1v-0.7c0-0.8-0.2-1.5-0.5-1.9s-0.9-0.6-1.7-0.6c-0.9,0-1.9,0.3-3,0.8l-0.5-1.2
		c0.5-0.3,1.1-0.5,1.7-0.7s1.3-0.2,1.9-0.2c1.3,0,2.2,0.3,2.8,0.8s0.9,1.5,0.9,2.7v7.3H107z M103.3,205.9c1,0,1.8-0.3,2.4-0.8
		s0.9-1.3,0.9-2.3v-1l-1.6,0.1c-1.3,0-2.2,0.2-2.8,0.6s-0.9,0.9-0.9,1.7c0,0.6,0.2,1,0.5,1.3S102.7,205.9,103.3,205.9z"/>
	<path class="st2" d="M125.3,201.6c0,1.8-0.4,3.1-1.3,4.1s-2,1.5-3.4,1.5c-1.4,0-2.5-0.4-3.3-1.3s-1.3-2.1-1.4-3.7h-2.8v4.8h-1.6
		v-10.7h1.6v4.5h2.8c0.1-1.5,0.6-2.6,1.4-3.5s1.9-1.2,3.3-1.2c1.4,0,2.6,0.5,3.4,1.5S125.3,199.9,125.3,201.6z M117.6,201.6
		c0,1.4,0.2,2.4,0.7,3.1s1.2,1.1,2.3,1.1c1,0,1.8-0.3,2.3-1s0.7-1.7,0.7-3.2c0-1.4-0.2-2.4-0.7-3.1s-1.2-1.1-2.3-1.1
		s-1.8,0.4-2.3,1.1S117.6,200.3,117.6,201.6z"/>
	<path class="st2" d="M135.4,197.7h-3.5v9.3h-1.6v-9.3h-3.4v-1.4h8.5V197.7z"/>
	<path class="st2" d="M151.4,199c0,0.7-0.2,1.2-0.6,1.6s-1,0.6-1.7,0.7v0.1c0.9,0.1,1.6,0.4,2,0.8s0.6,1,0.6,1.7
		c0,1-0.4,1.8-1.1,2.3s-1.8,0.8-3.2,0.8h-4.7v-10.7h4.7C150,196.3,151.4,197.2,151.4,199z M149.8,199.1c0-0.5-0.2-0.9-0.6-1.1
		s-1-0.3-1.8-0.3h-3.1v3h2.7c1,0,1.7-0.1,2.1-0.4S149.8,199.7,149.8,199.1z M150.1,203.8c0-0.6-0.2-1-0.7-1.3s-1.2-0.4-2.2-0.4h-2.9
		v3.5h3C149.2,205.6,150.1,205,150.1,203.8z"/>
	<path class="st2" d="M158.3,207.2c-1.5,0-2.7-0.5-3.6-1.4s-1.3-2.3-1.3-4c0-1.8,0.4-3.2,1.3-4.2s2.1-1.5,3.7-1.5
		c0.5,0,1,0.1,1.5,0.2s0.9,0.2,1.2,0.4l-0.5,1.4c-0.4-0.1-0.7-0.3-1.2-0.4s-0.8-0.1-1.1-0.1c-2.2,0-3.3,1.4-3.3,4.2
		c0,1.3,0.3,2.3,0.8,3s1.3,1.1,2.4,1.1c0.9,0,1.8-0.2,2.7-0.6v1.4C160.3,207,159.4,207.2,158.3,207.2z"/>
	<path class="st2" d="M168.1,207.2c-1.6,0-2.8-0.5-3.7-1.4s-1.4-2.3-1.4-4c0-1.7,0.4-3.1,1.3-4.1s2-1.5,3.4-1.5
		c1.3,0,2.4,0.4,3.2,1.3s1.2,2,1.2,3.5v1h-7.4c0,1.3,0.3,2.2,1,2.9s1.5,1,2.5,1c1.2,0,2.3-0.2,3.4-0.7v1.4c-0.6,0.2-1.1,0.4-1.6,0.5
		S168.8,207.2,168.1,207.2z M167.7,197.5c-0.9,0-1.5,0.3-2.1,0.8s-0.8,1.3-0.9,2.3h5.6c0-1-0.2-1.8-0.7-2.3S168.5,197.5,167.7,197.5
		z M165,193.4c0-0.3,0.1-0.6,0.3-0.7s0.4-0.2,0.6-0.2c0.2,0,0.5,0.1,0.6,0.2s0.3,0.4,0.3,0.7c0,0.3-0.1,0.6-0.3,0.7
		s-0.4,0.2-0.6,0.2c-0.2,0-0.4-0.1-0.6-0.2S165,193.7,165,193.4z M168.7,193.4c0-0.3,0.1-0.6,0.3-0.7s0.4-0.2,0.6-0.2
		s0.5,0.1,0.6,0.2s0.3,0.4,0.3,0.7c0,0.3-0.1,0.6-0.3,0.7s-0.4,0.2-0.6,0.2s-0.4-0.1-0.6-0.2S168.7,193.7,168.7,193.4z"/>
	<path class="st2" d="M187.2,197.7h-3.5v9.3h-1.6v-9.3h-3.4v-1.4h8.5V197.7z"/>
	<path class="st2" d="M198.6,201.6c0,1.7-0.4,3.1-1.3,4.1s-2.1,1.5-3.6,1.5c-1,0-1.8-0.2-2.5-0.7s-1.3-1.1-1.7-1.9s-0.6-1.8-0.6-2.9
		c0-1.7,0.4-3.1,1.3-4.1s2.1-1.5,3.6-1.5c1.5,0,2.7,0.5,3.6,1.5S198.6,199.9,198.6,201.6z M190.4,201.6c0,1.4,0.3,2.4,0.8,3.1
		s1.4,1.1,2.4,1.1s1.9-0.4,2.4-1.1s0.8-1.8,0.8-3.1c0-1.4-0.3-2.4-0.8-3.1s-1.4-1.1-2.4-1.1c-1.1,0-1.9,0.3-2.4,1
		S190.4,200.3,190.4,201.6z"/>
	<path class="st2" d="M203.1,204.7l0.1,0.2c-0.2,0.7-0.4,1.4-0.7,2.3s-0.7,1.7-1,2.4h-1.2c0.2-0.7,0.4-1.5,0.6-2.5s0.4-1.8,0.4-2.4
		H203.1z"/>
	<path class="st2" d="M212.9,196.3v3.9c0,1.3,0.7,1.9,2.1,1.9c0.6,0,1.2-0.1,1.7-0.3s1.2-0.5,1.8-0.9v-4.6h1.6V207h-1.6v-4.8
		c-0.7,0.5-1.3,0.8-1.9,1s-1.2,0.3-2,0.3c-1.1,0-1.9-0.3-2.5-0.8s-0.9-1.3-0.9-2.3v-4H212.9z"/>
	<path class="st2" d="M230.9,197.7h-3.5v9.3h-1.6v-9.3h-3.4v-1.4h8.5V197.7z"/>
	<path class="st2" d="M242.3,201.6c0,1.7-0.4,3.1-1.3,4.1s-2.1,1.5-3.6,1.5c-1,0-1.8-0.2-2.5-0.7s-1.3-1.1-1.7-1.9s-0.6-1.8-0.6-2.9
		c0-1.7,0.4-3.1,1.3-4.1s2.1-1.5,3.6-1.5c1.5,0,2.7,0.5,3.6,1.5S242.3,199.9,242.3,201.6z M234.1,201.6c0,1.4,0.3,2.4,0.8,3.1
		s1.4,1.1,2.4,1.1s1.9-0.4,2.4-1.1s0.8-1.8,0.8-3.1c0-1.4-0.3-2.4-0.8-3.1s-1.4-1.1-2.4-1.1c-1.1,0-1.9,0.3-2.4,1
		S234.1,200.3,234.1,201.6z"/>
	<path class="st2" d="M259.5,201.6c0,1.7-0.4,3.1-1.3,4.1s-2.1,1.5-3.6,1.5c-1,0-1.8-0.2-2.5-0.7s-1.3-1.1-1.7-1.9s-0.6-1.8-0.6-2.9
		c0-1.7,0.4-3.1,1.3-4.1s2.1-1.5,3.6-1.5c1.5,0,2.7,0.5,3.6,1.5S259.5,199.9,259.5,201.6z M251.4,201.6c0,1.4,0.3,2.4,0.8,3.1
		s1.4,1.1,2.4,1.1s1.9-0.4,2.4-1.1s0.8-1.8,0.8-3.1c0-1.4-0.3-2.4-0.8-3.1s-1.4-1.1-2.4-1.1c-1.1,0-1.9,0.3-2.4,1
		S251.4,200.3,251.4,201.6z"/>
	<path class="st2" d="M264,196.3v4.5h6v-4.5h1.6V207H270v-4.8h-6v4.8h-1.6v-10.7H264z"/>
	<path class="st2" d="M276.6,196.3v6.8l-0.1,1.8l0,0.6l5.8-9.1h2V207h-1.5v-6.5l0-1.3l0-1.3l-5.8,9.1h-2v-10.7H276.6z"/>
</g>
<g class="st1">
	<path class="st2" d="M24.3,229.4l0.3-0.9l0.4-1.2l2.9-7.1H30V231h-1.4v-8.8l-0.2,0.6l-0.6,1.5L25,231h-1.4l-2.8-6.8
		c-0.3-0.9-0.6-1.6-0.7-2v8.8h-1.4v-10.7h2l2.8,6.8C23.8,227.8,24,228.6,24.3,229.4z"/>
	<path class="st2" d="M42.7,225.6c0,1.7-0.4,3.1-1.3,4.1s-2.1,1.5-3.6,1.5c-1,0-1.8-0.2-2.5-0.7s-1.3-1.1-1.7-1.9s-0.6-1.8-0.6-2.9
		c0-1.7,0.4-3.1,1.3-4.1s2.1-1.5,3.6-1.5c1.5,0,2.7,0.5,3.6,1.5S42.7,223.9,42.7,225.6z M34.5,225.6c0,1.4,0.3,2.4,0.8,3.1
		s1.4,1.1,2.4,1.1s1.9-0.4,2.4-1.1s0.8-1.8,0.8-3.1c0-1.4-0.3-2.4-0.8-3.1s-1.4-1.1-2.4-1.1c-1.1,0-1.9,0.3-2.4,1
		S34.5,224.3,34.5,225.6z"/>
	<path class="st2" d="M51.9,221.7h-4.8v9.3h-1.6v-10.7h6.4V221.7z"/>
	<path class="st2" d="M52.4,220.3h1.7l2.3,6.1c0.5,1.4,0.8,2.4,1,3h0.1c0.1-0.3,0.3-0.9,0.5-1.7s1.2-3.3,2.7-7.4h1.7l-4.6,12.2
		c-0.5,1.2-1,2.1-1.6,2.6s-1.4,0.8-2.2,0.8c-0.5,0-1-0.1-1.5-0.2v-1.3c0.4,0.1,0.8,0.1,1.2,0.1c1.1,0,1.9-0.6,2.4-1.9l0.6-1.5
		L52.4,220.3z"/>
	<path class="st2" d="M71.4,221.7h-3.5v9.3h-1.6v-9.3h-3.4v-1.4h8.5V221.7z"/>
	<path class="st2" d="M77,220.3h1.7l2.3,6.1c0.5,1.4,0.8,2.4,1,3h0.1c0.1-0.3,0.3-0.9,0.5-1.7s1.2-3.3,2.7-7.4H87l-4.6,12.2
		c-0.5,1.2-1,2.1-1.6,2.6s-1.4,0.8-2.2,0.8c-0.5,0-1-0.1-1.5-0.2v-1.3c0.4,0.1,0.8,0.1,1.2,0.1c1.1,0,1.9-0.6,2.4-1.9l0.6-1.5
		L77,220.3z"/>
	<path class="st2" d="M97.4,223c0,0.7-0.2,1.2-0.6,1.6s-1,0.6-1.7,0.7v0.1c0.9,0.1,1.6,0.4,2,0.8s0.6,1,0.6,1.7c0,1-0.4,1.8-1.1,2.3
		s-1.8,0.8-3.2,0.8h-4.7v-10.7h4.7C96.1,220.3,97.4,221.2,97.4,223z M95.8,223.1c0-0.5-0.2-0.9-0.6-1.1s-1-0.3-1.8-0.3h-3.1v3h2.7
		c1,0,1.7-0.1,2.1-0.4S95.8,223.7,95.8,223.1z M96.2,227.8c0-0.6-0.2-1-0.7-1.3s-1.2-0.4-2.2-0.4h-2.9v3.5h3
		C95.2,229.6,96.2,229,96.2,227.8z"/>
	<path class="st2" d="M101.6,220.3v6.8l-0.1,1.8l0,0.6l5.8-9.1h2V231h-1.5v-6.5l0-1.3l0-1.3l-5.8,9.1h-2v-10.7H101.6z"/>
	<path class="st2" d="M122.1,234.7h-1.6V231H113v3.7h-1.6v-5.1h0.8c0.9-1.2,1.6-2.6,2.1-4.2s0.8-3.3,0.8-5.1h5.4v9.3h1.5V234.7z
		 M119,229.6v-8h-2.4c-0.1,1.4-0.4,2.9-0.8,4.4s-1.1,2.7-1.8,3.6H119z"/>
	<path class="st2" d="M128.8,231.2c-1.6,0-2.8-0.5-3.7-1.4s-1.4-2.3-1.4-4c0-1.7,0.4-3.1,1.3-4.1s2-1.5,3.4-1.5
		c1.3,0,2.4,0.4,3.2,1.3s1.2,2,1.2,3.5v1h-7.4c0,1.3,0.4,2.2,1,2.9s1.5,1,2.5,1c1.2,0,2.3-0.2,3.4-0.7v1.4c-0.6,0.2-1.1,0.4-1.6,0.5
		S129.5,231.2,128.8,231.2z M128.3,221.5c-0.9,0-1.5,0.3-2.1,0.8s-0.8,1.3-0.9,2.3h5.6c0-1-0.2-1.8-0.7-2.3S129.2,221.5,128.3,221.5
		z"/>
	<path class="st2" d="M142.7,221.7h-3.5v9.3h-1.6v-9.3h-3.4v-1.4h8.5V221.7z"/>
	<path class="st2" d="M146.4,224.7h3.3c2.7,0,4.1,1,4.1,3c0,1.1-0.4,1.9-1.1,2.4s-1.8,0.8-3.1,0.8h-4.8v-10.7h1.6V224.7z
		 M146.4,226.1v3.5h3.1c0.9,0,1.5-0.1,2-0.4s0.7-0.8,0.7-1.4c0-0.6-0.2-1-0.6-1.3s-1.1-0.4-2.1-0.4H146.4z"/>
	<path class="st2" d="M158.3,228.7l0.1,0.2c-0.2,0.7-0.4,1.4-0.7,2.3s-0.7,1.7-1,2.4h-1.2c0.2-0.7,0.4-1.5,0.6-2.5s0.4-1.8,0.4-2.4
		H158.3z"/>
	<path class="st2" d="M165,220.3h1.7l2.3,6.1c0.5,1.4,0.8,2.4,1,3h0.1c0.1-0.3,0.3-0.9,0.5-1.7s1.2-3.3,2.7-7.4h1.7l-4.6,12.2
		c-0.5,1.2-1,2.1-1.6,2.6s-1.4,0.8-2.2,0.8c-0.5,0-1-0.1-1.5-0.2v-1.3c0.4,0.1,0.8,0.1,1.2,0.1c1.1,0,1.9-0.6,2.4-1.9l0.6-1.5
		L165,220.3z"/>
	<path class="st2" d="M181.1,231.2c-1.5,0-2.7-0.5-3.6-1.4s-1.3-2.3-1.3-4c0-1.8,0.4-3.2,1.3-4.2s2.1-1.5,3.7-1.5
		c0.5,0,1,0.1,1.5,0.2s0.9,0.2,1.2,0.4l-0.5,1.4c-0.4-0.1-0.7-0.3-1.2-0.4s-0.8-0.1-1.1-0.1c-2.2,0-3.3,1.4-3.3,4.2
		c0,1.3,0.3,2.3,0.8,3s1.3,1.1,2.4,1.1c0.9,0,1.8-0.2,2.7-0.6v1.4C183.1,231,182.2,231.2,181.1,231.2z"/>
	<path class="st2" d="M194.3,231h-1.6v-9.3h-3.2c-0.2,2.3-0.4,4.2-0.7,5.5s-0.7,2.4-1.2,3s-1.1,0.9-1.9,0.9c-0.4,0-0.6,0-0.8-0.1
		v-1.2c0.1,0,0.3,0.1,0.5,0.1c0.7,0,1.3-0.8,1.8-2.4s0.8-4,1-7.2h6.3V231z"/>
	<path class="st2" d="M199.4,224.7h2.9c1.4,0,2.4,0.3,3,0.8s1,1.3,1,2.3c0,1.1-0.3,1.9-1,2.4s-1.7,0.8-3.1,0.8h-4.4v-10.7h1.6V224.7
		z M199.4,226.1v3.5h2.7c1.7,0,2.6-0.6,2.6-1.8c0-0.6-0.2-1-0.6-1.3s-1.1-0.4-2-0.4H199.4z M209.7,231h-1.6v-10.7h1.6V231z"/>
	<path class="st2" d="M221.1,229.6h4.7v-9.3h1.6V231h-14.4v-10.7h1.6v9.3h4.7v-9.3h1.6V229.6z"/>
	<path class="st2" d="M237.5,231l-0.3-1.5h-0.1c-0.5,0.7-1.1,1.1-1.6,1.4s-1.2,0.4-2,0.4c-1.1,0-1.9-0.3-2.5-0.8s-0.9-1.3-0.9-2.3
		c0-2.2,1.7-3.3,5.2-3.4l1.8-0.1v-0.7c0-0.8-0.2-1.5-0.5-1.9s-0.9-0.6-1.7-0.6c-0.9,0-1.9,0.3-3,0.8l-0.5-1.2
		c0.5-0.3,1.1-0.5,1.7-0.7s1.3-0.2,1.9-0.2c1.3,0,2.2,0.3,2.8,0.8s0.9,1.5,0.9,2.7v7.3H237.5z M233.9,229.9c1,0,1.8-0.3,2.4-0.8
		s0.9-1.3,0.9-2.3v-1l-1.6,0.1c-1.3,0-2.2,0.2-2.8,0.6s-0.9,0.9-0.9,1.7c0,0.6,0.2,1,0.5,1.3S233.2,229.9,233.9,229.9z"/>
	<path class="st2" d="M249.3,221.7h-3.5v9.3h-1.6v-9.3h-3.4v-1.4h8.5V221.7z"/>
	<path class="st2" d="M253,224.7h3.3c2.7,0,4.1,1,4.1,3c0,1.1-0.4,1.9-1.1,2.4s-1.8,0.8-3.1,0.8h-4.8v-10.7h1.6V224.7z M253,226.1
		v3.5h3.1c0.9,0,1.5-0.1,2-0.4s0.7-0.8,0.7-1.4c0-0.6-0.2-1-0.6-1.3s-1.1-0.4-2.1-0.4H253z"/>
	<path class="st2" d="M264.9,228.7l0.1,0.2c-0.2,0.7-0.4,1.4-0.7,2.3s-0.7,1.7-1,2.4h-1.2c0.2-0.7,0.4-1.5,0.6-2.5s0.4-1.8,0.4-2.4
		H264.9z"/>
</g>
<g class="st1">
	<path class="st2" d="M20.3,255h-1.6v-10.7h9V255h-1.6v-9.3h-5.7V255z"/>
	<path class="st2" d="M40.4,249.6c0,1.7-0.4,3.1-1.3,4.1s-2.1,1.5-3.6,1.5c-1,0-1.8-0.2-2.5-0.7s-1.3-1.1-1.7-1.9s-0.6-1.8-0.6-2.9
		c0-1.7,0.4-3.1,1.3-4.1s2.1-1.5,3.6-1.5c1.5,0,2.7,0.5,3.6,1.5S40.4,247.9,40.4,249.6z M32.2,249.6c0,1.4,0.3,2.4,0.8,3.1
		s1.4,1.1,2.4,1.1s1.9-0.4,2.4-1.1s0.8-1.8,0.8-3.1c0-1.4-0.3-2.4-0.8-3.1s-1.4-1.1-2.4-1.1c-1.1,0-1.9,0.3-2.4,1
		S32.2,248.3,32.2,249.6z"/>
	<path class="st2" d="M50.4,245.7H47v9.3h-1.6v-9.3h-3.4v-1.4h8.5V245.7z"/>
	<path class="st2" d="M57.5,255.2c-0.7,0-1.3-0.1-1.9-0.4s-1.1-0.7-1.5-1.2h-0.1c0.1,0.6,0.1,1.2,0.1,1.8v4.4h-1.6v-15.5h1.3
		l0.2,1.5h0.1c0.4-0.6,0.9-1,1.5-1.3s1.2-0.4,1.9-0.4c1.4,0,2.5,0.5,3.3,1.5s1.2,2.3,1.2,4.1c0,1.8-0.4,3.1-1.2,4.1
		S58.9,255.2,57.5,255.2z M57.3,245.5c-1.1,0-1.9,0.3-2.4,0.9s-0.7,1.6-0.8,2.9v0.4c0,1.5,0.3,2.6,0.8,3.2s1.3,1,2.4,1
		c0.9,0,1.6-0.4,2.2-1.1s0.8-1.8,0.8-3.1c0-1.3-0.3-2.4-0.8-3.1S58.3,245.5,57.3,245.5z"/>
	<path class="st2" d="M74.1,249.6c0,1.7-0.4,3.1-1.3,4.1s-2.1,1.5-3.6,1.5c-1,0-1.8-0.2-2.5-0.7s-1.3-1.1-1.7-1.9s-0.6-1.8-0.6-2.9
		c0-1.7,0.4-3.1,1.3-4.1s2.1-1.5,3.6-1.5c1.5,0,2.7,0.5,3.6,1.5S74.1,247.9,74.1,249.6z M65.9,249.6c0,1.4,0.3,2.4,0.8,3.1
		s1.4,1.1,2.4,1.1s1.9-0.4,2.4-1.1s0.8-1.8,0.8-3.1c0-1.4-0.3-2.4-0.8-3.1s-1.4-1.1-2.4-1.1c-1.1,0-1.9,0.3-2.4,1
		S65.9,248.3,65.9,249.6z"/>
	<path class="st2" d="M83.3,245.7h-4.8v9.3h-1.6v-10.7h6.4V245.7z"/>
	<path class="st2" d="M92,255l-0.3-1.5h-0.1c-0.5,0.7-1.1,1.1-1.6,1.4s-1.2,0.4-2,0.4c-1.1,0-1.9-0.3-2.5-0.8s-0.9-1.3-0.9-2.3
		c0-2.2,1.7-3.3,5.2-3.4l1.8-0.1v-0.7c0-0.8-0.2-1.5-0.5-1.9s-0.9-0.6-1.7-0.6c-0.9,0-1.9,0.3-3,0.8l-0.5-1.2
		c0.5-0.3,1.1-0.5,1.7-0.7s1.3-0.2,1.9-0.2c1.3,0,2.2,0.3,2.8,0.8s0.9,1.5,0.9,2.7v7.3H92z M88.4,253.9c1,0,1.8-0.3,2.4-0.8
		s0.9-1.3,0.9-2.3v-1l-1.6,0.1c-1.3,0-2.2,0.2-2.8,0.6s-0.9,0.9-0.9,1.7c0,0.6,0.2,1,0.5,1.3S87.7,253.9,88.4,253.9z"/>
	<path class="st2" d="M103.8,245.7h-3.5v9.3h-1.6v-9.3h-3.4v-1.4h8.5V245.7z"/>
	<path class="st2" d="M107.5,248.7h3.3c2.7,0,4.1,1,4.1,3c0,1.1-0.4,1.9-1.1,2.4s-1.8,0.8-3.1,0.8h-4.8v-10.7h1.6V248.7z
		 M107.5,250.1v3.5h3.1c0.9,0,1.5-0.1,2-0.4s0.7-0.8,0.7-1.4c0-0.6-0.2-1-0.6-1.3s-1.1-0.4-2.1-0.4H107.5z"/>
	<path class="st2" d="M119.5,252.7l0.1,0.2c-0.2,0.7-0.4,1.4-0.7,2.3s-0.7,1.7-1,2.4h-1.2c0.2-0.7,0.4-1.5,0.6-2.5s0.4-1.8,0.4-2.4
		H119.5z"/>
	<path class="st2" d="M129.4,244.3v6.8l-0.1,1.8l0,0.6l5.8-9.1h2V255h-1.5v-6.5l0-1.3l0-1.3l-5.8,9.1h-2v-10.7H129.4z"/>
	<path class="st2" d="M148.5,255h-1.6v-9.3h-3.2c-0.2,2.3-0.4,4.2-0.7,5.5s-0.7,2.4-1.2,3s-1.1,0.9-1.9,0.9c-0.4,0-0.6,0-0.8-0.1
		v-1.2c0.1,0,0.3,0.1,0.5,0.1c0.7,0,1.3-0.8,1.8-2.4s0.8-4,1-7.2h6.3V255z"/>
	<path class="st2" d="M153.5,244.3v6.8l-0.1,1.8l0,0.6l5.8-9.1h2V255h-1.5v-6.5l0-1.3l0-1.3L154,255h-2v-10.7H153.5z"/>
	<path class="st2" d="M179.1,258.7h-1.6V255h-7.5v3.7h-1.6v-5.1h0.8c0.9-1.2,1.6-2.6,2.1-4.2s0.8-3.3,0.8-5.1h5.4v9.3h1.5V258.7z
		 M176,253.6v-8h-2.4c-0.1,1.4-0.4,2.9-0.8,4.4s-1.1,2.7-1.8,3.6H176z"/>
	<path class="st2" d="M187.8,255l-0.3-1.5h-0.1c-0.5,0.7-1.1,1.1-1.6,1.4s-1.2,0.4-2,0.4c-1.1,0-1.9-0.3-2.5-0.8s-0.9-1.3-0.9-2.3
		c0-2.2,1.7-3.3,5.2-3.4l1.8-0.1v-0.7c0-0.8-0.2-1.5-0.5-1.9s-0.9-0.6-1.7-0.6c-0.9,0-1.9,0.3-3,0.8l-0.5-1.2
		c0.5-0.3,1.1-0.5,1.7-0.7s1.3-0.2,1.9-0.2c1.3,0,2.2,0.3,2.8,0.8s0.9,1.5,0.9,2.7v7.3H187.8z M184.2,253.9c1,0,1.8-0.3,2.4-0.8
		s0.9-1.3,0.9-2.3v-1l-1.6,0.1c-1.3,0-2.2,0.2-2.8,0.6s-0.9,0.9-0.9,1.7c0,0.6,0.2,1,0.5,1.3S183.5,253.9,184.2,253.9z"/>
	<path class="st2" d="M197.3,244.3h1.5v5.2l4.4-5.2h1.8l-4.5,5.2l4.9,5.5h-1.9l-4.7-5.4v5.4h-1.5v-5.4l-4.7,5.4h-1.9l4.8-5.5
		l-4.5-5.2h1.8l4.4,5.2V244.3z"/>
	<path class="st2" d="M211.6,255.2c-1.6,0-2.8-0.5-3.7-1.4s-1.4-2.3-1.4-4c0-1.7,0.4-3.1,1.3-4.1s2-1.5,3.4-1.5
		c1.3,0,2.4,0.4,3.2,1.3s1.2,2,1.2,3.5v1h-7.4c0,1.3,0.3,2.2,1,2.9s1.5,1,2.5,1c1.2,0,2.3-0.2,3.4-0.7v1.4c-0.6,0.2-1.1,0.4-1.6,0.5
		S212.3,255.2,211.6,255.2z M211.2,245.5c-0.9,0-1.5,0.3-2.1,0.8s-0.8,1.3-0.9,2.3h5.6c0-1-0.2-1.8-0.7-2.3S212,245.5,211.2,245.5z"
		/>
	<path class="st2" d="M218.1,254c0-0.4,0.1-0.8,0.3-1s0.5-0.3,0.9-0.3c0.4,0,0.7,0.1,0.9,0.3s0.3,0.6,0.3,1c0,0.4-0.1,0.7-0.3,1
		s-0.5,0.3-0.9,0.3c-0.3,0-0.6-0.1-0.8-0.3S218.1,254.4,218.1,254z"/>
	<path class="st2" d="M223.4,254c0-0.4,0.1-0.8,0.3-1s0.5-0.3,0.9-0.3c0.4,0,0.7,0.1,0.9,0.3s0.3,0.6,0.3,1c0,0.4-0.1,0.7-0.3,1
		s-0.5,0.3-0.9,0.3c-0.3,0-0.6-0.1-0.8-0.3S223.4,254.4,223.4,254z"/>
	<path class="st2" d="M228.7,254c0-0.4,0.1-0.8,0.3-1s0.5-0.3,0.9-0.3c0.4,0,0.7,0.1,0.9,0.3s0.3,0.6,0.3,1c0,0.4-0.1,0.7-0.3,1
		s-0.5,0.3-0.9,0.3c-0.3,0-0.6-0.1-0.8-0.3S228.7,254.4,228.7,254z"/>
</g>
<g class="st1">
	<path class="st2" d="M234,246.9c1.3,1.6,2.5,3,3.2,3.7c-0.6,0.7-1.9,2.1-3.2,3.7l-0.5-0.3l1.9-3.4l-1.9-3.4L234,246.9z
		 M237.3,246.9c1.3,1.6,2.5,3,3.2,3.7c-0.7,0.7-1.9,2.1-3.2,3.7l-0.4-0.3l1.9-3.4l-1.9-3.4L237.3,246.9z"/>
</g>
</svg>
