<?xml version="1.0" encoding="utf-8"?>
<!-- Generator: Adobe Illustrator 19.2.0, SVG Export Plug-In . SVG Version: 6.00 Build 0)  -->
<svg version="1.1" id="Слой_1" xmlns="http://www.w3.org/2000/svg" xmlns:xlink="http://www.w3.org/1999/xlink" x="0px" y="0px"
	 viewBox="0 0 299.9 299.9" style="enable-background:new 0 0 299.9 299.9;" xml:space="preserve">
<style type="text/css">
	.st0{fill:url(#SVGID_1_);}
	.st1{enable-background:new    ;}
	.st2{fill:#FFFFFF;}
	.st3{fill:#FEFEFF;}
</style>
<title>ИмяСуществительное</title>
<linearGradient id="SVGID_1_" gradientUnits="userSpaceOnUse" x1="-24.5509" y1="190.7957" x2="317.2491" y2="114.8957" gradientTransform="matrix(1 0 0 -1 0 302)">
	<stop  offset="0" style="stop-color:#5B6EC0"/>
	<stop  offset="1" style="stop-color:#4BC4E7"/>
</linearGradient>
<path class="st0" d="M12,0h275.9c6.6,0,12,5.4,12,12v275.9c0,6.6-5.4,12-12,12H12c-6.6,0-12-5.4-12-12V12C0,5.4,5.4,0,12,0z"/>
<g class="st1">
	<path class="st2" d="M38.1,36h-3V21.3h3.1v9.5l6.8-9.5h3.2V36h-3.1v-9.8L38.1,36z"/>
	<path class="st2" d="M63.6,36h-2.8v-6.9L58,36h-1.3l-2.9-6.9V36h-2.8V25.4h3.7l2.6,6.3l2.6-6.3h3.7V36z"/>
	<path class="st2" d="M69.2,36H66l2.5-3.8c-0.7-0.2-1.2-0.5-1.7-1.1c-0.5-0.6-0.7-1.3-0.7-2.2c0-1,0.3-1.8,1-2.5
		c0.7-0.7,1.6-1,2.7-1h6.4V36h-2.8v-3.7h-2.2L69.2,36z M70.3,30h3.2v-2.3h-3.2c-0.4,0-0.7,0.1-0.9,0.3c-0.2,0.2-0.4,0.5-0.4,0.8
		c0,0.4,0.1,0.6,0.3,0.8C69.6,29.9,69.9,30,70.3,30z"/>
	<path class="st2" d="M89.6,36.3c-1.6,0-3-0.5-4-1.6s-1.6-2.4-1.6-4c0-1.6,0.5-3,1.6-4c1.1-1,2.4-1.6,4-1.6c1.9,0,3.3,0.6,4.2,1.9
		L92,28.7c-0.5-0.8-1.3-1.1-2.2-1.1c-0.9,0-1.5,0.3-2.1,0.8c-0.5,0.6-0.8,1.3-0.8,2.2s0.3,1.7,0.8,2.2c0.5,0.6,1.2,0.9,2.1,0.9
		c1,0,1.7-0.4,2.2-1.1l1.8,1.7C92.9,35.6,91.5,36.3,89.6,36.3z"/>
	<path class="st2" d="M95.2,40.2l0.4-2.5c0.3,0.1,0.6,0.2,0.9,0.2c0.7,0,1.2-0.3,1.5-0.8l0.4-0.9l-4.3-10.8h3l2.8,7.4l2.8-7.4h3
		l-5,12.4c-0.4,0.9-0.9,1.6-1.5,2c-0.7,0.4-1.5,0.6-2.5,0.6C96.1,40.3,95.6,40.3,95.2,40.2z"/>
	<path class="st2" d="M119.4,25.4h2.8v8.2h1.3v5.1h-2.8V36h-13.8V25.4h2.8v8.2h3.5v-8.2h2.8v8.2h3.5V25.4z"/>
	<path class="st2" d="M130.3,36.3c-1.6,0-3-0.5-4.1-1.5c-1.1-1-1.6-2.4-1.6-4c0-1.6,0.5-2.9,1.6-4c1-1.1,2.4-1.6,3.9-1.6
		c1.6,0,2.9,0.5,3.9,1.6c1,1.1,1.5,2.5,1.5,4.2v0.6h-7.9c0.1,0.7,0.4,1.3,0.9,1.8c0.5,0.5,1.2,0.7,2.1,0.7c0.5,0,1-0.1,1.5-0.3
		c0.6-0.2,1-0.4,1.3-0.8l1.2,1.8C133.6,35.8,132.1,36.3,130.3,36.3z M132.7,29.7c0-0.6-0.3-1.1-0.7-1.6c-0.4-0.5-1.1-0.7-1.9-0.7
		c-0.8,0-1.4,0.2-1.8,0.7s-0.7,1-0.8,1.6H132.7z"/>
	<path class="st2" d="M142.4,36.3c-1.6,0-3-0.5-4-1.6s-1.6-2.4-1.6-4c0-1.6,0.5-3,1.6-4c1.1-1,2.4-1.6,4-1.6c1.9,0,3.3,0.6,4.2,1.9
		l-1.8,1.7c-0.5-0.8-1.3-1.1-2.2-1.1c-0.9,0-1.5,0.3-2.1,0.8c-0.5,0.6-0.8,1.3-0.8,2.2s0.3,1.7,0.8,2.2c0.5,0.6,1.2,0.9,2.1,0.9
		c1,0,1.7-0.4,2.2-1.1l1.8,1.7C145.7,35.6,144.3,36.3,142.4,36.3z"/>
	<path class="st2" d="M153.2,36h-2.8v-8.2h-3v-2.4h8.8v2.4h-3V36z"/>
	<path class="st2" d="M164.9,36h-6.9V25.4h6.7c1,0,1.8,0.3,2.4,0.8s0.9,1.2,0.9,1.9c0,0.6-0.2,1.1-0.5,1.6c-0.3,0.4-0.8,0.7-1.3,0.9
		c0.6,0.1,1.1,0.4,1.5,0.9c0.4,0.5,0.6,1,0.6,1.7c0,0.8-0.3,1.5-0.9,2.1C166.7,35.7,165.9,36,164.9,36z M164.1,29.4
		c0.3,0,0.5-0.1,0.7-0.3c0.2-0.2,0.3-0.4,0.3-0.6c0-0.3-0.1-0.5-0.3-0.6c-0.2-0.2-0.4-0.3-0.7-0.3h-3.4v1.8H164.1z M164.2,33.7
		c0.3,0,0.6-0.1,0.8-0.3s0.3-0.4,0.3-0.7c0-0.3-0.1-0.5-0.3-0.7c-0.2-0.2-0.5-0.3-0.8-0.3h-3.5v2H164.2z"/>
	<path class="st2" d="M173.5,36h-2.7V25.4h2.8v6.4l4.4-6.4h2.8V36H178v-6.7L173.5,36z"/>
	<path class="st2" d="M188.4,36h-2.8v-8.2h-3v-2.4h8.8v2.4h-3V36z"/>
	<path class="st2" d="M198.1,36.3c-1.6,0-3-0.5-4.1-1.5c-1.1-1-1.6-2.4-1.6-4c0-1.6,0.5-2.9,1.6-4c1-1.1,2.3-1.6,3.9-1.6
		c1.6,0,2.9,0.5,3.8,1.6c1,1.1,1.5,2.5,1.5,4.2v0.6h-7.9c0.1,0.7,0.4,1.3,0.9,1.8c0.5,0.5,1.2,0.7,2.1,0.7c0.5,0,1-0.1,1.5-0.3
		c0.5-0.2,1-0.4,1.3-0.8l1.2,1.8C201.4,35.8,199.9,36.3,198.1,36.3z M200.5,29.7c0-0.6-0.3-1.1-0.7-1.6c-0.4-0.5-1.1-0.7-1.9-0.7
		c-0.8,0-1.4,0.2-1.8,0.7c-0.4,0.5-0.7,1-0.8,1.6H200.5z"/>
	<path class="st2" d="M204.3,36.3V34c0.4,0,0.8-0.3,1.1-0.8c0.3-0.5,0.5-1.4,0.6-2.7l0.7-5.1h8.6V36h-2.8v-8.2h-3.4l-0.4,3
		c-0.2,1.9-0.7,3.2-1.4,4.1C206.6,35.8,205.6,36.3,204.3,36.3z"/>
	<path class="st2" d="M218,25.4h2.8V29h3.6c1.2,0,2.1,0.3,2.7,1c0.6,0.7,1,1.5,1,2.5c0,1-0.3,1.8-1,2.5s-1.6,1-2.7,1H218V25.4z
		 M224,31.4h-3.2v2.3h3.2c0.4,0,0.7-0.1,0.9-0.3s0.3-0.5,0.3-0.8c0-0.3-0.1-0.6-0.3-0.8C224.7,31.5,224.4,31.4,224,31.4z"/>
	<path class="st2" d="M233,36h-2.8V25.4h2.8v3.9h4.4v-3.9h2.8V36h-2.8v-4.2H233V36z"/>
	<path class="st2" d="M252,34.6c-1,1.1-2.4,1.6-4.1,1.6c-1.7,0-3.1-0.5-4.1-1.6c-1-1.1-1.5-2.4-1.5-4s0.5-2.9,1.5-4
		c1-1.1,2.4-1.6,4.1-1.6c1.7,0,3.1,0.5,4.1,1.6c1,1.1,1.5,2.4,1.5,4S253,33.6,252,34.6z M245.9,32.9c0.5,0.6,1.1,0.9,2,0.9
		s1.5-0.3,2-0.9c0.5-0.6,0.7-1.3,0.7-2.2c0-0.9-0.2-1.6-0.7-2.2c-0.5-0.6-1.2-0.9-2-0.9s-1.5,0.3-2,0.9c-0.5,0.6-0.7,1.3-0.7,2.2
		C245.2,31.6,245.4,32.3,245.9,32.9z"/>
	<path class="st2" d="M260.6,36.3c-1.6,0-3-0.5-4.1-1.5c-1.1-1-1.6-2.4-1.6-4c0-1.6,0.5-2.9,1.6-4c1-1.1,2.4-1.6,3.9-1.6
		c1.6,0,2.9,0.5,3.9,1.6c1,1.1,1.5,2.5,1.5,4.2v0.6h-7.9c0.1,0.7,0.4,1.3,0.9,1.8c0.5,0.5,1.2,0.7,2.1,0.7c0.5,0,1-0.1,1.5-0.3
		c0.6-0.2,1-0.4,1.3-0.8l1.2,1.8C263.9,35.8,262.4,36.3,260.6,36.3z M263,29.7c0-0.6-0.3-1.1-0.7-1.6c-0.4-0.5-1.1-0.7-1.9-0.7
		c-0.8,0-1.4,0.2-1.8,0.7c-0.4,0.5-0.7,1-0.8,1.6H263z"/>
</g>
<g class="st1">
	<path class="st3" d="M25,95.7h4c1.9,0,3.3,0.3,4.1,0.8s1.3,1.5,1.3,2.7c0,0.8-0.2,1.5-0.7,2.1s-1.2,0.9-2.1,1.1v0.1
		c2.2,0.4,3.3,1.5,3.3,3.4c0,1.3-0.4,2.3-1.3,3s-2.1,1.1-3.6,1.1h-5V95.7z M26.6,101.8h2.7c1.2,0,2-0.2,2.5-0.6s0.8-1,0.8-1.9
		c0-0.8-0.3-1.4-0.9-1.7s-1.5-0.5-2.7-0.5h-2.4V101.8z M26.6,103.2v5.3h3c1.2,0,2-0.2,2.6-0.7s0.9-1.1,0.9-2.1c0-0.9-0.3-1.5-0.9-2
		s-1.5-0.6-2.7-0.6H26.6z"/>
	<path class="st3" d="M47.9,110.2c-0.7,0-1.3-0.1-1.9-0.4s-1.1-0.7-1.5-1.2h-0.1c0.1,0.6,0.1,1.2,0.1,1.8v4.4h-1.6V99.3h1.3l0.2,1.5
		h0.1c0.4-0.6,0.9-1,1.5-1.3s1.2-0.4,1.9-0.4c1.4,0,2.5,0.5,3.3,1.5s1.2,2.3,1.2,4.1c0,1.8-0.4,3.1-1.2,4.1S49.2,110.2,47.9,110.2z
		 M47.6,100.5c-1.1,0-1.9,0.3-2.4,0.9s-0.7,1.6-0.8,2.9v0.4c0,1.5,0.3,2.6,0.8,3.2s1.3,1,2.4,1c0.9,0,1.6-0.4,2.2-1.1
		s0.8-1.8,0.8-3.1c0-1.3-0.3-2.4-0.8-3.1S48.6,100.5,47.6,100.5z"/>
	<path class="st3" d="M53.4,99.3h1.7l2.3,6.1c0.5,1.4,0.8,2.4,1,3h0.1c0.1-0.3,0.3-0.9,0.5-1.7s1.2-3.3,2.7-7.4h1.7l-4.6,12.2
		c-0.5,1.2-1,2.1-1.6,2.6s-1.4,0.8-2.2,0.8c-0.5,0-1-0.1-1.5-0.2v-1.3c0.4,0.1,0.8,0.1,1.2,0.1c1.1,0,1.9-0.6,2.4-1.9l0.6-1.5
		L53.4,99.3z"/>
	<path class="st3" d="M69.5,110.2c-1.5,0-2.7-0.5-3.6-1.4s-1.3-2.3-1.3-4c0-1.8,0.4-3.2,1.3-4.2s2.1-1.5,3.7-1.5
		c0.5,0,1,0.1,1.5,0.2s0.9,0.2,1.2,0.4l-0.5,1.4c-0.4-0.1-0.7-0.3-1.2-0.4s-0.8-0.1-1.1-0.1c-2.2,0-3.3,1.4-3.3,4.2
		c0,1.3,0.3,2.3,0.8,3s1.3,1.1,2.4,1.1c0.9,0,1.8-0.2,2.7-0.6v1.4C71.5,110,70.6,110.2,69.5,110.2z"/>
	<path class="st3" d="M79,110.2c-1.5,0-2.7-0.5-3.6-1.4s-1.3-2.3-1.3-4c0-1.8,0.4-3.2,1.3-4.2s2.1-1.5,3.7-1.5c0.5,0,1,0.1,1.5,0.2
		s0.9,0.2,1.2,0.4l-0.5,1.4c-0.4-0.1-0.7-0.3-1.2-0.4s-0.8-0.1-1.1-0.1c-2.2,0-3.3,1.4-3.3,4.2c0,1.3,0.3,2.3,0.8,3s1.3,1.1,2.4,1.1
		c0.9,0,1.8-0.2,2.7-0.6v1.4C81,110,80.1,110.2,79,110.2z"/>
	<path class="st3" d="M90.5,99.3h1.8l-4.6,5.2l5,5.5h-1.9l-4.9-5.4v5.4h-1.6V99.3h1.6v5.2L90.5,99.3z"/>
	<path class="st3" d="M103.9,104.6c0,1.7-0.4,3.1-1.3,4.1s-2.1,1.5-3.6,1.5c-1,0-1.8-0.2-2.5-0.7s-1.3-1.1-1.7-1.9s-0.6-1.8-0.6-2.9
		c0-1.7,0.4-3.1,1.3-4.1s2.1-1.5,3.6-1.5c1.5,0,2.7,0.5,3.6,1.5S103.9,102.9,103.9,104.6z M95.7,104.6c0,1.4,0.3,2.4,0.8,3.1
		s1.4,1.1,2.4,1.1s1.9-0.4,2.4-1.1s0.8-1.8,0.8-3.1c0-1.4-0.3-2.4-0.8-3.1s-1.4-1.1-2.4-1.1c-1.1,0-1.9,0.3-2.4,1
		S95.7,103.3,95.7,104.6z"/>
	<path class="st3" d="M112.3,108.4l0.3-0.9l0.4-1.2l2.9-7.1h2.1V110h-1.4v-8.8l-0.2,0.6l-0.6,1.5L113,110h-1.4l-2.8-6.8
		c-0.3-0.9-0.6-1.6-0.7-2v8.8h-1.4V99.3h2l2.8,6.8C111.8,106.8,112,107.6,112.3,108.4z"/>
	<path class="st3" d="M127.1,110h-1.9l3.1-4.5c-0.8-0.2-1.5-0.5-1.9-1.1s-0.7-1.2-0.7-2c0-1,0.3-1.7,1-2.3s1.6-0.8,2.8-0.8h4.8V110
		h-1.6v-4.3h-2.7L127.1,110z M127.3,102.5c0,1.2,0.9,1.9,2.7,1.9h2.6v-3.6h-2.9C128.1,100.7,127.3,101.3,127.3,102.5z"/>
	<path class="st3" d="M139.7,103.7c2,0,3-0.6,3-1.7c0-1.1-0.8-1.6-2.5-1.6c-0.5,0-1,0-1.4,0.1s-0.9,0.3-1.6,0.5l-0.6-1.3
		c1.1-0.5,2.3-0.7,3.6-0.7c1.2,0,2.2,0.3,2.9,0.8s1.1,1.2,1.1,2.1c0,1.2-0.7,2-2,2.4v0.1c0.8,0.2,1.4,0.6,1.8,1s0.6,1,0.6,1.7
		c0,1-0.4,1.8-1.2,2.3s-1.9,0.8-3.3,0.8c-1.5,0-2.7-0.2-3.6-0.7V108c1.2,0.6,2.4,0.8,3.6,0.8c0.9,0,1.6-0.2,2.1-0.5s0.7-0.8,0.7-1.4
		c0-1.2-1-1.9-3-1.9h-1.5v-1.4H139.7z"/>
	<path class="st3" d="M149,103.7h2.9c1.4,0,2.4,0.3,3,0.8s1,1.3,1,2.3c0,1.1-0.3,1.9-1,2.4s-1.7,0.8-3.1,0.8h-4.4V99.3h1.6V103.7z
		 M149,105.1v3.5h2.7c1.7,0,2.6-0.6,2.6-1.8c0-0.6-0.2-1-0.6-1.3s-1.1-0.4-2-0.4H149z M159.3,110h-1.6V99.3h1.6V110z"/>
	<path class="st3" d="M169,99.3h1.8l-4.6,5.2l5,5.5h-1.9l-4.9-5.4v5.4h-1.6V99.3h1.6v5.2L169,99.3z"/>
	<path class="st3" d="M177.7,110.2c-1.6,0-2.8-0.5-3.7-1.4s-1.4-2.3-1.4-4c0-1.7,0.4-3.1,1.3-4.1s2-1.5,3.4-1.5
		c1.3,0,2.4,0.4,3.2,1.3s1.2,2,1.2,3.5v1h-7.4c0,1.3,0.3,2.2,1,2.9s1.5,1,2.5,1c1.2,0,2.3-0.2,3.4-0.7v1.4c-0.6,0.2-1.1,0.4-1.6,0.5
		S178.4,110.2,177.7,110.2z M177.2,100.5c-0.9,0-1.5,0.3-2.1,0.8s-0.8,1.3-0.9,2.3h5.6c0-1-0.2-1.8-0.7-2.3S178.1,100.5,177.2,100.5
		z"/>
	<path class="st3" d="M194.1,110.2c-1.6,0-2.8-0.5-3.7-1.4s-1.4-2.3-1.4-4c0-1.7,0.4-3.1,1.3-4.1s2-1.5,3.4-1.5
		c1.3,0,2.4,0.4,3.2,1.3s1.2,2,1.2,3.5v1h-7.4c0,1.3,0.3,2.2,1,2.9s1.5,1,2.5,1c1.2,0,2.3-0.2,3.4-0.7v1.4c-0.6,0.2-1.1,0.4-1.6,0.5
		S194.8,110.2,194.1,110.2z M193.6,100.5c-0.9,0-1.5,0.3-2.1,0.8s-0.8,1.3-0.9,2.3h5.6c0-1-0.2-1.8-0.7-2.3S194.5,100.5,193.6,100.5
		z"/>
	<path class="st3" d="M205.1,110.2c-1.5,0-2.7-0.5-3.6-1.4s-1.3-2.3-1.3-4c0-1.8,0.4-3.2,1.3-4.2s2.1-1.5,3.7-1.5
		c0.5,0,1,0.1,1.5,0.2s0.9,0.2,1.2,0.4l-0.5,1.4c-0.4-0.1-0.7-0.3-1.2-0.4s-0.8-0.1-1.1-0.1c-2.2,0-3.3,1.4-3.3,4.2
		c0,1.3,0.3,2.3,0.8,3s1.3,1.1,2.4,1.1c0.9,0,1.8-0.2,2.7-0.6v1.4C207,110,206.1,110.2,205.1,110.2z"/>
	<path class="st3" d="M217.5,100.7H214v9.3h-1.6v-9.3H209v-1.4h8.5V100.7z"/>
	<path class="st3" d="M221.3,103.7h3.3c2.7,0,4.1,1,4.1,3c0,1.1-0.4,1.9-1.1,2.4s-1.8,0.8-3.1,0.8h-4.8V99.3h1.6V103.7z
		 M221.3,105.1v3.5h3.1c0.9,0,1.5-0.1,2-0.4s0.7-0.8,0.7-1.4c0-0.6-0.2-1-0.6-1.3s-1.1-0.4-2.1-0.4H221.3z"/>
</g>
<g class="st1">
	<path class="st3" d="M24.2,127.6c0-2.3,0.3-4.2,1-5.5s1.8-2.1,3.3-2.5c1.9-0.4,3.5-0.7,4.9-1l0.3,1.4c-2.3,0.4-3.9,0.7-4.8,0.9
		c-0.9,0.2-1.7,0.7-2.1,1.5s-0.7,1.9-0.8,3.3h0.1c0.4-0.5,0.9-1,1.6-1.3s1.3-0.5,2-0.5c1.3,0,2.3,0.4,3.1,1.3s1.1,2,1.1,3.5
		c0,1.7-0.4,3-1.3,3.9s-2,1.4-3.6,1.4c-1.5,0-2.7-0.6-3.5-1.7S24.2,129.7,24.2,127.6z M29.1,132.8c2,0,3-1.3,3-3.8
		c0-2.4-0.9-3.6-2.7-3.6c-0.5,0-1,0.1-1.4,0.3s-0.9,0.5-1.3,0.8s-0.7,0.7-0.9,1c0,1.7,0.3,3,0.8,3.9S28,132.8,29.1,132.8z"/>
	<path class="st3" d="M45.9,128.6c0,1.7-0.4,3.1-1.3,4.1s-2.1,1.5-3.6,1.5c-1,0-1.8-0.2-2.5-0.7s-1.3-1.1-1.7-1.9s-0.6-1.8-0.6-2.9
		c0-1.7,0.4-3.1,1.3-4.1s2.1-1.5,3.6-1.5c1.5,0,2.7,0.5,3.6,1.5S45.9,126.9,45.9,128.6z M37.7,128.6c0,1.4,0.3,2.4,0.8,3.1
		s1.4,1.1,2.4,1.1s1.9-0.4,2.4-1.1s0.8-1.8,0.8-3.1c0-1.4-0.3-2.4-0.8-3.1s-1.4-1.1-2.4-1.1c-1.1,0-1.9,0.3-2.4,1
		S37.7,127.3,37.7,128.6z"/>
	<path class="st3" d="M56.7,134h-1.6v-9.3h-3.2c-0.2,2.3-0.4,4.2-0.7,5.5s-0.7,2.4-1.2,3s-1.1,0.9-1.9,0.9c-0.4,0-0.6,0-0.8-0.1
		v-1.2c0.1,0,0.3,0.1,0.5,0.1c0.7,0,1.3-0.8,1.8-2.4s0.8-4,1-7.2h6.3V134z"/>
	<path class="st3" d="M61.8,127.7h3.3c2.7,0,4.1,1,4.1,3c0,1.1-0.4,1.9-1.1,2.4S66.3,134,65,134h-4.8v-10.7h1.6V127.7z M61.8,129.1
		v3.5h3.1c0.9,0,1.5-0.1,2-0.4s0.7-0.8,0.7-1.4c0-0.6-0.2-1-0.6-1.3s-1.1-0.4-2.1-0.4H61.8z"/>
	<path class="st3" d="M80,132.6h4.7v-9.3h1.6V134H72v-10.7h1.6v9.3h4.7v-9.3H80V132.6z"/>
	<path class="st3" d="M96.4,134l-0.3-1.5H96c-0.5,0.7-1.1,1.1-1.6,1.4s-1.2,0.4-2,0.4c-1.1,0-1.9-0.3-2.5-0.8S89,132,89,131
		c0-2.2,1.7-3.3,5.2-3.4l1.8-0.1v-0.7c0-0.8-0.2-1.5-0.5-1.9s-0.9-0.6-1.7-0.6c-0.9,0-1.9,0.3-3,0.8l-0.5-1.2
		c0.5-0.3,1.1-0.5,1.7-0.7s1.3-0.2,1.9-0.2c1.3,0,2.2,0.3,2.8,0.8s0.9,1.5,0.9,2.7v7.3H96.4z M92.7,132.9c1,0,1.8-0.3,2.4-0.8
		s0.9-1.3,0.9-2.3v-1l-1.6,0.1c-1.3,0-2.2,0.2-2.8,0.6s-0.9,0.9-0.9,1.7c0,0.6,0.2,1,0.5,1.3S92.1,132.9,92.7,132.9z"/>
	<path class="st3" d="M101.4,134h-1.9l3.1-4.5c-0.8-0.2-1.5-0.5-1.9-1.1s-0.7-1.2-0.7-2c0-1,0.3-1.7,1-2.3s1.6-0.8,2.8-0.8h4.8V134
		h-1.6v-4.3h-2.7L101.4,134z M101.6,126.5c0,1.2,0.9,1.9,2.7,1.9h2.6v-3.6H104C102.4,124.7,101.6,125.3,101.6,126.5z"/>
	<path class="st3" d="M123.6,124.7h-4.8v9.3h-1.6v-10.7h6.4V124.7z"/>
	<path class="st3" d="M130.7,134.2c-0.7,0-1.3-0.1-1.9-0.4s-1.1-0.7-1.5-1.2h-0.1c0.1,0.6,0.1,1.2,0.1,1.8v4.4h-1.6v-15.5h1.3
		l0.2,1.5h0.1c0.4-0.6,0.9-1,1.5-1.3s1.2-0.4,1.9-0.4c1.4,0,2.5,0.5,3.3,1.5s1.2,2.3,1.2,4.1c0,1.8-0.4,3.1-1.2,4.1
		S132.1,134.2,130.7,134.2z M130.5,124.5c-1.1,0-1.9,0.3-2.4,0.9s-0.7,1.6-0.8,2.9v0.4c0,1.5,0.3,2.6,0.8,3.2s1.3,1,2.4,1
		c0.9,0,1.6-0.4,2.2-1.1s0.8-1.8,0.8-3.1c0-1.3-0.3-2.4-0.8-3.1S131.5,124.5,130.5,124.5z"/>
	<path class="st3" d="M136.3,123.3h1.7l2.3,6.1c0.5,1.4,0.8,2.4,1,3h0.1c0.1-0.3,0.3-0.9,0.5-1.7s1.2-3.3,2.7-7.4h1.7l-4.6,12.2
		c-0.5,1.2-1,2.1-1.6,2.6s-1.4,0.8-2.2,0.8c-0.5,0-1-0.1-1.5-0.2v-1.3c0.4,0.1,0.8,0.1,1.2,0.1c1.1,0,1.9-0.6,2.4-1.9l0.6-1.5
		L136.3,123.3z"/>
	<path class="st3" d="M149.7,134h-1.6v-10.7h9V134h-1.6v-9.3h-5.7V134z"/>
	<path class="st3" d="M162.1,134h-1.6v-10.7h9V134h-1.6v-9.3h-5.7V134z"/>
	<path class="st3" d="M179.5,134l-0.3-1.5h-0.1c-0.5,0.7-1.1,1.1-1.6,1.4s-1.2,0.4-2,0.4c-1.1,0-1.9-0.3-2.5-0.8s-0.9-1.3-0.9-2.3
		c0-2.2,1.7-3.3,5.2-3.4l1.8-0.1v-0.7c0-0.8-0.2-1.5-0.5-1.9s-0.9-0.6-1.7-0.6c-0.9,0-1.9,0.3-3,0.8l-0.5-1.2
		c0.5-0.3,1.1-0.5,1.7-0.7s1.3-0.2,1.9-0.2c1.3,0,2.2,0.3,2.8,0.8s0.9,1.5,0.9,2.7v7.3H179.5z M175.9,132.9c1,0,1.8-0.3,2.4-0.8
		s0.9-1.3,0.9-2.3v-1l-1.6,0.1c-1.3,0-2.2,0.2-2.8,0.6s-0.9,0.9-0.9,1.7c0,0.6,0.2,1,0.5,1.3S175.2,132.9,175.9,132.9z"/>
	<path class="st3" d="M193.5,134.2c-1.5,0-2.7-0.5-3.6-1.4s-1.3-2.3-1.3-4c0-1.8,0.4-3.2,1.3-4.2s2.1-1.5,3.7-1.5
		c0.5,0,1,0.1,1.5,0.2s0.9,0.2,1.2,0.4l-0.5,1.4c-0.4-0.1-0.7-0.3-1.2-0.4s-0.8-0.1-1.1-0.1c-2.2,0-3.3,1.4-3.3,4.2
		c0,1.3,0.3,2.3,0.8,3s1.3,1.1,2.4,1.1c0.9,0,1.8-0.2,2.7-0.6v1.4C195.5,134,194.6,134.2,193.5,134.2z"/>
	<path class="st3" d="M206.8,134h-1.6v-9.3h-3.2c-0.2,2.3-0.4,4.2-0.7,5.5s-0.7,2.4-1.2,3s-1.1,0.9-1.9,0.9c-0.4,0-0.6,0-0.8-0.1
		v-1.2c0.1,0,0.3,0.1,0.5,0.1c0.7,0,1.3-0.8,1.8-2.4s0.8-4,1-7.2h6.3V134z"/>
	<path class="st3" d="M219.4,128.6c0,1.7-0.4,3.1-1.3,4.1s-2.1,1.5-3.6,1.5c-1,0-1.8-0.2-2.5-0.7s-1.3-1.1-1.7-1.9s-0.6-1.8-0.6-2.9
		c0-1.7,0.4-3.1,1.3-4.1s2.1-1.5,3.6-1.5c1.5,0,2.7,0.5,3.6,1.5S219.4,126.9,219.4,128.6z M211.3,128.6c0,1.4,0.3,2.4,0.8,3.1
		s1.4,1.1,2.4,1.1s1.9-0.4,2.4-1.1s0.8-1.8,0.8-3.1c0-1.4-0.3-2.4-0.8-3.1s-1.4-1.1-2.4-1.1c-1.1,0-1.9,0.3-2.4,1
		S211.3,127.3,211.3,128.6z"/>
	<path class="st3" d="M231,126c0,0.7-0.2,1.2-0.6,1.6s-1,0.6-1.7,0.7v0.1c0.9,0.1,1.6,0.4,2,0.8s0.6,1,0.6,1.7c0,1-0.4,1.8-1.1,2.3
		s-1.8,0.8-3.2,0.8h-4.7v-10.7h4.7C229.6,123.3,231,124.2,231,126z M229.4,126.1c0-0.5-0.2-0.9-0.6-1.1s-1-0.3-1.8-0.3h-3.1v3h2.7
		c1,0,1.7-0.1,2.1-0.4S229.4,126.7,229.4,126.1z M229.7,130.8c0-0.6-0.2-1-0.7-1.3s-1.2-0.4-2.2-0.4h-2.9v3.5h3
		C228.7,132.6,229.7,132,229.7,130.8z"/>
	<path class="st3" d="M235.4,131.7l0.1,0.2c-0.2,0.7-0.4,1.4-0.7,2.3s-0.7,1.7-1,2.4h-1.2c0.2-0.7,0.4-1.5,0.6-2.5s0.4-1.8,0.4-2.4
		H235.4z"/>
</g>
<g class="st1">
	<path class="st3" d="M31,147.3h1.8l-4.6,5.2l5,5.5h-1.9l-4.9-5.4v5.4h-1.6v-10.7h1.6v5.2L31,147.3z"/>
	<path class="st3" d="M44.3,152.6c0,1.7-0.4,3.1-1.3,4.1s-2.1,1.5-3.6,1.5c-1,0-1.8-0.2-2.5-0.7s-1.3-1.1-1.7-1.9s-0.6-1.8-0.6-2.9
		c0-1.7,0.4-3.1,1.3-4.1s2.1-1.5,3.6-1.5c1.5,0,2.7,0.5,3.6,1.5S44.3,150.9,44.3,152.6z M36.2,152.6c0,1.4,0.3,2.4,0.8,3.1
		s1.4,1.1,2.4,1.1s1.9-0.4,2.4-1.1s0.8-1.8,0.8-3.1c0-1.4-0.3-2.4-0.8-3.1s-1.4-1.1-2.4-1.1c-1.1,0-1.9,0.3-2.4,1
		S36.2,151.3,36.2,152.6z"/>
	<path class="st3" d="M54.4,148.7h-3.5v9.3h-1.6v-9.3h-3.4v-1.4h8.5V148.7z"/>
	<path class="st3" d="M65.8,152.6c0,1.7-0.4,3.1-1.3,4.1s-2.1,1.5-3.6,1.5c-1,0-1.8-0.2-2.5-0.7s-1.3-1.1-1.7-1.9s-0.6-1.8-0.6-2.9
		c0-1.7,0.4-3.1,1.3-4.1s2.1-1.5,3.6-1.5c1.5,0,2.7,0.5,3.6,1.5S65.8,150.9,65.8,152.6z M57.6,152.6c0,1.4,0.3,2.4,0.8,3.1
		s1.4,1.1,2.4,1.1s1.9-0.4,2.4-1.1s0.8-1.8,0.8-3.1c0-1.4-0.3-2.4-0.8-3.1s-1.4-1.1-2.4-1.1c-1.1,0-1.9,0.3-2.4,1
		S57.6,151.3,57.6,152.6z"/>
	<path class="st3" d="M73.6,158.2c-0.7,0-1.3-0.1-1.9-0.4s-1.1-0.7-1.5-1.2h-0.1c0.1,0.6,0.1,1.2,0.1,1.8v4.4h-1.6v-15.5h1.3
		l0.2,1.5h0.1c0.4-0.6,0.9-1,1.5-1.3s1.2-0.4,1.9-0.4c1.4,0,2.5,0.5,3.3,1.5s1.2,2.3,1.2,4.1c0,1.8-0.4,3.1-1.2,4.1
		S75,158.2,73.6,158.2z M73.3,148.5c-1.1,0-1.9,0.3-2.4,0.9s-0.7,1.6-0.8,2.9v0.4c0,1.5,0.3,2.6,0.8,3.2s1.3,1,2.4,1
		c0.9,0,1.6-0.4,2.2-1.1s0.8-1.8,0.8-3.1c0-1.3-0.3-2.4-0.8-3.1S74.3,148.5,73.3,148.5z"/>
	<path class="st3" d="M82.5,151.7h2.9c1.4,0,2.4,0.3,3,0.8s1,1.3,1,2.3c0,1.1-0.3,1.9-1,2.4s-1.7,0.8-3.1,0.8h-4.4v-10.7h1.6V151.7z
		 M82.5,153.1v3.5h2.7c1.7,0,2.6-0.6,2.6-1.8c0-0.6-0.2-1-0.6-1.3s-1.1-0.4-2-0.4H82.5z M92.8,158h-1.6v-10.7h1.6V158z"/>
	<path class="st3" d="M100.8,158.2c-1.6,0-2.8-0.5-3.7-1.4s-1.4-2.3-1.4-4c0-1.7,0.4-3.1,1.3-4.1s2-1.5,3.4-1.5
		c1.3,0,2.4,0.4,3.2,1.3s1.2,2,1.2,3.5v1h-7.4c0,1.3,0.4,2.2,1,2.9s1.5,1,2.5,1c1.2,0,2.3-0.2,3.4-0.7v1.4c-0.6,0.2-1.1,0.4-1.6,0.5
		S101.5,158.2,100.8,158.2z M100.3,148.5c-0.9,0-1.5,0.3-2.1,0.8s-0.8,1.3-0.9,2.3h5.6c0-1-0.2-1.8-0.7-2.3S101.2,148.5,100.3,148.5
		z"/>
	<path class="st3" d="M121.9,152.6c0,1.7-0.4,3.1-1.3,4.1s-2.1,1.5-3.6,1.5c-1,0-1.8-0.2-2.5-0.7s-1.3-1.1-1.7-1.9s-0.6-1.8-0.6-2.9
		c0-1.7,0.4-3.1,1.3-4.1s2.1-1.5,3.6-1.5c1.5,0,2.7,0.5,3.6,1.5S121.9,150.9,121.9,152.6z M113.8,152.6c0,1.4,0.3,2.4,0.8,3.1
		s1.4,1.1,2.4,1.1s1.9-0.4,2.4-1.1s0.8-1.8,0.8-3.1c0-1.4-0.3-2.4-0.8-3.1s-1.4-1.1-2.4-1.1c-1.1,0-1.9,0.3-2.4,1
		S113.8,151.3,113.8,152.6z"/>
	<path class="st3" d="M132,148.7h-3.5v9.3h-1.6v-9.3h-3.4v-1.4h8.5V148.7z"/>
	<path class="st3" d="M142.8,150c0,0.7-0.2,1.2-0.6,1.6s-1,0.6-1.7,0.7v0.1c0.9,0.1,1.6,0.4,2,0.8s0.6,1,0.6,1.7
		c0,1-0.4,1.8-1.1,2.3s-1.8,0.8-3.2,0.8h-4.7v-10.7h4.7C141.4,147.3,142.8,148.2,142.8,150z M141.2,150.1c0-0.5-0.2-0.9-0.6-1.1
		s-1-0.3-1.8-0.3h-3.1v3h2.7c1,0,1.7-0.1,2.1-0.4S141.2,150.7,141.2,150.1z M141.5,154.8c0-0.6-0.2-1-0.7-1.3s-1.2-0.4-2.2-0.4h-2.9
		v3.5h3C140.6,156.6,141.5,156,141.5,154.8z"/>
	<path class="st3" d="M150,158.2c-1.6,0-2.8-0.5-3.7-1.4s-1.4-2.3-1.4-4c0-1.7,0.4-3.1,1.3-4.1s2-1.5,3.4-1.5c1.3,0,2.4,0.4,3.2,1.3
		s1.2,2,1.2,3.5v1h-7.4c0,1.3,0.4,2.2,1,2.9s1.5,1,2.5,1c1.2,0,2.3-0.2,3.4-0.7v1.4c-0.6,0.2-1.1,0.4-1.6,0.5S150.7,158.2,150,158.2
		z M149.5,148.5c-0.9,0-1.5,0.3-2.1,0.8s-0.8,1.3-0.9,2.3h5.6c0-1-0.2-1.8-0.7-2.3S150.4,148.5,149.5,148.5z"/>
	<path class="st3" d="M158.1,147.3v3.9c0,1.3,0.7,1.9,2.1,1.9c0.6,0,1.2-0.1,1.7-0.3s1.2-0.5,1.8-0.9v-4.6h1.6V158h-1.6v-4.8
		c-0.7,0.5-1.3,0.8-1.9,1s-1.2,0.3-2,0.3c-1.1,0-1.9-0.3-2.5-0.8s-0.9-1.3-0.9-2.3v-4H158.1z"/>
	<path class="st3" d="M175.4,158l-0.3-1.5H175c-0.5,0.7-1.1,1.1-1.6,1.4s-1.2,0.4-2,0.4c-1.1,0-1.9-0.3-2.5-0.8S168,156,168,155
		c0-2.2,1.7-3.3,5.2-3.4l1.8-0.1v-0.7c0-0.8-0.2-1.5-0.5-1.9s-0.9-0.6-1.7-0.6c-0.9,0-1.9,0.3-3,0.8l-0.5-1.2
		c0.5-0.3,1.1-0.5,1.7-0.7s1.3-0.2,1.9-0.2c1.3,0,2.2,0.3,2.8,0.8s0.9,1.5,0.9,2.7v7.3H175.4z M171.8,156.9c1,0,1.8-0.3,2.4-0.8
		s0.9-1.3,0.9-2.3v-1l-1.6,0.1c-1.3,0-2.2,0.2-2.8,0.6s-0.9,0.9-0.9,1.7c0,0.6,0.2,1,0.5,1.3S171.1,156.9,171.8,156.9z"/>
	<path class="st3" d="M193.7,152.6c0,1.8-0.4,3.1-1.3,4.1s-2,1.5-3.4,1.5c-1.4,0-2.5-0.4-3.3-1.3s-1.3-2.1-1.4-3.7h-2.8v4.8H180
		v-10.7h1.6v4.5h2.8c0.1-1.5,0.6-2.6,1.4-3.5s1.9-1.2,3.3-1.2c1.4,0,2.6,0.5,3.4,1.5S193.7,150.9,193.7,152.6z M186.1,152.6
		c0,1.4,0.2,2.4,0.7,3.1s1.2,1.1,2.3,1.1c1,0,1.8-0.3,2.3-1s0.7-1.7,0.7-3.2c0-1.4-0.2-2.4-0.7-3.1s-1.2-1.1-2.3-1.1
		s-1.8,0.4-2.3,1.1S186.1,151.3,186.1,152.6z"/>
	<path class="st3" d="M203.8,148.7h-3.5v9.3h-1.6v-9.3h-3.4v-1.4h8.5V148.7z"/>
</g>
<g class="st1">
	<path class="st3" d="M26.3,171.3v4.5h6v-4.5H34V182h-1.6v-4.8h-6v4.8h-1.6v-10.7H26.3z"/>
	<path class="st3" d="M44,182l-0.3-1.5h-0.1c-0.5,0.7-1.1,1.1-1.6,1.4s-1.2,0.4-2,0.4c-1.1,0-1.9-0.3-2.5-0.8s-0.9-1.3-0.9-2.3
		c0-2.2,1.7-3.3,5.2-3.4l1.8-0.1v-0.7c0-0.8-0.2-1.5-0.5-1.9s-0.9-0.6-1.7-0.6c-0.9,0-1.9,0.3-3,0.8l-0.5-1.2
		c0.5-0.3,1.1-0.5,1.7-0.7s1.3-0.2,1.9-0.2c1.3,0,2.2,0.3,2.8,0.8s0.9,1.5,0.9,2.7v7.3H44z M40.3,180.9c1,0,1.8-0.3,2.4-0.8
		s0.9-1.3,0.9-2.3v-1l-1.6,0.1c-1.3,0-2.2,0.2-2.8,0.6s-0.9,0.9-0.9,1.7c0,0.6,0.2,1,0.5,1.3S39.7,180.9,40.3,180.9z"/>
	<path class="st3" d="M62.4,174c0,0.7-0.2,1.2-0.6,1.6s-1,0.6-1.7,0.7v0.1c0.9,0.1,1.6,0.4,2,0.8s0.6,1,0.6,1.7c0,1-0.4,1.8-1.1,2.3
		s-1.8,0.8-3.2,0.8h-4.7v-10.7h4.7C61.1,171.3,62.4,172.2,62.4,174z M60.8,174.1c0-0.5-0.2-0.9-0.6-1.1s-1-0.3-1.8-0.3h-3.1v3h2.7
		c1,0,1.7-0.1,2.1-0.4S60.8,174.7,60.8,174.1z M61.1,178.8c0-0.6-0.2-1-0.7-1.3s-1.2-0.4-2.2-0.4h-2.9v3.5h3
		C60.2,180.6,61.1,180,61.1,178.8z"/>
	<path class="st3" d="M74.3,176.6c0,1.7-0.4,3.1-1.3,4.1s-2.1,1.5-3.6,1.5c-1,0-1.8-0.2-2.5-0.7s-1.3-1.1-1.7-1.9s-0.6-1.8-0.6-2.9
		c0-1.7,0.4-3.1,1.3-4.1s2.1-1.5,3.6-1.5c1.5,0,2.7,0.5,3.6,1.5S74.3,174.9,74.3,176.6z M66.2,176.6c0,1.4,0.3,2.4,0.8,3.1
		s1.4,1.1,2.4,1.1s1.9-0.4,2.4-1.1s0.8-1.8,0.8-3.1c0-1.4-0.3-2.4-0.8-3.1s-1.4-1.1-2.4-1.1c-1.1,0-1.9,0.3-2.4,1
		S66.2,175.3,66.2,176.6z"/>
	<path class="st3" d="M78.8,182h-1.6v-10.7h9V182h-1.6v-9.3h-5.7V182z"/>
	<path class="st3" d="M94.6,182.2c-0.7,0-1.3-0.1-1.9-0.4s-1.1-0.7-1.5-1.2h-0.1c0.1,0.6,0.1,1.2,0.1,1.8v4.4h-1.6v-15.5h1.3
		l0.2,1.5h0.1c0.4-0.6,0.9-1,1.5-1.3s1.2-0.4,1.9-0.4c1.4,0,2.5,0.5,3.3,1.5s1.2,2.3,1.2,4.1c0,1.8-0.4,3.1-1.2,4.1
		S96,182.2,94.6,182.2z M94.3,172.5c-1.1,0-1.9,0.3-2.4,0.9s-0.7,1.6-0.8,2.9v0.4c0,1.5,0.3,2.6,0.8,3.2s1.3,1,2.4,1
		c0.9,0,1.6-0.4,2.2-1.1s0.8-1.8,0.8-3.1c0-1.3-0.3-2.4-0.8-3.1S95.3,172.5,94.3,172.5z"/>
	<path class="st3" d="M111.1,176.6c0,1.7-0.4,3.1-1.3,4.1s-2.1,1.5-3.6,1.5c-1,0-1.8-0.2-2.5-0.7s-1.3-1.1-1.7-1.9s-0.6-1.8-0.6-2.9
		c0-1.7,0.4-3.1,1.3-4.1s2.1-1.5,3.6-1.5c1.5,0,2.7,0.5,3.6,1.5S111.1,174.9,111.1,176.6z M102.9,176.6c0,1.4,0.3,2.4,0.8,3.1
		s1.4,1.1,2.4,1.1s1.9-0.4,2.4-1.1s0.8-1.8,0.8-3.1c0-1.4-0.3-2.4-0.8-3.1s-1.4-1.1-2.4-1.1c-1.1,0-1.9,0.3-2.4,1
		S102.9,175.3,102.9,176.6z"/>
	<path class="st3" d="M118.2,182.2c-1.5,0-2.7-0.5-3.6-1.4s-1.3-2.3-1.3-4c0-1.8,0.4-3.2,1.3-4.2s2.1-1.5,3.7-1.5
		c0.5,0,1,0.1,1.5,0.2s0.9,0.2,1.2,0.4l-0.5,1.4c-0.4-0.1-0.7-0.3-1.2-0.4s-0.8-0.1-1.1-0.1c-2.2,0-3.3,1.4-3.3,4.2
		c0,1.3,0.3,2.3,0.8,3s1.3,1.1,2.4,1.1c0.9,0,1.8-0.2,2.7-0.6v1.4C120.2,182,119.3,182.2,118.2,182.2z"/>
	<path class="st3" d="M125.1,175.7h2.9c1.4,0,2.4,0.3,3,0.8s1,1.3,1,2.3c0,1.1-0.3,1.9-1,2.4s-1.7,0.8-3.1,0.8h-4.4v-10.7h1.6V175.7
		z M125.1,177.1v3.5h2.7c1.7,0,2.6-0.6,2.6-1.8c0-0.6-0.2-1-0.6-1.3s-1.1-0.4-2-0.4H125.1z M135.4,182h-1.6v-10.7h1.6V182z"/>
</g>
<g class="st1">
	<path class="st3" d="M146.5,181.2c-1.3-1.6-2.5-3-3.2-3.7c0.7-0.7,1.9-2.1,3.2-3.7l0.4,0.3l-1.9,3.4l1.9,3.3L146.5,181.2z
		 M149.8,181.2c-1.3-1.6-2.5-3-3.2-3.7c0.7-0.7,1.9-2.1,3.2-3.7l0.5,0.3l-1.9,3.4l1.9,3.3L149.8,181.2z"/>
</g>
<g class="st1">
	<path class="st3" d="M159.2,171.3h1.8l-4.6,5.2l5,5.5h-1.9l-4.9-5.4v5.4h-1.6v-10.7h1.6v5.2L159.2,171.3z"/>
	<path class="st3" d="M170.5,172.7H167v9.3h-1.6v-9.3H162v-1.4h8.5V172.7z"/>
	<path class="st3" d="M181.9,176.6c0,1.7-0.4,3.1-1.3,4.1s-2.1,1.5-3.6,1.5c-1,0-1.8-0.2-2.5-0.7s-1.3-1.1-1.7-1.9
		c-0.4-0.8-0.6-1.8-0.6-2.9c0-1.7,0.4-3.1,1.3-4.1c0.9-1,2.1-1.5,3.6-1.5c1.5,0,2.7,0.5,3.6,1.5
		C181.4,173.6,181.9,174.9,181.9,176.6z M173.7,176.6c0,1.4,0.3,2.4,0.8,3.1s1.4,1.1,2.4,1.1c1.1,0,1.9-0.4,2.4-1.1
		c0.6-0.7,0.8-1.8,0.8-3.1c0-1.4-0.3-2.4-0.8-3.1c-0.5-0.7-1.4-1.1-2.4-1.1c-1.1,0-1.9,0.3-2.4,1C174,174.2,173.7,175.3,173.7,176.6
		z"/>
	<path class="st3" d="M185.8,178.1v-0.5c0-0.8,0.1-1.4,0.4-1.9s0.7-1,1.3-1.6c0.9-0.7,1.4-1.3,1.7-1.7c0.2-0.4,0.3-0.8,0.3-1.4
		c0-0.7-0.2-1.2-0.6-1.5c-0.4-0.4-1-0.5-1.8-0.5c-0.5,0-1,0.1-1.5,0.2s-1,0.3-1.7,0.7l-0.6-1.3c1.2-0.6,2.5-1,3.9-1
		c1.2,0,2.2,0.3,2.9,0.9c0.7,0.6,1,1.5,1,2.6c0,0.5-0.1,0.9-0.2,1.3s-0.3,0.7-0.6,1c-0.2,0.3-0.8,0.8-1.6,1.6
		c-0.7,0.6-1.1,1-1.3,1.4c-0.2,0.4-0.3,0.9-0.3,1.5v0.3H185.8z M185.4,181c0-0.9,0.4-1.3,1.2-1.3c0.4,0,0.7,0.1,0.9,0.3
		s0.3,0.6,0.3,1c0,0.4-0.1,0.7-0.3,1c-0.2,0.2-0.5,0.3-0.9,0.3c-0.3,0-0.6-0.1-0.8-0.3C185.5,181.8,185.4,181.4,185.4,181z"/>
</g>
<g class="st1">
	<path class="st3" d="M193,173.9c1.3,1.6,2.5,3,3.2,3.7c-0.6,0.7-1.9,2.1-3.2,3.7l-0.5-0.3l1.9-3.4l-1.9-3.4L193,173.9z
		 M196.3,173.9c1.3,1.6,2.5,3,3.2,3.7c-0.7,0.7-1.9,2.1-3.2,3.7l-0.4-0.3l1.9-3.4l-1.9-3.4L196.3,173.9z"/>
</g>
<g class="st1">
	<path class="st3" d="M209.8,181.2c-1.3-1.6-2.5-3-3.2-3.7c0.7-0.7,1.9-2.1,3.2-3.7l0.4,0.3l-1.9,3.4l1.9,3.3L209.8,181.2z
		 M213.1,181.2c-1.3-1.6-2.5-3-3.2-3.7c0.7-0.7,1.9-2.1,3.2-3.7l0.5,0.3l-1.9,3.4l1.9,3.3L213.1,181.2z"/>
</g>
<g class="st1">
	<path class="st3" d="M217.7,171.3v3.9c0,1.3,0.7,1.9,2.1,1.9c0.6,0,1.2-0.1,1.7-0.3c0.5-0.2,1.2-0.5,1.8-0.9v-4.6h1.6V182h-1.6
		v-4.8c-0.7,0.5-1.3,0.8-1.9,1c-0.6,0.2-1.2,0.3-2,0.3c-1.1,0-1.9-0.3-2.5-0.8s-0.9-1.3-0.9-2.3v-4H217.7z"/>
	<path class="st3" d="M235.7,172.7h-3.5v9.3h-1.6v-9.3h-3.4v-1.4h8.5V172.7z"/>
	<path class="st3" d="M247,176.6c0,1.7-0.4,3.1-1.3,4.1s-2.1,1.5-3.6,1.5c-1,0-1.8-0.2-2.5-0.7s-1.3-1.1-1.7-1.9
		c-0.4-0.8-0.6-1.8-0.6-2.9c0-1.7,0.4-3.1,1.3-4.1c0.9-1,2.1-1.5,3.6-1.5c1.5,0,2.7,0.5,3.6,1.5C246.6,173.6,247,174.9,247,176.6z
		 M238.9,176.6c0,1.4,0.3,2.4,0.8,3.1s1.4,1.1,2.4,1.1c1.1,0,1.9-0.4,2.4-1.1c0.6-0.7,0.8-1.8,0.8-3.1c0-1.4-0.3-2.4-0.8-3.1
		c-0.5-0.7-1.4-1.1-2.4-1.1c-1.1,0-1.9,0.3-2.4,1C239.1,174.2,238.9,175.3,238.9,176.6z"/>
	<path class="st3" d="M251,178.1v-0.5c0-0.8,0.1-1.4,0.4-1.9s0.7-1,1.3-1.6c0.9-0.7,1.4-1.3,1.7-1.7c0.2-0.4,0.3-0.8,0.3-1.4
		c0-0.7-0.2-1.2-0.6-1.5c-0.4-0.4-1-0.5-1.8-0.5c-0.5,0-1,0.1-1.5,0.2s-1,0.3-1.7,0.7l-0.6-1.3c1.2-0.6,2.5-1,3.9-1
		c1.2,0,2.2,0.3,2.9,0.9c0.7,0.6,1,1.5,1,2.6c0,0.5-0.1,0.9-0.2,1.3s-0.3,0.7-0.6,1c-0.2,0.3-0.8,0.8-1.6,1.6
		c-0.7,0.6-1.1,1-1.3,1.4c-0.2,0.4-0.3,0.9-0.3,1.5v0.3H251z M250.5,181c0-0.9,0.4-1.3,1.2-1.3c0.4,0,0.7,0.1,0.9,0.3s0.3,0.6,0.3,1
		c0,0.4-0.1,0.7-0.3,1c-0.2,0.2-0.5,0.3-0.9,0.3c-0.3,0-0.6-0.1-0.8-0.3C250.6,181.8,250.5,181.4,250.5,181z"/>
</g>
<g class="st1">
	<path class="st3" d="M258.2,173.9c1.3,1.6,2.5,3,3.2,3.7c-0.6,0.7-1.9,2.1-3.2,3.7l-0.5-0.3l1.9-3.4l-1.9-3.4L258.2,173.9z
		 M261.5,173.9c1.3,1.6,2.5,3,3.2,3.7c-0.7,0.7-1.9,2.1-3.2,3.7l-0.4-0.3l1.9-3.4l-1.9-3.4L261.5,173.9z"/>
</g>
<g class="st1">
	<path class="st3" d="M267.1,181c0-0.4,0.1-0.8,0.3-1c0.2-0.2,0.5-0.3,0.9-0.3c0.4,0,0.7,0.1,0.9,0.3c0.2,0.2,0.3,0.6,0.3,1
		c0,0.4-0.1,0.7-0.3,1s-0.5,0.3-0.9,0.3c-0.3,0-0.6-0.1-0.8-0.3C267.2,181.8,267.1,181.4,267.1,181z"/>
</g>
<g class="st1">
	<path class="st3" d="M37.4,198.8c0,2.3-0.6,4.1-1.7,5.4s-2.8,2-4.8,2c-2.1,0-3.7-0.6-4.9-1.9s-1.7-3.1-1.7-5.4
		c0-2.3,0.6-4.1,1.7-5.4s2.8-1.9,4.9-1.9c2.1,0,3.7,0.7,4.8,2S37.4,196.5,37.4,198.8z M26,198.8c0,1.9,0.4,3.4,1.2,4.4
		s2,1.5,3.6,1.5c1.6,0,2.8-0.5,3.6-1.5s1.2-2.5,1.2-4.4c0-1.9-0.4-3.4-1.2-4.4s-2-1.5-3.6-1.5c-1.6,0-2.8,0.5-3.6,1.5
		S26,196.9,26,198.8z"/>
	<path class="st3" d="M41.9,195.3v4.5h6v-4.5h1.6V206h-1.6v-4.8h-6v4.8h-1.6v-10.7H41.9z"/>
	<path class="st3" d="M54.5,195.3v6.8l-0.1,1.8l0,0.6l5.8-9.1h2V206h-1.5v-6.5l0-1.3l0-1.3L55,206h-2v-10.7H54.5z"/>
	<path class="st3" d="M72.5,195.3v4.5h6v-4.5h1.6V206h-1.6v-4.8h-6v4.8h-1.6v-10.7H72.5z"/>
	<path class="st3" d="M90.1,206l-0.3-1.5h-0.1c-0.5,0.7-1.1,1.1-1.6,1.4s-1.2,0.4-2,0.4c-1.1,0-1.9-0.3-2.5-0.8s-0.9-1.3-0.9-2.3
		c0-2.2,1.7-3.3,5.2-3.4l1.8-0.1v-0.7c0-0.8-0.2-1.5-0.5-1.9s-0.9-0.6-1.7-0.6c-0.9,0-1.9,0.3-3,0.8l-0.5-1.2
		c0.5-0.3,1.1-0.5,1.7-0.7s1.3-0.2,1.9-0.2c1.3,0,2.2,0.3,2.8,0.8s0.9,1.5,0.9,2.7v7.3H90.1z M86.4,204.9c1,0,1.8-0.3,2.4-0.8
		s0.9-1.3,0.9-2.3v-1l-1.6,0.1c-1.3,0-2.2,0.2-2.8,0.6s-0.9,0.9-0.9,1.7c0,0.6,0.2,1,0.5,1.3S85.8,204.9,86.4,204.9z"/>
	<path class="st3" d="M96.7,199.7c2,0,3-0.6,3-1.7c0-1.1-0.8-1.6-2.5-1.6c-0.5,0-1,0-1.4,0.1s-0.9,0.3-1.6,0.5l-0.6-1.3
		c1.1-0.5,2.3-0.7,3.6-0.7c1.2,0,2.2,0.3,2.9,0.8s1.1,1.2,1.1,2.1c0,1.2-0.7,2-2,2.4v0.1c0.8,0.2,1.4,0.6,1.8,1s0.6,1,0.6,1.7
		c0,1-0.4,1.8-1.2,2.3s-1.9,0.8-3.3,0.8c-1.5,0-2.7-0.2-3.6-0.7V204c1.2,0.6,2.4,0.8,3.6,0.8c0.9,0,1.6-0.2,2.1-0.5s0.7-0.8,0.7-1.4
		c0-1.2-1-1.9-3-1.9h-1.5v-1.4H96.7z"/>
	<path class="st3" d="M105.9,199.7h2.9c1.4,0,2.4,0.3,3,0.8s1,1.3,1,2.3c0,1.1-0.3,1.9-1,2.4s-1.7,0.8-3.1,0.8h-4.4v-10.7h1.6V199.7
		z M105.9,201.1v3.5h2.7c1.7,0,2.6-0.6,2.6-1.8c0-0.6-0.2-1-0.6-1.3s-1.1-0.4-2-0.4H105.9z M116.3,206h-1.6v-10.7h1.6V206z"/>
	<path class="st3" d="M128.4,198c0,0.7-0.2,1.2-0.6,1.6s-1,0.6-1.7,0.7v0.1c0.9,0.1,1.6,0.4,2,0.8s0.6,1,0.6,1.7
		c0,1-0.4,1.8-1.1,2.3s-1.8,0.8-3.2,0.8h-4.7v-10.7h4.7C127.1,195.3,128.4,196.2,128.4,198z M126.8,198.1c0-0.5-0.2-0.9-0.6-1.1
		s-1-0.3-1.8-0.3h-3.1v3h2.7c1,0,1.7-0.1,2.1-0.4S126.8,198.7,126.8,198.1z M127.1,202.8c0-0.6-0.2-1-0.7-1.3s-1.2-0.4-2.2-0.4h-2.9
		v3.5h3C126.2,204.6,127.1,204,127.1,202.8z"/>
	<path class="st3" d="M137.7,206l-0.3-1.5h-0.1c-0.5,0.7-1.1,1.1-1.6,1.4s-1.2,0.4-2,0.4c-1.1,0-1.9-0.3-2.5-0.8s-0.9-1.3-0.9-2.3
		c0-2.2,1.7-3.3,5.2-3.4l1.8-0.1v-0.7c0-0.8-0.2-1.5-0.5-1.9s-0.9-0.6-1.7-0.6c-0.9,0-1.9,0.3-3,0.8l-0.5-1.2
		c0.5-0.3,1.1-0.5,1.7-0.7s1.3-0.2,1.9-0.2c1.3,0,2.2,0.3,2.8,0.8s0.9,1.5,0.9,2.7v7.3H137.7z M134,204.9c1,0,1.8-0.3,2.4-0.8
		s0.9-1.3,0.9-2.3v-1l-1.6,0.1c-1.3,0-2.2,0.2-2.8,0.6s-0.9,0.9-0.9,1.7c0,0.6,0.2,1,0.5,1.3S133.4,204.9,134,204.9z"/>
	<path class="st3" d="M156,200.6c0,1.8-0.4,3.1-1.3,4.1s-2,1.5-3.4,1.5c-1.4,0-2.5-0.4-3.3-1.3s-1.3-2.1-1.4-3.7h-2.8v4.8h-1.6
		v-10.7h1.6v4.5h2.8c0.1-1.5,0.6-2.6,1.4-3.5s1.9-1.2,3.3-1.2c1.4,0,2.6,0.5,3.4,1.5S156,198.9,156,200.6z M148.3,200.6
		c0,1.4,0.2,2.4,0.7,3.1s1.2,1.1,2.3,1.1c1,0,1.8-0.3,2.3-1s0.7-1.7,0.7-3.2c0-1.4-0.2-2.4-0.7-3.1s-1.2-1.1-2.3-1.1
		c-1,0-1.8,0.4-2.3,1.1S148.3,199.3,148.3,200.6z"/>
	<path class="st3" d="M166,196.7h-3.5v9.3h-1.6v-9.3h-3.4v-1.4h8.5V196.7z"/>
	<path class="st3" d="M172.4,206.2c-1.5,0-2.7-0.5-3.6-1.4s-1.3-2.3-1.3-4c0-1.8,0.4-3.2,1.3-4.2s2.1-1.5,3.7-1.5
		c0.5,0,1,0.1,1.5,0.2s0.9,0.2,1.2,0.4l-0.5,1.4c-0.4-0.1-0.7-0.3-1.2-0.4s-0.8-0.1-1.1-0.1c-2.2,0-3.3,1.4-3.3,4.2
		c0,1.3,0.3,2.3,0.8,3s1.3,1.1,2.4,1.1c0.9,0,1.8-0.2,2.7-0.6v1.4C174.4,206,173.5,206.2,172.4,206.2z"/>
	<path class="st3" d="M178.2,206h-1.9l3.1-4.5c-0.8-0.2-1.5-0.5-1.9-1.1s-0.7-1.2-0.7-2c0-1,0.3-1.7,1-2.3s1.6-0.8,2.8-0.8h4.8V206
		h-1.6v-4.3H181L178.2,206z M178.4,198.5c0,1.2,0.9,1.9,2.7,1.9h2.6v-3.6h-2.9C179.2,196.7,178.4,197.3,178.4,198.5z"/>
	<path class="st3" d="M195.5,195.3v6.8l-0.1,1.8l0,0.6l5.8-9.1h2V206h-1.5v-6.5l0-1.3l0-1.3L196,206h-2v-10.7H195.5z"/>
	<path class="st3" d="M212.2,204.4l0.3-0.9l0.4-1.2l2.9-7.1h2.1V206h-1.4v-8.8l-0.2,0.6l-0.6,1.5l-2.8,6.8h-1.4l-2.8-6.8
		c-0.3-0.9-0.6-1.6-0.7-2v8.8h-1.4v-10.7h2l2.8,6.8C211.7,202.8,212,203.6,212.2,204.4z"/>
	<path class="st3" d="M225.9,206.2c-1.6,0-2.8-0.5-3.7-1.4s-1.4-2.3-1.4-4c0-1.7,0.4-3.1,1.3-4.1s2-1.5,3.4-1.5
		c1.3,0,2.4,0.4,3.2,1.3s1.2,2,1.2,3.5v1h-7.4c0,1.3,0.3,2.2,1,2.9s1.5,1,2.5,1c1.2,0,2.3-0.2,3.4-0.7v1.4c-0.6,0.2-1.1,0.4-1.6,0.5
		S226.6,206.2,225.9,206.2z M225.4,196.5c-0.9,0-1.5,0.3-2.1,0.8s-0.8,1.3-0.9,2.3h5.6c0-1-0.2-1.8-0.7-2.3S226.3,196.5,225.4,196.5
		z"/>
	<path class="st3" d="M234.2,195.3v4.5h6v-4.5h1.6V206h-1.6v-4.8h-6v4.8h-1.6v-10.7H234.2z"/>
	<path class="st3" d="M251.8,206l-0.3-1.5h-0.1c-0.5,0.7-1.1,1.1-1.6,1.4s-1.2,0.4-2,0.4c-1.1,0-1.9-0.3-2.5-0.8s-0.9-1.3-0.9-2.3
		c0-2.2,1.7-3.3,5.2-3.4l1.8-0.1v-0.7c0-0.8-0.2-1.5-0.5-1.9s-0.9-0.6-1.7-0.6c-0.9,0-1.9,0.3-3,0.8l-0.5-1.2
		c0.5-0.3,1.1-0.5,1.7-0.7s1.3-0.2,1.9-0.2c1.3,0,2.2,0.3,2.8,0.8s0.9,1.5,0.9,2.7v7.3H251.8z M248.2,204.9c1,0,1.8-0.3,2.4-0.8
		s0.9-1.3,0.9-2.3v-1l-1.6,0.1c-1.3,0-2.2,0.2-2.8,0.6s-0.9,0.9-0.9,1.7c0,0.6,0.2,1,0.5,1.3S247.5,204.9,248.2,204.9z"/>
	<path class="st3" d="M261.9,204.4l0.3-0.9l0.4-1.2l2.9-7.1h2.1V206h-1.4v-8.8l-0.2,0.6l-0.6,1.5l-2.8,6.8h-1.4l-2.8-6.8
		c-0.3-0.9-0.6-1.6-0.7-2v8.8h-1.4v-10.7h2l2.8,6.8C261.4,202.8,261.7,203.6,261.9,204.4z"/>
	<path class="st3" d="M272.6,195.3v6.8l-0.1,1.8l0,0.6l5.8-9.1h2V206h-1.5v-6.5l0-1.3l0-1.3l-5.8,9.1h-2v-10.7H272.6z"/>
</g>
<g class="st1">
	<path class="st3" d="M29,230.2c-1.5,0-2.7-0.5-3.6-1.4s-1.3-2.3-1.3-4c0-1.8,0.4-3.2,1.3-4.2s2.1-1.5,3.7-1.5c0.5,0,1,0.1,1.5,0.2
		s0.9,0.2,1.2,0.4l-0.5,1.4c-0.4-0.1-0.7-0.3-1.2-0.4s-0.8-0.1-1.1-0.1c-2.2,0-3.3,1.4-3.3,4.2c0,1.3,0.3,2.3,0.8,3s1.3,1.1,2.4,1.1
		c0.9,0,1.8-0.2,2.7-0.6v1.4C31,230,30.1,230.2,29,230.2z"/>
	<path class="st3" d="M32.5,219.3h1.7l2.3,6.1c0.5,1.4,0.8,2.4,1,3h0.1c0.1-0.3,0.3-0.9,0.5-1.7s1.2-3.3,2.7-7.4h1.7L38,231.5
		c-0.5,1.2-1,2.1-1.6,2.6s-1.4,0.8-2.2,0.8c-0.5,0-1-0.1-1.5-0.2v-1.3c0.4,0.1,0.8,0.1,1.2,0.1c1.1,0,1.9-0.6,2.4-1.9l0.6-1.5
		L32.5,219.3z"/>
	<path class="st3" d="M52.3,228.6H57v-9.3h1.6v9.3h1.5v5.1h-1.6V230H44.3v-10.7h1.6v9.3h4.7v-9.3h1.6V228.6z"/>
	<path class="st3" d="M66.8,230.2c-1.6,0-2.8-0.5-3.7-1.4s-1.4-2.3-1.4-4c0-1.7,0.4-3.1,1.3-4.1s2-1.5,3.4-1.5
		c1.3,0,2.4,0.4,3.2,1.3s1.2,2,1.2,3.5v1h-7.4c0,1.3,0.4,2.2,1,2.9s1.5,1,2.5,1c1.2,0,2.3-0.2,3.4-0.7v1.4c-0.6,0.2-1.1,0.4-1.6,0.5
		S67.5,230.2,66.8,230.2z M66.3,220.5c-0.9,0-1.5,0.3-2.1,0.8s-0.8,1.3-0.9,2.3H69c0-1-0.2-1.8-0.7-2.3S67.2,220.5,66.3,220.5z"/>
	<path class="st3" d="M77.8,230.2c-1.5,0-2.7-0.5-3.6-1.4s-1.3-2.3-1.3-4c0-1.8,0.4-3.2,1.3-4.2s2.1-1.5,3.7-1.5
		c0.5,0,1,0.1,1.5,0.2s0.9,0.2,1.2,0.4l-0.5,1.4c-0.4-0.1-0.7-0.3-1.2-0.4s-0.8-0.1-1.1-0.1c-2.2,0-3.3,1.4-3.3,4.2
		c0,1.3,0.3,2.3,0.8,3s1.3,1.1,2.4,1.1c0.9,0,1.8-0.2,2.7-0.6v1.4C79.7,230,78.8,230.2,77.8,230.2z"/>
	<path class="st3" d="M90.2,220.7h-3.5v9.3h-1.6v-9.3h-3.4v-1.4h8.5V220.7z"/>
	<path class="st3" d="M101,222c0,0.7-0.2,1.2-0.6,1.6s-1,0.6-1.7,0.7v0.1c0.9,0.1,1.6,0.4,2,0.8s0.6,1,0.6,1.7c0,1-0.4,1.8-1.1,2.3
		s-1.8,0.8-3.2,0.8h-4.7v-10.7H97C99.7,219.3,101,220.2,101,222z M99.4,222.1c0-0.5-0.2-0.9-0.6-1.1s-1-0.3-1.8-0.3H94v3h2.7
		c1,0,1.7-0.1,2.1-0.4S99.4,222.7,99.4,222.1z M99.7,226.8c0-0.6-0.2-1-0.7-1.3s-1.2-0.4-2.2-0.4H94v3.5h3
		C98.8,228.6,99.7,228,99.7,226.8z"/>
	<path class="st3" d="M105.2,219.3v6.8l-0.1,1.8l0,0.6l5.8-9.1h2V230h-1.5v-6.5l0-1.3l0-1.3l-5.8,9.1h-2v-10.7H105.2z"/>
	<path class="st3" d="M123.6,220.7h-3.5v9.3h-1.6v-9.3h-3.4v-1.4h8.5V220.7z"/>
	<path class="st3" d="M130.2,230.2c-1.6,0-2.8-0.5-3.7-1.4s-1.4-2.3-1.4-4c0-1.7,0.4-3.1,1.3-4.1s2-1.5,3.4-1.5
		c1.3,0,2.4,0.4,3.2,1.3s1.2,2,1.2,3.5v1h-7.4c0,1.3,0.4,2.2,1,2.9s1.5,1,2.5,1c1.2,0,2.3-0.2,3.4-0.7v1.4c-0.6,0.2-1.1,0.4-1.6,0.5
		S131,230.2,130.2,230.2z M129.8,220.5c-0.9,0-1.5,0.3-2.1,0.8s-0.8,1.3-0.9,2.3h5.6c0-1-0.2-1.8-0.7-2.3S130.7,220.5,129.8,220.5z"
		/>
	<path class="st3" d="M144.9,230h-1.6v-9.3h-3.2c-0.2,2.3-0.4,4.2-0.7,5.5s-0.7,2.4-1.2,3s-1.1,0.9-1.9,0.9c-0.4,0-0.6,0-0.8-0.1
		v-1.2c0.1,0,0.3,0.1,0.5,0.1c0.7,0,1.3-0.8,1.8-2.4s0.8-4,1-7.2h6.3V230z"/>
	<path class="st3" d="M150,223.7h3.3c2.7,0,4.1,1,4.1,3c0,1.1-0.4,1.9-1.1,2.4s-1.8,0.8-3.1,0.8h-4.8v-10.7h1.6V223.7z M150,225.1
		v3.5h3.1c0.9,0,1.5-0.1,2-0.4s0.7-0.8,0.7-1.4c0-0.6-0.2-1-0.6-1.3s-1.1-0.4-2.1-0.4H150z"/>
	<path class="st3" d="M161.8,219.3v4.5h6v-4.5h1.6V230h-1.6v-4.8h-6v4.8h-1.6v-10.7H161.8z"/>
	<path class="st3" d="M174.5,223.7h2.9c1.4,0,2.4,0.3,3,0.8s1,1.3,1,2.3c0,1.1-0.3,1.9-1,2.4s-1.7,0.8-3.1,0.8h-4.4v-10.7h1.6V223.7
		z M174.5,225.1v3.5h2.7c1.7,0,2.6-0.6,2.6-1.8c0-0.6-0.2-1-0.6-1.3s-1.1-0.4-2-0.4H174.5z M184.8,230h-1.6v-10.7h1.6V230z"/>
	<path class="st3" d="M193.8,228.4l0.3-0.9l0.4-1.2l2.9-7.1h2.1V230h-1.4v-8.8l-0.2,0.6l-0.6,1.5l-2.8,6.8h-1.4l-2.8-6.8
		c-0.3-0.9-0.6-1.6-0.7-2v8.8h-1.4v-10.7h2l2.8,6.8C193.3,226.8,193.6,227.6,193.8,228.4z"/>
	<path class="st3" d="M204.5,219.3v6.8l-0.1,1.8l0,0.6l5.8-9.1h2V230h-1.5v-6.5l0-1.3l0-1.3L205,230h-2v-10.7H204.5z"/>
	<path class="st3" d="M215.4,229c0-0.4,0.1-0.8,0.3-1s0.5-0.3,0.9-0.3c0.4,0,0.7,0.1,0.9,0.3s0.3,0.6,0.3,1c0,0.4-0.1,0.7-0.3,1
		s-0.5,0.3-0.9,0.3c-0.3,0-0.6-0.1-0.8-0.3S215.4,229.4,215.4,229z"/>
</g>
</svg>
