<?xml version="1.0" encoding="utf-8"?>
<!-- Generator: Adobe Illustrator 19.2.0, SVG Export Plug-In . SVG Version: 6.00 Build 0)  -->
<svg version="1.1" id="Слой_1" xmlns="http://www.w3.org/2000/svg" xmlns:xlink="http://www.w3.org/1999/xlink" x="0px" y="0px"
	 viewBox="0 0 246 246" style="enable-background:new 0 0 246 246;" xml:space="preserve">
<style type="text/css">
	.st0{fill:url(#SVGID_1_);}
	.st1{enable-background:new    ;}
	.st2{fill:#FFFFFF;}
</style>
<title>КурсОГЭ</title>
<linearGradient id="SVGID_1_" gradientUnits="userSpaceOnUse" x1="-19.73" y1="156.7002" x2="259.83" y2="94.6102" gradientTransform="matrix(1 0 0 -1 0 248)">
	<stop  offset="0" style="stop-color:#5B6EC0"/>
	<stop  offset="1" style="stop-color:#4BC4E7"/>
</linearGradient>
<path class="st0" d="M12,0h222c6.6,0,12,5.4,12,12v222c0,6.6-5.4,12-12,12H12c-6.6,0-12-5.4-12-12V12C0,5.4,5.4,0,12,0z"/>
<g class="st1">
	<path class="st2" d="M53.4,36h-3.9l-4.4-5.9L44,31.5V36h-3.1V21.3H44v6.6l5.2-6.6H53l-5.8,6.9L53.4,36z"/>
	<path class="st2" d="M54.4,40.2l0.4-2.5c0.3,0.1,0.6,0.2,0.9,0.2c0.7,0,1.2-0.3,1.5-0.8l0.4-0.9l-4.3-10.8h3l2.8,7.4l2.8-7.4h3
		l-5,12.4c-0.4,0.9-0.9,1.6-1.5,2c-0.7,0.4-1.5,0.6-2.5,0.6C55.3,40.3,54.8,40.3,54.4,40.2z"/>
	<path class="st2" d="M72.1,36.3c-1.3,0-2.4-0.5-3.3-1.6V40h-2.8V25.4h2.8v1.3c0.8-1.1,1.9-1.6,3.3-1.6c1.4,0,2.5,0.5,3.4,1.5
		c0.9,1,1.3,2.4,1.3,4.1c0,1.7-0.4,3.1-1.3,4.1C74.7,35.8,73.5,36.3,72.1,36.3z M71.3,33.8c0.8,0,1.5-0.3,1.9-0.9
		c0.5-0.6,0.7-1.3,0.7-2.2c0-0.9-0.2-1.6-0.7-2.2c-0.5-0.6-1.1-0.9-1.9-0.9c-0.5,0-0.9,0.1-1.4,0.4s-0.8,0.5-1,0.9v3.8
		c0.2,0.3,0.6,0.6,1,0.9C70.4,33.7,70.8,33.8,71.3,33.8z"/>
	<path class="st2" d="M83.8,36.3c-1.6,0-3-0.5-4-1.6s-1.6-2.4-1.6-4c0-1.6,0.5-3,1.6-4c1.1-1,2.4-1.6,4-1.6c1.9,0,3.3,0.6,4.2,1.9
		l-1.8,1.7C85.7,28,85,27.6,84,27.6c-0.9,0-1.5,0.3-2.1,0.8c-0.5,0.6-0.8,1.3-0.8,2.2s0.3,1.7,0.8,2.2c0.5,0.6,1.2,0.9,2.1,0.9
		c1,0,1.7-0.4,2.2-1.1l1.8,1.7C87.1,35.6,85.7,36.3,83.8,36.3z"/>
	<path class="st2" d="M105.5,36h-2.8v-8.2h-4.4V36h-2.8V25.4h10V36z"/>
	<path class="st2" d="M117.3,34.6c-1,1.1-2.4,1.6-4.1,1.6c-1.7,0-3.1-0.5-4.1-1.6c-1-1.1-1.5-2.4-1.5-4s0.5-2.9,1.5-4
		c1-1.1,2.4-1.6,4.1-1.6c1.7,0,3.1,0.5,4.1,1.6c1,1.1,1.5,2.4,1.5,4S118.3,33.6,117.3,34.6z M111.2,32.9c0.5,0.6,1.1,0.9,2,0.9
		s1.5-0.3,2-0.9c0.5-0.6,0.7-1.3,0.7-2.2c0-0.9-0.2-1.6-0.7-2.2c-0.5-0.6-1.2-0.9-2-0.9s-1.5,0.3-2,0.9c-0.5,0.6-0.7,1.3-0.7,2.2
		C110.5,31.6,110.7,32.3,111.2,32.9z"/>
	<path class="st2" d="M119.9,38.7v-5c0.3-0.1,0.6-0.2,0.8-0.3c0.2-0.2,0.4-0.5,0.5-0.9c0.2-0.4,0.3-1.1,0.4-1.9l0.7-5.1h8.6v8.2h1.2
		v5.1h-2.8V36h-6.5v2.7H119.9z M124.7,27.8l-0.3,2.9c-0.1,1.3-0.6,2.2-1.2,2.9h4.9v-5.7H124.7z"/>
	<path class="st2" d="M142,25.4v2.4h-5.4V36h-2.8V25.4H142z"/>
	<path class="st2" d="M152.8,34.6c-1,1.1-2.4,1.6-4.1,1.6s-3.1-0.5-4.1-1.6c-1-1.1-1.5-2.4-1.5-4s0.5-2.9,1.5-4
		c1-1.1,2.4-1.6,4.1-1.6s3.1,0.5,4.1,1.6c1,1.1,1.5,2.4,1.5,4S153.8,33.6,152.8,34.6z M146.7,32.9c0.5,0.6,1.1,0.9,2,0.9
		s1.5-0.3,2-0.9c0.5-0.6,0.7-1.3,0.7-2.2c0-0.9-0.2-1.6-0.7-2.2c-0.5-0.6-1.2-0.9-2-0.9s-1.5,0.3-2,0.9c-0.5,0.6-0.7,1.3-0.7,2.2
		C146,31.6,146.3,32.3,146.7,32.9z"/>
	<path class="st2" d="M161.2,36h-2.8v-8.2h-3v-2.4h8.8v2.4h-3V36z"/>
	<path class="st2" d="M174.9,34.6c-1,1.1-2.4,1.6-4.1,1.6s-3.1-0.5-4.1-1.6c-1-1.1-1.5-2.4-1.5-4s0.5-2.9,1.5-4
		c1-1.1,2.4-1.6,4.1-1.6s3.1,0.5,4.1,1.6c1,1.1,1.5,2.4,1.5,4S176,33.6,174.9,34.6z M168.9,32.9c0.5,0.6,1.1,0.9,2,0.9
		s1.5-0.3,2-0.9c0.5-0.6,0.7-1.3,0.7-2.2c0-0.9-0.2-1.6-0.7-2.2c-0.5-0.6-1.2-0.9-2-0.9s-1.5,0.3-2,0.9c-0.5,0.6-0.7,1.3-0.7,2.2
		C168.2,31.6,168.4,32.3,168.9,32.9z"/>
	<path class="st2" d="M185.5,36h-6.9V25.4h6.7c1,0,1.8,0.3,2.4,0.8s0.9,1.2,0.9,1.9c0,0.6-0.2,1.1-0.5,1.6c-0.3,0.4-0.8,0.7-1.3,0.9
		c0.6,0.1,1.1,0.4,1.5,0.9c0.4,0.5,0.6,1,0.6,1.7c0,0.8-0.3,1.5-0.9,2.1C187.3,35.7,186.5,36,185.5,36z M184.7,29.4
		c0.3,0,0.5-0.1,0.7-0.3c0.2-0.2,0.3-0.4,0.3-0.6c0-0.3-0.1-0.5-0.3-0.6c-0.2-0.2-0.4-0.3-0.7-0.3h-3.4v1.8H184.7z M184.8,33.7
		c0.3,0,0.6-0.1,0.8-0.3s0.3-0.4,0.3-0.7c0-0.3-0.1-0.5-0.3-0.7c-0.2-0.2-0.5-0.3-0.8-0.3h-3.5v2H184.8z"/>
	<path class="st2" d="M201.8,36h-3.5l-2.8-4.1l-1.3,1.4V36h-2.8V25.4h2.8v4.7l4-4.7h3.4l-4.2,4.8L201.8,36z"/>
	<path class="st2" d="M205.9,36h-2.7V25.4h2.8v6.4l4.4-6.4h2.8V36h-2.8v-6.7L205.9,36z"/>
</g>
<g class="st1">
	<path class="st2" d="M41,62.4h-3.5l-2.8-4.1l-1.3,1.4v2.7h-2.8V51.8h2.8v4.7l4-4.7h3.4l-4.2,4.8L41,62.4z"/>
	<path class="st2" d="M55,62.7c-2.2,0-4-0.7-5.5-2.1c-1.4-1.4-2.2-3.2-2.2-5.4s0.7-4,2.2-5.4c1.4-1.4,3.3-2.1,5.5-2.1
		c2.2,0,4.1,0.7,5.5,2.1c1.4,1.4,2.2,3.2,2.2,5.5c0,2.2-0.7,4-2.2,5.5C59.1,62,57.2,62.7,55,62.7z M51.8,58.5
		c0.8,0.9,1.9,1.4,3.2,1.4s2.4-0.5,3.2-1.4c0.8-0.9,1.2-2.1,1.2-3.5c0-1.4-0.4-2.5-1.2-3.5c-0.8-0.9-1.9-1.4-3.2-1.4
		s-2.4,0.5-3.2,1.4c-0.8,0.9-1.2,2.1-1.2,3.5C50.5,56.5,50.9,57.6,51.8,58.5z"/>
	<path class="st2" d="M68,62.4h-3.1V47.7h10.4v2.8H68V62.4z"/>
	<path class="st2" d="M82.5,62.7c-2.7,0-4.8-1.2-6.1-3.6l2.7-1.3c0.3,0.6,0.8,1.1,1.4,1.5c0.6,0.4,1.3,0.6,2.1,0.6
		c1.1,0,2.1-0.3,2.9-1c0.8-0.7,1.3-1.5,1.6-2.6h-7v-2.8h7c-0.3-1-0.8-1.8-1.6-2.4c-0.8-0.6-1.7-0.9-2.8-0.9c-0.7,0-1.4,0.2-2.1,0.6
		c-0.6,0.4-1.1,0.9-1.4,1.5l-2.7-1.3c1.3-2.4,3.4-3.6,6.1-3.6c2.2,0,4.1,0.7,5.6,2.1c1.5,1.4,2.2,3.2,2.2,5.5s-0.7,4.1-2.2,5.5
		C86.6,62,84.8,62.7,82.5,62.7z"/>
	<path class="st2" d="M108.1,62.4h-2.8v-8.2h-4.4v8.2h-2.8V51.8h10V62.4z"/>
	<path class="st2" d="M119.9,61c-1,1.1-2.4,1.6-4.1,1.6c-1.7,0-3.1-0.5-4.1-1.6c-1-1.1-1.5-2.4-1.5-4s0.5-2.9,1.5-4
		c1-1.1,2.4-1.6,4.1-1.6c1.7,0,3.1,0.5,4.1,1.6c1,1.1,1.5,2.4,1.5,4S120.9,60,119.9,61z M113.8,59.3c0.5,0.6,1.1,0.9,2,0.9
		s1.5-0.3,2-0.9c0.5-0.6,0.7-1.3,0.7-2.2c0-0.9-0.2-1.6-0.7-2.2c-0.5-0.6-1.2-0.9-2-0.9s-1.5,0.3-2,0.9c-0.5,0.6-0.7,1.3-0.7,2.2
		C113.1,58,113.3,58.7,113.8,59.3z"/>
	<path class="st2" d="M135.2,62.7c-1.3,0-2.4-0.5-3.3-1.6v5.4h-2.8V51.8h2.8v1.3c0.8-1.1,1.9-1.6,3.3-1.6c1.4,0,2.5,0.5,3.4,1.5
		c0.9,1,1.3,2.4,1.3,4.1c0,1.7-0.4,3.1-1.3,4.1C137.7,62.2,136.6,62.7,135.2,62.7z M134.3,60.2c0.8,0,1.5-0.3,1.9-0.9
		s0.7-1.3,0.7-2.2c0-0.9-0.2-1.6-0.7-2.2s-1.1-0.9-1.9-0.9c-0.5,0-0.9,0.1-1.4,0.4c-0.5,0.2-0.8,0.5-1,0.9V59c0.2,0.3,0.6,0.6,1,0.9
		C133.4,60.1,133.9,60.2,134.3,60.2z"/>
	<path class="st2" d="M141.6,66.6l0.4-2.5c0.3,0.1,0.6,0.2,0.9,0.2c0.7,0,1.2-0.3,1.5-0.8l0.4-0.9l-4.3-10.8h3l2.8,7.4l2.8-7.4h3
		l-5,12.4c-0.4,0.9-0.9,1.6-1.5,2c-0.7,0.4-1.5,0.6-2.5,0.6C142.4,66.7,142,66.7,141.6,66.6z"/>
	<path class="st2" d="M158.2,62.7c-1.6,0-3-0.5-4-1.6c-1.1-1-1.6-2.4-1.6-4c0-1.6,0.5-3,1.6-4c1.1-1,2.4-1.6,4-1.6
		c1.9,0,3.3,0.6,4.2,1.9l-1.8,1.7c-0.5-0.8-1.3-1.1-2.2-1.1c-0.9,0-1.5,0.3-2.1,0.8s-0.8,1.3-0.8,2.2s0.3,1.7,0.8,2.2
		s1.2,0.9,2.1,0.9c1,0,1.7-0.4,2.2-1.1l1.8,1.7C161.5,62,160.1,62.7,158.2,62.7z"/>
	<path class="st2" d="M169.2,62.7c-1.6,0-3-0.5-4-1.6c-1.1-1-1.6-2.4-1.6-4c0-1.6,0.5-3,1.6-4c1.1-1,2.4-1.6,4-1.6
		c1.9,0,3.3,0.6,4.2,1.9l-1.8,1.7c-0.5-0.8-1.3-1.1-2.2-1.1c-0.9,0-1.5,0.3-2.1,0.8c-0.5,0.6-0.8,1.3-0.8,2.2s0.3,1.7,0.8,2.2
		c0.5,0.6,1.2,0.9,2.1,0.9c1,0,1.7-0.4,2.2-1.1l1.8,1.7C172.4,62,171,62.7,169.2,62.7z"/>
	<path class="st2" d="M185.6,62.4h-3.5l-2.8-4.1l-1.3,1.4v2.7h-2.8V51.8h2.8v4.7l4-4.7h3.4l-4.2,4.8L185.6,62.4z"/>
	<path class="st2" d="M196,61c-1,1.1-2.4,1.6-4.1,1.6s-3.1-0.5-4.1-1.6c-1-1.1-1.5-2.4-1.5-4s0.5-2.9,1.5-4c1-1.1,2.4-1.6,4.1-1.6
		s3.1,0.5,4.1,1.6c1,1.1,1.5,2.4,1.5,4S197,60,196,61z M189.9,59.3c0.5,0.6,1.1,0.9,2,0.9s1.5-0.3,2-0.9c0.5-0.6,0.7-1.3,0.7-2.2
		c0-0.9-0.2-1.6-0.7-2.2c-0.5-0.6-1.2-0.9-2-0.9s-1.5,0.3-2,0.9c-0.5,0.6-0.7,1.3-0.7,2.2C189.2,58,189.4,58.7,189.9,59.3z"/>
	<path class="st2" d="M212.2,62.4h-2.8v-6.9l-2.8,6.9h-1.3l-2.9-6.9v6.9h-2.8V51.8h3.7l2.6,6.3l2.6-6.3h3.7V62.4z"/>
	<path class="st2" d="M214.5,66.6l0.4-2.5c0.3,0.1,0.6,0.2,0.9,0.2c0.7,0,1.2-0.3,1.5-0.8l0.4-0.9l-4.3-10.8h3l2.8,7.4l2.8-7.4h3
		l-5,12.4c-0.4,0.9-0.9,1.6-1.5,2c-0.7,0.4-1.5,0.6-2.5,0.6C215.4,66.7,215,66.7,214.5,66.6z"/>
</g>
<g class="st1">
	<path class="st2" d="M108.9,132v-1.5c5.3-4.2,8.1-6.6,8.1-9.1c0-1.9-1.5-2.7-3.1-2.7c-1.8,0-3.1,0.7-4,1.8l-1.1-1.2
		c1.1-1.5,3-2.3,5.1-2.3c2.4,0,4.9,1.4,4.9,4.3c0,3-3,5.7-7.1,9h7.2v1.6H108.9z"/>
	<path class="st2" d="M121.8,124.7c0-3.6,1.6-7.6,5.6-7.6c4,0,5.6,4,5.6,7.6c0,3.6-1.6,7.6-5.6,7.6
		C123.4,132.3,121.8,128.2,121.8,124.7z M131.1,124.7c0-2.9-0.9-5.9-3.7-5.9c-2.8,0-3.7,3-3.7,5.9s0.9,6,3.7,6
		C130.2,130.6,131.1,127.6,131.1,124.7z"/>
	<path class="st2" d="M140.4,130.5l0.8-1.1c1,0.9,2.4,1.4,4,1.4c1.9,0,3.1-0.7,3.1-1.8c0-1.3-1.5-1.8-3.3-1.8h-2.4v-1.3h2.4
		c1.8,0,3.1-0.6,3.1-1.8c0-1-1.3-1.7-3.1-1.7c-1.5,0-2.7,0.4-3.6,1.4l-0.9-1c1-1,2.4-1.7,4.4-1.7c2.9,0,4.9,1,4.9,2.8
		c0,1.6-1.6,2.4-2.9,2.6c1.2,0.1,3.1,0.8,3.1,2.6c0,1.8-1.8,3.1-4.9,3.1C143.1,132.3,141.5,131.6,140.4,130.5z"/>
	<path class="st2" d="M159.4,132v-1.2c-0.9,1-2.1,1.5-3.5,1.5c-1.8,0-3.7-1.2-3.7-3.5c0-2.4,1.9-3.5,3.7-3.5c1.5,0,2.7,0.5,3.5,1.5
		v-1.9c0-1.4-1.1-2.2-2.7-2.2c-1.3,0-2.3,0.5-3.3,1.5l-0.8-1.1c1.1-1.2,2.5-1.8,4.2-1.8c2.2,0,4.1,1,4.1,3.6v7.3H159.4z
		 M159.4,129.8v-2c-0.6-0.9-1.8-1.3-2.9-1.3c-1.5,0-2.6,1-2.6,2.3c0,1.3,1.1,2.3,2.6,2.3C157.6,131.1,158.8,130.6,159.4,129.8z"/>
	<path class="st2" d="M164.3,132v-10.6h1.7v4.4h5.5v-4.4h1.7V132h-1.7v-4.8H166v4.8H164.3z"/>
	<path class="st2" d="M176.1,132l2.8-4.2c-1.6-0.2-2.7-1.4-2.7-3.2c0-1.8,1.2-3.3,3.4-3.3h5.6V132h-1.7v-4.1h-2.9l-2.6,4.1H176.1z
		 M183.6,126.4v-3.6h-3.8c-1.2,0-1.8,0.7-1.8,1.8c0,1.1,0.6,1.8,1.8,1.8H183.6z"/>
	<path class="st2" d="M190.5,132v-9.2h-3.1v-1.5h7.8v1.5h-3.1v9.2H190.5z"/>
	<path class="st2" d="M197.4,132v-10.6h1.7v8.1l5.6-8.1h1.6V132h-1.7v-8.3l-5.6,8.3H197.4z"/>
	<path class="st2" d="M209.5,132v-10.6h1.7v8.1l5.6-8.1h1.6V132h-1.7v-8.3l-5.6,8.3H209.5z M213.9,120.2c-1.6,0-3-0.7-3.9-1.9
		l0.8-0.7c0.7,1,1.8,1.6,3.1,1.6c1.3,0,2.4-0.6,3-1.6l0.8,0.7C216.9,119.4,215.5,120.2,213.9,120.2z"/>
</g>
<g class="st1">
	<path class="st2" d="M90.4,158.4v-10.6h5.9c1.9,0,3,1.1,3,2.7c0,1.3-0.8,2.1-1.7,2.4c1.1,0.3,1.9,1.4,1.9,2.6
		c0,1.7-1.1,2.9-3.1,2.9H90.4z M97.6,150.7c0-0.9-0.6-1.5-1.6-1.5h-3.9v3H96C97,152.2,97.6,151.6,97.6,150.7z M97.8,155.3
		c0-0.9-0.6-1.7-1.7-1.7h-4v3.3h4C97.1,156.9,97.8,156.3,97.8,155.3z"/>
	<path class="st2" d="M102,153.1c0-3.1,2-5.6,5.3-5.6s5.3,2.5,5.3,5.6c0,3.1-2,5.6-5.3,5.6S102,156.2,102,153.1z M110.8,153.1
		c0-2.2-1.3-4.1-3.5-4.1c-2.3,0-3.5,1.9-3.5,4.1c0,2.2,1.3,4.1,3.5,4.1C109.5,157.2,110.8,155.3,110.8,153.1z"/>
	<path class="st2" d="M114.6,153.1c0-3.1,2.1-5.6,5.3-5.6c1.9,0,3.1,0.8,3.9,1.8l-1.1,1c-0.7-1-1.6-1.4-2.7-1.4
		c-2.3,0-3.7,1.7-3.7,4.1c0,2.4,1.4,4.1,3.7,4.1c1.1,0,2-0.4,2.7-1.4l1.1,1c-0.8,1.1-2,1.8-3.9,1.8
		C116.7,158.7,114.6,156.2,114.6,153.1z"/>
	<path class="st2" d="M133.3,158.4l-3.8-4.8l-1.8,1.7v3h-1.7v-10.6h1.7v5.7l5.6-5.7h2.1l-4.7,4.8l4.7,5.8H133.3z"/>
	<path class="st2" d="M139,156.8v5.7h-1.6v-14.7h1.6v1.6c0.8-1.1,2.1-1.8,3.6-1.8c2.8,0,4.7,2.1,4.7,5.6c0,3.4-1.9,5.6-4.7,5.6
		C141.2,158.7,139.9,158,139,156.8z M145.6,153.1c0-2.4-1.3-4.1-3.4-4.1c-1.3,0-2.6,0.8-3.2,1.7v4.8c0.6,0.9,1.9,1.7,3.2,1.7
		C144.3,157.2,145.6,155.4,145.6,153.1z"/>
	<path class="st2" d="M149.4,153.1c0-3.1,2.2-5.6,5.2-5.6c3.2,0,5.1,2.5,5.1,5.7v0.4h-8.6c0.1,2,1.5,3.7,3.8,3.7
		c1.2,0,2.4-0.5,3.3-1.3l0.8,1.1c-1.1,1.1-2.5,1.6-4.2,1.6C151.6,158.7,149.4,156.4,149.4,153.1z M154.6,148.9
		c-2.3,0-3.4,1.9-3.5,3.5h7C158,150.8,157,148.9,154.6,148.9z"/>
	<path class="st2" d="M161.7,153.1c0-3.1,2.1-5.6,5.3-5.6c1.9,0,3.1,0.8,3.9,1.8l-1.1,1c-0.7-1-1.6-1.4-2.7-1.4
		c-2.3,0-3.7,1.7-3.7,4.1c0,2.4,1.4,4.1,3.7,4.1c1.1,0,2-0.4,2.7-1.4l1.1,1c-0.8,1.1-2,1.8-3.9,1.8
		C163.9,158.7,161.7,156.2,161.7,153.1z"/>
	<path class="st2" d="M172.6,153.1c0-3.1,2.2-5.6,5.2-5.6c3.2,0,5.1,2.5,5.1,5.7v0.4h-8.6c0.1,2,1.5,3.7,3.8,3.7
		c1.2,0,2.4-0.5,3.3-1.3l0.8,1.1c-1.1,1.1-2.5,1.6-4.2,1.6C174.9,158.7,172.6,156.4,172.6,153.1z M177.8,148.9
		c-2.3,0-3.4,1.9-3.5,3.5h7C181.3,150.8,180.3,148.9,177.8,148.9z"/>
	<path class="st2" d="M185.6,158.4v-10.6h1.6v4.4h5.5v-4.4h1.7v10.6h-1.7v-4.8h-5.5v4.8H185.6z"/>
	<path class="st2" d="M199.4,147.8v4.1h4c2.2,0,3.3,1.5,3.3,3.3c0,1.8-1.2,3.3-3.3,3.3h-5.6v-10.6H199.4z M199.4,153.3v3.6h3.8
		c1.2,0,1.8-0.7,1.8-1.8c0-1-0.6-1.8-1.8-1.8H199.4z"/>
	<path class="st2" d="M208.6,153.1c0-3.1,2.2-5.6,5.2-5.6c3.2,0,5.1,2.5,5.1,5.7v0.4h-8.6c0.1,2,1.5,3.7,3.8,3.7
		c1.2,0,2.4-0.5,3.3-1.3l0.8,1.1c-1.1,1.1-2.5,1.6-4.2,1.6C210.9,158.7,208.6,156.4,208.6,153.1z M213.9,148.9
		c-2.3,0-3.4,1.9-3.5,3.5h7C217.3,150.8,216.3,148.9,213.9,148.9z"/>
</g>
<g class="st1">
	<path class="st2" d="M172.2,184.8v-12.3l-2.4,2.5l-1.1-1.1l3.7-3.8h1.6v14.7H172.2z"/>
	<path class="st2" d="M183.4,184.8v-3.7h-7v-1.5l6.3-9.4h2.5v9.4h2.1v1.6h-2.1v3.7H183.4z M183.4,171.8l-5.1,7.7h5.1V171.8z"/>
	<path class="st2" d="M189.3,175.2c0-0.7,0.5-1.2,1.2-1.2s1.2,0.5,1.2,1.2s-0.5,1.2-1.2,1.2S189.3,175.9,189.3,175.2z M189.3,183.8
		c0-0.7,0.5-1.2,1.2-1.2s1.2,0.5,1.2,1.2s-0.5,1.2-1.2,1.2S189.3,184.5,189.3,183.8z"/>
	<path class="st2" d="M194.2,177.5c0-3.6,1.6-7.6,5.6-7.6c4,0,5.6,4,5.6,7.6c0,3.6-1.6,7.6-5.6,7.6
		C195.8,185.1,194.2,181,194.2,177.5z M203.5,177.5c0-2.9-0.9-5.9-3.7-5.9c-2.8,0-3.7,3-3.7,5.9s0.9,6,3.7,6
		C202.6,183.4,203.5,180.4,203.5,177.5z"/>
	<path class="st2" d="M207.7,177.5c0-3.6,1.6-7.6,5.6-7.6c4,0,5.6,4,5.6,7.6c0,3.6-1.6,7.6-5.6,7.6
		C209.2,185.1,207.7,181,207.7,177.5z M217,177.5c0-2.9-0.9-5.9-3.7-5.9s-3.7,3-3.7,5.9s0.9,6,3.7,6S217,180.4,217,177.5z"/>
</g>
</svg>
