<svg xmlns="http://www.w3.org/2000/svg" xmlns:xlink="http://www.w3.org/1999/xlink" viewBox="0 0 255.96 410.91"><defs><clipPath id="h" transform="translate(-91.6 -6.2)"><path d="M131.8 94.08c-1.27 44-1.6 43.63-29 97.44 56.92 17.48 174.2 16.42 233.91-.21-29.08-54.68-30.56-54.73-30.67-99-.11-44.85-37.61-86.11-87.29-86.11-54.68 0-85.69 41-87 87.88" fill="none"/></clipPath><radialGradient id="i" cx="-188.59" cy="597.41" r=".51" gradientTransform="matrix(380.62 0 0 -356.89 71886.25 213283.45)" gradientUnits="userSpaceOnUse"><stop offset="0" stop-color="#fff"/><stop offset=".32" stop-color="#bed1ee"/><stop offset=".63" stop-color="#4c6aaf"/><stop offset="1" stop-color="#00052f"/></radialGradient><clipPath id="j" transform="translate(-91.6 -6.2)"><path d="M186.7 197.46c-17 8.73-38.77 14.3-61.4 14.3a131.76 131.76 0 0 1-28.25-3c-3.58 12.81-5.45 24.53-5.45 31.6 0 46.63 19.22 86.8 34.64 130.48 4.57 12.91 35.85 24.68 92.9 24.68s87.51-12 92.85-24.68c16.8-40 34.64-86.8 34.64-130.48a127.51 127.51 0 0 0-4-31.65 188.45 188.45 0 0 1-35.46 3.51c-25.17 0-45.76-5.78-60.74-14.61-11.95-7-20.32-16.06-24.78-25.66a12.16 12.16 0 0 1-5.29-.21c-5.62 9.81-16.13 18.8-29.63 25.77" fill="none"/></clipPath><radialGradient id="k" cx="-188.59" cy="597.8" r=".51" gradientTransform="matrix(338.99 0 0 -317.85 64041.45 190231.29)" gradientUnits="userSpaceOnUse"><stop offset="0" stop-color="#fff"/><stop offset=".34" stop-color="#bed1ee"/><stop offset=".56" stop-color="#4c6aaf"/><stop offset="1" stop-color="#00052f"/></radialGradient><clipPath id="l" transform="translate(-91.6 -6.2)"><path d="M218.59 41.36a58 58 0 0 0-40.48 16.37 55 55 0 0 0 0 79.1 58.16 58.16 0 0 0 80.9 0 55 55 0 0 0 0-79.1 57.92 57.92 0 0 0-40.42-16.37z" fill="none"/></clipPath><radialGradient id="e" cx="-188.44" cy="596.96" r=".51" gradientTransform="matrix(189.26 0 0 -177.46 35773.91 105999.75)" gradientUnits="userSpaceOnUse"><stop offset="0" stop-color="#d24a43"/><stop offset="1" stop-color="#360000"/></radialGradient><clipPath id="m" transform="translate(-91.6 -6.2)"><path d="M224.43 171.12C243.31 212.59 303 216.25 341.89 206a138 138 0 0 0-5.18-14.72c-24.56 6.4-51.43 5.73-74.73-6.14-10.52.05-29-6.82-34.36-16a12.23 12.23 0 0 1-3.19 1.91m-54.52 13.53c-20.54 10.64-44.72 13.79-67.13 6.87-1.87 4.85-3.52 9.81-5 14.61 36.46 12.34 95.1-.31 115.81-35.42a11.48 11.48 0 0 1-2.92-2l-.44-.41c-8 13.53-22 15.28-40.37 16.37" fill="none"/></clipPath><radialGradient id="g" cx="-188.54" cy="597.8" r=".51" gradientTransform="matrix(285.77 0 0 -267.95 53985.32 160395.98)" gradientUnits="userSpaceOnUse"><stop offset="0" stop-color="#4c6aaf"/><stop offset="1" stop-color="#00052f"/></radialGradient><clipPath id="n" transform="translate(-91.6 -6.2)"><path d="M159.17 96.61c0 31.55 26.38 57.26 58.71 57.26s58.65-25.71 58.65-57.26-26.38-57.26-58.65-57.26-58.71 25.71-58.71 57.26" fill="none"/></clipPath><radialGradient id="o" cx="-188.12" cy="595.96" r=".51" gradientTransform="matrix(86.61 0 0 -81.21 16408.51 48458.39)" gradientUnits="userSpaceOnUse"><stop offset="0" stop-color="#fcf1ec"/><stop offset="1" stop-color="#f2cdbe"/></radialGradient><clipPath id="p" transform="translate(-91.6 -6.2)"><path d="M218.37 45.49c2.26 13.27 8.48 21.48 27 29 9.86 4 24.78 10.89 30.95 26.13q.16-2 .16-4c0-31.45-26-57-58.15-57.26z" fill="none"/></clipPath><radialGradient id="a" cx="-188.38" cy="594.42" r=".51" gradientTransform="matrix(49.94 0 0 -46.82 9561.2 27884.05)" gradientUnits="userSpaceOnUse"><stop offset="0" stop-color="#ab6442"/><stop offset="1" stop-color="#3e0000"/></radialGradient><clipPath id="q" transform="translate(-91.6 -6.2)"><path fill="none" d="M0 0h434.09v414.78H0z"/></clipPath><clipPath id="r" transform="translate(-91.6 -6.2)"><path d="M217.87 39.35c-32.44 0-58.71 25.61-58.71 57.26a57.82 57.82 0 0 0 .33 6.2c5.56-16.63 21.2-23.91 31.39-28.09 21-8.62 26-18.12 27.48-35v-.41z" fill="none"/></clipPath><radialGradient id="s" cx="-187.3" cy="594.53" r=".51" gradientTransform="matrix(51.45 0 0 -48.24 9730.75 28731.53)" xlink:href="#a"/><clipPath id="t" transform="translate(-91.6 -6.2)"><path d="M232.9 105.39q17.35 12.08 26.6-3.25Q252.61 97 246.64 97q-7.62 0-13.74 8.42" fill="none"/></clipPath><radialGradient id="c" cx="-188.17" cy="593.75" r=".51" gradientTransform="matrix(30 0 0 -28.13 5800.63 16801.71)" gradientUnits="userSpaceOnUse"><stop offset="0" stop-color="#fff"/><stop offset="1" stop-color="#e2e2e2"/></radialGradient><clipPath id="u" transform="translate(-91.6 -6.2)"><path d="M238 102.5a7.45 7.45 0 0 0 6.83 8.21 7.8 7.8 0 0 0 8.81-6.4 7.5 7.5 0 0 0-6.88-8.21 8.28 8.28 0 0 0-1-.06 7.67 7.67 0 0 0-7.76 6.46" fill="none"/></clipPath><radialGradient id="d" cx="-187.92" cy="593.19" r=".51" gradientTransform="matrix(26.11 0 0 -24.48 5056.8 14619.08)" gradientUnits="userSpaceOnUse"><stop offset="0" stop-color="#3eb5f1"/><stop offset="1" stop-color="#272e5b"/></radialGradient><clipPath id="v" transform="translate(-91.6 -6.2)"><path d="M228.61 130.07c0 8.47 7.27 15.39 16.36 15.39s16.41-6.92 16.41-15.39S254 114.69 245 114.69s-16.36 6.92-16.36 15.39" fill="none"/></clipPath><radialGradient id="b" cx="-188.04" cy="594.25" r=".51" gradientTransform="matrix(26.5 0 0 -24.84 5135.45 14887.08)" gradientUnits="userSpaceOnUse"><stop offset="0" stop-color="#e6a5aa"/><stop offset="1" stop-color="#f2cdbe"/></radialGradient><clipPath id="w" transform="translate(-91.6 -6.2)"><path d="M175.8 130.07c0 8.47 7.38 15.39 16.41 15.39s16.41-6.92 16.41-15.39-7.38-15.39-16.41-15.39-16.41 6.92-16.41 15.39" fill="none"/></clipPath><radialGradient id="x" cx="-186.11" cy="594.25" r=".51" gradientTransform="matrix(26.5 0 0 -24.84 5031.62 14887.08)" xlink:href="#b"/><clipPath id="y" transform="translate(-91.6 -6.2)"><path d="M180.31 87.16c8.92-1.29 15.64-.52 23.3 7.38-3.19-6.72-8.49-9.6-14.22-9.6a21.14 21.14 0 0 0-9.08 2.22" fill="none"/></clipPath><linearGradient id="f" x1="-189.01" y1="599.93" x2="-188.47" y2="599.93" gradientTransform="matrix(-55.81 .97 .97 55.81 -11020.3 -33214.27)" gradientUnits="userSpaceOnUse"><stop offset="0" stop-color="#380000"/><stop offset="1" stop-color="#e6a073"/></linearGradient><clipPath id="z" transform="translate(-91.6 -6.2)"><path d="M178.61 101.11q7.68 16.11 26.16 5.63-5.67-9.65-14.11-9.66-5.44 0-12 4" fill="none"/></clipPath><radialGradient id="A" cx="-186.38" cy="593.66" r=".51" gradientTransform="matrix(29.5 0 0 -27.66 5598.21 16516.67)" xlink:href="#c"/><clipPath id="B" transform="translate(-91.6 -6.2)"><path d="M191.93 96.25a7.93 7.93 0 1 0 .2 0h-.2" fill="none"/></clipPath><radialGradient id="C" cx="-185.97" cy="593.28" r=".51" gradientTransform="matrix(26.42 0 0 -24.77 5010.32 14795.81)" xlink:href="#d"/><clipPath id="D" transform="translate(-91.6 -6.2)"><path d="M218.59 127.34c-1.38-3-4.13-3.25-6.39-2.74-2.75.67-2 2.74-6.5 2.84.83.72 5.73 4.44 7.1 4.44.83 3.51 3.08 5.27 5.45 5.27s4.73-1.81 5.95-5.27c2.37-1.5 5.56-2.89 7.6-5.06.07-.07-.37 0-1 0-1.4.12-3.79.24-4.57-.77a4 4 0 0 0-3.19-1.73 5.33 5.33 0 0 0-4.41 3" fill="none"/></clipPath><radialGradient id="E" cx="-187.54" cy="595.32" r=".51" gradientTransform="matrix(39.73 0 0 -37.26 7575.1 22299.99)" xlink:href="#e"/><clipPath id="F" transform="translate(-91.6 -6.2)"><path d="M230.7 94.34c7.77-7.8 14.48-8.36 23.41-7a21.09 21.09 0 0 0-9.37-2.34c-5.61 0-10.8 2.8-14 9.36" fill="none"/></clipPath><linearGradient id="G" x1="-187.34" y1="599.57" x2="-186.79" y2="599.57" gradientTransform="scale(-56 56) rotate(28 1104.541 670.5)" xlink:href="#f"/><clipPath id="H" transform="translate(-91.6 -6.2)"><path d="M186.7 197.46c-17 8.73-38.77 14.3-61.4 14.3a132 132 0 0 1-23.3-2.07 11.26 11.26 0 0 0-1 2.32c-1.82 5.27-.55 11.15 3.25 17-12.56 7.49-10.57 20.4-2.26 30.46-7.65 9.6-1 25.35 9.91 30-2.42 11.46-.83 21.79 12.61 26.13.33 12.14 9.86 17.71 21.31 19.26 4 14.3 12 18.79 28.53 15.18 6.33 12.86 22.19 14.3 33.54 5.63 8.81 9.61 20.93 11 30.68 1.91 8.64 4.85 21.25 2.32 26.43-6.45a10.13 10.13 0 0 0 .88-1.08c13.22 1.91 26-2.58 27.1-16.26l.11-.21c13.44.46 22.8-6.71 22.36-19.62 12.34-3.25 14.92-14.92 12.34-25.61 10.08-3.72 17.35-19.36 9.58-31.24 8.32-10.07 10.3-23-2.26-30.46 3.74-5.89 5.12-11.82 3.25-17.09l-.05-.15a181.43 181.43 0 0 1-31.06 2.74c-25.17 0-45.76-5.78-60.74-14.61-11.95-7-20.32-16.06-24.78-25.66a12.16 12.16 0 0 1-5.29-.21c-5.62 9.81-16.13 18.8-29.63 25.77" fill="none"/></clipPath><radialGradient id="I" cx="-188.64" cy="597.85" r=".51" gradientTransform="matrix(361.51 0 0 -338.97 68324.41 202883.2)" gradientUnits="userSpaceOnUse"><stop offset="0" stop-color="#fff"/><stop offset=".37" stop-color="#fff"/><stop offset=".61" stop-color="#d6e2f5"/><stop offset="1" stop-color="#90b6e4"/></radialGradient><clipPath id="J" transform="translate(-91.6 -6.2)"><path d="M154.21 117.63c.11 1.76.55 4.91 2 4.75 1.1-.1.83-1.81-.11-1.29-.83-.52-1-2.17-1.21-3.56a7 7 0 0 0-1.87-4.34 7.57 7.57 0 0 1 1.21 4.44m-6.11 1.5c.11 1.14 1.54 1.91 2.15.46.83-2-.66-7.33-2.59-8.42 2.26 2 .22 5.63.44 8m8.48-2.43c.5 1.91 1.87 1.29 1.38-.26-.77-2.38-2.7-4.54-7.38-6.2 4.46 2.53 5.23 3.2 6 6.45m-4.68 4a50.92 50.92 0 0 1-1.21 5.73c-.72 3.61 1.65 4.39 2.64.36 1.65-6.51-1.54-17.45-9.09-19 5.62 1.55 8.1 7.75 7.66 12.91m-17-12.86c.83-1.34 4.13-1.14 5.95-.57 2.15.62 3.41 2.69 4 4.85s.5 5.52-1.82 6.76c-3.08 1.6-6.06-.88-6.5-3.72-.39-2.38 1.26-6.2 4-4.91 2.26 1.14 3.58 3.82 2 5.94-1.71 1.81-4.13.67-4.24-.67 4.74-1.14-1.38-5.47-1.27-.46a3.4 3.4 0 0 0 6.11 1.45c1.76-2.32.22-6.3-2.7-7.18-2.75-.83-4.68 3.46-4.68 5.58.11 3.61 4.41 6.87 7.88 4.39 2.37-1.7 2.75-4.75 2.09-7.44-.55-2.32-2.15-4.65-4.62-5.27a11.93 11.93 0 0 0-2.36-.24c-1.61 0-3.23.36-3.81 1.48m13.55-3c-1.32 1.65 1.32 3.3 2.59 2 .5-.46.5-1.14-.28-1.91.22-.57 2.53-.36 3.3.83 1.6 2.32-.55 2.94-2.7 2.94-3.14.05-5.34-2.22-8.43-2.53 3 .83 6 3 8.76 3.15 2.15.16 4.19-.83 3.25-3.41a4 4 0 0 0-3.76-2.32 3.4 3.4 0 0 0-2.74 1.24m-5.62-9.71a9.15 9.15 0 0 0-3.69 3.56c-2.09 3.82 2.7 5.52 5.51 3.56 2.53-1.81 1.76-5.22-.88-4.85-1.27.21-3.64 1.24-2.26 2.68.66.67 1.93.77 2.37-1 1.21-1.08 2.26 1.6.05 2.89-2.42 1.39-5.78-.26-3.85-3.2a10.89 10.89 0 0 1 3.19-3 4.45 4.45 0 0 1 4.79.05c1.6 1.45 1.93 2.84 1.49 4a7.46 7.46 0 0 1-4 3.61 37 37 0 0 1-8.26 2c2.59-.36 6.17-.41 8.54-1.6s4.79-3.25 4.4-5.89a4 4 0 0 0-1.93-2.84 4.46 4.46 0 0 0-2.47-.75 6.77 6.77 0 0 0-3 .8" fill="none"/></clipPath><radialGradient id="K" cx="-187.68" cy="596.38" r=".51" gradientTransform="matrix(84.43 0 0 -79.16 15923.23 47310.75)" xlink:href="#g"/><clipPath id="L" transform="translate(-91.6 -6.2)"><path d="M141.82 73.33c-.33 1.29-.77 2.94-1.65 3.36-.88-.57-1.32 1-.28 1.29 1.43.31 2.26-2.79 2.53-4.54a8 8 0 0 1 1.76-4.29 6.83 6.83 0 0 0-2.37 4.18m4.35 2.48c.38 1.55 1.93.93 2.2-.21.5-2.32-1.1-6.2 1.38-7.9-2 .88-4.13 6.09-3.58 8.11m-7.27-3.92c-.72 1.5.61 2.27 1.27.41 1.21-3.15 2-3.72 6.77-5.78-4.84 1.14-7 3-8 5.37m3.3 10.79c.5 4.08 3 3.56 2.7-.1a41.7 41.7 0 0 1-.5-5.83c.17-5.16 3.36-11.1 9.09-12-7.66.72-12.12 11.26-11.29 17.92m14.65-18.79c-2.53.31-4.4 2.48-5.23 4.75-1 2.58-.94 5.68 1.21 7.59 3.14 2.84 7.82.05 8.32-3.51.27-2.12-1.1-6.56-4-6s-5 4.34-3.52 6.87a3.46 3.46 0 0 0 6.28-.77c.66-5-5.95-1.34-1.38.31-.22 1.34-2.81 2.17-4.24.21-1.38-2.32.22-4.8 2.64-5.68 2.86-1 4.08 2.94 3.41 5.27-.83 2.79-4.08 5-6.94 3-2.15-1.45-1.82-4.85-1-6.92s2.31-4 4.57-4.39c1.87-.36 5.18-.21 5.84 1.24-.59-1.5-2.92-2-4.86-2a11.35 11.35 0 0 0-1.14.06m-13.64-2.2c-1.27 2.48.6 3.67 2.75 3.77 2.75.1 6.06-1.7 9.14-2.22-3.14 0-5.62 2-8.7 1.65-2.15-.26-4.24-1.14-2.37-3.25.93-1.08 3.25-1 3.41-.46-.83.67-.94 1.34-.55 1.86 1.16 1.45 4 .05 2.86-1.7a3.43 3.43 0 0 0-3-1.58 3.93 3.93 0 0 0-3.52 1.94m7.87-10a4.06 4.06 0 0 0-2.26 2.58c-.72 2.58 1.38 4.8 3.63 6.3s5.84 1.86 8.32 2.48a33.18 33.18 0 0 1-8-2.84c-1.54-.93-3.14-2.37-3.52-4-.28-1.19.22-2.53 1.93-3.82a4.43 4.43 0 0 1 4.79.46 11.36 11.36 0 0 1 2.86 3.36c1.49 3.1-2 4.44-4.24 2.79-2-1.5-.72-4.13.38-2.89.22 1.86 1.49 1.86 2.2 1.24 1.54-1.24-.66-2.53-1.87-2.84-2.59-.67-3.8 2.63-1.49 4.7 2.53 2.22 7.54 1.08 5.89-2.94a8.73 8.73 0 0 0-3.25-3.92 5.93 5.93 0 0 0-3.29-1.15 4.56 4.56 0 0 0-2.11.53" fill="none"/></clipPath><radialGradient id="M" cx="-187.82" cy="596.19" r=".51" gradientTransform="matrix(91.73 0 0 -86.01 17312 51351.02)" xlink:href="#g"/><clipPath id="N" transform="translate(-91.6 -6.2)"><path d="M144.35 149.33c2.26 1.29 5.23 1.65 9.86-.1-5.07.93-6.11 1-9-.93a2.28 2.28 0 0 0-1.16-.44c-.75 0-.74.87.33 1.47m9.75 1.29c-1.71 1.29-2.48 3.25.05 4.6 2.37 1.19 5.89-.62 5.56-3.36-.22-2-3.36-1.55-3.36.21 0 .62.49 1.14 1.6 1.24.22.52-1.6 1.81-3 1.45-2.86-.67-1.71-2.48-.16-3.87 2.31-2.06 5.56-1.76 8.09-3.51-2.81 1.29-6.61 1.65-8.75 3.25m8.31.36c-.88 2.48-1.21 5.42 1 7.13a4.56 4.56 0 0 0 3.47.88 4.74 4.74 0 0 0 4-3.46 8.42 8.42 0 0 0 .22-5c-1.27-4.13-6.06-2.32-6.66.83-.6 3 2.48 5 4.13 3 .77-.93 1.76-3.2-.28-3.36-.94-.1-2 .62-1 2.22-.11 1.6-2.86.26-2.15-2.12.83-2.58 4.46-3.41 5.18-.05a10.64 10.64 0 0 1-.16 4.29 4.18 4.18 0 0 1-3.58 3c-2.26-.1-3.47-.88-4-2.06a6.54 6.54 0 0 1 .33-5.16 30 30 0 0 1 4.68-6.71c-1.65 1.86-4.29 4.18-5.18 6.56m-21-7.13c-.71.78.66 1.86 1 .88 1-.15 2.31.93 3.47 1.81a7.54 7.54 0 0 0 4.46 2.07 9.25 9.25 0 0 1-4.07-2.48c-1.07-1-3-2.55-4.16-2.55a.89.89 0 0 0-.69.28m6.39-1.7c.83 2 5.78 5 8 4.6-3.08-.05-4.24-4-6.06-5.63a1.72 1.72 0 0 0-1.08-.4c-.69 0-1.24.48-.84 1.43m-7.49-3.36c3.47 5.84 13.71 11.93 20.38 8.26-5.23 2.43-11.51-.62-14.87-4.7a44.13 44.13 0 0 1-3.25-5c-.87-1.28-1.77-1.87-2.38-1.87-.87 0-1.14 1.2.12 3.32m12.61-.62c-.5 2.74 1.38 5.27 3.8 6.82 2.09 1.34 5 2.07 7.21.88 1.76-.88 4.24-2.94 3.69-4.8.33 1.55-2.26 3.46-4 4.23-2.09.88-4.51.15-6.5-1.08s-4.35-3.77-3.47-6.14c1.1-3.15 5.07-3.2 7.49-1.34 2 1.5 3.47 5.37.55 6.09-2.53.67-5.4-.52-5.73-3.1a2.32 2.32 0 0 1 3.58-2.17c-2.7 3.82 5 3.15 1.27-.52-2.31-1.86-5.95-.15-5.56 2.84s4.41 4.8 7.16 3.62 1-5.52-.55-7.07a6.31 6.31 0 0 0-4.34-1.68c-2.15 0-4.19 1.08-4.63 3.43" fill="none"/></clipPath><radialGradient id="O" cx="-188.05" cy="596.9" r=".51" gradientTransform="matrix(113.66 0 0 -106.57 21465.32 63730.95)" xlink:href="#g"/><clipPath id="P" transform="translate(-91.6 -6.2)"><path d="M290.73 148.3c-3 1.91-4 1.86-9.09.93 4.62 1.75 7.6 1.39 9.86.1 1.08-.6 1.08-1.47.36-1.47a2.17 2.17 0 0 0-1.13.44m-9.64 2.58c1.54 1.39 2.7 3.2-.16 3.87-1.38.36-3.25-.93-3-1.45 1.1-.1 1.6-.62 1.6-1.24 0-1.76-3.14-2.22-3.36-.21-.33 2.74 3.19 4.54 5.56 3.36 2.54-1.34 1.76-3.31.06-4.6-2.15-1.6-5.89-2-8.7-3.25 2.48 1.76 5.73 1.45 8 3.51m-8.15.26a6.79 6.79 0 0 1 .38 5.16c-.55 1.19-1.76 2-4 2.06a4.18 4.18 0 0 1-3.63-3 10.67 10.67 0 0 1-.16-4.29c.71-3.36 4.35-2.53 5.18.05.72 2.37-2 3.72-2.15 2.12 1-1.6-.05-2.32-1-2.22-2 .16-1 2.43-.28 3.36 1.65 2 4.73-.05 4.13-3-.61-3.15-5.4-5-6.61-.83a8.46 8.46 0 0 0 .16 5 4.74 4.74 0 0 0 4 3.46 4.49 4.49 0 0 0 3.47-.88c2.2-1.7 1.93-4.65 1-7.13s-3.52-4.7-5.18-6.56a30 30 0 0 1 4.68 6.71m16.69-5a9 9 0 0 1-4.08 2.48 7.53 7.53 0 0 0 4.46-2.07c1.16-.88 2.48-2 3.47-1.81.33 1 1.71-.1 1-.88a.94.94 0 0 0-.71-.28c-1.21 0-3.11 1.55-4.19 2.55m-3.47-5c-1.82 1.6-3 5.58-6.06 5.63 2.2.36 7.16-2.63 8-4.6.43-.95-.13-1.43-.83-1.43a1.75 1.75 0 0 0-1.1.4m7.21-3.77c-1.15 1.7-2 3.46-3.25 5-3.41 4.08-9.69 7.13-14.92 4.7 6.66 3.67 16.91-2.43 20.38-8.26 1.26-2.12 1-3.32.13-3.32-.6 0-1.49.59-2.33 1.87m-19.33-.93c-1.6 1.55-3.25 5.89-.61 7.07s6.78-.72 7.16-3.62-3.25-4.7-5.56-2.84c-3.63 3.67 4 4.34 1.27.52a2.36 2.36 0 0 1 3.63 2.17c-.38 2.58-3.25 3.77-5.73 3.1-3-.72-1.43-4.6.55-6.09 2.37-1.86 6.39-1.81 7.49 1.34.83 2.38-1.6 5-3.52 6.14s-4.4 2-6.5 1.08c-1.71-.77-4.29-2.68-4-4.23-.55 1.86 1.93 3.92 3.69 4.8 2.31 1.19 5.12.46 7.21-.88 2.42-1.55 4.29-4.08 3.8-6.82-.45-2.35-2.48-3.43-4.62-3.43a6.17 6.17 0 0 0-4.3 1.68" fill="none"/></clipPath><radialGradient id="Q" cx="-188.67" cy="596.9" r=".51" gradientTransform="matrix(113.66 0 0 -106.58 21607.31 63730.64)" xlink:href="#g"/><clipPath id="R" transform="translate(-91.6 -6.2)"><path d="M283.46 115.31c-.17 1.34-.38 3-1.16 3.51-1-.46-1.21 1.19-.17 1.34 1.49.15 1.87-3 2-4.8a7.4 7.4 0 0 1 1.21-4.39 6.82 6.82 0 0 0-1.87 4.34m4.62 2c.61 1.5 2 .72 2.15-.46.22-2.32-1.82-6 .44-8-1.93 1.08-3.36 6.45-2.59 8.42m-7.71-3.15c-.5 1.6.88 2.22 1.38.31.77-3.3 1.54-3.92 6-6.45-4.68 1.6-6.61 3.77-7.38 6.14m4.62 10.43c1 4 3.36 3.25 2.64-.36a53.49 53.49 0 0 1-1.21-5.73c-.38-5.16 2-11.36 7.66-12.91-7.54 1.55-10.74 12.5-9.09 19m12.34-20.19c-2.54.57-4.13 2.89-4.68 5.27-.66 2.63-.28 5.73 2.09 7.38 3.47 2.53 7.77-.77 7.87-4.34 0-2.17-1.93-6.4-4.68-5.58-2.92.83-4.46 4.8-2.7 7.18a3.46 3.46 0 0 0 6.17-1.45c.05-5-6.06-.67-1.32.47-.11 1.34-2.53 2.48-4.19.67-1.65-2.17-.33-4.85 2-5.94 2.7-1.29 4.35 2.48 4 4.85-.44 2.89-3.41 5.37-6.5 3.77-2.31-1.24-2.42-4.65-1.82-6.82s1.82-4.18 4-4.85c1.82-.52 5.12-.72 5.95.62-.58-1.12-2.2-1.5-3.8-1.5a10.16 10.16 0 0 0-2.31.26m-13.88-.72c-1 2.58 1 3.56 3.19 3.46 2.75-.21 5.78-2.32 8.81-3.15-3.14.26-5.34 2.58-8.48 2.53-2.15-.05-4.29-.67-2.7-3 .83-1.14 3.08-1.34 3.3-.83-.71.77-.77 1.45-.27 1.91 1.27 1.29 3.91-.36 2.59-2a3.41 3.41 0 0 0-2.77-1.28 3.86 3.86 0 0 0-3.68 2.31m6.61-10.79a4 4 0 0 0-1.93 2.84c-.39 2.63 1.93 4.6 4.41 5.83s6 1.24 8.53 1.6a34.84 34.84 0 0 1-8.26-2 7.66 7.66 0 0 1-4-3.61c-.44-1.19-.11-2.58 1.49-4a4.35 4.35 0 0 1 4.79-.05 10.87 10.87 0 0 1 3.19 3c1.93 2.89-1.43 4.6-3.85 3.2-2.2-1.29-1.16-4 .05-2.94.44 1.86 1.71 1.7 2.37 1 1.38-1.39-1-2.48-2.26-2.63-2.59-.41-3.41 3-.88 4.85 2.81 1.91 7.6.26 5.51-3.61a9 9 0 0 0-3.69-3.51 6.53 6.53 0 0 0-3-.84 4.32 4.32 0 0 0-2.48.79" fill="none"/></clipPath><radialGradient id="S" cx="-188.81" cy="596.36" r=".51" gradientTransform="matrix(84.43 0 0 -79.16 16117.46 47306.54)" xlink:href="#g"/><clipPath id="T" transform="translate(-91.6 -6.2)"><path d="M290.95 67.8c.27 1.76 1.1 4.85 2.53 4.54 1-.26.61-1.86-.28-1.29-.88-.41-1.27-2-1.65-3.36a6.76 6.76 0 0 0-2.31-4.13 7.61 7.61 0 0 1 1.71 4.23M285.06 70c.22 1.14 1.76 1.76 2.2.21.55-2-1.6-7.23-3.63-8.11 2.48 1.76.88 5.58 1.43 7.9m8.15-3.31c.72 1.86 2 1.08 1.27-.41-1-2.32-3.14-4.23-8-5.37 4.74 2.07 5.56 2.63 6.77 5.78M289 71.11a51.69 51.69 0 0 1-.55 5.83c-.22 3.67 2.2 4.18 2.7.1.88-6.66-3.63-17.19-11.29-17.92 5.78.93 8.92 6.81 9.14 12m-18.5-10.95c.72-1.45 4-1.6 5.84-1.24 2.26.41 3.74 2.32 4.57 4.39s1.15 5.47-1 6.92c-2.86 2-6.11-.21-6.94-3-.66-2.32.55-6.3 3.41-5.27 2.42.88 4 3.36 2.7 5.68-1.49 2-4 1.14-4.29-.21 4.57-1.65-2-5.32-1.32-.31a3.46 3.46 0 0 0 6.28.77c1.49-2.53-.55-6.3-3.58-6.87-2.87-.52-4.24 3.92-4 6 .55 3.56 5.18 6.35 8.37 3.51 2.09-1.91 2.15-5 1.21-7.59-.88-2.27-2.7-4.39-5.29-4.75a10.81 10.81 0 0 0-1.12-.06c-1.92 0-4.29.47-4.88 2m13.11-4.44c-1.1 1.75 1.71 3.15 2.87 1.7.38-.52.33-1.19-.55-1.86.17-.57 2.48-.62 3.42.46 1.87 2.12-.22 3-2.31 3.25-3.14.36-5.62-1.65-8.7-1.65 3 .52 6.33 2.32 9.09 2.22 2.15-.1 4-1.29 2.81-3.77a4 4 0 0 0-3.55-1.92 3.5 3.5 0 0 0-3.05 1.56m-6.72-9a9.11 9.11 0 0 0-3.25 3.92c-1.6 4 3.36 5.16 5.89 2.94 2.31-2.07 1.1-5.37-1.49-4.7-1.15.31-3.41 1.6-1.87 2.84.72.62 2 .62 2.2-1.24 1.1-1.24 2.48 1.39.39 2.89-2.2 1.65-5.73.31-4.19-2.79a11.25 11.25 0 0 1 2.81-3.36 4.43 4.43 0 0 1 4.79-.47c1.76 1.29 2.26 2.63 1.93 3.82a7.13 7.13 0 0 1-3.52 4 33.18 33.18 0 0 1-8 2.84c2.48-.62 6.11-1 8.32-2.48s4.35-3.72 3.63-6.3a3.92 3.92 0 0 0-2.26-2.58 4.57 4.57 0 0 0-2.11-.53 5.94 5.94 0 0 0-3.29 1.15" fill="none"/></clipPath><radialGradient id="U" cx="-188.7" cy="596.13" r=".51" gradientTransform="matrix(91.73 0 0 -86.01 17476.06 51339.87)" xlink:href="#g"/><clipPath id="V" transform="translate(-91.6 -6.2)"><path d="M138 176.29c-2.7 1-5.18 3-5.34 5.83-.22 4.13 5.12 5.58 8.31 3.61 1.93-1.19 4.57-5.11 2.26-6.76s-6.77-.72-7.82 2c-1.1 2.84 2 5.27 4.73 3.92 4.46-2.79-2.86-5.06-1.1-.72a2.32 2.32 0 0 1-3-2.89c1-2.48 4.08-3 6.33-1.81 2.7 1.34.27 4.75-2 5.83-2.81 1.24-6.66.41-7-2.89-.22-2.53 2.7-4.54 4.9-5.27s4.73-1 6.55.31c1.49 1.08 3.52 3.56 2.86 5 1-1.7-.94-4.23-2.42-5.47a6 6 0 0 0-3.88-1.25 9.91 9.91 0 0 0-3.39.63m-9.36.88c-.94 1.29.55 2 1.6 1.39 2.2-1.14 4.3-4.8 7.27-4.18a3.45 3.45 0 0 0-1.34-.22c-2.5 0-6.48 1.56-7.53 3m-8.09 1.7c-3 3-.94 4.44 1.82 1.86 1.54-1.39 2.76-3 4.41-4.23 4.29-3.25 11.07-4.85 15.64-1.39a10.59 10.59 0 0 0-7.11-2.34 22.29 22.29 0 0 0-14.75 6.11m7.27-6.45c-1.32.67-2.86 1.39-3.8 1.08-.11-1-1.71-.26-1.21.67.72 1.19 3.75-.26 5.29-1.19a9 9 0 0 1 4.57-1.6 5.49 5.49 0 0 0-.94-.08 9 9 0 0 0-3.9 1.11m-.77-3c-1.65.52-1.43 1.91.55 1.19 3.3-1.24 4.29-1 9 1a12.94 12.94 0 0 0-7.08-2.55 8.5 8.5 0 0 0-2.5.38m11-3.61c-2.81.72-2.48 2.84-1.16 4.44 1.71 2 5.29 3.15 7.71 5-2-2.22-5.23-2.58-7-5.06-1.21-1.7-1.87-3.72 1.1-3.77 1.43-.05 2.92 1.6 2.59 2.07-1.1-.1-1.71.26-1.87.88-.38 1.7 2.59 2.79 3.25.88.83-2.29-1.42-4.5-3.74-4.5a3.51 3.51 0 0 0-.88.11m9.69-.93c-2.53 1.24-2.92 4.13-2.64 6.76.28 2.48 2.31 5.32 3.41 7.49a32.16 32.16 0 0 1-2.92-7.49 6.93 6.93 0 0 1 .94-5.16c.77-1 2.15-1.55 4.35-1.14a3.89 3.89 0 0 1 2.75 3.67 9.73 9.73 0 0 1-.88 4.23c-1.49 3.1-4.85 1.5-5-1.19-.16-2.43 2.81-3.2 2.53-1.6-1.32 1.34-.5 2.27.44 2.38 2 .26 1.6-2.17 1.1-3.2-1.16-2.27-4.63-1-4.79 2.07-.11 3.2 4.08 6 6.28 2.22a8.43 8.43 0 0 0 1-4.91 4.63 4.63 0 0 0-3.08-4.23 5 5 0 0 0-1.67-.3 4.84 4.84 0 0 0-1.9.4" fill="none"/></clipPath><radialGradient id="W" cx="-186.98" cy="596.49" r=".51" gradientTransform="matrix(50.28 0 0 -47.14 9481 28270.9)" xlink:href="#g"/><clipPath id="X" transform="translate(-91.6 -6.2)"><path d="M290.79 175c-1.49 1.24-3.42 3.77-2.43 5.42-.66-1.39 1.32-3.82 2.86-4.91 1.82-1.34 4.3-1.08 6.55-.36s5.12 2.79 4.9 5.27c-.33 3.3-4.24 4.18-7 2.89-2.26-1-4.68-4.49-2-5.84 2.26-1.14 5.34-.62 6.33 1.81a2.3 2.3 0 0 1-3 2.89c1.76-4.28-5.56-2.07-1.1.77 2.7 1.34 5.84-1.14 4.74-3.92s-5.4-3.77-7.82-2 .33 5.58 2.26 6.76c3.19 2 8.54.52 8.26-3.61-.11-2.74-2.59-4.8-5.29-5.83a9.81 9.81 0 0 0-3.36-.63 5.91 5.91 0 0 0-3.91 1.3m7.76-2.58c3-.62 5.07 3 7.21 4.18 1.1.57 2.59-.1 1.65-1.4s-5.1-3-7.6-3a3.44 3.44 0 0 0-1.27.2m-4.9.72c4.57-3.46 11.35-1.81 15.64 1.45 1.65 1.24 2.86 2.79 4.4 4.18 2.75 2.58 4.79 1.19 1.82-1.86a22.56 22.56 0 0 0-14.81-6.1 10.44 10.44 0 0 0-7.05 2.33m9.75-3.72a9.45 9.45 0 0 1 4.57 1.6c1.54.93 4.57 2.38 5.29 1.19.5-.88-1.1-1.65-1.21-.62-.94.31-2.48-.47-3.8-1.08a9.49 9.49 0 0 0-4-1.14 5.64 5.64 0 0 0-.82.06m-4 .26c4.74-2 5.73-2.22 9-1 2 .72 2.2-.67.55-1.19a8.65 8.65 0 0 0-2.55-.39 12.65 12.65 0 0 0-7 2.56m-6-1.4c.66 1.91 3.63.83 3.25-.93-.16-.62-.77-1-1.87-.83-.33-.52 1.16-2.12 2.59-2.12 3 .1 2.31 2.12 1.1 3.77-1.76 2.48-5 2.89-7 5.11 2.48-1.86 6.06-3 7.77-5 1.32-1.6 1.6-3.72-1.16-4.44a3.47 3.47 0 0 0-.87-.11c-2.33 0-4.59 2.25-3.76 4.55m-8.7-5.42c-1.82.62-2.75 2-3 4.18a8.42 8.42 0 0 0 1 4.9c2.2 3.82 6.39 1 6.28-2.22-.16-3-3.63-4.34-4.79-2.06-.55 1-.94 3.46 1 3.25 1-.15 1.82-1 .44-2.43-.22-1.55 2.75-.83 2.59 1.6-.11 2.69-3.52 4.29-5 1.19a10.39 10.39 0 0 1-.82-4.23 3.88 3.88 0 0 1 2.75-3.67c2.2-.41 3.58.15 4.35 1.14a6.93 6.93 0 0 1 .94 5.16 28.56 28.56 0 0 1-3 7.49c1.16-2.17 3.2-5 3.47-7.49s-.11-5.53-2.64-6.71a4.28 4.28 0 0 0-1.86-.42 5.53 5.53 0 0 0-1.78.32" fill="none"/></clipPath><radialGradient id="Y" cx="-188.75" cy="597.1" r=".51" gradientTransform="matrix(95.76 0 0 -89.79 18247.78 53764.68)" xlink:href="#g"/><clipPath id="Z" transform="translate(-91.6 -6.2)"><path d="M128.38 307.49c-1.76.15-1.59 2 .06 2.22 1.13.16 1.64-.47 1.58-1.1a1.34 1.34 0 0 0-1.46-1.13h-.17m-4.39-1.17c-1.65.31-1.16 1.91.38 2.06 1.28.13 1.62-.45 1.42-1a1.66 1.66 0 0 0-1.53-1.05h-.28m1.6-.52c1 1.39 3.64.1 2.15-1.6a1.36 1.36 0 0 0-1-.48 1.29 1.29 0 0 0-1.11 2.08" fill="none"/></clipPath><radialGradient id="aa" cx="-184.19" cy="600.71" r=".51" gradientTransform="matrix(27.96 0 0 -26.22 5192.13 16045.37)" xlink:href="#g"/><clipPath id="ab" transform="translate(-91.6 -6.2)"><path d="M105 219.66c1.1 1.81 3.2 0 1.82-1.39a1.44 1.44 0 0 0-1-.52c-.81 0-1.37 1-.78 1.92m1.54-4.49a1.38 1.38 0 1 0 2.7.57 1.28 1.28 0 0 0-1.37-1.53 1.35 1.35 0 0 0-1.33 1m-2.92.67c1.38 2.12 2.81-.46 1.54-1.55a1.5 1.5 0 0 0-.91-.37c-.8 0-1.21 1-.64 1.92" fill="none"/></clipPath><radialGradient id="ac" cx="-181.05" cy="597.55" r=".51" gradientTransform="matrix(19.14 0 0 -17.95 3486 10934.37)" xlink:href="#g"/><clipPath id="ad" transform="translate(-91.6 -6.2)"><path d="M170.9 323c2.09.78 2.53-1.86.5-2.17h-.33c-1.51 0-1.61 1.66-.17 2.19m-3.63-2.17c2.48.83 1.87-2 .17-2.07h-.08c-1.63 0-1.5 1.61-.09 2.07m1.82-2.22c.66 1.55 3.52.83 2.48-1.14a1.3 1.3 0 0 0-1.18-.72 1.33 1.33 0 0 0-1.3 1.85" fill="none"/></clipPath><radialGradient id="ae" cx="-184.71" cy="601.87" r=".51" gradientTransform="matrix(23.37 0 0 -21.91 4391.29 13494.87)" xlink:href="#g"/><clipPath id="af" transform="translate(-91.6 -6.2)"><path d="M217.93 356.91c-1.82.1-1.71 2 0 2.22 1.12.19 1.63-.45 1.56-1.09a1.33 1.33 0 0 0-1.49-1.14h-.12m-4.35-1.24c-1.71.26-1.21 1.86.33 2.07 1.29.16 1.64-.44 1.44-1a1.62 1.62 0 0 0-1.5-1.06h-.28m1.6-.46c1 1.39 3.63.1 2.15-1.65a1.29 1.29 0 0 0-1-.48 1.34 1.34 0 0 0-1.14 2.13" fill="none"/></clipPath><radialGradient id="ag" cx="-186.83" cy="602.48" r=".51" gradientTransform="matrix(28.16 0 0 -26.4 5378.26 16250.66)" xlink:href="#g"/><clipPath id="ah" transform="translate(-91.6 -6.2)"><path d="M264.13 322.67c-.94 1.4.66 2.12 1.82 1.19 1.31-1.09.48-1.84-.48-1.84a1.57 1.57 0 0 0-1.33.66m3.85-2.22c-1.1 1.34.5 2.48 1.76 1.5s.43-2.08-.6-2.08a1.52 1.52 0 0 0-1.17.58m-3.19.83a1.31 1.31 0 1 0 .11-2.58h-.11a1.29 1.29 0 1 0 0 2.59" fill="none"/></clipPath><radialGradient id="ai" cx="-188.75" cy="602.42" r=".51" gradientTransform="matrix(20.96 0 0 -19.65 4129.34 12149.28)" xlink:href="#g"/><clipPath id="aj" transform="translate(-91.6 -6.2)"><path d="M313.14 310.18c-.88 1.34.71 2.07 1.87 1.14s.48-1.82-.49-1.82a1.63 1.63 0 0 0-1.38.68M317 308c-1.1 1.34.49 2.48 1.82 1.45s.44-2.06-.59-2.06a1.6 1.6 0 0 0-1.23.61m-3.2.77c1.82.26 2.53-2.48.16-2.58h-.1a1.29 1.29 0 0 0-.06 2.58" fill="none"/></clipPath><radialGradient id="ak" cx="-190.7" cy="601.93" r=".51" gradientTransform="matrix(22.04 0 0 -20.66 4420.01 12742.12)" xlink:href="#g"/><clipPath id="al" transform="translate(-91.6 -6.2)"><path d="M318.48 260.3c.28 1.55 2 1.14 2.26-.31.16-1-.25-1.42-.76-1.42a1.61 1.61 0 0 0-1.5 1.73m-2.15-3.56c-1.32 1 .11 3 1.71 2a1.31 1.31 0 0 0-.63-2.42 1.82 1.82 0 0 0-1.08.41m3.58-.52c.05 1.7 2.09 1.6 2.37.05.19-1-.4-1.52-1-1.52a1.34 1.34 0 0 0-1.32 1.46" fill="none"/></clipPath><radialGradient id="am" cx="-190.42" cy="598.89" r=".51" gradientTransform="matrix(28.16 0 0 -26.41 5583.96 16059.64)" xlink:href="#g"/><clipPath id="an" transform="translate(-91.6 -6.2)"><path d="M331.42 218.78c-.17 1.6 1.6 1.6 2.2.31.52-1.13 0-1.61-.63-1.61a1.58 1.58 0 0 0-1.57 1.3m-1.1-3.92c-1.6.62-.72 2.89 1 2.38a1.29 1.29 0 0 0-.25-2.55 2.07 2.07 0 0 0-.79.17m3.58.36c-.39 1.65 1.6 2.07 2.31.62a1.09 1.09 0 0 0-1-1.74 1.37 1.37 0 0 0-1.35 1.12" fill="none"/></clipPath><radialGradient id="ao" cx="-190.95" cy="597.84" r=".51" gradientTransform="matrix(27.07 0 0 -25.38 5402.38 15388.59)" xlink:href="#g"/><clipPath id="ap" transform="translate(-91.6 -6.2)"><path d="M124.53 253.48a1.22 1.22 0 1 0 2.09-1.14 1.43 1.43 0 0 0-1.14-.68 1.21 1.21 0 0 0-1 1.82m2.26-4.23a1.38 1.38 0 1 0 2.59.93 1.3 1.3 0 0 0-1.32-1.74 1.39 1.39 0 0 0-1.26.81m-3 .26c1 2.27 2.86-.05 1.76-1.29a1.33 1.33 0 0 0-1-.52c-.72 0-1.22.87-.79 1.81" fill="none"/></clipPath><radialGradient id="aq" cx="-182.29" cy="599.36" r=".51" gradientTransform="matrix(19.79 0 0 -18.56 3648.96 11370.1)" xlink:href="#g"/><clipPath id="ar" transform="translate(-91.6 -6.2)"><path d="M104.43 253.79c2.15.31 4.18 2 6.17 5.47-.55-1.91-2-7.43-5.89-7.75h-.49c-2.68 0-1 2.1.21 2.29m9.25-2.48c-2.81 2.37-4.35 8.11 1.65 9.14-2.92-1.39-3.58-3.41-2.26-5.27a5.16 5.16 0 0 1 3.36-2.27c1.43-.31 4.41.57 3.47 2.84-1.65 2.22-2.75 1.86-3.08 1.13 1.76.36 1.93-1.55 1-2.37-2.09-2-4.41 1.29-3.36 3 1.87 3.15 7.1.26 7.82-2.12 1-3.19-2.27-5.18-5.31-5.18a5.27 5.27 0 0 0-3.33 1m.88-1.55c.55-.31 4.35-.16 6.44 0 2.37.26 1.87-1.55.11-1.7h-.48a17.32 17.32 0 0 0-6.07 1.73m-14.48-2.94c-1.49 2.07 2 2.68 3.41 2.43 4-.41 4.52 2.74 5.78 4.39 0-1.65-2-5.68-3.47-7.07a3.74 3.74 0 0 0-2.68-1 3.83 3.83 0 0 0-3 1.3m11.29 3.92c2.81-2.68 3.3-2.37 8.87-3.15 2.2-.26 2.81-2.27.33-2.58h-.41c-3 0-7.74 3-8.79 5.75M121 242c-2.15.1-6.55 2.79-6.94 4.8 1.93-2.27 5.62-1.81 7.6-2.94 1.08-.66.73-1.86-.58-1.86H121m-16.41.72c-.33.93.28 1.86 1.82 2.74a4.63 4.63 0 0 1 1.65 2.07 20 20 0 0 1 1.54 3.1h.16a8.47 8.47 0 0 0-.44-5 5.61 5.61 0 0 0-2.37-3.15 2.83 2.83 0 0 0-1.37-.48 1 1 0 0 0-1 .74m4.79-1.39c.22 2.43 2.53 3.72 2.15 6.51 1.6-2.07 1.16-5.16-.28-7.28a1.36 1.36 0 0 0-1-.72c-.52 0-.91.57-.84 1.49m7 1.5c1.38-.57 5.67-1.86 6.39-2.89a.71.71 0 0 0-.16-1.14 1.57 1.57 0 0 0-.82-.21c-2 0-5.22 2.84-5.41 4.23m-2.61-3.84c-.94 1.55-.77 4.8-.39 6.09a18.05 18.05 0 0 0 2.92-5.21 1.23 1.23 0 0 0-1.27-1.58 1.48 1.48 0 0 0-1.26.7m9.25-6.2c-.28 2.48-1.82 3.82-3.52 5.83 2.31-.83 6.22-3.2 6.39-5.68.11-1.66-.48-2.4-1.15-2.4s-1.51.82-1.71 2.25" fill="none"/></clipPath><radialGradient id="as" cx="-187.58" cy="597.87" r=".51" gradientTransform="matrix(102.8 0 0 -96.39 19330.57 57848.64)" xlink:href="#g"/><clipPath id="at" transform="translate(-91.6 -6.2)"><path d="M123.1 299.85c-2.81 1.7.11 2.53 1.21 2 2-1 4.68-.77 8.48.88-1.31-1-4.5-3.44-7.44-3.44a4.31 4.31 0 0 0-2.25.6m-6.72-1.08c.16 2.48 3.36 1 4.29-.05 2.86-2.58 5.4-.41 7.44.26-1.1-1.4-5.29-3.41-7.32-3.72a3.93 3.93 0 0 0-.54 0c-2.27 0-4 2.06-3.87 3.55m2.64-7.33c-1.43.05-2 .62-1.71 1.5s1.38 1.34 3.19 1.14a5.43 5.43 0 0 1 2.64.72 25.12 25.12 0 0 1 3.25 1.6l.16-.1a9.69 9.69 0 0 0-3.58-3.72 6.58 6.58 0 0 0-3.54-1.15h-.42m11.12 3.15c-.77 3.46 1.76 8.93 7.21 6.3-3.25.62-5.06-.67-5.23-2.89a4.65 4.65 0 0 1 1.21-3.72c.94-1.08 3.85-2 4.63.31.11 2.69-1 3-1.76 2.69 1.65-.78.55-2.37-.66-2.53-3-.41-2.7 3.51-.72 4.34 3.53 1.45 5.78-3.82 4.79-6.14a3.74 3.74 0 0 0-3.69-2.35c-2.5 0-5.31 1.75-5.79 4m3.8-6.87c-2 1.19-4.13 5-4.13 5.11.22-.57 3.36-2.58 5.18-3.67 1.51-.86 1-1.73 0-1.73a2.14 2.14 0 0 0-1 .28m-13.71 1.39c1.71 1.81 4.41 1.55 5.89 4-.11-2.58-2.42-4.8-4.9-5.63a2.24 2.24 0 0 0-.76-.16c-.93 0-1.12.89-.23 1.81m11.29-3.46c-2.53 1.39-4.57 6.92-3.58 9.81.44-3.77 1-3.77 5-7.54 1.22-1.18 1-2.62-.25-2.62a2.58 2.58 0 0 0-1.18.34m-9.25-.93c.22 1.81 2.48 4.29 3.64 5.06a16.34 16.34 0 0 0-1.1-5.78 1.25 1.25 0 0 0-1.16-.79 1.37 1.37 0 0 0-1.37 1.51m7.6-1.65c-1.6 1.29-3.42 5.94-2.42 7.75.11-2.89 3.31-4.6 4.13-6.66.35-.83-.12-1.44-.79-1.44a1.51 1.51 0 0 0-.92.35m-.72-3.46c-2.15.15-3.25 5.32-2.37 6.66.71-1.19 3.3-4.65 3.19-5.88 0-.52-.24-.78-.69-.78h-.13m-3.52-5.06c1.32 2.12 1 4 1 6.66 1.27-2 2.81-6.09 1.38-8.16-.73-1-1.43-1.42-2-1.42-1 0-1.4 1.35-.41 2.92" fill="none"/></clipPath><radialGradient id="au" cx="-187.8" cy="598.1" r=".51" gradientTransform="matrix(117.22 0 0 -109.91 22071.72 65985.62)" xlink:href="#g"/><clipPath id="av" transform="translate(-91.6 -6.2)"><path d="M164.12 341.16c-1.38 2.89 1.54 2 2.15 1 1-1.81 3.41-3 7.6-3.67-.65 0-1.66-.13-2.8-.13-2.59 0-5.84.45-6.95 2.82m-4.63-2.63a3.63 3.63 0 0 0-1.65 5.22c1.6 2 3.36-.93 3.58-2.27.88-3.66 4.24-3.1 6.33-3.66a7.31 7.31 0 0 0-2.14-.24 19.48 19.48 0 0 0-6.12 1m-3.74-2.27c-1.16.83-1.32 1.6-.55 2.17s2 .36 3.36-.72a5.51 5.51 0 0 1 2.59-.78 29.82 29.82 0 0 1 3.63-.36l.11-.16a10.08 10.08 0 0 0-5.18-1.24h-.31a5.78 5.78 0 0 0-3.66 1.09m-.55-4.44c-1.6.31-1.38 1.5.16 1.91a7.8 7.8 0 0 0 3.18 0 6.74 6.74 0 0 1 4.09.25 7 7 0 0 0-5.54-2.32 8.78 8.78 0 0 0-1.89.2m-.72-2.79c1.21 1.34 4.57 2.22 6 2.27a18.72 18.72 0 0 0-4.29-4.23 1.56 1.56 0 0 0-.81-.25 1.31 1.31 0 0 0-.9 2.21m12.39 4.08c1.38 3.3 6.72 6.56 9.69 1.55-2.31 2.17-4.57 2.07-6.06.26a4.82 4.82 0 0 1-1.21-3.72c.22-1.39 2-3.67 4.08-2.12 1.71 2.17.94 3 .11 3.1.94-1.44-.88-2.22-2-1.7-2.7 1.19-.17 4.34 2 4 3.75-.62 2.53-6.2.38-7.64a4.06 4.06 0 0 0-2.25-.71c-3.25 0-5.94 4.19-4.68 7m-.88-7.64c-1 2-.5 6.25-.44 6.35-.11-.57 1.27-3.87 2.15-5.68.55-1.13.18-1.67-.38-1.67a1.61 1.61 0 0 0-1.32 1m-3.25-.47c-1.27 2.43.22 8.11 2.75 10-1.76-3.36-1.27-3.67-.22-8.83.24-1.3-.39-2.25-1.16-2.25-.46 0-1 .33-1.37 1.11m-2.92-1.34c-.55 1.91.66 6.71 2.59 7.69-1.65-2.43 0-5.53-.5-7.69a1.12 1.12 0 0 0-1-.91 1.15 1.15 0 0 0-1.05.91m-2.64-2.48c-1.71 1.19.5 6.09 2 6.76-.11-1.39 0-5.58-.83-6.61a.72.72 0 0 0-1.16-.15m-5.89-2.43c2.37 1.08 3.19 2.89 4.74 5.06-.11-2.32-1.21-6.51-3.69-7.49a4.58 4.58 0 0 0-1.66-.38c-1.73 0-1.55 1.82.61 2.81" fill="none"/></clipPath><radialGradient id="aw" cx="-187.69" cy="598.65" r=".51" gradientTransform="matrix(97.09 0 0 -91.04 18289.71 54795.47)" xlink:href="#g"/><clipPath id="ax" transform="translate(-91.6 -6.2)"><path d="M222.77 350.3a5.76 5.76 0 0 0-2.86 2.79c-.55 1.24-.28 2 .71 2.12s1.87-.57 2.53-2.17a4.77 4.77 0 0 1 1.82-1.91c.61-.46 1.54-1.08 3-2V349a10.33 10.33 0 0 0-5.18 1.34m1.6 3a3.62 3.62 0 0 0 1.38 5.27c2.42 1 2.42-2.37 1.87-3.61-1.16-3.62 2-4.7 3.53-6.15-1.76.31-5.56 2.89-6.78 4.49m-7.27-3.87c-1.21 1.08-.38 2 1.16 1.6 2.53-.67 3.47-3 6.44-3.2a5.89 5.89 0 0 0-2.27-.43 8.36 8.36 0 0 0-5.33 2m12.72 4c.33 3.15 2.37 1 2.31-.15-.05-2.07 1.32-4.23 4.62-6.71-1.93.83-7.38 3.15-6.94 6.87m-14.81-6c1.76.57 5.18-.21 6.44-.83a20.62 20.62 0 0 0-6-1.65h-.12a1.26 1.26 0 0 0-.32 2.48m1.82-7.18c.5 2 4.13 5.53 6.28 5.53-2.7-1.39-2.92-4.85-4.51-6.45a1.3 1.3 0 0 0-.92-.45c-.6 0-1.06.55-.84 1.38m-3.63-.88c-.82 1.81 3.63 5.06 5.29 5-.83-1.19-3-4.85-4.18-5.37a1.37 1.37 0 0 0-.47-.1.63.63 0 0 0-.63.51m6.77.56c.16 2.74 4.52 6.92 7.71 7.43-3.36-2.12-3.08-2.63-4.9-7.59a2.12 2.12 0 0 0-1.74-1.55c-.62 0-1.13.54-1.07 1.7m3.08-1.08c.17 2.27 2.87 5.68 3 5.73-.44-.47-1-4-1.21-5.94-.1-1-.48-1.36-.88-1.36s-1 .66-.94 1.56m-16.68-1.55c-3.63.41-2.64 2.79.39 2.63 2.64-.16 4.3 1 6.77 2.12-1.26-1.87-4.22-4.77-6.78-4.77h-.38m21.48 7.8c2.92 2.17 9.25 2.53 9.2-3.2-.88 2.94-2.86 3.92-5.06 3a5 5 0 0 1-3-2.63c-.61-1.29-.22-4.18 2.31-3.77 2.64 1.09 2.42 2.22 1.76 2.63 0-1.7-2-1.5-2.64-.52-1.71 2.27 2.09 3.82 3.74 2.53 3-2.32-1-6.56-3.63-6.82h-.42c-4.58 0-5.32 6.49-2.27 8.74" fill="none"/></clipPath><radialGradient id="ay" cx="-188.14" cy="598.79" r=".51" gradientTransform="matrix(107.96 0 0 -101.22 20415.19 60931.52)" xlink:href="#g"/><clipPath id="az" transform="translate(-91.6 -6.2)"><path d="M266.39 336.46c-1.43.83-.38 2.63 1.16 2.27 1.82-.46 4.13-2.94 4.79-4.13a21.39 21.39 0 0 0-5.95 1.86m-12-1.24c-2.75 2.27-.44 3.72 1.93 1.91 2-1.55 4.13-1.5 6.83-1.91a15.75 15.75 0 0 0-5.24-1 5.34 5.34 0 0 0-3.51 1m16.13 4.08c-.33 1.5.94 1.81 1.93.67 1.71-1.86 1-4.34 3.3-6.09-2.7.47-4.68 3-5.23 5.42m5.18-2.37a5.12 5.12 0 0 0-.61 3.82c.28 1.29 1 1.75 1.87 1.34s1.16-1.5.71-3.15a4.42 4.42 0 0 1 .33-2.53 24.84 24.84 0 0 1 1.16-3.25l-.11-.16a9.24 9.24 0 0 0-3.36 3.92m-13.93-4.7c-.55.1-.83.41-.66.93.44 2 6.11 2.17 7.38 1.14-1.29-.43-4.89-2.09-6.43-2.09h-.29m17.13 6.3c-.06 2.43 2.7 3.87 4.29 3.56 2.64-.52.55-3.25-.66-4-3.14-2.27-1.27-4.91-.88-7-1.27 1.24-2.75 5.42-2.75 7.38m-14.26-6.61c1.6 1.29 6.77 2.27 8.54 1.08-3.08.36-5.34-2.37-7.65-2.84h-.31c-1.1 0-1.54 1-.58 1.78m2.46-1.85c1.82 2.17 8 3.2 10.85 1.86-4 .1-4.13-.41-8.65-3.51a2.92 2.92 0 0 0-1.58-.53c-1.1 0-1.71.91-.62 2.18m16.25 5.68c2.2 2.37 2.64-.47 1.87-1.45-1.32-1.65-1.54-4.18-.39-8-1 1.76-4.07 6.66-1.48 9.45m-14.43-8.21c1.6 1.7 5.89 3 6 3-.6-.15-3.25-2.68-4.62-4.23a1.8 1.8 0 0 0-1.21-.73c-.72 0-.93 1.06-.17 1.92m4.62-6.09c-4.29 2.32-.82 8.36 3.2 8.57 3.74.15 9.14-3 5.56-7.64 1.1 2.89.05 4.8-2.26 5.27a5.56 5.56 0 0 1-4.13-.52c-1.27-.77-2.7-3.3-.38-4.39 2.86-.52 3.36.52 3.08 1.24-1-1.39-2.53-.15-2.53 1 0 2.79 4.13 2 4.68-.05.74-2.6-2.39-4-5-4a4.86 4.86 0 0 0-2.24.46" fill="none"/></clipPath><radialGradient id="aA" cx="-188.51" cy="598.73" r=".51" gradientTransform="matrix(107.82 0 0 -101.1 20471.54 60843.61)" xlink:href="#g"/><clipPath id="aB" transform="translate(-91.6 -6.2)"><path d="M293.7 305.74c-1.49 3.15 1.21 3.56 2.64 1 1.21-2.17 3.08-2.94 5.45-4.29-2.48 0-7 1-8.09 3.25m5.51-5.47c-.44.31-.55.67-.22 1.08 1.27 1.6 6.55-.36 7.27-1.76-1.43.1-5.95-.1-7 .67m6.06 2.12c-.94 1.29.77 2.53 2 1.6 1.49-1.08 2.53-4.23 2.59-5.58a19 19 0 0 0-4.62 4m-.35-5.31a9.91 9.91 0 0 0-3.12-.11c-1.32.26-1.38 1.55-.05 1.91 2 .62 7.16-.47 8.26-2.22-1.61.86-3.41.64-5.09.42m5.36 6.34c.39 1.5 1.6 1.29 2-.1.71-2.37-.94-4.34.44-6.82-2.26 1.45-3 4.49-2.48 6.92m3.69-4.13a5.5 5.5 0 0 0 1.1 3.72c.83 1.08 1.65 1.24 2.31.52s.44-1.81-.72-3.15a4.33 4.33 0 0 1-.77-2.43 27.15 27.15 0 0 1-.33-3.41l-.17-.1a9 9 0 0 0-1.43 4.85m-10.79-3.1c2.59 1.29 8.65-.05 10.74-2.37-3.63 1.6-4 1.14-9.47.05a3.62 3.62 0 0 0-.67-.07c-1.76 0-2.56 1.42-.59 2.39m14.37 3.36a4.15 4.15 0 0 0 5.56 1.6c2.15-1.45-.94-3.15-2.37-3.36-3.86-.88-3.25-4-3.8-6-.61 1.6-.17 6 .61 7.8m-13.77-6.35c2.15 1 6.66.57 6.77.46-.66.15-4.13-1.19-6.06-2.06a2.6 2.6 0 0 0-1.06-.28c-1.09 0-.93 1.3.34 1.88m16.69 2.06c3 1.34 2.2-1.45 1.1-2-1.93-1-3.19-3.25-3.74-7.18-.22 2-.94 7.59 2.64 9.19m-6.5-6.14a5.78 5.78 0 0 1-4 1c-1.43-.21-3.91-2-2.2-3.82 2.37-1.55 3.3-.83 3.36-.05-1.6-.93-2.42.83-1.93 1.86 1.27 2.58 4.62.26 4.29-1.75-.61-3.56-6.55-2.48-8.09-.52-3 3.77 2.81 8 6.61 6.66 3.52-1.29 7.05-6.2 1.76-9.09 2.31 2.22 2.15 4.34.22 5.68" fill="none"/></clipPath><radialGradient id="aC" cx="-188.89" cy="598.64" r=".51" gradientTransform="matrix(96.75 0 0 -90.72 18461.31 54600.16)" xlink:href="#g"/><clipPath id="aD" transform="translate(-91.6 -6.2)"><path d="M310.28 252.81c-1.54 3 1.1 3.56 2.59 1.08 1.27-2.17 3.2-2.84 5.56-4.18h-.21c-2.51 0-6.81.89-7.94 3.1m5.67-5.37a.7.7 0 0 0-.28 1.08c1.27 1.6 6.55-.15 7.32-1.55h-2.93c-1.68 0-3.48.09-4.12.51m6 2.27c-1 1.29.66 2.58 2 1.65 1.48-1 2.64-4.13 2.75-5.47a18.54 18.54 0 0 0-4.74 3.82m-.28-5.31a10.33 10.33 0 0 0-3.08-.22c-1.32.26-1.43 1.5-.11 1.91 2 .67 7.21-.26 8.32-2-1.63.87-3.44.6-5.13.32m5.24 6.44c.33 1.55 1.6 1.39 2-.05.83-2.32-.83-4.34.66-6.76-2.31 1.34-3.14 4.39-2.7 6.82m3.8-4a5.23 5.23 0 0 0 1 3.77c.82 1.08 1.65 1.29 2.26.57s.55-1.75-.61-3.15a4.57 4.57 0 0 1-.66-2.48 22.69 22.69 0 0 1-.22-3.41l-.17-.1a9.23 9.23 0 0 0-1.6 4.8M320 243.46c2.53 1.34 8.65.15 10.79-2.12-3.69 1.55-4 1.08-9.47-.15a3.36 3.36 0 0 0-.79-.1c-1.65 0-2.41 1.38-.54 2.37m14.32 3.72a4.09 4.09 0 0 0 5.49 1.82c2.2-1.4-.83-3.2-2.26-3.46-3.86-1-3.14-4.13-3.58-6.09-.71 1.55-.38 5.94.39 7.75m-13.66-6.71c2.15 1 6.66.78 6.77.67-.61.16-4.07-1.34-5.95-2.27a2.69 2.69 0 0 0-1.08-.28c-1.09 0-1 1.27.25 1.88m16.64 2.51c3 1.39 2.26-1.39 1.16-2-1.87-1.08-3.09-3.3-3.53-7.28-.28 2-1.16 7.59 2.37 9.29M331 236.7a5.72 5.72 0 0 1-4.08.93c-1.43-.26-3.8-2.07-2.09-3.92 2.42-1.45 3.3-.72 3.36.05-1.54-.93-2.42.77-1.93 1.86 1.1 2.58 4.57.36 4.29-1.7-.44-3.51-6.44-2.63-8-.72-3.08 3.72 2.53 8.06 6.33 6.82 3.58-1.14 7.27-6 2.09-9 2.2 2.32 2 4.44.05 5.73" fill="none"/></clipPath><radialGradient id="aE" cx="-189.06" cy="598.07" r=".51" gradientTransform="matrix(96.35 0 0 -90.34 18419.35 54272.74)" xlink:href="#g"/><clipPath id="aF" transform="translate(-91.6 -6.2)"><path d="M142.65 320.86c-2.75.26-5.67 2.89-5.45 5.84.77-2.43 1.93-3.41 4.85-3.93 4.29-.77 5.4 4 2.09 4.13l-.06-.05c.55-1 .94-2.79-.66-3.2a2.31 2.31 0 0 0-3 2.43 3.57 3.57 0 0 0 2 3 4.46 4.46 0 0 0 6.5-4.18c-.15-2.86-2.85-4.06-5.49-4.06h-.79m-4.84-.31c1.26-1.34 5.73-4 8.15-.78a1.61 1.61 0 0 0 2.86-.77c.05-.93-.77-1.75-2.59-2.07a9.51 9.51 0 0 0-1.26-.08 8.24 8.24 0 0 0-7.16 3.7m-4.57-4.53c2.2 2.68 2.48 4.85 2.81 7.85 0-2.37.61-7.08-1.6-8.83a2.29 2.29 0 0 0-1.25-.55c-.58 0-.71.59 0 1.53m11.81-1.9c-1.93.31-4.79 1.55-5.62 2.48 2.15-1 2.92-1.55 5.29-.93.83.21 2.26.88 2.59-.31.35-1-.78-1.27-1.67-1.27a4.86 4.86 0 0 0-.59 0m-.66-2.79a15.47 15.47 0 0 0-4.18 3.1 16.92 16.92 0 0 1 4.63-1.75 4.36 4.36 0 0 1 .74 0c.86.06 1.86.11 1.73-1.09-.05-.53-.44-.73-1-.73a5.86 5.86 0 0 0-1.94.47m-12 .67c2.64 2.17 3.8 3.82 4.3 7.49.5-2.22-.88-7.23-3.2-9a2.76 2.76 0 0 0-1.55-.66c-.89 0-1 1 .45 2.21m2.7-1.29c1.82 2 2.26 2.89 2.26 5.89.55-1.14.55-5.42-.88-6.87a1.89 1.89 0 0 0-1.24-.56c-.66 0-1 .58-.14 1.54m10.57-2.79a11.38 11.38 0 0 0-3.91 3.15 5.18 5.18 0 0 1 3.8-1.6c.72.05 1.43.36 1.65-.57.21-.71-.41-1.09-1-1.09a1.23 1.23 0 0 0-.52.11m-8.25 1.09c.55 1.19 1.93 3 .88 5.83 1.1-1.5 1.87-5.21.61-6.66a1.25 1.25 0 0 0-.93-.53c-.53 0-.91.53-.55 1.36m2.26-2a12.27 12.27 0 0 1 .5 3.87c.33-.57 1.32-2.89 1-4.13a1 1 0 0 0-.91-.84c-.4 0-.75.35-.63 1.1m3.08-1.76a8.45 8.45 0 0 1-1 3.87 9 9 0 0 0 2.2-3.25c.49-1.1.07-1.87-.41-1.87-.33 0-.69.37-.8 1.25m4.84-6.2c.22.62 1.49.31 2.09.72 2.26 1.44-6.28 8.16-7.1 9.19 1.87-1.71 9.75-6.56 8.37-9.76a3.32 3.32 0 0 0-2.59-1.41c-.66 0-1.09.35-.77 1.26" fill="none"/></clipPath><radialGradient id="aG" cx="-187.85" cy="598.38" r=".51" gradientTransform="matrix(111.31 0 0 -104.37 20978.84 62729.65)" xlink:href="#g"/><clipPath id="aH" transform="translate(-91.6 -6.2)"><path d="M183.78 348.59c-1.82.1-2 1.19-.17 1.5 3.58.52 5.4 1.91 7.82 3.87-1.73-1.67-4.67-5.37-7.49-5.37h-.17m-4.12-2.59c-2.53.16-2.53 1.91.33 1.81 3.52-.1 5.56.31 8.59 2.63-1.17-1.84-5.61-4.45-8.59-4.45h-.33m14.35 1.52c-1.82 2-2 5.78.33 7.75-1.21-2.22-1.1-3.72.66-6 2.48-3.3 6.83-.57 4.52 1.65h-.06c-.38-1.08-1.37-2.63-2.86-1.91-1.7.83-1.54 2.58-.39 3.77a3.92 3.92 0 0 0 3.64.83c3.91-1 4-5.21 1.65-7.23a4.21 4.21 0 0 0-2.87-1.12 6.65 6.65 0 0 0-4.62 2.26m-13-2.43a8 8 0 0 1 5.95 2.79c-.44-1.14-3.63-4.23-5.73-4.34h-.16c-1.48 0-2.08 1.35-.06 1.55m12.72-2.69a7.29 7.29 0 0 0-3.41 8.05c-.11-1.86 1.1-6.66 5.29-5.89a1.49 1.49 0 0 0 1.49-2.43 1.67 1.67 0 0 0-1.27-.51 3.76 3.76 0 0 0-2.09.77m-12.22-.05c1.27.52 3.58.93 4.9 3.67-.27-1.81-2.48-5-4.46-5.22h-.3c-1.09 0-1.41 1.05-.14 1.57m9.25-1.24c-1.26 1.5-2.37 4.23-2.26 5.42.77-2.07.94-3 3.14-4.08.72-.36 2.2-.83 1.65-1.91a.88.88 0 0 0-.79-.52 2.78 2.78 0 0 0-1.74 1.09m-9.14-1.7a14.44 14.44 0 0 1 3.25 2.53c-.22-.67-1.16-2.94-2.31-3.67a1.27 1.27 0 0 0-.67-.2c-.72 0-1.2.7-.26 1.34m6.55.16a15.09 15.09 0 0 0-.77 4.9 15.56 15.56 0 0 1 2.09-4.23c.55-.62 2.26-1.34 1-2.37a.87.87 0 0 0-.56-.23c-.66 0-1.28.92-1.75 1.93m-1.6-3.31c-.55 1.34-.83 4.08-.5 4.8.11-1.81.61-2.89 1.6-3.61.55-.41 1.27-.67.77-1.5a.85.85 0 0 0-.75-.44 1.3 1.3 0 0 0-1.12.75m-4-.05c.77 1 1.87 2.12 2.09 3.41.28-.88-.39-2.74-.77-3.77-.34-.83-.91-1.19-1.32-1.19s-.77.58 0 1.55m-1.1-7.64c.66.31 1.38-.72 2-.83 2.75-.41 1.49 10 1.65 11.26.11-2.48 2.26-11-1.1-12.44a1.91 1.91 0 0 0-.72-.12c-1.53 0-3.7 1.26-1.87 2.14" fill="none"/></clipPath><radialGradient id="aI" cx="-188.02" cy="598.77" r=".51" gradientTransform="matrix(95.14 0 0 -89.2 17988.3 53718.74)" xlink:href="#g"/><clipPath id="aJ" transform="translate(-91.6 -6.2)"><path d="M246.84 351.18c-1.54.88-1.21 2 .61 1.39 3.47-1.08 5.73-.62 8.81.05-1.8-.59-4.88-1.9-7.34-1.9a4.34 4.34 0 0 0-2.08.45m-5-.57c-2.15 1.29-1.27 2.84 1.21 1.5a11.43 11.43 0 0 1 8.92-1.39 12.72 12.72 0 0 0-5.46-1 10 10 0 0 0-4.67.93m.22-2.84c-1.49.67-1.38 2.22.55 1.5 2.59-.93 3.63-1 6.72-.1a12 12 0 0 0-5.75-1.65 4 4 0 0 0-1.52.25m-.72-2.74c-1.27.41-1.15 1.71.33 1.6s3.69-.72 6.17 1.14a8.65 8.65 0 0 0-5.66-2.86 2.69 2.69 0 0 0-.84.12m-.94-1.08c1.16.21 3.2.36 4.08.88-.5-.52-2.48-2.12-3.86-2.27h-.14c-1.12 0-1.57 1.2-.08 1.4m14.92 1.86a5.93 5.93 0 0 0 4.13 6.71c-2.2-1.5-2.81-2.84-2.37-5.58.61-4.08 5.78-3.51 4.79-.52v.05c-.88-.83-2.53-1.75-3.47-.46-1.16 1.44-.17 2.94 1.49 3.46a3.78 3.78 0 0 0 3.63-.83c2.92-2.63.94-6.35-2.09-7.12a4.92 4.92 0 0 0-1.29-.18c-2.54 0-4.26 2.19-4.83 4.46m-6.06-4.29c-.33 1.86 0 4.75.72 5.78-.33-2.17-.66-3.1.77-5 .44-.62 1.54-1.65.49-2.37a1.06 1.06 0 0 0-.59-.21c-.79 0-1.25 1.18-1.39 1.81m3.3-.15a7.23 7.23 0 0 0 .94 8.62c-1-1.6-2.26-6.4 1.82-7.49a1.45 1.45 0 0 0 .11-2.79 1.52 1.52 0 0 0-.59-.12 2.8 2.8 0 0 0-2.27 1.77m-12.94-.67a10.26 10.26 0 0 1 3.58 2.12c-.22-.88-1.71-2.27-2.59-3a2.11 2.11 0 0 0-1.31-.56c-.83 0-1.13.81.32 1.49m6.61.57A14.33 14.33 0 0 0 248 346c-.16-1.65-.6-3.2-.28-4.65.22-.83 1.38-2.22-.28-2.58a1.08 1.08 0 0 0-.25 0c-.88 0-1.06 1.28-1 2.56m-3-2.22a9.77 9.77 0 0 0 1.93 4.44c-.83-1.65-.88-2.79-.38-3.87.27-.62.82-1.14-.05-1.7a.92.92 0 0 0-.49-.15 1.14 1.14 0 0 0-1 1.29m-7-7.54c-1.54.05-3.69 2.89-1.32 2.89.71 0 .88-1.24 1.43-1.6 2.2-1.55 6.22 8.16 7 9.24-1.09-2.19-3.4-10.54-6.95-10.54h-.16" fill="none"/></clipPath><radialGradient id="aK" cx="-188.42" cy="598.9" r=".51" gradientTransform="matrix(93.16 0 0 -87.35 17692.98 52629.04)" xlink:href="#g"/><clipPath id="aL" transform="translate(-91.6 -6.2)"><path d="M296.46 324c-1.1 1.34-.33 2.17 1.1 1 2.75-2.22 5.07-2.58 8.21-3-2.53.1-7.6-.16-9.31 2m-4.85 1.24c-1.49 1.91 0 3 1.71.93 2.2-2.58 3.85-3.82 7.71-4.44a5.07 5.07 0 0 0-.75-.05c-2.59 0-7.07 1.51-8.67 3.56m-.94-2.74c-1.1 1.14-.39 2.53 1.16 1.19 2-1.81 2.92-2.27 6.11-2.48a5.84 5.84 0 0 0-1.66-.18c-1.88 0-4.58.42-5.61 1.47m-1.76-2.27c-1 .83-.38 2 1 1.34s3.08-2 6.11-1.14a9.15 9.15 0 0 0-4.21-1 4.68 4.68 0 0 0-2.89.75m-1.65-2.07c-1.15.31-1.15 1.75.33 1.39a15.38 15.38 0 0 1 4.13-.67 12.7 12.7 0 0 0-3.74-.79 3.2 3.2 0 0 0-.72.07m-1.65-1.34a9.39 9.39 0 0 1 4.13.67c-.55-.72-2.48-1.5-3.58-1.86a2.73 2.73 0 0 0-.87-.16c-1.31 0-1.61 1.21.32 1.34m2.59-2.84c.71 1.29 2.81 3.25 3.63 3.46-1.43-1.24-2-2.27-1.93-3.46 0-.67.28-1.34-.77-1.55h-.19a1 1 0 0 0-.75 1.56m3.86-1.75c-1.16.15-.77 1.5-.11 2.74a13.75 13.75 0 0 0 3.53 3.72c-.83-1.45-1.87-2.74-2.15-4.18-.15-.77.31-2.3-1-2.3h-.31m2.81 1.91a10.36 10.36 0 0 0 3 5.11c-1.21-1.91-1.82-2.63-1.32-4.91.16-.72.77-2.07-.5-2.38a1.35 1.35 0 0 0-.3 0c-1.06 0-1 1.54-.86 2.2m3-1.29a7.58 7.58 0 0 0 4.29 7.64c-1.49-1.14-4.62-5.11-1.32-7.59a1.48 1.48 0 0 0-1-2.63c-1 0-1.82.83-2 2.58m8.26-3c-3.36.41-4.35 3.51-3.91 6.14a6.29 6.29 0 0 0 6.55 4.75c-2.64-.57-3.74-1.6-4.52-4.29-1-4 4-5.32 4.3-2.22l-.05.05c-1.16-.46-3-.72-3.36.83-.44 1.76 1 2.79 2.81 2.69a3.58 3.58 0 0 0 3-2.07c1.57-3.28-1.32-5.91-4.3-5.91h-.49m-27.42-.31c-1.32.62-2.26 4 0 3.15.66-.26.28-1.45.66-2 1.43-2.22 9.09 5.37 10.19 6.09-1.75-1.5-6.52-7.49-9.86-7.49a2.37 2.37 0 0 0-1 .2" fill="none"/></clipPath><radialGradient id="aM" cx="-188.76" cy="598.55" r=".51" gradientTransform="matrix(107.81 0 0 -101.09 20523.66 60802.19)" xlink:href="#g"/><clipPath id="aN" transform="translate(-91.6 -6.2)"><path d="M316.12 278.06c-1.76 1-.88 2.74.66 1.14a9.54 9.54 0 0 1 3.14-2.69h-.08a9.55 9.55 0 0 0-3.72 1.55m-9.69 1.76c-.33 1.39 2 4.13 2.64 2 .16-.67-1-1.13-1.27-1.7-1-2.43 10.08-3.46 11.35-3.87-2.53.41-12 .26-12.72 3.62m12.55-1c-.44 1 .77 1.91 1.38.57.5-1 1.21-2.79 2-3.46-.66.31-2.81 1.7-3.36 2.89m2.75 0c.11 1.29 1.43 1.5 1.71.1s.28-3.51 2.81-5.27c-1.82.67-4.62 3.31-4.52 5.16m-6.44-4.91c-.71.62 0 1.5.77 1.65 1.49.21 4.41-.1 5.07-.57-1.93.31-3.08.05-4.08-.72-.37-.28-.7-.63-1.11-.63a1 1 0 0 0-.65.27m9.42 5c.28 1.5 1.93 1.86 1.71-.1-.28-2.58-.11-3.56 1.71-6.09-1.1.67-3.74 4.23-3.42 6.2m-7.82-7.28c-.6.93.83 1.5 2.26 1.76a16.07 16.07 0 0 0 5.29-.36 17 17 0 0 1-4.85-1c-.53-.25-1.21-1-1.86-1a1 1 0 0 0-.84.6m10.69 8.26c.71 2.27 2.59 1.86 1.87-.72a9.45 9.45 0 0 1 .94-8.42c-1.71 1.55-3.64 6.45-2.81 9.14m-8.43-11.41c-1.16.88.33 1.91 1.1 2.22 1.82.83 4.85 1.29 6.11.93-2.31-.26-3.3-.26-4.9-2-.43-.49-1-1.36-1.7-1.36a1 1 0 0 0-.61.22m10.35 7.07c.5 1.65 1.65 1.6 1.6-.21-.17-3.36.88-5.32 2.42-7.9-1.43 1.91-4.79 5.47-4 8.11M320 264.63c-.61.72-.44 1.86.88 3a8.51 8.51 0 0 0 9.14 1.45c-1.87.46-7.16.36-7.22-3.61a1.44 1.44 0 0 0-1.55-1.44 1.59 1.59 0 0 0-1.26.56m3.47-4.91c-1.76 2.69.22 5.32 2.75 6.61 2.37 1.24 6.39.62 8-1.91-2.09 1.6-3.63 1.76-6.33.67-4-1.65-2-6.2.71-4.49l.06.05c-1.1.57-2.48 1.81-1.43 3 1.21 1.39 3 .88 4-.46a3.16 3.16 0 0 0 .11-3.46 4.23 4.23 0 0 0-3.77-2.24 4.92 4.92 0 0 0-4.11 2.24" fill="none"/></clipPath><radialGradient id="aO" cx="-189.05" cy="598.42" r=".51" gradientTransform="matrix(92.13 0 0 -86.39 17618.16 51967.79)" xlink:href="#g"/><clipPath id="aP" transform="translate(-91.6 -6.2)"><path d="M310.06 237.22c.55 1.29 4.07 2.38 3.36.26-.22-.67-1.54-.36-2.09-.77-2.26-1.5 6.39-8.11 7.27-9.09-1.93 1.65-9.91 6.4-8.54 9.6m7-6.51c-.82 1.81.88 2.74 1.21.62a8.49 8.49 0 0 1 1-3.87c-.83.46-1.76 2.22-2.26 3.25m2.81-.88c.22 1.14 1.76 1.24 1.49-.21a14 14 0 0 1-.39-3.87c-.33.57-1.38 2.84-1.1 4.08m-4.24-2.74c-.77-.1-1.43-.36-1.71.57s.88 1.29 1.6 1a10.79 10.79 0 0 0 3.91-3.1 5 5 0 0 1-3.8 1.55m.77-3.2a4.66 4.66 0 0 1-.78 0c-.86-.06-1.83-.12-1.75 1s1.6.83 3 .31a16.3 16.3 0 0 0 4.19-3 17.22 17.22 0 0 1-4.62 1.65m5.78 4.54c.83 1 2 .52 1.49-.77s-1.87-3.1-.77-5.89c-1.1 1.5-1.93 5.16-.71 6.66m2.53-1.5c1.1 1.14 2.7.57 1.38-1-1.76-2-2.2-2.89-2.2-5.89-.5 1.14-.55 5.42.83 6.87m-8.21-6c-.83-.21-2.2-.88-2.59.26-.44 1.29 1.43 1.39 2.26 1.29 1.93-.26 4.79-1.45 5.62-2.43-2.09 1-2.92 1.55-5.29.88m11.18 5.37c1.93 1.55 3.25.26 1.1-1.55-2.59-2.17-3.75-3.82-4.13-7.49-.55 2.17.71 7.23 3 9m-12.45-9.5a1.61 1.61 0 0 0-2.86.72c-.06.93.77 1.81 2.59 2.07 3.47.57 6.94-.88 8.48-3.46-1.32 1.34-5.78 4-8.21.67m11.51 4.91c1.32 1.14 2.31.46 1.16-1-2.09-2.74-2.37-4.91-2.64-7.85-.06 2.38-.72 7.07 1.49 8.83" fill="none"/></clipPath><radialGradient id="aQ" cx="-189.12" cy="598.09" r=".51" gradientTransform="matrix(94.1 0 0 -88.23 18003.92 53010.71)" xlink:href="#g"/><clipPath id="aR" transform="translate(-91.6 -6.2)"><path d="M107 280.59c1.71-2 3.19-2.43 6.11-1.86 4.24.88 3.25 5.68.16 4.54l-.05-.05c1-.72 2-2.22.77-3.2a2.43 2.43 0 0 0-3.8 1.19 3.2 3.2 0 0 0 .6 3.46c2.59 2.89 6.66 1.29 7.76-1.5 1.1-2.94-1.38-5.16-4.13-6a5.56 5.56 0 0 0-1.56-.21c-2.39 0-5.07 1.35-5.88 3.62m3.08-5.42c1.76-.83 6.94-1.65 7.88 2.22a1.6 1.6 0 0 0 2.92.36c.44-.83.06-1.91-1.54-2.84a9.29 9.29 0 0 0-4.58-1.21 7.67 7.67 0 0 0-4.67 1.47m3.08-3.1c2.37-.16 3.36-.36 5.29 1 .66.52 1.65 1.6 2.48.67s-.72-1.76-1.54-2a13.79 13.79 0 0 0-2.75-.25 9.28 9.28 0 0 0-3.47.51m6.72-3a17.41 17.41 0 0 0-5.12 1.29 17.44 17.44 0 0 1 5 .1c.83.21 2.26 1.39 2.75-.1.36-1-.91-1.3-2.28-1.3h-.31m-12.11.26c.88 3.3.27 5.42-.66 8.26 1-2.17 3.47-6.3 2.15-8.73-.37-.67-.79-1-1.1-1s-.63.5-.38 1.45m14.7-2.94c-1.49.05-4.3.88-4.9 1.5a5.14 5.14 0 0 1 4.19-.1c.66.31 1.16.83 1.76.05s-.22-1.45-1-1.45h-.07M111.64 265c.83 2.48.83 3.46-.39 6.25.94-.83 2.75-4.8 2-6.66a1.43 1.43 0 0 0-1.16-1c-.45 0-.76.46-.44 1.45m2.86-.67c0 1.34.5 3.51-1.6 5.68 1.6-1 3.86-4.08 3.3-5.89a1 1 0 0 0-.92-.89c-.41 0-.79.36-.79 1.09m-5.89.88c1.49 2.94 1.93 4.9.83 8.42 1.38-1.81 2.2-7 .83-9.45-.49-.86-1.06-1.25-1.49-1.25-.62 0-.92.84-.17 2.28m8.81-1.91a14.66 14.66 0 0 1-1.16 3.77c.55-.41 2.37-2.17 2.64-3.46a.87.87 0 0 0-.73-1.12c-.31 0-.62.23-.75.81m3.58-.47c-.72 1.08-1.38 2.48-2.53 3.2 1-.15 2.53-1.45 3.41-2.22s.79-1.89.21-1.89c-.3 0-.7.26-1.09.9m7-4c-.06.67 1.27.88 1.65 1.4 1.43 2.22-9.2 5.32-10.36 5.89 2.42-.88 11.68-2.43 11.73-5.89a3 3 0 0 0-2.28-2.36c-.4 0-.7.27-.75 1" fill="none"/></clipPath><radialGradient id="aS" cx="-187.49" cy="598.21" r=".51" gradientTransform="matrix(92.43 0 0 -86.66 17380.53 52094.59)" xlink:href="#g"/><clipPath id="aT" transform="translate(-91.6 -6.2)"><path d="M107.73 230.14c2.15-1.5 3.75-1.6 6.39-.36 3.91 1.81 1.71 6.25-1 4.44v-.05c1.1-.52 2.53-1.7 1.54-2.94-1.16-1.44-3-1-4 .26a3.26 3.26 0 0 0-.27 3.51c1.71 3.41 6.11 2.79 7.87.36 1.87-2.63 0-5.37-2.42-6.76a6.29 6.29 0 0 0-3.07-.74 6.14 6.14 0 0 0-5 2.29m4.41-4.49c1.93-.41 7.16-.05 7 3.92a1.57 1.57 0 0 0 2.75 1c.66-.67.55-1.81-.77-3a8.73 8.73 0 0 0-6-2.46 7.53 7.53 0 0 0-3 .6m3.8-2.32c2.37.41 3.36.41 4.85 2.22.5.62 1.21 2 2.26 1.24s-.28-1.91-1-2.27a13.94 13.94 0 0 0-5.28-1.27 3.52 3.52 0 0 0-.83.08m2-1.34c1.71.36 3.41.46 4.79 1.24.71.41 1.76 1.86 2.64.52.66-.93-.72-1.5-2.15-1.86a9 9 0 0 0-1.92-.18 27.84 27.84 0 0 0-3.32.22m3.36-1.75a5.09 5.09 0 0 1 4.07.88c.55.41.88 1 1.71.46s.11-1.55-.66-1.7a10.91 10.91 0 0 0-1.78-.12 8.43 8.43 0 0 0-3.34.49m-9.91-.83c0 3.41-1.16 5.27-2.81 7.8 1.54-1.86 5-5.27 4.41-7.9-.19-.82-.59-1.25-.94-1.25s-.66.44-.66 1.35m14.48-3.2a10.36 10.36 0 0 1-3.3 2.53 10.25 10.25 0 0 0 3.91-1.39c1.29-.7 1.25-1.76.54-1.76a1.81 1.81 0 0 0-1.15.62m-6.66-.05c-.33 1.29-.44 3.51-3.08 5.16 1.87-.57 4.79-3.1 4.79-5 0-.7-.43-1.1-.85-1.1s-.71.28-.86.89m3.08-.31c-.55 1-1.38 2.79-2.09 3.36.61-.26 2.86-1.55 3.47-2.68.32-.67-.06-1.3-.56-1.3-.27 0-.57.18-.82.63m-6.06.31c.11 2.63-.11 3.56-2 6 1.1-.62 3.91-4.08 3.63-6-.09-.82-.58-1.32-1-1.32s-.71.4-.65 1.32m-3-.52a9.72 9.72 0 0 1-1.32 8.42c1.76-1.5 3.91-6.3 3.19-9-.25-1-.77-1.53-1.21-1.53s-1 .73-.66 2.15m20.49-1.7c-.22.67 1 1.14 1.21 1.76.88 2.48-10.24 3-11.57 3.36 2.59-.31 12 .31 12.89-3 .29-1-.83-2.82-1.74-2.82-.31 0-.6.22-.8.76" fill="none"/></clipPath><radialGradient id="aU" cx="-187.56" cy="597.78" r=".51" gradientTransform="matrix(92.21 0 0 -86.46 17355.13 51900.53)" xlink:href="#g"/><clipPath id="aV" transform="translate(-91.6 -6.2)"><path d="M119.13 373.79c15.69 43.32 182.28 40.9 199.79.36a7.75 7.75 0 0 0-4.24-9.86c-5 29.17-163.94 42.55-190.81-.15a7.77 7.77 0 0 0-4.74 9.65" fill="none"/></clipPath><radialGradient id="aW" cx="-188.55" cy="598.3" r=".51" gradientTransform="matrix(253.14 0 0 -237.35 47845.95 142345.72)" xlink:href="#g"/><clipPath id="aX" transform="translate(-91.6 -6.2)"><path d="M139.45 154.7c-2.7.83-2.42 4 .05 3.87 3-.14 3-4 .67-4a2.61 2.61 0 0 0-.73.11m-6.54-.68c-2.48 1.08-1.71 3.72.55 3.51 3.42-.32 2.38-3.69.29-3.69a2.16 2.16 0 0 0-.84.18m2.37-1.34c1.54 2.07 5.45-1.08 3.19-3.56a1.49 1.49 0 0 0-1.14-.54c-1.56 0-3.27 2.34-2.05 4.1" fill="none"/></clipPath><radialGradient id="aY" cx="-186.16" cy="595.97" r=".51" gradientTransform="matrix(43.98 0 0 -41.24 8243.36 24715.71)" xlink:href="#g"/><clipPath id="aZ" transform="translate(-91.6 -6.2)"><path d="M175.36 151.14c-1.6 1.65.16 3.3 1.93 2.37 2.28-1.19.89-2.9-.62-2.9a1.84 1.84 0 0 0-1.3.53m5.56-1.7c-1.87 1.5-.27 3.77 1.71 2.79a1.68 1.68 0 0 0-.5-3.27 1.92 1.92 0 0 0-1.21.48m-4.18-.05c2.09 1 4-2.63 1-3.67a1.67 1.67 0 0 0-.59-.12c-1.66 0-2.43 2.81-.45 3.78" fill="none"/></clipPath><radialGradient id="ba" cx="-185.96" cy="594.95" r=".51" gradientTransform="matrix(28.92 0 0 -27.11 5466.97 16266.73)" xlink:href="#g"/><clipPath id="bb" transform="translate(-91.6 -6.2)"><path d="M142 128c-1.76.57-1.6 2.74.06 2.58 2-.14 2-2.68.5-2.68a1.85 1.85 0 0 0-.56.1m-4.35-.36c-1.65.77-1.16 2.53.38 2.37 2.28-.27 1.57-2.51.2-2.51a1.4 1.4 0 0 0-.59.13m1.6-1c1 1.39 3.63-.83 2.15-2.48a1 1 0 0 0-.74-.34 1.9 1.9 0 0 0-1.41 2.82" fill="none"/></clipPath><radialGradient id="bc" cx="-184.91" cy="594.26" r=".51" gradientTransform="matrix(29.58 0 0 -27.74 5525.84 16598.46)" xlink:href="#g"/><clipPath id="bd" transform="translate(-91.6 -6.2)"><path d="M152.5 90.37c1.76.83 3.19-1.76 1.32-2.17a2 2 0 0 0-.42 0c-1.39 0-2.11 1.6-.91 2.21M149.75 88c2.15.93 2.64-1.91.94-2.07h-.21c-1.49 0-1.89 1.58-.73 2.08m2.64-2.12c.05 1.6 3.14 1 2.86-1a.89.89 0 0 0-1-.78 1.9 1.9 0 0 0-1.89 1.81" fill="none"/></clipPath><radialGradient id="be" cx="-184.49" cy="591.87" r=".51" gradientTransform="matrix(24.19 0 0 -22.68 4529.85 13502.04)" xlink:href="#g"/><clipPath id="bf" transform="translate(-91.6 -6.2)"><path d="M295.35 160.28c2.48.1 2.75-3.1.05-3.87a2.69 2.69 0 0 0-.78-.12c-2.32 0-2.23 3.81.72 4m6-1.08c2.26.21 3-2.43.55-3.46a2.09 2.09 0 0 0-.84-.18c-2.05 0-3.13 3.32.28 3.64m-5-8.42c-2.26 2.48 1.71 5.68 3.19 3.56 1.27-1.76-.44-4.1-2-4.1a1.55 1.55 0 0 0-1.17.54" fill="none"/></clipPath><radialGradient id="bg" cx="-189.26" cy="596" r=".51" gradientTransform="matrix(43.98 0 0 -41.24 8520.3 24718.56)" xlink:href="#g"/><clipPath id="bh" transform="translate(-91.6 -6.2)"><path d="M257.58 155.17c1.76.93 3.47-.72 1.87-2.32a1.8 1.8 0 0 0-1.31-.55c-1.49 0-2.87 1.69-.56 2.88m-5.34-1.24c1.93.93 3.53-1.29 1.65-2.79a1.94 1.94 0 0 0-1.22-.48 1.67 1.67 0 0 0-.43 3.27m4.79-6.56c-2.87 1-1 4.7 1.1 3.67s1.2-3.78-.49-3.78a1.72 1.72 0 0 0-.61.11" fill="none"/></clipPath><radialGradient id="bi" cx="-188.37" cy="595" r=".51" gradientTransform="matrix(28.93 0 0 -27.12 5610.74 16275.47)" xlink:href="#g"/><clipPath id="bj" transform="translate(-91.6 -6.2)"><path d="M293.1 130.23c1.65.15 1.82-2 0-2.58a1.73 1.73 0 0 0-.54-.1c-1.5 0-1.45 2.54.54 2.68m4-.57c1.54.15 2-1.6.38-2.37a1.41 1.41 0 0 0-.59-.13c-1.37 0-2.08 2.24.2 2.51m-3.36-5.83c-1.49 1.65 1.16 3.87 2.15 2.48a1.9 1.9 0 0 0-1.41-2.82 1 1 0 0 0-.74.34" fill="none"/></clipPath><radialGradient id="bk" cx="-189.53" cy="594.27" r=".51" gradientTransform="matrix(29.58 0 0 -27.74 5803.98 16598.92)" xlink:href="#g"/><clipPath id="bl" transform="translate(-91.6 -6.2)"><path d="M285 86.49c-1.93.36-.44 3 1.27 2.12 1.21-.57.53-2.16-.85-2.16a1.89 1.89 0 0 0-.41 0m3.08-2.27c-1.65.16-1.15 3 .94 2.07 1.21-.54.76-2.08-.72-2.08h-.21m-4.52-1.14c-.33 2.07 2.81 2.63 2.86 1a1.9 1.9 0 0 0-1.91-1.78.87.87 0 0 0-1 .75" fill="none"/></clipPath><radialGradient id="bm" cx="-189.39" cy="591.81" r=".51" gradientTransform="matrix(24.19 0 0 -22.68 4770.66 13499.21)" xlink:href="#g"/><clipPath id="bn" transform="translate(-91.6 -6.2)"><path d="M218.59 41.36A57.92 57.92 0 0 1 259 57.73a55 55 0 0 1 0 79.1 58.16 58.16 0 0 1-80.9 0 55 55 0 0 1 0-79.1 58 58 0 0 1 40.49-16.37zM176 55.87a57.59 57.59 0 0 0 0 82.82 60.54 60.54 0 0 0 22.19 13.74 39.62 39.62 0 0 0-38.93 30.72c1.87.31 3.69.67 5.56.93a88.76 88.76 0 0 1-37.28 8.47 81.1 81.1 0 0 1-23.77-3.55c-.33.83-.66 1.65-1 2.53a84.38 84.38 0 0 0 24.78 3.72 92.31 92.31 0 0 0 42.35-10.59c16 1.39 32.21-2.63 40.37-16.37l.44.41a11.48 11.48 0 0 0 2.92 2c-5.4 9.24-15.42 17.71-28.31 24.37-16.58 8.57-37.89 13.94-60 13.94a127.82 127.82 0 0 1-27.48-2.89c-.28.88-.5 1.75-.77 2.58a131.76 131.76 0 0 0 28.25 3c22.63 0 44.44-5.58 61.4-14.3 13.49-7 24-16 29.63-25.77a12.16 12.16 0 0 0 5.29.21c4.46 9.6 12.83 18.64 24.78 25.66 15 8.83 35.58 14.61 60.74 14.61a188.45 188.45 0 0 0 35.46-3.51c-.22-.88-.49-1.76-.71-2.63a184.94 184.94 0 0 1-34.75 3.46c-24.62 0-44.66-5.58-59.2-14.2-11.29-6.71-19.28-15.18-23.52-24.16a12.23 12.23 0 0 0 3.19-1.91c7.16 11.51 20.49 16.11 34.36 16A87.65 87.65 0 0 0 305 196a117.47 117.47 0 0 0 31.66-4.65c-.38-.83-.72-1.65-1.1-2.48a115.09 115.09 0 0 1-30.56 4.35 85.87 85.87 0 0 1-37.67-8.31 105.41 105.41 0 0 0 10.74-1.55 39.27 39.27 0 0 0-40.48-30.47 60.88 60.88 0 0 0 23.46-14.2 57.47 57.47 0 0 0 0-82.82 61.22 61.22 0 0 0-85.08 0" fill="none"/></clipPath><radialGradient id="bo" cx="-188.64" cy="597.4" r=".51" gradientTransform="matrix(384.45 0 0 -360.47 72648.28 215410.89)" gradientUnits="userSpaceOnUse"><stop offset="0" stop-color="#fff"/><stop offset=".18" stop-color="#bed1ee"/><stop offset=".61" stop-color="#4c6aaf"/><stop offset="1" stop-color="#00052f"/></radialGradient><clipPath id="bp" transform="translate(-91.6 -6.2)"><path d="M231.09 156.72a11.12 11.12 0 0 1-1.43 10.38 26.63 26.63 0 0 0 4.79 6.2c9.91 9.66 25.39 10.48 40.2 8a35.77 35.77 0 0 0-1.16-3.46 36.66 36.66 0 0 0-15-17.19 36 36 0 0 0-18.38-4.87 42.49 42.49 0 0 0-9 1" fill="none"/></clipPath><radialGradient id="bq" cx="-188.5" cy="596.95" r=".51" gradientTransform="matrix(73.1 0 0 -68.54 13932.61 41072.29)" xlink:href="#g"/><clipPath id="br" transform="translate(-91.6 -6.2)"><path d="M162.09 181.19c17.57 3.56 38.66 1.6 46.75-15.18a2.92 2.92 0 0 0 .22-.41 11.15 11.15 0 0 1-.71-9 37 37 0 0 0-11.14-1.72c-16 0-30.86 10.47-35.12 26.3" fill="none"/></clipPath><radialGradient id="bs" cx="-187.83" cy="596.95" r=".51" gradientTransform="matrix(75.36 0 0 -70.66 14255.16 42333.37)" xlink:href="#g"/><clipPath id="bt" transform="translate(-91.6 -6.2)"><path d="M211.87 155.53c-5.84 5.58.83 14.72 7.93 14.25 6.55-.46 12.67-7.49 7-14.46a60.53 60.53 0 0 1-15 .21" fill="none"/></clipPath><radialGradient id="bu" cx="-187.37" cy="596.1" r=".51" gradientTransform="matrix(33.66 0 0 -31.57 6432.67 18976.09)" xlink:href="#g"/></defs><g data-name=" 2"><g data-name=" 1"><g clip-path="url(#h)"><path fill="url(#i)" d="M11.18 0h233.93v202.77H11.18z"/></g><g clip-path="url(#j)"><path fill="url(#k)" d="M0 165.49h255.02v223.79H0z"/></g><g clip-path="url(#l)"><path fill="url(#e)" d="M69.72 35.16h114.49V147H69.72z"/></g><g clip-path="url(#m)"><path fill="url(#g)" d="M6.22 162.08h244.07v50.19H6.22z"/></g><g clip-path="url(#n)"><path fill="url(#o)" d="M67.57 33.15h117.35v114.53H67.57z"/></g><g clip-path="url(#p)"><path fill="url(#a)" d="M126.77 33.15h58.15v61.29h-58.15z"/></g><g clip-path="url(#q)"><path d="M126.77 32.48zm.22 0zm57.11 62.17a38.48 38.48 0 0 0-13.88-16.94 80.87 80.87 0 0 0-16.74-8.78c-9.36-3.82-15.64-7.8-19.88-12.55s-6.39-10.28-7.54-17v-4.16a5.76 5.76 0 0 1 .94-.05h.5v4.08c1.1 6.45 3.19 11.72 7.21 16.27s10.19 8.47 19.38 12.19a85.14 85.14 0 0 1 17 8.93 41.83 41.83 0 0 1 13.12 14.76v-.31c0 1.19-.06 2.38-.11 3.56" fill="#3e0000"/></g><g clip-path="url(#r)"><path fill="url(#s)" d="M67.57 33.15h59.2v63.46h-59.2z"/></g><g clip-path="url(#q)"><path d="M127.32 35.16c-.77 7.8-2.48 14-6.33 19.36-4.19 5.69-10.8 10.28-21.43 14.62a79.22 79.22 0 0 0-17.24 9.29 39.11 39.11 0 0 0-12.56 15.28c0-.88-.05-1.76-.05-2.63v-.47A41.12 41.12 0 0 1 81.4 77.4a77.39 77.39 0 0 1 17.62-9.5c10.38-4.23 16.73-8.67 20.75-14.1 3.69-5.06 5.34-11.05 6.11-18.54.39 0 .71-.05 1.1-.05z" fill="#3e0000"/><path d="M166.4 96.2c-6 9.29-14.7 8.47-23.4 2.74 2.59-3.3 6.06-6.4 10.57-7 3.47-.41 7.27.67 11.4 3.3.5.26.94.62 1.43.93m2.26 1c2.15.46 4-1.5 5.06-3.82-1.71.83-4.29-.1-6-1.19-10.68-7-21-3.92-28 7.23 9.47 5.63 21.2 8.26 28.91-2.22" fill="#380000"/></g><g clip-path="url(#t)"><path fill="url(#c)" d="M141.31 90.77h26.6v16.48h-26.6z"/></g><g clip-path="url(#u)"><path fill="url(#d)" d="M145.82 89.84h16.69v15.19h-16.69z"/></g><g clip-path="url(#q)" fill-rule="evenodd"><path d="M154.4 93.46a3.94 3.94 0 1 1-1 7.8 4 4 0 0 1-3.63-4.34 4.16 4.16 0 0 1 4.63-3.46" fill="#201600"/><path d="M151.66 92.89a2.17 2.17 0 0 1 2 2.38 2.19 2.19 0 0 1-2.53 1.86 2.12 2.12 0 0 1-2-2.37 2.25 2.25 0 0 1 2.54-1.86m4.5 5.47a1.28 1.28 0 0 1 1.23 1.43 1.41 1.41 0 0 1-1.6 1.14 1.39 1.39 0 0 1-1.21-1.45 1.41 1.41 0 0 1 1.6-1.14" fill="#fff"/></g><g clip-path="url(#v)"><path fill="url(#b)" d="M137.01 108.49h32.77v30.77h-32.77z"/></g><g clip-path="url(#w)"><path fill="url(#x)" d="M84.2 108.49h32.82v30.77H84.2z"/></g><g clip-path="url(#q)"><path d="M88.55 95.32c5.06 9.81 13.77 9.76 23 4.8-2.26-3.51-5.4-6.87-9.8-7.85-3.41-.77-7.32 0-11.73 2.22-.5.26-1 .57-1.49.83m-2.31.83c-2.26.26-3.91-1.86-4.68-4.29 1.6 1 5 .05 6.77-.93 11.78-6.66 20.54-1.76 26.38 10-10.24 4.75-22.58 6.87-28.47-4.8" fill="#380000"/></g><g clip-path="url(#y)"><path fill="url(#f)" d="M112.19 88.34l-23.47.4-.18-9.99 23.46-.39.19 9.98z"/></g><g clip-path="url(#z)"><path fill="url(#A)" d="M87.01 90.87h26.16v16.63H87.01z"/></g><g clip-path="url(#B)"><path fill="url(#C)" d="M92.57 90.05h15.97v14.87H92.57z"/></g><g clip-path="url(#D)"><path fill="url(#E)" d="M114.1 117.88h26.17v13.06H114.1z"/></g><g clip-path="url(#q)" fill-rule="evenodd"><path d="M114.71 121.7c7.49 4.08 17.57 4.8 25.17-1-9.75 3.92-16.63 3.3-25.17 1" fill="#380000"/><path d="M127.4 125.58c1.21.1 2.09.72 1.93 1.45s-1.27 1.24-2.48 1.19-2.09-.77-1.93-1.5 1.27-1.24 2.48-1.14m-4.65-6.25c1.21.1 2 .72 1.93 1.45s-1.26 1.24-2.48 1.14-2.09-.72-1.93-1.45 1.27-1.24 2.48-1.14m8.59.21c1.21.1 2.09.77 1.93 1.5s-1.27 1.19-2.48 1.14-2-.77-1.93-1.5 1.27-1.19 2.48-1.14" fill="#de8281"/><path d="M125.61 125.68a1.3 1.3 0 0 1 1.21 1.45 1.4 1.4 0 0 1-1.54 1.19 1.35 1.35 0 0 1-1.21-1.5 1.32 1.32 0 0 1 1.54-1.14" fill="#fff"/></g><g clip-path="url(#F)"><path fill="url(#G)" d="M166.57 86.08l-22.31 11.33-9.22-16.57 22.31-11.33 9.22 16.57z"/></g><g clip-path="url(#q)" fill="#380000" fill-rule="evenodd"><path d="M125.06 111.53a1 1 0 0 1 .94 1.08 1.11 1.11 0 0 1-1.15.88 1.006 1.006 0 1 1 .22-2m4.12.04a1 1 0 0 1 .88 1.08 1.08 1.08 0 0 1-1.16.88 1 1 0 0 1-.88-1.08 1 1 0 0 1 1.16-.88"/></g><g clip-path="url(#H)"><path fill="url(#I)" d="M0 165.49h255.96v195.02H0z"/></g><g clip-path="url(#q)" fill-rule="evenodd"><path d="M100.17 93.72a4.17 4.17 0 0 1 4.35 3.82 4.23 4.23 0 0 1-8.43.21 4 4 0 0 1 4.08-4" fill="#201600"/><path d="M97.4 93.51a2.23 2.23 0 0 1 2.37 2.07 2.29 2.29 0 0 1-2.26 2.22 2.22 2.22 0 0 1-2.31-2.12 2.19 2.19 0 0 1 2.2-2.17m5.3 4.75a1.37 1.37 0 0 1 1.43 1.29 1.28 1.28 0 0 1-1.32 1.34 1.46 1.46 0 0 1-1.49-1.29 1.37 1.37 0 0 1 1.38-1.34" fill="#fff"/></g><g clip-path="url(#J)"><path fill="url(#K)" d="M43.28 88.12h23.57v36.48H43.28z"/></g><g clip-path="url(#L)"><path fill="url(#M)" d="M46.59 44.96h24.67v35.59H46.59z"/></g><g clip-path="url(#N)"><path fill="url(#O)" d="M47.42 128.55h32.54v24.4H47.42z"/></g><g clip-path="url(#P)"><path fill="url(#Q)" d="M172.75 128.55h32.49v24.4h-32.49z"/></g><g clip-path="url(#R)"><path fill="url(#S)" d="M188.28 85.86h23.57v36.52h-23.57z"/></g><g clip-path="url(#T)"><path fill="url(#U)" d="M178.92 39.33h24.67v35.59h-24.67z"/></g><g clip-path="url(#V)"><path fill="url(#W)" d="M25.99 158.27h36.95v23.23H25.99z"/></g><g clip-path="url(#X)"><path fill="url(#Y)" d="M189.93 156.39h36.95v23.19h-36.95z"/></g><g clip-path="url(#Z)"><path fill="url(#aa)" d="M30.78 297.51h7.7v6.16h-7.7z"/></g><g clip-path="url(#ab)"><path fill="url(#ac)" d="M11.48 207.72h6.42v7.54h-6.42z"/></g><g clip-path="url(#ad)"><path fill="url(#ae)" d="M74.13 310.54h7.71v7.02h-7.71z"/></g><g clip-path="url(#af)"><path fill="url(#ag)" d="M120.27 346.87h7.68v6.24h-7.68z"/></g><g clip-path="url(#ah)"><path fill="url(#ai)" d="M171.36 312.49h8.02v6.1h-8.02z"/></g><g clip-path="url(#aj)"><path fill="url(#ak)" d="M220.42 299.95h8.02v6.1h-8.02z"/></g><g clip-path="url(#al)"><path fill="url(#am)" d="M223.42 248.55h7.46v7.09h-7.46z"/></g><g clip-path="url(#an)"><path fill="url(#ao)" d="M237.13 207.9h8.03v6.29h-8.03z"/></g><g clip-path="url(#ap)"><path fill="url(#aq)" d="M31.79 241.49h6.38v7.7h-6.38z"/></g><g clip-path="url(#ar)"><path fill="url(#as)" d="M6.99 224.38h27.42v30.13H6.99z"/></g><g clip-path="url(#at)"><path fill="url(#au)" d="M24.68 265.43h24.33v31.88H24.68z"/></g><g clip-path="url(#av)"><path fill="url(#aw)" d="M57.35 309.74h28.23v29.76H57.35z"/></g><g clip-path="url(#ax)"><path fill="url(#ay)" d="M111.19 330.24h34.42v23.15h-34.42z"/></g><g clip-path="url(#az)"><path fill="url(#aA)" d="M160.03 314.72h34.36v21.58h-34.36z"/></g><g clip-path="url(#aB)"><path fill="url(#aC)" d="M200.62 276.61h33.04v26.49h-33.04z"/></g><g clip-path="url(#aD)"><path fill="url(#aE)" d="M217.14 224.2h33.26v25.97h-33.26z"/></g><g clip-path="url(#aF)"><path fill="url(#aG)" d="M39.21 291.62h21.48v32.96H39.21z"/></g><g clip-path="url(#aH)"><path fill="url(#aI)" d="M85.52 320.22h26.71v28.83H85.52z"/></g><g clip-path="url(#aJ)"><path fill="url(#aK)" d="M140.98 325.04h33.92v22.2h-33.92z"/></g><g clip-path="url(#aL)"><path fill="url(#aM)" d="M184.81 302.22h36.04v19.83h-36.04z"/></g><g clip-path="url(#aN)"><path fill="url(#aO)" d="M214.49 251.29h28.14v26.45h-28.14z"/></g><g clip-path="url(#aP)"><path fill="url(#aQ)" d="M217.08 206.64h22.3v26.75h-22.3z"/></g><g clip-path="url(#aR)"><path fill="url(#aS)" d="M15.42 251.74h24.06v29.62H15.42z"/></g><g clip-path="url(#aT)"><path fill="url(#aU)" d="M16.13 206.97h28.81v25.23H16.13z"/></g><g clip-path="url(#aV)"><path fill="url(#aW)" d="M26.21 357.94h202.6v52.98H26.21z"/></g><g clip-path="url(#aX)"><path fill="url(#aY)" d="M38.82 142.39H50.9v10.14H38.82z"/></g><g clip-path="url(#aZ)"><path fill="url(#ba)" d="M82.16 139.4h10.9v8.84h-10.9z"/></g><g clip-path="url(#bb)"><path fill="url(#bc)" d="M44.44 117.65h8.1v6.9h-8.1z"/></g><g clip-path="url(#bd)"><path fill="url(#be)" d="M56.99 77.86h7.11v7.13h-7.11z"/></g><g clip-path="url(#bf)"><path fill="url(#bg)" d="M200.71 144.04h12.07v10.14h-12.07z"/></g><g clip-path="url(#bh)"><path fill="url(#bi)" d="M158.57 141.06h10.88v8.84h-10.88z"/></g><g clip-path="url(#bj)"><path fill="url(#bk)" d="M199.45 117.29h8.11v6.89h-8.11z"/></g><g clip-path="url(#bl)"><path fill="url(#bm)" d="M191.48 76.14h7.16v7.15h-7.16z"/></g><g clip-path="url(#bn)"><path fill="url(#bo)" d="M5.45 32.48H251v173.49H5.45z"/></g><g clip-path="url(#bp)"><path fill="url(#bq)" d="M138.06 149.52h44.99v28.05h-44.99z"/></g><g clip-path="url(#br)"><path fill="url(#bs)" d="M70.49 148.69h46.97v29.86H70.49z"/></g><g clip-path="url(#bt)"><path fill="url(#bu)" d="M114.43 149.12h26.43v14.92h-26.43z"/></g></g></g></svg>