<svg xmlns="http://www.w3.org/2000/svg" xmlns:xlink="http://www.w3.org/1999/xlink" viewBox="0 0 255.61 410.53"><defs><radialGradient id="a" cx="182.64" cy="230.69" r="43.88" gradientTransform="matrix(1.05 0 0 1 -40.93 0)" gradientUnits="userSpaceOnUse"><stop offset=".23" stop-color="#d76543"/><stop offset="1" stop-color="#793d18"/></radialGradient><radialGradient id="h" cx="238.53" cy="421.27" fx="141.192" fy="492.611" r="120.68" xlink:href="#a"/><clipPath id="j" transform="translate(-91.47 -6.19)"><path d="M131.61 94c-1.26 44-1.59 43.59-29 97.35 56.86 17.44 173.94 16.4 233.61-.21-29-54.63-30.52-54.68-30.63-98.94-.11-44.78-37.56-86-87.16-86-54.61 0-85.57 41-86.83 87.8" fill="none"/></clipPath><radialGradient id="k" cx="-176.36" cy="630.08" r=".52" gradientTransform="matrix(372.88 0 0 -349.8 65866.47 220474.33)" gradientUnits="userSpaceOnUse"><stop offset=".07" stop-color="#fff"/><stop offset=".35" stop-color="#de8444"/><stop offset=".66" stop-color="#b46a47"/><stop offset="1" stop-color="#98552c"/></radialGradient><clipPath id="l" transform="translate(-91.47 -6.19)"><path d="M186.44 197.27c-16.94 8.72-38.71 14.29-61.32 14.29a131.52 131.52 0 0 1-28.21-3c-3.57 12.79-5.45 24.5-5.45 31.57 0 46.58 19.19 86.72 34.59 130.36 4.57 12.9 35.8 24.66 92.77 24.66s87.38-12 92.72-24.66c16.77-40 34.59-86.72 34.59-130.36a127.37 127.37 0 0 0-4-31.62 188.26 188.26 0 0 1-35.42 3.49c-25.13 0-45.7-5.78-60.66-14.6-11.93-7-20.29-16-24.75-25.64a12.16 12.16 0 0 1-5.28-.21c-5.61 9.8-16.11 18.78-29.59 25.74" fill="none"/></clipPath><radialGradient id="m" cx="-176.37" cy="630.48" r=".52" gradientTransform="matrix(332.1 0 0 -311.54 58683 196633.82)" gradientUnits="userSpaceOnUse"><stop offset=".23" stop-color="#e39444"/><stop offset=".6" stop-color="#b76438"/><stop offset="1" stop-color="#80471e"/></radialGradient><clipPath id="n" transform="translate(-91.47 -6.19)"><path d="M218.28 41.33a57.86 57.86 0 0 0-40.42 16.35 54.93 54.93 0 0 0 0 79 58.06 58.06 0 0 0 80.78 0 54.94 54.94 0 0 0 0-79 57.83 57.83 0 0 0-40.36-16.35z" fill="none"/></clipPath><radialGradient id="f" cx="-176.26" cy="629.75" r=".52" gradientTransform="matrix(185.42 0 0 -173.94 32791.61 109596.49)" gradientUnits="userSpaceOnUse"><stop offset="0" stop-color="#d24a43"/><stop offset="1" stop-color="#360000"/></radialGradient><clipPath id="o" transform="translate(-91.47 -6.19)"><path d="M224.11 171c18.86 41.43 78.42 45.09 117.3 34.87a137.78 137.78 0 0 0-5.17-14.7c-24.53 6.4-51.36 5.73-74.62-6.14-10.5.05-29-6.81-34.31-15.94a12.24 12.24 0 0 1-3.19 1.91m-54.44 13.52c-20.51 10.63-44.66 13.77-67 6.86-1.87 4.85-3.52 9.8-5 14.6 36.41 12.33 95-.31 115.65-35.39a11.4 11.4 0 0 1-2.92-2l-.44-.41c-8 13.52-22 15.27-40.31 16.35" fill="none"/></clipPath><radialGradient id="i" cx="-176.33" cy="630.49" r=".52" gradientTransform="matrix(279.96 0 0 -262.63 49471.18 165798.76)" gradientUnits="userSpaceOnUse"><stop offset=".23" stop-color="#db7743"/><stop offset="1" stop-color="#94512a"/></radialGradient><clipPath id="p" transform="translate(-91.47 -6.19)"><path d="M158.95 96.52c0 31.52 26.34 57.21 58.62 57.21s58.56-25.73 58.56-57.21-26.34-57.21-58.57-57.21S158.95 65 158.95 96.52" fill="none"/></clipPath><radialGradient id="q" cx="-176.08" cy="629.01" r=".52" gradientTransform="matrix(84.85 0 0 -79.6 15055.39 50127.08)" gradientUnits="userSpaceOnUse"><stop offset="0" stop-color="#fcf1ec"/><stop offset="1" stop-color="#f2cdbe"/></radialGradient><clipPath id="r" transform="translate(-91.47 -6.19)"><path d="M218.06 45.45c2.25 13.26 8.47 21.46 27 29 9.84 4 24.75 10.88 30.9 26.1q.16-2 .16-4c0-31.42-26-57-58.07-57.21z" fill="none"/></clipPath><radialGradient id="b" cx="-176.52" cy="627.84" r=".52" gradientTransform="matrix(48.92 0 0 -45.89 8789.42 28864.76)" gradientUnits="userSpaceOnUse"><stop offset="0" stop-color="#ab6442"/><stop offset="1" stop-color="#3e0000"/></radialGradient><clipPath id="s" transform="translate(-91.47 -6.19)"><path fill="none" d="M0 0h433.48v414.39H0z"/></clipPath><clipPath id="t" transform="translate(-91.47 -6.19)"><path d="M217.57 39.31c-32.39 0-58.62 25.59-58.62 57.21a57.69 57.69 0 0 0 .33 6.19c5.55-16.61 21.17-23.88 31.34-28.06 21-8.62 26-18.11 27.44-34.93v-.41z" fill="none"/></clipPath><radialGradient id="u" cx="-175.43" cy="627.93" r=".52" gradientTransform="matrix(50.4 0 0 -47.28 8936.4 29740.44)" xlink:href="#b"/><clipPath id="v" transform="translate(-91.47 -6.19)"><path d="M232.58 105.29q17.32 12.07 26.56-3.25-6.88-5.17-12.85-5.17-7.61 0-13.72 8.42" fill="none"/></clipPath><radialGradient id="d" cx="-176.6" cy="627.71" r=".52" gradientTransform="matrix(29.39 0 0 -27.57 5345.47 17406.07)" gradientUnits="userSpaceOnUse"><stop offset="0" stop-color="#fff"/><stop offset="1" stop-color="#e2e2e2"/></radialGradient><clipPath id="w" transform="translate(-91.47 -6.19)"><path d="M237.64 102.41a7.45 7.45 0 0 0 6.82 8.2 7.78 7.78 0 0 0 8.8-6.4 7.49 7.49 0 0 0-6.87-8.2 8.21 8.21 0 0 0-1-.06 7.66 7.66 0 0 0-7.75 6.46" fill="none"/></clipPath><radialGradient id="e" cx="-176.47" cy="627.36" r=".52" gradientTransform="matrix(25.58 0 0 -23.99 4664 15150.37)" gradientUnits="userSpaceOnUse"><stop offset="0" stop-color="#3eb5f1"/><stop offset="1" stop-color="#272e5b"/></radialGradient><clipPath id="x" transform="translate(-91.47 -6.19)"><path d="M228.29 130c0 8.46 7.26 15.37 16.33 15.37S261 138.41 261 130s-7.37-15.37-16.39-15.37-16.33 6.91-16.33 15.37" fill="none"/></clipPath><radialGradient id="c" cx="-176.55" cy="628.36" r=".52" gradientTransform="matrix(25.96 0 0 -24.35 4735.74 15424.38)" gradientUnits="userSpaceOnUse"><stop offset="0" stop-color="#e6a5aa"/><stop offset="1" stop-color="#f2cdbe"/></radialGradient><clipPath id="y" transform="translate(-91.47 -6.19)"><path d="M175.55 130c0 8.46 7.37 15.37 16.39 15.37s16.39-6.91 16.39-15.37-7.37-15.37-16.39-15.37-16.39 6.91-16.39 15.37" fill="none"/></clipPath><radialGradient id="z" cx="-174.66" cy="628.36" r=".52" gradientTransform="matrix(25.96 0 0 -24.35 4634.01 15424.38)" xlink:href="#c"/><clipPath id="A" transform="translate(-91.47 -6.19)"><path d="M180.06 87.08c8.91-1.29 15.62-.52 23.26 7.38-3.18-6.71-8.47-9.59-14.2-9.59a21.09 21.09 0 0 0-9.07 2.22" fill="none"/></clipPath><linearGradient id="g" x1="-176.51" y1="631.9" x2="-175.97" y2="631.9" gradientTransform="matrix(-55.81 .97 .97 55.81 -10353.75 -35010.64)" gradientUnits="userSpaceOnUse"><stop offset="0" stop-color="#380000"/><stop offset="1" stop-color="#e6a073"/></linearGradient><clipPath id="B" transform="translate(-91.47 -6.19)"><path d="M178.36 101q7.67 16.1 26.12 5.62Q198.81 97 190.39 97q-5.44 0-12 4" fill="none"/></clipPath><radialGradient id="C" cx="-174.86" cy="627.65" r=".52" gradientTransform="matrix(28.9 0 0 -27.11 5153.15 17111.88)" xlink:href="#d"/><clipPath id="D" transform="translate(-91.47 -6.19)"><path d="M191.67 96.16a7.92 7.92 0 1 0 .2 0h-.2" fill="none"/></clipPath><radialGradient id="E" cx="-174.56" cy="627.43" r=".52" gradientTransform="matrix(25.88 0 0 -24.28 4615.11 15332.81)" xlink:href="#e"/><clipPath id="F" transform="translate(-91.47 -6.19)"><path d="M218.28 127.22c-1.38-3-4.13-3.25-6.38-2.73-2.75.67-2 2.73-6.49 2.84.83.72 5.72 4.44 7.09 4.44.83 3.51 3.08 5.26 5.45 5.26s4.73-1.81 5.94-5.26c2.37-1.5 5.55-2.89 7.59-5.06.07-.07-.37 0-1 0-1.4.12-3.79.24-4.57-.77a4 4 0 0 0-3.19-1.73 5.32 5.32 0 0 0-4.4 3" fill="none"/></clipPath><radialGradient id="G" cx="-175.81" cy="628.93" r=".52" gradientTransform="matrix(38.93 0 0 -36.52 6966.89 23086.35)" xlink:href="#f"/><clipPath id="H" transform="translate(-91.47 -6.19)"><path d="M230.38 94.25c7.75-7.79 14.46-8.36 23.37-7a21 21 0 0 0-9.36-2.39c-5.6 0-10.79 2.8-14 9.35" fill="none"/></clipPath><linearGradient id="I" x1="-175.13" y1="631.5" x2="-174.58" y2="631.5" gradientTransform="scale(-56 56) rotate(28 1174.7 661.984)" xlink:href="#g"/><clipPath id="J" transform="translate(-91.47 -6.19)"><path d="M186.44 197.27c-16.94 8.72-38.71 14.29-61.32 14.29a131.94 131.94 0 0 1-23.32-2.06 11.12 11.12 0 0 0-1 2.32c-1.82 5.26-.55 11.14 3.24 17-12.54 7.48-10.56 20.38-2.25 30.44-7.65 9.59-1 25.33 9.9 30-2.42 11.45-.83 21.77 12.59 26.1.33 12.12 9.84 17.7 21.28 19.24 4 14.29 11.93 18.78 28.49 15.17 6.32 12.84 22.16 14.29 33.49 5.62 8.8 9.6 20.9 11 30.63 1.91 8.63 4.85 21.23 2.32 26.4-6.45a10.13 10.13 0 0 0 .88-1.08c13.2 1.91 26-2.58 27.06-16.25l.11-.21c13.42.46 22.77-6.71 22.33-19.6 12.32-3.25 14.9-14.91 12.32-25.59 10.06-3.71 17.32-19.34 9.57-31.21 8.3-10.06 10.29-23-2.25-30.44 3.74-5.88 5.12-11.81 3.24-17.08l-.05-.16a181.05 181.05 0 0 1-31 2.73c-25.13 0-45.7-5.78-60.66-14.6-11.93-7-20.29-16-24.75-25.64a12.16 12.16 0 0 1-5.28-.21c-5.61 9.8-16.11 18.78-29.59 25.74" fill="none"/></clipPath><radialGradient id="K" cx="-176.41" cy="630.51" r=".52" gradientTransform="matrix(354.16 0 0 -332.24 62607.4 209708.9)" gradientUnits="userSpaceOnUse"><stop offset=".2" stop-color="#fff"/><stop offset=".66" stop-color="#edb780"/><stop offset="1" stop-color="#de8244"/><stop offset="1" stop-color="#e39557"/></radialGradient><clipPath id="L" transform="translate(-91.47 -6.19)"><path d="M154 117.52c.11 1.75.55 4.9 2 4.75 1.1-.1.83-1.8-.11-1.29-.83-.52-1-2.17-1.21-3.56a6.93 6.93 0 0 0-1.87-4.33 7.56 7.56 0 0 1 1.21 4.44m-6.1 1.5c.11 1.13 1.54 1.91 2.14.46.83-2-.66-7.33-2.59-8.41 2.26 2 .22 5.62.44 7.94m8.47-2.43c.49 1.91 1.87 1.29 1.37-.26-.77-2.37-2.7-4.54-7.37-6.19 4.46 2.53 5.23 3.2 6 6.45m-4.67 4a50.79 50.79 0 0 1-1.21 5.73c-.72 3.61 1.65 4.38 2.64.36 1.65-6.5-1.54-17.44-9.07-19 5.61 1.55 8.08 7.74 7.64 12.9m-17-12.85c.83-1.34 4.12-1.13 5.94-.57 2.14.62 3.41 2.68 4 4.85s.49 5.52-1.81 6.76c-3.08 1.6-6.05-.88-6.49-3.71-.39-2.37 1.26-6.19 4-4.9 2.26 1.13 3.58 3.82 2 5.93-1.71 1.81-4.13.67-4.24-.67 4.73-1.13-1.37-5.47-1.27-.46a3.4 3.4 0 0 0 6.1 1.44c1.76-2.32.22-6.29-2.69-7.17-2.75-.83-4.67 3.46-4.67 5.57.11 3.61 4.4 6.86 7.87 4.38 2.36-1.7 2.75-4.75 2.09-7.43-.55-2.32-2.14-4.64-4.62-5.26a11.89 11.89 0 0 0-2.36-.24c-1.61 0-3.22.36-3.8 1.48m13.53-3c-1.32 1.65 1.32 3.3 2.58 2 .5-.46.5-1.13-.27-1.91.22-.57 2.53-.36 3.3.83 1.59 2.32-.55 2.94-2.69 2.94-3.13.05-5.33-2.22-8.41-2.53 3 .82 6 3 8.74 3.15 2.15.16 4.18-.83 3.24-3.4a4 4 0 0 0-3.75-2.32 3.39 3.39 0 0 0-2.73 1.24M142.61 95a9.16 9.16 0 0 0-3.69 3.56c-2.09 3.82 2.7 5.52 5.5 3.56 2.53-1.81 1.76-5.21-.88-4.85-1.26.21-3.63 1.24-2.25 2.68.66.67 1.93.77 2.36-1 1.21-1.08 2.26 1.6.06 2.89-2.42 1.39-5.77-.26-3.85-3.2a10.86 10.86 0 0 1 3.19-3 4.44 4.44 0 0 1 4.78.05c1.6 1.44 1.92 2.84 1.48 4a7.44 7.44 0 0 1-4 3.61 36.86 36.86 0 0 1-8.25 2c2.58-.36 6.16-.41 8.52-1.6s4.78-3.25 4.4-5.88a4 4 0 0 0-1.92-2.82 4.46 4.46 0 0 0-2.47-.75 6.76 6.76 0 0 0-3 .8" fill="none"/></clipPath><clipPath id="M" transform="translate(-91.47 -6.19)"><path d="M141.62 73.26c-.33 1.29-.77 2.94-1.65 3.35-.88-.57-1.32 1-.28 1.29 1.43.31 2.25-2.79 2.53-4.54a8 8 0 0 1 1.78-4.28 6.83 6.83 0 0 0-2.36 4.18m4.36 2.47c.38 1.55 1.92.93 2.2-.21.49-2.32-1.1-6.19 1.37-7.89-2 .88-4.12 6.09-3.57 8.1m-7.26-3.92c-.72 1.5.6 2.27 1.26.41 1.21-3.15 2-3.71 6.76-5.78-4.84 1.13-7 3-8 5.37M142 82.6c.49 4.08 3 3.56 2.7-.1a41.47 41.47 0 0 1-.5-5.83c.16-5.16 3.35-11.09 9.07-12-7.64.72-12.1 11.25-11.27 17.9m14.63-18.78c-2.53.31-4.4 2.48-5.22 4.75-1 2.58-.93 5.67 1.21 7.58 3.13 2.84 7.81.05 8.3-3.51.27-2.11-1.1-6.55-4-6s-5 4.33-3.52 6.86a3.46 3.46 0 0 0 6.27-.77c.66-5-5.94-1.34-1.38.31-.22 1.34-2.8 2.17-4.23.21-1.38-2.32.22-4.8 2.64-5.67 2.86-1 4.07 2.94 3.41 5.26-.82 2.79-4.07 5-6.93 3-2.15-1.44-1.82-4.85-1-6.91s2.31-4 4.57-4.38c1.87-.36 5.17-.21 5.83 1.24-.59-1.5-2.92-2-4.86-2a11.14 11.14 0 0 0-1.14.06M143 61.65c-1.26 2.48.61 3.66 2.75 3.77 2.75.1 6-1.7 9.13-2.22-3.13 0-5.61 2-8.69 1.65-2.15-.26-4.23-1.13-2.37-3.25.94-1.08 3.24-1 3.41-.46-.82.67-.93 1.34-.55 1.86 1.16 1.44 4 .05 2.86-1.7a3.43 3.43 0 0 0-3-1.57 3.93 3.93 0 0 0-3.54 1.92m7.87-10a4.05 4.05 0 0 0-2.25 2.58c-.71 2.58 1.37 4.8 3.63 6.29s5.83 1.86 8.31 2.48a33.09 33.09 0 0 1-8-2.84c-1.54-.93-3.13-2.37-3.52-4-.28-1.19.22-2.53 1.93-3.82a4.42 4.42 0 0 1 4.78.46 11.31 11.31 0 0 1 2.86 3.35c1.49 3.1-2 4.44-4.23 2.79-2-1.5-.71-4.13.38-2.89.22 1.86 1.48 1.86 2.2 1.24 1.54-1.24-.66-2.53-1.87-2.84-2.58-.67-3.79 2.63-1.48 4.69 2.53 2.22 7.53 1.08 5.88-2.94a8.73 8.73 0 0 0-3.25-3.92 5.92 5.92 0 0 0-3.24-1.17 4.54 4.54 0 0 0-2.1.53" fill="none"/></clipPath><clipPath id="N" transform="translate(-91.47 -6.19)"><path d="M144.15 149.19c2.25 1.29 5.23 1.65 9.84-.1-5.06.93-6.1 1-9-.93a2.28 2.28 0 0 0-1.16-.44c-.75 0-.74.87.33 1.47m9.73 1.29c-1.71 1.29-2.48 3.25.05 4.59 2.37 1.19 5.88-.62 5.55-3.35-.22-2-3.35-1.55-3.35.21 0 .62.49 1.14 1.59 1.24.22.52-1.59 1.81-3 1.44-2.86-.67-1.71-2.48-.16-3.87 2.31-2.06 5.55-1.75 8.08-3.51-2.8 1.29-6.6 1.65-8.74 3.25m8.3.36c-.88 2.48-1.21 5.42 1 7.12a4.56 4.56 0 0 0 3.46.88 4.73 4.73 0 0 0 4-3.46 8.44 8.44 0 0 0 .22-5c-1.27-4.13-6.05-2.32-6.66.83-.6 3 2.48 5 4.13 3 .77-.93 1.76-3.2-.27-3.35-.93-.1-2 .62-1 2.22-.11 1.6-2.86.26-2.14-2.12.83-2.58 4.45-3.4 5.17-.05a10.67 10.67 0 0 1-.16 4.28 4.17 4.17 0 0 1-3.57 3c-2.26-.1-3.47-.88-4-2.06a6.54 6.54 0 0 1 .33-5.16 30.05 30.05 0 0 1 4.67-6.71c-1.65 1.86-4.29 4.18-5.17 6.55m-21-7.12c-.71.77.66 1.86 1 .88 1-.15 2.31.93 3.46 1.81a7.52 7.52 0 0 0 4.46 2.06A9.25 9.25 0 0 1 146 146c-1.07-1-3-2.55-4.15-2.55a.89.89 0 0 0-.69.28m6.38-1.7c.82 2 5.77 5 8 4.59-3.08-.05-4.23-4-6-5.62a1.72 1.72 0 0 0-1.08-.4c-.69 0-1.24.48-.84 1.43m-7.48-3.35c3.47 5.83 13.69 11.92 20.35 8.25-5.22 2.43-11.49-.62-14.85-4.69a44.47 44.47 0 0 1-3.25-5c-.86-1.28-1.76-1.87-2.37-1.87-.87 0-1.14 1.2.12 3.31m12.59-.62c-.49 2.73 1.38 5.26 3.79 6.81 2.09 1.34 4.95 2.06 7.2.88 1.76-.88 4.24-2.94 3.68-4.8.33 1.55-2.25 3.46-4 4.23-2.09.88-4.51.15-6.49-1.08s-4.34-3.77-3.46-6.14c1.1-3.15 5.06-3.2 7.48-1.34 2 1.5 3.46 5.37.55 6.09-2.53.67-5.39-.52-5.72-3.09a2.32 2.32 0 0 1 3.58-2.17c-2.7 3.82 4.95 3.15 1.26-.52-2.31-1.86-5.94-.15-5.55 2.84s4.4 4.8 7.15 3.61 1-5.52-.55-7.07a6.3 6.3 0 0 0-4.34-1.68c-2.15 0-4.18 1.08-4.63 3.43" fill="none"/></clipPath><clipPath id="O" transform="translate(-91.47 -6.19)"><path d="M290.32 148.16c-3 1.91-4 1.86-9.07.93 4.62 1.75 7.59 1.39 9.84.1 1.08-.6 1.08-1.47.36-1.47a2.17 2.17 0 0 0-1.12.44m-9.62 2.58c1.54 1.39 2.7 3.2-.16 3.87-1.37.36-3.24-.93-3-1.44 1.1-.1 1.59-.62 1.59-1.24 0-1.75-3.13-2.22-3.36-.21-.33 2.73 3.19 4.54 5.55 3.35 2.53-1.34 1.76-3.3.05-4.59-2.14-1.6-5.88-2-8.69-3.25 2.47 1.75 5.72 1.44 8 3.51m-8.14.26a6.79 6.79 0 0 1 .38 5.16c-.55 1.19-1.76 2-4 2.06a4.18 4.18 0 0 1-3.63-3 10.66 10.66 0 0 1-.16-4.28c.71-3.35 4.34-2.53 5.17.05.71 2.37-2 3.71-2.14 2.12 1-1.6-.05-2.32-1-2.22-2 .15-1 2.42-.28 3.35 1.65 2 4.73-.05 4.12-3-.61-3.15-5.39-5-6.6-.83a8.46 8.46 0 0 0 .17 5 4.73 4.73 0 0 0 4 3.46 4.49 4.49 0 0 0 3.46-.88c2.2-1.7 1.93-4.64 1-7.12s-3.52-4.69-5.17-6.55a29.86 29.86 0 0 1 4.67 6.71m16.66-5a9 9 0 0 1-4.07 2.48 7.51 7.51 0 0 0 4.45-2.06c1.16-.88 2.48-2 3.47-1.81.33 1 1.7-.1 1-.88a1 1 0 0 0-.72-.28c-1.21 0-3.11 1.55-4.18 2.55m-3.46-5c-1.82 1.6-3 5.57-6.05 5.62 2.2.36 7.15-2.63 8-4.59.43-.95-.13-1.43-.83-1.43a1.74 1.74 0 0 0-1.09.4m7.2-3.77c-1.15 1.7-2 3.46-3.24 5-3.41 4.08-9.68 7.12-14.9 4.69 6.65 3.66 16.88-2.42 20.35-8.25 1.26-2.12 1-3.31.13-3.31-.6 0-1.49.59-2.33 1.87m-19.3-.93c-1.59 1.55-3.24 5.88-.61 7.07s6.77-.72 7.15-3.61-3.25-4.69-5.55-2.84c-3.63 3.66 4 4.33 1.26.52a2.36 2.36 0 0 1 3.63 2.17c-.38 2.58-3.24 3.77-5.72 3.09-3-.72-1.43-4.59.55-6.09 2.37-1.86 6.38-1.81 7.48 1.34.82 2.37-1.6 5-3.52 6.14s-4.4 2-6.49 1.08c-1.71-.77-4.29-2.68-4-4.23-.55 1.86 1.93 3.92 3.69 4.8 2.31 1.19 5.11.46 7.2-.88 2.42-1.55 4.29-4.08 3.79-6.81-.45-2.35-2.48-3.43-4.62-3.43a6.17 6.17 0 0 0-4.29 1.68" fill="none"/></clipPath><clipPath id="P" transform="translate(-91.47 -6.19)"><path d="M283.06 115.2c-.17 1.34-.38 3-1.15 3.51-1-.46-1.21 1.19-.17 1.34 1.48.15 1.87-3 2-4.8a7.38 7.38 0 0 1 1.21-4.38 6.83 6.83 0 0 0-1.87 4.33m4.62 2c.61 1.5 2 .72 2.14-.46.22-2.32-1.81-6 .44-7.94-1.92 1.08-3.36 6.45-2.59 8.41m-7.7-3.15c-.49 1.6.88 2.22 1.38.31.77-3.3 1.54-3.92 6-6.45-4.68 1.6-6.6 3.77-7.37 6.14m4.62 10.37c1 4 3.35 3.25 2.64-.36a52.86 52.86 0 0 1-1.21-5.73c-.38-5.16 2-11.35 7.65-12.9-7.54 1.55-10.73 12.48-9.07 19m12.32-20.17c-2.53.57-4.12 2.89-4.68 5.26-.66 2.63-.28 5.73 2.09 7.38 3.46 2.53 7.75-.77 7.86-4.33 0-2.17-1.92-6.4-4.67-5.57-2.91.83-4.45 4.8-2.7 7.17a3.45 3.45 0 0 0 6.16-1.45c.05-5-6.05-.67-1.32.46-.11 1.34-2.53 2.48-4.18.67-1.65-2.17-.33-4.85 2-5.93 2.7-1.29 4.34 2.48 4 4.85-.44 2.89-3.41 5.37-6.49 3.77-2.31-1.24-2.42-4.64-1.81-6.81s1.81-4.18 4-4.85c1.81-.52 5.11-.72 5.94.62-.58-1.12-2.2-1.5-3.79-1.5a10.16 10.16 0 0 0-2.31.26m-13.86-.72c-1 2.58 1 3.56 3.19 3.46 2.75-.21 5.77-2.32 8.8-3.15-3.13.26-5.33 2.58-8.47 2.53-2.15-.05-4.29-.67-2.7-3 .83-1.13 3.08-1.34 3.3-.83-.71.77-.77 1.44-.28 1.91 1.27 1.29 3.9-.36 2.59-2a3.41 3.41 0 0 0-2.76-1.28 3.86 3.86 0 0 0-3.67 2.31m6.6-10.78a4 4 0 0 0-1.92 2.84c-.38 2.63 1.92 4.59 4.4 5.83s6 1.24 8.52 1.6a34.78 34.78 0 0 1-8.25-2 7.65 7.65 0 0 1-4-3.61c-.44-1.19-.11-2.58 1.49-4a4.34 4.34 0 0 1 4.78-.05 10.85 10.85 0 0 1 3.19 3c1.92 2.89-1.43 4.59-3.85 3.2-2.2-1.29-1.15-4 .05-2.94.44 1.86 1.71 1.7 2.37 1 1.38-1.39-1-2.48-2.25-2.63-2.59-.41-3.41 3-.88 4.85 2.81 1.91 7.59.26 5.5-3.61a9 9 0 0 0-3.68-3.51 6.5 6.5 0 0 0-3-.84 4.31 4.31 0 0 0-2.47.79" fill="none"/></clipPath><clipPath id="Q" transform="translate(-91.47 -6.19)"><path d="M290.54 67.74c.27 1.75 1.1 4.85 2.53 4.54 1-.26.61-1.86-.28-1.29-.88-.41-1.27-2-1.65-3.35a6.75 6.75 0 0 0-2.31-4.13 7.61 7.61 0 0 1 1.71 4.23m-5.88 2.17c.22 1.13 1.76 1.75 2.2.21.55-2-1.59-7.22-3.63-8.1 2.47 1.75.88 5.57 1.43 7.89m8.14-3.3c.71 1.86 2 1.08 1.26-.41-1-2.32-3.13-4.23-8-5.37 4.73 2.06 5.55 2.63 6.77 5.78M288.62 71a52.05 52.05 0 0 1-.55 5.83c-.22 3.66 2.2 4.18 2.7.1.88-6.66-3.63-17.18-11.27-17.9 5.77.93 8.91 6.81 9.13 12M270.14 60.1c.72-1.44 4-1.6 5.83-1.24 2.26.41 3.74 2.32 4.56 4.38s1.15 5.47-1 6.91c-2.86 2-6.11-.21-6.93-3-.66-2.32.55-6.29 3.41-5.26 2.42.88 4 3.35 2.7 5.67-1.49 2-4 1.14-4.29-.21 4.56-1.65-2-5.31-1.32-.31a3.45 3.45 0 0 0 6.27.77c1.48-2.53-.55-6.29-3.58-6.86-2.86-.52-4.23 3.92-4 6 .55 3.56 5.17 6.35 8.36 3.51 2.09-1.91 2.14-5 1.21-7.58-.88-2.27-2.7-4.39-5.28-4.75a10.66 10.66 0 0 0-1.12-.06c-1.92 0-4.29.47-4.88 2m13.09-4.44c-1.1 1.75 1.71 3.15 2.86 1.7.39-.52.33-1.19-.55-1.86.16-.57 2.47-.62 3.41.46 1.87 2.11-.22 3-2.31 3.25-3.13.36-5.61-1.65-8.69-1.65 3 .52 6.32 2.32 9.07 2.22 2.14-.1 4-1.29 2.8-3.77a4 4 0 0 0-3.55-1.92 3.49 3.49 0 0 0-3 1.56m-6.71-9a9.1 9.1 0 0 0-3.24 3.92c-1.59 4 3.36 5.16 5.88 2.94 2.31-2.06 1.1-5.37-1.48-4.69-1.16.31-3.41 1.6-1.87 2.84.71.62 2 .62 2.2-1.24 1.1-1.24 2.47 1.39.38 2.89-2.2 1.65-5.72.31-4.18-2.78a11.33 11.33 0 0 1 2.8-3.35 4.43 4.43 0 0 1 4.79-.46c1.76 1.29 2.25 2.63 1.92 3.82a7.12 7.12 0 0 1-3.52 4 33.06 33.06 0 0 1-8 2.84c2.47-.62 6.11-1 8.3-2.48s4.34-3.71 3.63-6.29a3.91 3.91 0 0 0-2.2-2.58 4.56 4.56 0 0 0-2.11-.53 5.93 5.93 0 0 0-3.29 1.15" fill="none"/></clipPath><clipPath id="R" transform="translate(-91.47 -6.19)"><path d="M137.83 176.12c-2.69 1-5.17 3-5.33 5.83-.22 4.13 5.11 5.57 8.3 3.61 1.92-1.19 4.56-5.11 2.25-6.76s-6.76-.72-7.81 2c-1.1 2.84 2 5.26 4.73 3.92 4.45-2.79-2.86-5.06-1.1-.72a2.31 2.31 0 0 1-3-2.89c1-2.48 4.07-3 6.32-1.81 2.69 1.34.28 4.75-2 5.83-2.8 1.24-6.65.41-7-2.89-.22-2.53 2.69-4.54 4.89-5.26s4.73-1 6.54.31c1.48 1.08 3.52 3.56 2.86 5 1-1.7-.93-4.23-2.42-5.47a6 6 0 0 0-3.87-1.25 9.9 9.9 0 0 0-3.38.63m-9.35.88c-.93 1.29.55 2 1.59 1.39 2.2-1.14 4.29-4.8 7.26-4.18A3.43 3.43 0 0 0 136 174c-2.5 0-6.47 1.56-7.52 3m-8.08 1.7c-3 3-.94 4.44 1.81 1.86 1.54-1.39 2.75-3 4.4-4.23 4.29-3.25 11.05-4.85 15.62-1.39a10.57 10.57 0 0 0-7.1-2.34 22.26 22.26 0 0 0-14.73 6.1m7.26-6.45c-1.32.67-2.86 1.39-3.79 1.08-.11-1-1.71-.26-1.21.67.72 1.19 3.74-.26 5.28-1.19a8.94 8.94 0 0 1 4.56-1.6 5.37 5.37 0 0 0-.94-.08 9 9 0 0 0-3.9 1.11m-.77-3c-1.65.52-1.43 1.91.55 1.19 3.3-1.24 4.29-1 9 1a12.92 12.92 0 0 0-7.07-2.55 8.48 8.48 0 0 0-2.5.38m10.94-3.61c-2.81.72-2.48 2.84-1.16 4.44 1.71 2 5.28 3.15 7.7 5-2-2.22-5.23-2.58-7-5.06-1.21-1.7-1.87-3.71 1.1-3.77 1.43-.05 2.91 1.6 2.58 2.06-1.1-.1-1.7.26-1.87.88-.38 1.7 2.58 2.79 3.25.88.83-2.29-1.42-4.5-3.74-4.5a3.5 3.5 0 0 0-.88.11m9.68-.93c-2.53 1.24-2.91 4.13-2.64 6.76.28 2.48 2.31 5.31 3.41 7.48a32.18 32.18 0 0 1-2.91-7.48 6.93 6.93 0 0 1 .93-5.16c.77-1 2.14-1.55 4.35-1.13a3.88 3.88 0 0 1 2.75 3.66 9.75 9.75 0 0 1-.88 4.23c-1.49 3.09-4.84 1.5-4.95-1.19-.17-2.42 2.8-3.2 2.53-1.6-1.32 1.34-.5 2.27.44 2.37 2 .26 1.59-2.17 1.1-3.2-1.15-2.27-4.62-1-4.78 2.06-.11 3.2 4.07 6 6.27 2.22a8.41 8.41 0 0 0 1-4.9 4.63 4.63 0 0 0-3.08-4.23 5 5 0 0 0-1.67-.3 4.84 4.84 0 0 0-1.9.4" fill="none"/></clipPath><clipPath id="S" transform="translate(-91.47 -6.19)"><path d="M290.38 174.89c-1.49 1.24-3.41 3.77-2.42 5.42-.66-1.39 1.32-3.82 2.86-4.9 1.82-1.34 4.29-1.08 6.54-.36s5.12 2.79 4.89 5.26c-.33 3.3-4.23 4.18-7 2.89-2.25-1-4.68-4.49-2-5.83 2.25-1.13 5.33-.62 6.33 1.81a2.3 2.3 0 0 1-3 2.89c1.76-4.28-5.55-2.06-1.1.77 2.7 1.34 5.83-1.13 4.73-3.92s-5.39-3.77-7.81-2 .33 5.57 2.26 6.76c3.19 2 8.53.52 8.25-3.61-.11-2.73-2.59-4.8-5.28-5.83a9.8 9.8 0 0 0-3.35-.62 5.9 5.9 0 0 0-3.91 1.3m7.75-2.58c3-.62 5.06 3 7.2 4.18 1.1.57 2.59-.1 1.65-1.39s-5.1-3-7.59-3a3.44 3.44 0 0 0-1.27.2m-4.9.72c4.57-3.46 11.33-1.81 15.62 1.44 1.65 1.24 2.86 2.78 4.4 4.18 2.75 2.58 4.79 1.19 1.81-1.86a22.53 22.53 0 0 0-14.79-6.09 10.43 10.43 0 0 0-7 2.33m9.73-3.71a9.45 9.45 0 0 1 4.57 1.6c1.54.93 4.56 2.37 5.28 1.19.49-.88-1.1-1.65-1.21-.62-.94.31-2.47-.46-3.79-1.08a9.49 9.49 0 0 0-4-1.14 5.69 5.69 0 0 0-.82.06m-4 .26c4.73-2 5.72-2.22 9-1 2 .72 2.2-.67.55-1.19A8.64 8.64 0 0 0 306 167a12.63 12.63 0 0 0-7 2.56m-6-1.39c.66 1.91 3.63.83 3.24-.93-.16-.62-.77-1-1.87-.83-.33-.52 1.15-2.12 2.59-2.12 3 .1 2.31 2.12 1.1 3.77-1.76 2.48-5 2.89-7 5.11 2.47-1.86 6-3 7.75-5 1.32-1.6 1.6-3.71-1.15-4.44a3.48 3.48 0 0 0-.87-.11c-2.33 0-4.58 2.25-3.75 4.55m-8.69-5.42c-1.82.62-2.75 2-3 4.18a8.43 8.43 0 0 0 1 4.9c2.2 3.82 6.38 1 6.27-2.22-.17-3-3.63-4.33-4.78-2.06-.55 1-.94 3.46 1 3.25 1-.15 1.82-1 .44-2.42-.22-1.55 2.75-.82 2.59 1.6-.11 2.68-3.52 4.28-5 1.19a10.44 10.44 0 0 1-.82-4.23 3.88 3.88 0 0 1 2.75-3.66c2.2-.41 3.57.16 4.34 1.14a6.93 6.93 0 0 1 .94 5.16 28.57 28.57 0 0 1-3 7.48c1.15-2.17 3.19-5 3.46-7.48s-.11-5.52-2.64-6.71a4.29 4.29 0 0 0-1.85-.42 5.54 5.54 0 0 0-1.78.32" fill="none"/></clipPath><clipPath id="T" transform="translate(-91.47 -6.19)"><path d="M128.21 307.21c-1.76.15-1.6 2 .05 2.22 1.13.16 1.63-.47 1.58-1.1a1.34 1.34 0 0 0-1.46-1.13h-.17m-4.35-1.2c-1.65.31-1.15 1.91.38 2.06 1.28.13 1.62-.45 1.42-1a1.66 1.66 0 0 0-1.53-1.05h-.28m1.59-.52c1 1.39 3.63.1 2.15-1.6a1.36 1.36 0 0 0-1-.48 1.29 1.29 0 0 0-1.11 2.08" fill="none"/></clipPath><radialGradient id="U" cx="159.62" cy="306.51" r="3.39" gradientTransform="matrix(1.05 0 0 1 -132.4 -6.19)" xlink:href="#a"/><clipPath id="V" transform="translate(-91.47 -6.19)"><path d="M104.89 219.46c1.1 1.81 3.19 0 1.81-1.39a1.44 1.44 0 0 0-1-.52c-.81 0-1.37 1-.78 1.91m1.54-4.49a1.38 1.38 0 1 0 2.69.57 1.28 1.28 0 0 0-1.37-1.53 1.35 1.35 0 0 0-1.33 1m-2.91.67c1.37 2.11 2.8-.46 1.54-1.55a1.5 1.5 0 0 0-.91-.37c-.8 0-1.21 1-.63 1.92" fill="none"/></clipPath><radialGradient id="W" cx="140.59" cy="217.49" r="3.44" gradientTransform="matrix(1.05 0 0 1 -132.4 -6.19)" xlink:href="#a"/><clipPath id="X" transform="translate(-91.47 -6.19)"><path d="M170.66 322.68c2.09.77 2.53-1.86.49-2.17h-.33c-1.5 0-1.61 1.66-.16 2.19m-3.66-2.18c2.48.83 1.87-2 .16-2.06h-.08c-1.62 0-1.49 1.61-.09 2.06m1.81-2.22c.66 1.55 3.52.83 2.47-1.13a1.3 1.3 0 0 0-1.18-.72 1.33 1.33 0 0 0-1.29 1.85" fill="none"/></clipPath><radialGradient id="Y" cx="201.01" cy="319.95" r="3.59" gradientTransform="matrix(1.05 0 0 1 -132.4 -6.19)" xlink:href="#a"/><clipPath id="Z" transform="translate(-91.47 -6.19)"><path d="M217.62 356.58c-1.81.1-1.71 2 0 2.22 1.12.19 1.63-.45 1.56-1.09a1.33 1.33 0 0 0-1.45-1.13h-.11m-4.34-1.24c-1.7.26-1.21 1.86.33 2.06 1.29.16 1.63-.44 1.44-1a1.62 1.62 0 0 0-1.5-1.06h-.28m1.6-.46c1 1.39 3.63.1 2.14-1.65a1.29 1.29 0 0 0-1-.48 1.33 1.33 0 0 0-1.14 2.13" fill="none"/></clipPath><radialGradient id="aa" cx="245.04" cy="355.86" r="3.4" gradientTransform="matrix(1.05 0 0 1 -132.4 -6.19)" xlink:href="#a"/><clipPath id="ab" transform="translate(-91.47 -6.19)"><path d="M263.76 322.37c-.93 1.39.66 2.12 1.82 1.19 1.31-1.09.48-1.84-.48-1.84a1.57 1.57 0 0 0-1.33.65m3.85-2.22c-1.1 1.34.49 2.48 1.76 1.5s.43-2.08-.6-2.08a1.52 1.52 0 0 0-1.16.58m-3.19.83a1.31 1.31 0 1 0 .11-2.58h-.11a1.29 1.29 0 1 0 0 2.58" fill="none"/></clipPath><radialGradient id="ac" cx="293.97" cy="321.44" r="3.46" gradientTransform="matrix(1.05 0 0 1 -132.4 -6.19)" xlink:href="#a"/><clipPath id="ad" transform="translate(-91.47 -6.19)"><path d="M312.71 309.89c-.88 1.34.71 2.06 1.87 1.14 1.3-1.05.49-1.82-.49-1.82a1.63 1.63 0 0 0-1.37.68m3.85-2.22c-1.1 1.34.49 2.48 1.81 1.45s.44-2.06-.59-2.06a1.61 1.61 0 0 0-1.22.62m-3.19.77c1.81.26 2.53-2.48.17-2.58h-.11a1.29 1.29 0 0 0-.06 2.58" fill="none"/></clipPath><radialGradient id="ae" cx="340.81" cy="308.91" r="3.46" gradientTransform="matrix(1.05 0 0 1 -132.4 -6.19)" xlink:href="#a"/><clipPath id="af" transform="translate(-91.47 -6.19)"><path d="M318 260.06c.27 1.55 2 1.13 2.25-.31.16-1-.25-1.42-.76-1.42a1.61 1.61 0 0 0-1.49 1.73m-2.15-3.56c-1.32 1 .11 3 1.71 2a1.3 1.3 0 0 0-.63-2.42 1.83 1.83 0 0 0-1.08.41m3.57-.52c.05 1.7 2.09 1.6 2.37.05.19-1-.4-1.51-1-1.51a1.34 1.34 0 0 0-1.32 1.46" fill="none"/></clipPath><radialGradient id="ag" cx="343.4" cy="258.06" r="3.55" gradientTransform="matrix(1.05 0 0 1 -132.4 -6.19)" xlink:href="#a"/><clipPath id="ah" transform="translate(-91.47 -6.19)"><path d="M331 218.58c-.17 1.6 1.59 1.6 2.2.31.52-1.13 0-1.61-.63-1.61a1.58 1.58 0 0 0-1.57 1.3m-1.1-3.92c-1.6.62-.72 2.89 1 2.37a1.29 1.29 0 0 0-.26-2.55 2.09 2.09 0 0 0-.79.17m3.57.36c-.38 1.65 1.6 2.06 2.31.62a1.09 1.09 0 0 0-1-1.74 1.37 1.37 0 0 0-1.35 1.12" fill="none"/></clipPath><radialGradient id="ai" cx="356.76" cy="217.04" r="3.5" gradientTransform="matrix(1.05 0 0 1 -132.4 -6.19)" xlink:href="#a"/><clipPath id="aj" transform="translate(-91.47 -6.19)"><path d="M124.36 253.25a1.22 1.22 0 1 0 2.09-1.13 1.43 1.43 0 0 0-1.13-.68 1.21 1.21 0 0 0-1 1.82m2.25-4.23a1.38 1.38 0 1 0 2.58.93 1.3 1.3 0 0 0-1.32-1.73 1.39 1.39 0 0 0-1.27.81m-3 .26c1 2.27 2.86-.05 1.76-1.29a1.33 1.33 0 0 0-1-.52c-.72 0-1.22.87-.79 1.81" fill="none"/></clipPath><radialGradient id="ak" cx="159.96" cy="251.31" r="3.47" gradientTransform="matrix(1.05 0 0 1 -132.4 -6.19)" xlink:href="#a"/><clipPath id="al" transform="translate(-91.47 -6.19)"><path d="M104.28 253.56c2.15.31 4.18 2 6.16 5.47-.55-1.91-2-7.43-5.88-7.74h-.49c-2.68 0-1 2.09.21 2.29m9.24-2.48c-2.8 2.37-4.34 8.1 1.65 9.13-2.91-1.39-3.57-3.4-2.25-5.26a5.16 5.16 0 0 1 3.35-2.27c1.43-.31 4.4.57 3.46 2.84-1.65 2.22-2.75 1.86-3.08 1.13 1.76.36 1.92-1.55 1-2.37-2.09-2-4.4 1.29-3.36 3 1.87 3.15 7.09.26 7.81-2.11 1-3.19-2.26-5.18-5.3-5.18a5.25 5.25 0 0 0-3.33 1.05m.88-1.55c.55-.31 4.34-.16 6.43 0 2.37.26 1.87-1.55.11-1.7h-.48a17.29 17.29 0 0 0-6.07 1.73m-14.46-2.94c-1.49 2.06 2 2.68 3.41 2.42 4-.41 4.51 2.73 5.77 4.38 0-1.65-2-5.67-3.46-7.07a3.73 3.73 0 0 0-2.68-1 3.82 3.82 0 0 0-3 1.3m11.27 3.92c2.81-2.68 3.3-2.37 8.85-3.15 2.2-.26 2.81-2.27.33-2.58h-.41c-3 0-7.72 3-8.78 5.75m9.57-8.72c-2.15.1-6.55 2.79-6.93 4.8 1.92-2.27 5.61-1.81 7.59-2.94 1.08-.66.73-1.86-.58-1.86h-.08m-16.39.72c-.33.93.28 1.86 1.82 2.73a4.63 4.63 0 0 1 1.65 2.06 20 20 0 0 1 1.54 3.09h.16a8.47 8.47 0 0 0-.44-5 5.61 5.61 0 0 0-2.36-3.15 2.82 2.82 0 0 0-1.37-.48 1 1 0 0 0-1 .74m4.79-1.39c.22 2.42 2.53 3.71 2.14 6.5 1.59-2.06 1.15-5.16-.28-7.27a1.36 1.36 0 0 0-1-.72c-.52 0-.91.57-.84 1.49m7 1.5c1.38-.57 5.66-1.86 6.38-2.89a.7.7 0 0 0-.16-1.13 1.55 1.55 0 0 0-.81-.21c-2 0-5.21 2.84-5.4 4.23m-2.58-3.82c-.94 1.55-.77 4.8-.38 6.09a18.06 18.06 0 0 0 2.91-5.21 1.23 1.23 0 0 0-1.27-1.57 1.48 1.48 0 0 0-1.26.7m9.24-6.19c-.28 2.47-1.82 3.82-3.52 5.83 2.31-.83 6.21-3.2 6.38-5.68.11-1.66-.48-2.4-1.15-2.4s-1.51.82-1.71 2.25" fill="none"/></clipPath><radialGradient id="am" cx="146.33" cy="245.42" r="14.1" gradientTransform="matrix(1.05 0 0 1 -132.4 -6.19)" xlink:href="#a"/><clipPath id="an" transform="translate(-91.47 -6.19)"><path d="M122.93 299.57c-2.8 1.7.11 2.53 1.21 2 2-1 4.67-.77 8.47.88-1.3-1-4.49-3.44-7.43-3.44a4.3 4.3 0 0 0-2.25.6m-6.71-1.08c.16 2.48 3.35 1 4.29-.05 2.86-2.58 5.39-.41 7.42.26-1.1-1.39-5.28-3.4-7.31-3.71a3.77 3.77 0 0 0-.54 0c-2.27 0-4 2.06-3.86 3.55m2.64-7.33c-1.43.05-2 .62-1.71 1.5s1.38 1.34 3.19 1.14a5.41 5.41 0 0 1 2.64.72 24.81 24.81 0 0 1 3.25 1.6l.17-.1a9.66 9.66 0 0 0-3.58-3.71 6.57 6.57 0 0 0-3.54-1.15h-.42m11.14 3.06c-.77 3.46 1.76 8.92 7.2 6.29-3.24.62-5.06-.67-5.22-2.89a4.64 4.64 0 0 1 1.21-3.71c.93-1.08 3.85-2 4.62.31.11 2.68-1 3-1.76 2.68 1.65-.78.55-2.37-.66-2.53-3-.41-2.69 3.51-.71 4.33 3.52 1.44 5.77-3.82 4.78-6.14a3.73 3.73 0 0 0-3.68-2.35c-2.5 0-5.3 1.75-5.78 4m3.79-6.86c-2 1.19-4.12 5-4.12 5.11.22-.57 3.35-2.58 5.17-3.66 1.51-.86 1-1.73 0-1.73a2.14 2.14 0 0 0-1 .28m-13.69 1.39c1.71 1.81 4.4 1.55 5.88 4-.11-2.58-2.42-4.8-4.9-5.62a2.23 2.23 0 0 0-.76-.16c-.93 0-1.12.89-.23 1.81m11.27-3.46c-2.53 1.39-4.56 6.91-3.58 9.8.44-3.77 1-3.77 5-7.53 1.21-1.18 1-2.61-.25-2.61a2.58 2.58 0 0 0-1.18.34m-9.24-.93c.22 1.8 2.47 4.28 3.63 5.05a16.36 16.36 0 0 0-1.1-5.78 1.25 1.25 0 0 0-1.16-.79 1.36 1.36 0 0 0-1.37 1.51m7.59-1.65c-1.59 1.29-3.41 5.93-2.42 7.74.11-2.89 3.3-4.59 4.12-6.66.35-.83-.12-1.44-.79-1.44a1.5 1.5 0 0 0-.92.35m-.72-3.46c-2.14.15-3.24 5.31-2.36 6.65.72-1.19 3.3-4.64 3.19-5.88 0-.52-.24-.78-.69-.78H129m-3.52-5.06c1.32 2.11 1 4 1 6.65 1.27-2 2.8-6.09 1.38-8.15-.72-1-1.42-1.42-2-1.42-1 0-1.4 1.35-.4 2.91" fill="none"/></clipPath><radialGradient id="ao" cx="161.74" cy="287.31" r="13.94" gradientTransform="matrix(1.05 0 0 1 -132.4 -6.19)" xlink:href="#a"/><clipPath id="ap" transform="translate(-91.47 -6.19)"><path d="M163.89 340.84c-1.37 2.89 1.54 2 2.15 1 1-1.81 3.41-3 7.59-3.66-.65 0-1.66-.13-2.8-.13-2.59 0-5.83.45-6.94 2.81m-4.62-2.63a3.63 3.63 0 0 0-1.65 5.21c1.59 2 3.35-.93 3.57-2.27.88-3.66 4.23-3.1 6.32-3.66a7.35 7.35 0 0 0-2.13-.24 19.38 19.38 0 0 0-6.11 1m-3.74-2.27c-1.15.83-1.32 1.6-.55 2.17s2 .36 3.35-.72a5.52 5.52 0 0 1 2.59-.77 29.86 29.86 0 0 1 3.63-.36l.11-.15a10 10 0 0 0-5.17-1.24h-.31a5.77 5.77 0 0 0-3.65 1.09m-.53-4.52c-1.59.31-1.37 1.5.17 1.91a7.77 7.77 0 0 0 3.17 0 6.73 6.73 0 0 1 4.09.25 7 7 0 0 0-5.54-2.32 8.81 8.81 0 0 0-1.89.2m-.71-2.79c1.21 1.34 4.56 2.22 6 2.27a18.64 18.64 0 0 0-4.29-4.23 1.55 1.55 0 0 0-.81-.25 1.31 1.31 0 0 0-.9 2.21m12.37 4.08c1.38 3.3 6.71 6.55 9.68 1.55-2.31 2.17-4.57 2.06-6 .26a4.81 4.81 0 0 1-1.21-3.71c.22-1.39 2-3.66 4.07-2.12 1.7 2.17.93 3 .11 3.1.93-1.44-.88-2.22-2-1.7-2.7 1.19-.16 4.33 2 4 3.74-.62 2.53-6.19.39-7.63a4.06 4.06 0 0 0-2.25-.71c-3.24 0-5.93 4.19-4.68 7m-.88-7.63c-1 2-.49 6.24-.44 6.35-.11-.57 1.26-3.87 2.15-5.67.55-1.12.18-1.67-.38-1.67a1.61 1.61 0 0 0-1.32 1m-3.24-.46c-1.26 2.42.22 8.1 2.75 10-1.76-3.35-1.27-3.66-.22-8.82.24-1.3-.39-2.25-1.16-2.25-.46 0-1 .33-1.37 1.11m-2.91-1.34c-.55 1.91.66 6.71 2.58 7.69-1.65-2.42 0-5.52-.49-7.69a1.12 1.12 0 0 0-1-.91 1.15 1.15 0 0 0-1.05.91m-2.79-2.61c-1.71 1.19.49 6.09 2 6.76-.11-1.39 0-5.57-.82-6.6a.84.84 0 0 0-.63-.37.83.83 0 0 0-.52.22m-5.88-2.42c2.37 1.08 3.19 2.89 4.73 5.06-.11-2.32-1.21-6.5-3.68-7.48a4.6 4.6 0 0 0-1.66-.38c-1.73 0-1.54 1.82.61 2.81" fill="none"/></clipPath><radialGradient id="aq" cx="194.79" cy="330.51" r="14.19" gradientTransform="matrix(1.05 0 0 1 -132.4 -6.19)" xlink:href="#a"/><clipPath id="ar" transform="translate(-91.47 -6.19)"><path d="M222.46 350a5.76 5.76 0 0 0-2.86 2.79c-.55 1.24-.28 2 .71 2.11s1.87-.57 2.53-2.17a4.77 4.77 0 0 1 1.82-1.91c.6-.46 1.54-1.08 3-2v-.16a10.32 10.32 0 0 0-5.17 1.34m1.6 3a3.62 3.62 0 0 0 1.37 5.26c2.42 1 2.42-2.37 1.87-3.61-1.15-3.61 2-4.7 3.52-6.14-1.76.31-5.55 2.89-6.76 4.49m-7.26-3.87c-1.21 1.08-.38 2 1.16 1.6 2.53-.67 3.46-3 6.43-3.2a5.87 5.87 0 0 0-2.27-.43 8.35 8.35 0 0 0-5.32 2m12.7 4c.33 3.15 2.37 1 2.31-.15-.05-2.06 1.32-4.23 4.62-6.71-1.93.83-7.37 3.15-6.93 6.86m-14.79-6c1.76.57 5.17-.21 6.43-.83a20.56 20.56 0 0 0-6-1.65H215a1.26 1.26 0 0 0-.32 2.48m1.82-7.17c.49 2 4.12 5.52 6.27 5.52-2.69-1.39-2.91-4.85-4.51-6.45a1.29 1.29 0 0 0-.92-.45c-.59 0-1.06.55-.84 1.38m-3.63-.88c-.83 1.8 3.63 5.06 5.28 5-.83-1.19-3-4.85-4.18-5.36a1.35 1.35 0 0 0-.47-.1.63.63 0 0 0-.63.51m6.82.67c.16 2.73 4.51 6.91 7.7 7.43-3.35-2.12-3.08-2.63-4.89-7.58a2.11 2.11 0 0 0-1.73-1.55c-.62 0-1.13.54-1.07 1.7m3.08-1.08c.17 2.27 2.86 5.67 3 5.72-.44-.46-1-4-1.21-5.93-.1-1-.48-1.35-.87-1.35s-1 .66-.94 1.56m-16.66-1.55c-3.63.41-2.64 2.79.39 2.63 2.64-.15 4.29 1 6.76 2.12-1.26-1.87-4.21-4.77-6.77-4.77h-.37m21.45 7.79c2.92 2.17 9.24 2.53 9.19-3.2-.88 2.94-2.86 3.92-5.06 3a5 5 0 0 1-3-2.63c-.61-1.29-.22-4.18 2.31-3.77 2.64 1.08 2.42 2.22 1.76 2.63 0-1.7-2-1.5-2.64-.52-1.7 2.27 2.09 3.82 3.74 2.53 3-2.32-1-6.55-3.63-6.81h-.42c-4.57 0-5.31 6.48-2.27 8.74" fill="none"/></clipPath><radialGradient id="as" cx="249.13" cy="347.69" r="14.21" gradientTransform="matrix(1.05 0 0 1 -132.4 -6.19)" xlink:href="#a"/><clipPath id="at" transform="translate(-91.47 -6.19)"><path d="M266 336.15c-1.43.83-.38 2.63 1.16 2.27 1.81-.46 4.12-2.94 4.78-4.13a21.28 21.28 0 0 0-5.94 1.86m-12-1.24c-2.75 2.27-.44 3.72 1.93 1.91 2-1.55 4.12-1.5 6.82-1.91a15.72 15.72 0 0 0-5.23-1 5.34 5.34 0 0 0-3.51 1m16.13 4.09c-.33 1.5.94 1.81 1.93.67 1.71-1.86 1-4.33 3.3-6.09-2.69.46-4.67 3-5.22 5.42m5.17-2.37a5.11 5.11 0 0 0-.61 3.82c.28 1.29 1 1.75 1.87 1.34s1.15-1.5.71-3.15a4.39 4.39 0 0 1 .33-2.53 24.35 24.35 0 0 1 1.15-3.25l-.11-.16a9.23 9.23 0 0 0-3.36 3.92m-13.91-4.69c-.55.1-.83.41-.66.93.44 2 6.1 2.17 7.37 1.13-1.29-.43-4.88-2.09-6.42-2.09h-.29m17.1 6.29c-.05 2.43 2.7 3.87 4.29 3.56 2.64-.52.55-3.25-.66-4-3.13-2.27-1.26-4.9-.88-7-1.27 1.24-2.75 5.42-2.75 7.38m-14.24-6.6c1.59 1.29 6.76 2.27 8.52 1.08-3.08.36-5.34-2.37-7.64-2.84h-.31c-1.1 0-1.53 1-.57 1.78m2.47-1.91c1.82 2.17 8 3.2 10.84 1.86-4 .1-4.13-.41-8.63-3.51a2.92 2.92 0 0 0-1.58-.53c-1.1 0-1.71.91-.62 2.18m16.27 5.73c2.2 2.37 2.64-.46 1.87-1.44-1.32-1.65-1.54-4.18-.38-8-1 1.75-4.07 6.65-1.49 9.44m-14.41-8.2c1.59 1.7 5.88 3 6 3-.6-.16-3.24-2.68-4.62-4.23a1.8 1.8 0 0 0-1.21-.73c-.72 0-.93 1.06-.17 1.92m4.62-6.09c-4.29 2.32-.82 8.36 3.19 8.56 3.74.15 9.13-3 5.55-7.63 1.1 2.89.05 4.8-2.26 5.26a5.56 5.56 0 0 1-4.12-.52c-1.26-.77-2.69-3.3-.38-4.39 2.86-.51 3.35.52 3.08 1.24-1-1.39-2.53-.16-2.53 1 0 2.79 4.12 2 4.67-.05.74-2.59-2.38-4-5-4a4.86 4.86 0 0 0-2.23.46" fill="none"/></clipPath><radialGradient id="au" cx="295.73" cy="331.4" r="13.88" gradientTransform="matrix(1.05 0 0 1 -132.4 -6.19)" xlink:href="#a"/><clipPath id="av" transform="translate(-91.47 -6.19)"><path d="M293.29 305.45c-1.48 3.15 1.21 3.56 2.64 1 1.21-2.17 3.08-2.94 5.44-4.28-2.47 0-7 1-8.08 3.25m5.5-5.47c-.44.31-.55.67-.22 1.08 1.27 1.6 6.54-.36 7.26-1.75-1.43.1-5.94-.1-7 .67m6.05 2.11c-.94 1.29.77 2.53 2 1.6 1.48-1.08 2.53-4.23 2.58-5.57a19 19 0 0 0-4.62 4m-.35-5.31a9.88 9.88 0 0 0-3.12-.11c-1.32.26-1.37 1.55-.05 1.91 2 .62 7.15-.46 8.25-2.22-1.61.86-3.41.64-5.08.42m5.35 6.34c.38 1.5 1.59 1.29 2-.1.71-2.37-.94-4.33.44-6.81-2.25 1.45-3 4.49-2.47 6.91m3.69-4.13a5.5 5.5 0 0 0 1.1 3.71c.83 1.08 1.65 1.24 2.31.52s.44-1.81-.71-3.15a4.32 4.32 0 0 1-.77-2.42 26.43 26.43 0 0 1-.33-3.41l-.17-.1a9 9 0 0 0-1.43 4.85m-10.78-3.1c2.58 1.29 8.63-.05 10.72-2.37-3.63 1.6-4 1.13-9.46.05a3.62 3.62 0 0 0-.68-.06c-1.76 0-2.55 1.42-.59 2.38m14.35 3.35a4.15 4.15 0 0 0 5.55 1.6c2.14-1.44-.93-3.15-2.36-3.35-3.85-.88-3.25-4-3.79-6-.61 1.6-.17 6 .6 7.79m-13.75-6.34c2.14 1 6.65.57 6.77.46-.66.15-4.12-1.19-6-2.06A2.61 2.61 0 0 0 303 291c-1.08 0-.93 1.3.34 1.88M320 295c3 1.34 2.2-1.45 1.1-2-1.92-1-3.19-3.25-3.74-7.17-.22 2-.94 7.58 2.64 9.18m-6.49-6.14a5.79 5.79 0 0 1-4 1c-1.43-.21-3.9-2-2.2-3.82 2.37-1.55 3.3-.83 3.35-.05-1.6-.93-2.42.83-1.92 1.86 1.26 2.58 4.62.26 4.29-1.75-.61-3.56-6.54-2.48-8.08-.52-3 3.77 2.8 8 6.6 6.65 3.52-1.29 7-6.19 1.76-9.08 2.31 2.22 2.15 4.33.22 5.67" fill="none"/></clipPath><radialGradient id="aw" cx="333.84" cy="295.78" r="14.56" gradientTransform="matrix(1.05 0 0 1 -132.4 -6.19)" xlink:href="#a"/><clipPath id="ax" transform="translate(-91.47 -6.19)"><path d="M309.84 252.58c-1.54 3 1.1 3.56 2.58 1.08 1.27-2.17 3.19-2.84 5.55-4.18h-.21c-2.51 0-6.81.89-7.93 3.1m5.67-5.37a.7.7 0 0 0-.28 1.08c1.27 1.6 6.54-.15 7.32-1.55h-2.92c-1.67 0-3.47.09-4.12.51m6 2.27c-1 1.29.66 2.58 2 1.65 1.49-1 2.64-4.13 2.75-5.47a18.61 18.61 0 0 0-4.73 3.82m-.28-5.3a10.31 10.31 0 0 0-3.07-.22c-1.32.26-1.43 1.5-.11 1.91 2 .67 7.2-.26 8.3-2-1.63.87-3.44.6-5.12.32m5.23 6.44c.33 1.55 1.6 1.39 2-.05.82-2.32-.83-4.33.66-6.76-2.31 1.34-3.13 4.39-2.69 6.81m3.79-4a5.25 5.25 0 0 0 1 3.77c.82 1.08 1.65 1.29 2.25.57s.55-1.75-.6-3.15a4.55 4.55 0 0 1-.66-2.48 22.67 22.67 0 0 1-.22-3.41l-.17-.1a9.22 9.22 0 0 0-1.59 4.8m-10.67-3.35c2.53 1.34 8.63.16 10.78-2.11-3.68 1.55-4 1.08-9.46-.16a3.32 3.32 0 0 0-.79-.1c-1.64 0-2.4 1.38-.53 2.37m14.3 3.71a4.08 4.08 0 0 0 5.45 1.81c2.2-1.39-.83-3.2-2.26-3.46-3.85-1-3.13-4.13-3.57-6.09-.71 1.55-.38 5.93.38 7.74m-13.64-6.71c2.14 1 6.65.77 6.77.67-.61.16-4.07-1.34-5.94-2.27a2.69 2.69 0 0 0-1.08-.28c-1.08 0-1 1.27.25 1.88m16.61 2.53c3 1.39 2.25-1.39 1.15-2-1.87-1.08-3.08-3.3-3.52-7.27-.28 2-1.15 7.58 2.37 9.28m-6.27-6.29a5.7 5.7 0 0 1-4.07.93c-1.43-.26-3.79-2.06-2.09-3.92 2.42-1.45 3.3-.72 3.36.05-1.54-.93-2.42.77-1.92 1.86 1.1 2.58 4.56.36 4.29-1.7-.44-3.51-6.44-2.63-8-.72-3.08 3.71 2.53 8 6.32 6.81 3.57-1.13 7.26-6 2.09-9 2.2 2.32 2 4.44.05 5.73" fill="none"/></clipPath><radialGradient id="ay" cx="349.72" cy="243.16" r="14.5" gradientTransform="matrix(1.05 0 0 1 -132.4 -6.19)" xlink:href="#a"/><clipPath id="az" transform="translate(-91.47 -6.19)"><path d="M142.45 320.57c-2.75.26-5.66 2.89-5.44 5.83.77-2.42 1.92-3.4 4.84-3.92 4.29-.77 5.39 4 2.09 4.13l-.05-.05c.55-1 .93-2.79-.66-3.2a2.3 2.3 0 0 0-3 2.42 3.56 3.56 0 0 0 2 3 4.45 4.45 0 0 0 6.49-4.18c-.15-2.86-2.85-4.06-5.48-4.06h-.79m-4.84-.31c1.26-1.34 5.72-4 8.14-.77a1.61 1.61 0 0 0 2.86-.77c.05-.93-.77-1.75-2.58-2.06a9.49 9.49 0 0 0-1.26-.08 8.23 8.23 0 0 0-7.15 3.7m-4.62-4.53c2.2 2.68 2.47 4.85 2.8 7.84 0-2.37.6-7.07-1.59-8.82a2.29 2.29 0 0 0-1.25-.55c-.58 0-.71.59 0 1.53m11.71-1.91c-1.92.31-4.78 1.55-5.61 2.47 2.15-1 2.92-1.55 5.28-.93.82.21 2.25.88 2.58-.31.35-1-.78-1.27-1.67-1.27a4.77 4.77 0 0 0-.58 0m-.57-2.77a15.39 15.39 0 0 0-4.18 3.09 17 17 0 0 1 4.62-1.75 4.49 4.49 0 0 1 .74 0c.85.06 1.86.11 1.73-1.09-.05-.53-.44-.73-1-.73a5.85 5.85 0 0 0-1.94.47m-12 .67c2.64 2.17 3.79 3.82 4.29 7.48.5-2.22-.88-7.22-3.19-9a2.75 2.75 0 0 0-1.55-.66c-.89 0-1 1 .45 2.21m2.69-1.29c1.82 2 2.26 2.89 2.26 5.88.55-1.13.55-5.42-.88-6.86a1.89 1.89 0 0 0-1.23-.56c-.66 0-1 .58-.14 1.54m10.56-2.79a11.36 11.36 0 0 0-3.9 3.15 5.17 5.17 0 0 1 3.79-1.6c.72.05 1.43.36 1.65-.57.21-.71-.42-1.09-1-1.09a1.24 1.24 0 0 0-.52.11m-8.19 1.13c.55 1.19 1.93 3 .88 5.83 1.1-1.5 1.87-5.21.6-6.66a1.25 1.25 0 0 0-.93-.53c-.53 0-.9.53-.55 1.36m2.25-2c.22 1.08.72 2.94.5 3.87.33-.57 1.32-2.89 1-4.13a1 1 0 0 0-.91-.84c-.4 0-.74.35-.63 1.1m3.13-1.74a8.44 8.44 0 0 1-1 3.87 9 9 0 0 0 2.2-3.25c.49-1.1.07-1.87-.41-1.87s-.69.37-.8 1.25m4.84-6.19c.22.62 1.48.31 2.09.72 2.25 1.44-6.27 8.15-7.1 9.18 1.87-1.7 9.74-6.55 8.36-9.75a3.31 3.31 0 0 0-2.59-1.41c-.66 0-1.09.35-.77 1.25" fill="none"/></clipPath><radialGradient id="aA" cx="174.25" cy="314.01" r="13.71" gradientTransform="matrix(1.05 0 0 1 -132.4 -6.19)" xlink:href="#a"/><clipPath id="aB" transform="translate(-91.47 -6.19)"><path d="M183.53 348.27c-1.81.1-2 1.19-.16 1.5 3.58.52 5.39 1.91 7.81 3.87-1.73-1.67-4.67-5.37-7.47-5.37h-.17m-4.12-2.63c-2.53.16-2.53 1.91.33 1.8 3.52-.1 5.55.31 8.58 2.63-1.17-1.84-5.6-4.45-8.58-4.45h-.33m14.35 1.55c-1.82 2-2 5.78.33 7.74-1.21-2.22-1.1-3.71.66-6 2.47-3.3 6.82-.57 4.51 1.65h-.06c-.38-1.08-1.37-2.63-2.86-1.91-1.71.82-1.54 2.58-.38 3.77a3.92 3.92 0 0 0 3.63.83c3.9-1 4-5.21 1.65-7.22a4.21 4.21 0 0 0-2.87-1.12 6.64 6.64 0 0 0-4.61 2.26m-13-2.42a8 8 0 0 1 5.94 2.79c-.44-1.13-3.63-4.23-5.72-4.33h-.16c-1.48 0-2.08 1.35-.06 1.55m12.7-2.68a7.28 7.28 0 0 0-3.41 8c-.11-1.86 1.1-6.65 5.28-5.88a1.49 1.49 0 0 0 1.48-2.42 1.66 1.66 0 0 0-1.27-.51 3.75 3.75 0 0 0-2.09.77m-12.19-.04c1.27.52 3.57.93 4.9 3.66-.28-1.81-2.47-5-4.45-5.21h-.3c-1.09 0-1.41 1-.15 1.57m9.24-1.24c-1.26 1.5-2.37 4.23-2.25 5.42.77-2.06.93-3 3.13-4.08.71-.36 2.2-.83 1.65-1.91a.88.88 0 0 0-.79-.52 2.77 2.77 0 0 0-1.74 1.09m-9.13-1.7a14.43 14.43 0 0 1 3.24 2.53c-.22-.67-1.15-2.94-2.31-3.66a1.27 1.27 0 0 0-.67-.2c-.72 0-1.2.7-.26 1.34m6.54.16a15 15 0 0 0-.77 4.9 15.57 15.57 0 0 1 2.09-4.23c.55-.62 2.25-1.34 1-2.37a.87.87 0 0 0-.56-.22c-.66 0-1.28.91-1.75 1.93m-1.6-3.3c-.55 1.34-.82 4.08-.49 4.8.11-1.81.6-2.89 1.59-3.61.55-.41 1.26-.67.77-1.5a.84.84 0 0 0-.75-.44 1.29 1.29 0 0 0-1.12.75m-4-.05c.77 1 1.87 2.12 2.09 3.41.28-.88-.38-2.73-.77-3.77-.34-.82-.91-1.19-1.32-1.19s-.77.58 0 1.55m-1.1-7.63c.66.31 1.38-.72 2-.82 2.75-.41 1.48 10 1.65 11.25.11-2.48 2.25-11-1.1-12.43a1.89 1.89 0 0 0-.71-.12c-1.53 0-3.7 1.25-1.87 2.13" fill="none"/></clipPath><radialGradient id="aC" cx="220.95" cy="340.52" r="13.6" gradientTransform="matrix(1.05 0 0 1 -132.4 -6.19)" xlink:href="#a"/><clipPath id="aD" transform="translate(-91.47 -6.19)"><path d="M246.49 350.85c-1.54.88-1.21 2 .61 1.39 3.46-1.08 5.72-.62 8.8.05-1.8-.59-4.87-1.89-7.33-1.89a4.33 4.33 0 0 0-2.07.45m-4.95-.57c-2.15 1.29-1.27 2.84 1.21 1.5a11.41 11.41 0 0 1 8.91-1.39 12.7 12.7 0 0 0-5.45-1 10 10 0 0 0-4.67.93m.22-2.84c-1.48.67-1.37 2.22.55 1.5 2.59-.93 3.63-1 6.71-.1a11.93 11.93 0 0 0-5.74-1.65 4 4 0 0 0-1.52.25m-.71-2.73c-1.27.41-1.16 1.7.33 1.6s3.69-.72 6.16 1.13a8.64 8.64 0 0 0-5.65-2.86 2.71 2.71 0 0 0-.84.12m-.94-1.08c1.15.21 3.19.36 4.07.88-.5-.52-2.48-2.12-3.85-2.27h-.14c-1.11 0-1.56 1.2-.08 1.4m14.9 1.86a5.93 5.93 0 0 0 4.12 6.71c-2.2-1.5-2.8-2.84-2.37-5.57.61-4.08 5.78-3.51 4.79-.52v.05c-.88-.83-2.53-1.75-3.46-.46-1.15 1.45-.16 2.94 1.48 3.46a3.78 3.78 0 0 0 3.63-.83c2.91-2.63.94-6.34-2.09-7.12a4.91 4.91 0 0 0-1.28-.18c-2.54 0-4.25 2.19-4.82 4.46m-6-4.28c-.33 1.86 0 4.75.71 5.78-.33-2.17-.66-3.1.77-5 .44-.62 1.54-1.65.5-2.37a1.06 1.06 0 0 0-.59-.21c-.79 0-1.25 1.18-1.39 1.81m3.3-.16a7.22 7.22 0 0 0 .93 8.62c-1-1.6-2.25-6.4 1.81-7.48a1.45 1.45 0 0 0 .11-2.79 1.56 1.56 0 0 0-.59-.12 2.79 2.79 0 0 0-2.27 1.77m-12.92-.67a10.23 10.23 0 0 1 3.57 2.12c-.22-.88-1.71-2.27-2.58-3a2.12 2.12 0 0 0-1.31-.55c-.83 0-1.12.8.32 1.48m6.6.57a14.23 14.23 0 0 0 1.76 4.7c-.17-1.65-.61-3.2-.28-4.64.22-.82 1.38-2.22-.28-2.58a1.08 1.08 0 0 0-.25 0c-.88 0-1.06 1.28-1 2.56m-3-2.22a9.78 9.78 0 0 0 1.93 4.44c-.83-1.65-.88-2.79-.38-3.87.27-.62.82-1.13-.05-1.7a.92.92 0 0 0-.49-.15 1.14 1.14 0 0 0-1 1.28m-7-7.53c-1.54.05-3.68 2.89-1.32 2.89.71 0 .88-1.24 1.43-1.6 2.2-1.55 6.21 8.15 7 9.23-1.08-2.19-3.39-10.53-6.93-10.53h-.16" fill="none"/></clipPath><radialGradient id="aE" cx="277.33" cy="342.03" r="13.88" gradientTransform="matrix(1.05 0 0 1 -132.4 -6.19)" xlink:href="#a"/><clipPath id="aF" transform="translate(-91.47 -6.19)"><path d="M296 323.66c-1.1 1.34-.33 2.17 1.1 1 2.75-2.22 5.06-2.58 8.19-3-2.53.1-7.59-.16-9.29 2m-4.84 1.24c-1.48 1.91 0 3 1.71.93 2.2-2.58 3.85-3.82 7.7-4.44a4.9 4.9 0 0 0-.75-.05c-2.59 0-7.06 1.51-8.66 3.56m-.93-2.73c-1.1 1.13-.38 2.53 1.15 1.19 2-1.81 2.91-2.27 6.1-2.48a5.84 5.84 0 0 0-1.66-.18c-1.87 0-4.57.42-5.6 1.47m-1.76-2.27c-1 .83-.39 2 1 1.34s3.08-2 6.1-1.13a9.13 9.13 0 0 0-4.21-1 4.66 4.66 0 0 0-2.88.75m-1.65-2.06c-1.15.31-1.15 1.75.33 1.39a15.32 15.32 0 0 1 4.12-.67 12.67 12.67 0 0 0-3.73-.79 3.21 3.21 0 0 0-.72.07m-1.65-1.34a9.38 9.38 0 0 1 4.12.67c-.55-.72-2.48-1.5-3.57-1.86a2.75 2.75 0 0 0-.87-.16c-1.31 0-1.61 1.21.32 1.34m2.58-2.84c.72 1.29 2.8 3.25 3.63 3.46-1.43-1.24-2-2.27-1.92-3.46 0-.67.27-1.34-.77-1.55h-.19a1 1 0 0 0-.75 1.56m3.85-1.75c-1.15.16-.77 1.5-.11 2.74a13.77 13.77 0 0 0 3.52 3.71c-.82-1.45-1.87-2.73-2.14-4.18-.15-.77.31-2.3-1-2.3h-.31m2.8 1.91a10.33 10.33 0 0 0 3 5.11c-1.21-1.91-1.82-2.63-1.32-4.9.16-.72.77-2.06-.5-2.37a1.33 1.33 0 0 0-.3 0c-1.06 0-1 1.54-.85 2.2m3-1.29a7.57 7.57 0 0 0 4.29 7.64c-1.49-1.13-4.62-5.11-1.32-7.58a1.47 1.47 0 0 0-1-2.63c-1 0-1.82.83-2 2.58m8.25-3c-3.36.41-4.34 3.51-3.9 6.14a6.28 6.28 0 0 0 6.54 4.75c-2.64-.57-3.74-1.6-4.51-4.28-1-4 4-5.31 4.29-2.22l-.05.05c-1.15-.46-3-.72-3.36.83-.44 1.75 1 2.79 2.8 2.68a3.58 3.58 0 0 0 3-2.06c1.56-3.28-1.32-5.9-4.3-5.9h-.49m-27.39-.31c-1.32.62-2.25 4 0 3.15.66-.26.28-1.44.66-2 1.43-2.22 9.07 5.36 10.18 6.09-1.75-1.5-6.51-7.48-9.85-7.48a2.36 2.36 0 0 0-1 .21" fill="none"/></clipPath><radialGradient id="aG" cx="320.19" cy="318.04" r="14.04" gradientTransform="matrix(1.05 0 0 1 -132.4 -6.19)" xlink:href="#a"/><clipPath id="aH" transform="translate(-91.47 -6.19)"><path d="M315.67 277.8c-1.76 1-.88 2.74.66 1.14a9.52 9.52 0 0 1 3.13-2.68h-.08a9.55 9.55 0 0 0-3.72 1.55m-9.66 1.75c-.33 1.39 2 4.13 2.64 2 .17-.67-1-1.13-1.26-1.7-1-2.42 10.06-3.46 11.33-3.87-2.53.41-11.93.26-12.7 3.61m12.54-1c-.44 1 .77 1.91 1.37.57.49-1 1.21-2.79 2-3.46-.66.31-2.8 1.7-3.35 2.89m2.75 0c.11 1.29 1.43 1.5 1.7.1s.28-3.51 2.81-5.26c-1.82.67-4.62 3.3-4.51 5.16m-6.44-4.9c-.71.62 0 1.5.77 1.65 1.48.21 4.4-.1 5.06-.57-1.93.31-3.08.05-4.07-.72-.37-.28-.7-.63-1.11-.63a1 1 0 0 0-.65.27m9.4 5c.28 1.5 1.93 1.86 1.71-.1-.28-2.58-.11-3.56 1.7-6.09-1.1.67-3.74 4.23-3.41 6.19m-7.81-7.27c-.61.93.82 1.5 2.25 1.75a16 16 0 0 0 5.28-.36 17 17 0 0 1-4.84-1c-.53-.25-1.21-1-1.86-1a1 1 0 0 0-.84.59m10.67 8.25c.71 2.27 2.59 1.86 1.87-.72a9.45 9.45 0 0 1 .93-8.41c-1.71 1.55-3.63 6.45-2.8 9.13m-8.41-11.4c-1.15.88.33 1.91 1.1 2.22 1.81.83 4.84 1.29 6.1.93-2.31-.26-3.3-.26-4.89-2-.43-.49-1-1.35-1.71-1.35a1 1 0 0 0-.61.22m10.29 6.99c.5 1.65 1.65 1.6 1.6-.21-.16-3.35.88-5.31 2.42-7.89-1.43 1.91-4.79 5.47-4 8.1m-9.46-10.88c-.61.72-.44 1.86.88 3a8.49 8.49 0 0 0 9.13 1.44c-1.87.46-7.15.36-7.21-3.61a1.44 1.44 0 0 0-1.55-1.44 1.58 1.58 0 0 0-1.26.56m3.46-4.9c-1.76 2.68.22 5.31 2.75 6.6 2.36 1.24 6.38.62 8-1.91-2.09 1.6-3.63 1.75-6.32.67-4-1.65-2-6.19.71-4.49l.05.05c-1.1.57-2.47 1.81-1.43 3 1.21 1.39 3 .88 4-.46a3.16 3.16 0 0 0 .11-3.46 4.23 4.23 0 0 0-3.76-2.23 4.91 4.91 0 0 0-4.11 2.23" fill="none"/></clipPath><radialGradient id="aI" cx="344.75" cy="270.47" r="13.32" gradientTransform="matrix(1.05 0 0 1 -132.4 -6.19)" xlink:href="#a"/><clipPath id="aJ" transform="translate(-91.47 -6.19)"><path d="M309.62 237c.55 1.29 4.07 2.37 3.36.26-.22-.67-1.54-.36-2.09-.77-2.26-1.5 6.38-8.1 7.26-9.08-1.92 1.65-9.9 6.4-8.52 9.6m7-6.5c-.83 1.81.88 2.73 1.21.62a8.51 8.51 0 0 1 1-3.87c-.83.46-1.76 2.22-2.25 3.25m2.8-.88c.22 1.13 1.76 1.24 1.48-.21a13.94 13.94 0 0 1-.38-3.87c-.33.57-1.37 2.84-1.1 4.08m-4.23-2.73c-.77-.1-1.43-.36-1.7.57s.88 1.29 1.6 1a10.77 10.77 0 0 0 3.9-3.1 5 5 0 0 1-3.79 1.55m.77-3.2a4.56 4.56 0 0 1-.78 0c-.86-.06-1.83-.12-1.75 1s1.6.83 3 .31a16.38 16.38 0 0 0 4.18-3 17.26 17.26 0 0 1-4.62 1.65m5.77 4.54c.82 1 2 .52 1.48-.77s-1.87-3.09-.77-5.88c-1.1 1.5-1.92 5.16-.71 6.66m2.53-1.5c1.1 1.14 2.7.57 1.37-1-1.76-2-2.2-2.89-2.2-5.88-.49 1.14-.55 5.42.83 6.86m-8.19-6c-.83-.21-2.2-.88-2.58.26-.44 1.29 1.43 1.39 2.25 1.29 1.92-.26 4.79-1.44 5.61-2.42-2.09 1-2.92 1.55-5.28.88m11.16 5.37c1.92 1.55 3.24.26 1.1-1.55-2.58-2.17-3.74-3.82-4.12-7.48-.55 2.17.71 7.22 3 9m-12.43-9.49a1.6 1.6 0 0 0-2.86.72c-.06.93.77 1.81 2.58 2.06 3.47.57 6.93-.88 8.47-3.46-1.32 1.34-5.77 4-8.19.67m11.49 4.9c1.32 1.14 2.31.46 1.15-1-2.09-2.73-2.36-4.9-2.64-7.84-.06 2.37-.71 7.07 1.48 8.82" fill="none"/></clipPath><radialGradient id="aK" cx="344.44" cy="226.01" r="12.08" gradientTransform="matrix(1.05 0 0 1 -132.4 -6.19)" xlink:href="#a"/><clipPath id="aL" transform="translate(-91.47 -6.19)"><path d="M106.87 280.33c1.71-2 3.19-2.42 6.1-1.86 4.24.88 3.24 5.67.16 4.54l-.05-.05c1-.72 2-2.22.77-3.2-1.49-1.13-3.14-.31-3.79 1.19a3.2 3.2 0 0 0 .6 3.46c2.59 2.89 6.66 1.29 7.75-1.5 1.1-2.94-1.38-5.16-4.13-6a5.54 5.54 0 0 0-1.55-.21c-2.39 0-5.06 1.34-5.87 3.62m3.08-5.42c1.76-.83 6.93-1.65 7.87 2.22a1.6 1.6 0 0 0 2.91.36c.44-.83.06-1.91-1.54-2.84a9.27 9.27 0 0 0-4.58-1.21 7.67 7.67 0 0 0-4.66 1.47m3.08-3.1c2.36-.15 3.35-.36 5.28 1 .66.52 1.65 1.6 2.48.67s-.72-1.75-1.54-2a13.71 13.71 0 0 0-2.75-.25 9.25 9.25 0 0 0-3.47.51m6.71-3a17.4 17.4 0 0 0-5.12 1.29 17.43 17.43 0 0 1 4.95.1c.83.21 2.25 1.39 2.75-.1.36-1-.9-1.29-2.28-1.29h-.31m-12.1.26c.88 3.3.28 5.42-.66 8.25 1-2.17 3.46-6.29 2.14-8.72-.37-.66-.79-1-1.1-1s-.63.5-.38 1.45m14.68-2.94c-1.48.05-4.29.88-4.89 1.5a5.12 5.12 0 0 1 4.18-.1c.66.31 1.16.83 1.76.05s-.22-1.45-1-1.45h-.07m-10.83-1.29c.83 2.48.83 3.46-.38 6.24.93-.83 2.75-4.8 2-6.66a1.43 1.43 0 0 0-1.15-1c-.45 0-.76.46-.44 1.45m2.86-.67c0 1.34.5 3.51-1.59 5.67 1.59-1 3.85-4.08 3.3-5.88a1 1 0 0 0-.92-.89c-.41 0-.79.36-.79 1.09m-5.88.88c1.48 2.94 1.92 4.9.83 8.41 1.37-1.81 2.2-7 .82-9.44-.49-.86-1.06-1.25-1.49-1.25-.62 0-.92.84-.16 2.28m8.8-1.91a14.72 14.72 0 0 1-1.15 3.77c.55-.41 2.36-2.17 2.64-3.46a.87.87 0 0 0-.73-1.12c-.3 0-.62.23-.75.8m3.57-.46c-.71 1.08-1.37 2.48-2.53 3.2 1-.15 2.53-1.44 3.41-2.22s.79-1.88.21-1.88c-.3 0-.7.25-1.09.9m7-4c-.05.67 1.27.88 1.65 1.39 1.43 2.22-9.18 5.31-10.34 5.88 2.42-.88 11.66-2.42 11.71-5.88a3 3 0 0 0-2.28-2.36c-.39 0-.7.27-.75 1" fill="none"/></clipPath><radialGradient id="aM" cx="152.77" cy="272.5" r="13.25" gradientTransform="matrix(1.05 0 0 1 -132.4 -6.19)" xlink:href="#a"/><clipPath id="aN" transform="translate(-91.47 -6.19)"><path d="M107.58 229.93c2.15-1.5 3.74-1.6 6.38-.36 3.91 1.81 1.71 6.24-1 4.44V234c1.1-.52 2.53-1.7 1.54-2.94-1.15-1.44-3-1-4 .26a3.26 3.26 0 0 0-.28 3.51c1.71 3.41 6.1 2.79 7.86.36 1.87-2.63 0-5.36-2.42-6.76a6.28 6.28 0 0 0-3.06-.74 6.12 6.12 0 0 0-5 2.29m4.4-4.49c1.92-.41 7.15-.05 7 3.92a1.56 1.56 0 0 0 2.75 1c.66-.67.55-1.81-.77-3a8.72 8.72 0 0 0-6-2.45 7.52 7.52 0 0 0-3 .6m3.8-2.32c2.36.41 3.35.41 4.84 2.22.49.62 1.21 2 2.25 1.24s-.28-1.91-1-2.27a13.94 13.94 0 0 0-5.27-1.27 3.55 3.55 0 0 0-.83.08m2-1.34c1.7.36 3.41.46 4.78 1.24.71.41 1.76 1.86 2.64.52.66-.93-.71-1.5-2.14-1.86a9.08 9.08 0 0 0-1.92-.18 27.83 27.83 0 0 0-3.36.28m3.35-1.75a5.09 5.09 0 0 1 4.07.88c.55.41.88 1 1.71.46s.11-1.55-.66-1.7a11 11 0 0 0-1.78-.12 8.44 8.44 0 0 0-3.33.48m-9.9-.83c0 3.41-1.16 5.26-2.81 7.79 1.54-1.86 5-5.26 4.4-7.89-.19-.82-.59-1.25-.94-1.25s-.66.44-.66 1.35m14.46-3.2a10.33 10.33 0 0 1-3.3 2.53 10.2 10.2 0 0 0 3.9-1.39c1.29-.7 1.25-1.76.54-1.76a1.81 1.81 0 0 0-1.14.62m-6.66-.05c-.33 1.29-.44 3.51-3.08 5.16 1.87-.57 4.78-3.1 4.78-5 0-.7-.43-1.1-.85-1.1s-.71.28-.86.89m3.08-.31a14.48 14.48 0 0 1-2.09 3.35c.6-.26 2.86-1.55 3.47-2.68.32-.67-.06-1.3-.56-1.3-.27 0-.57.18-.82.63m-6 .31c.11 2.63-.11 3.56-2 6 1.1-.62 3.91-4.08 3.63-6-.09-.82-.58-1.32-1-1.32s-.7.4-.65 1.32m-3-.52c.71 3.25.61 5.21-1.32 8.41 1.76-1.5 3.9-6.29 3.19-9-.25-1-.77-1.53-1.21-1.53s-1 .73-.66 2.15m20.46-1.7c-.22.67 1 1.13 1.21 1.75.88 2.48-10.23 3-11.55 3.35 2.58-.31 12 .31 12.87-3 .29-1-.83-2.82-1.73-2.82-.31 0-.6.22-.8.76" fill="url(#a)"/></clipPath><radialGradient id="aO" cx="155.72" cy="225.58" r="13.19" gradientTransform="matrix(1.05 0 0 1 -132.4 -6.19)" gradientUnits="userSpaceOnUse"><stop offset=".36" stop-color="#d76543"/><stop offset="1" stop-color="#884624"/></radialGradient><clipPath id="aP" transform="translate(-91.47 -6.19)"><path d="M119 373.44c15.67 43.28 182 40.86 199.51.36a7.74 7.74 0 0 0-4.23-9.85c-5 29.15-163.71 42.51-190.55-.15a7.76 7.76 0 0 0-4.73 9.65" fill="url(#h)"/></clipPath><radialGradient id="aQ" cx="-176.35" cy="631" r=".52" gradientTransform="matrix(247.99 0 0 -232.64 43850.31 147131.51)" gradientUnits="userSpaceOnUse"><stop offset=".3" stop-color="#d76543"/><stop offset="1" stop-color="#723811"/></radialGradient><clipPath id="aR" transform="translate(-91.47 -6.19)"><path d="M139.26 154.56c-2.7.83-2.42 4 .05 3.87 3-.14 3-4 .67-4a2.63 2.63 0 0 0-.73.11m-6.54-.67c-2.47 1.08-1.71 3.71.55 3.51 3.42-.32 2.37-3.69.29-3.69a2.17 2.17 0 0 0-.84.18m2.36-1.34c1.54 2.06 5.44-1.08 3.19-3.56a1.48 1.48 0 0 0-1.14-.54c-1.56 0-3.27 2.34-2 4.1" fill="none"/></clipPath><clipPath id="aS" transform="translate(-91.47 -6.19)"><path d="M175.11 151c-1.59 1.65.17 3.3 1.93 2.37 2.28-1.19.89-2.9-.62-2.9a1.84 1.84 0 0 0-1.3.52m5.55-1.7c-1.87 1.5-.28 3.77 1.7 2.79a1.68 1.68 0 0 0-.49-3.26 1.91 1.91 0 0 0-1.21.48m-4.18-.05c2.09 1 4-2.63 1-3.66a1.66 1.66 0 0 0-.59-.11c-1.65 0-2.43 2.8-.45 3.78" fill="none"/></clipPath><clipPath id="aT" transform="translate(-91.47 -6.19)"><path d="M141.84 127.89c-1.76.57-1.59 2.73.05 2.58 2-.14 2-2.67.5-2.67a1.83 1.83 0 0 0-.56.1m-4.34-.36c-1.65.77-1.16 2.53.38 2.37 2.28-.27 1.57-2.51.2-2.51a1.4 1.4 0 0 0-.58.13m1.59-1c1 1.39 3.63-.83 2.14-2.48a1 1 0 0 0-.74-.34 1.9 1.9 0 0 0-1.41 2.81" fill="none"/></clipPath><clipPath id="aU" transform="translate(-91.47 -6.19)"><path d="M152.29 90.28c1.76.83 3.19-1.75 1.32-2.17a1.94 1.94 0 0 0-.42 0c-1.39 0-2.11 1.6-.9 2.21m-2.75-2.37c2.14.93 2.64-1.91.94-2.06h-.21c-1.48 0-1.88 1.58-.73 2.07m2.64-2.11c.05 1.6 3.13 1 2.86-1a.89.89 0 0 0-1-.78 1.9 1.9 0 0 0-1.89 1.81" fill="none"/></clipPath><clipPath id="aV" transform="translate(-91.47 -6.19)"><path d="M294.94 160.13c2.48.1 2.75-3.1.06-3.87a2.7 2.7 0 0 0-.77-.12c-2.32 0-2.23 3.8.72 4m6-1.08c2.26.21 3-2.42.55-3.46a2.09 2.09 0 0 0-.83-.18c-2 0-3.13 3.31.28 3.63m-5-8.41c-2.25 2.48 1.71 5.67 3.19 3.56 1.26-1.76-.44-4.1-2-4.1a1.54 1.54 0 0 0-1.16.54" fill="none"/></clipPath><clipPath id="aW" transform="translate(-91.47 -6.19)"><path d="M257.22 155c1.76.93 3.46-.72 1.87-2.32a1.79 1.79 0 0 0-1.31-.55c-1.49 0-2.87 1.69-.56 2.88m-5.34-1.24c1.93.93 3.52-1.29 1.65-2.79a1.93 1.93 0 0 0-1.22-.48 1.67 1.67 0 0 0-.43 3.27m4.79-6.55c-2.86 1-1 4.69 1.1 3.66s1.2-3.78-.49-3.78a1.74 1.74 0 0 0-.61.11" fill="none"/></clipPath><clipPath id="aX" transform="translate(-91.47 -6.19)"><path d="M292.69 130.11c1.65.15 1.81-2 0-2.58a1.75 1.75 0 0 0-.54-.09c-1.5 0-1.45 2.53.54 2.67m4-.57c1.54.15 2-1.6.39-2.37a1.42 1.42 0 0 0-.58-.13c-1.37 0-2.08 2.23.2 2.51m-3.35-5.83c-1.48 1.65 1.16 3.87 2.14 2.48a1.9 1.9 0 0 0-1.4-2.81 1 1 0 0 0-.74.34" fill="none"/></clipPath><clipPath id="aY" transform="translate(-91.47 -6.19)"><path d="M284.6 86.41c-1.93.36-.44 3 1.26 2.12 1.2-.57.53-2.16-.85-2.16a1.91 1.91 0 0 0-.41 0m3.08-2.27c-1.65.16-1.16 3 .94 2.06 1.21-.54.76-2.07-.72-2.07h-.21M283.17 83c-.33 2.06 2.8 2.63 2.86 1a1.9 1.9 0 0 0-1.91-1.78.87.87 0 0 0-1 .74" fill="none"/></clipPath><clipPath id="aZ" transform="translate(-91.47 -6.19)"><path d="M218.28 41.33a57.83 57.83 0 0 1 40.36 16.35 54.94 54.94 0 0 1 0 79 58.06 58.06 0 0 1-80.78 0 54.93 54.93 0 0 1 0-79 57.86 57.86 0 0 1 40.42-16.35zm-42.51 14.5a57.56 57.56 0 0 0 0 82.75 60.44 60.44 0 0 0 22.16 13.72 39.56 39.56 0 0 0-38.87 30.7c1.87.31 3.69.67 5.55.93a88.6 88.6 0 0 1-37.23 8.46 80.93 80.93 0 0 1-23.76-3.56c-.33.83-.66 1.65-1 2.53a84.23 84.23 0 0 0 24.75 3.71 92.15 92.15 0 0 0 42.29-10.58c15.95 1.39 32.17-2.63 40.31-16.35l.44.41a11.4 11.4 0 0 0 2.92 2c-5.39 9.23-15.4 17.69-28.27 24.35-16.55 8.56-37.83 13.93-59.94 13.93a127.67 127.67 0 0 1-27.44-2.89c-.27.88-.49 1.75-.77 2.58a131.52 131.52 0 0 0 28.21 3c22.6 0 44.38-5.57 61.32-14.29 13.47-7 24-15.94 29.59-25.74a12.16 12.16 0 0 0 5.28.21c4.45 9.6 12.81 18.62 24.75 25.64 15 8.82 35.53 14.6 60.66 14.6a188.26 188.26 0 0 0 35.42-3.51c-.22-.88-.49-1.75-.71-2.63a184.48 184.48 0 0 1-34.7 3.46c-24.58 0-44.6-5.57-59.12-14.19-11.27-6.71-19.25-15.17-23.48-24.14a12.24 12.24 0 0 0 3.19-1.91c7.15 11.5 20.46 16.09 34.31 15.94a87.51 87.51 0 0 0 43 10.78 117.21 117.21 0 0 0 31.62-4.64c-.38-.83-.71-1.65-1.1-2.48a114.85 114.85 0 0 1-30.53 4.38 85.69 85.69 0 0 1-37.61-8.3 105.3 105.3 0 0 0 10.72-1.55 39.22 39.22 0 0 0-40.42-30.44 60.78 60.78 0 0 0 23.43-14.19 57.43 57.43 0 0 0 0-82.75 61.12 61.12 0 0 0-85 0" fill="none"/></clipPath><clipPath id="ba" transform="translate(-91.47 -6.19)"><path d="M230.77 156.57a11.13 11.13 0 0 1-1.43 10.37 26.58 26.58 0 0 0 4.78 6.19c9.9 9.65 25.35 10.47 40.14 7.94-.33-1.19-.71-2.32-1.15-3.46a36.63 36.63 0 0 0-15-17.18 36 36 0 0 0-18.35-4.86 42.38 42.38 0 0 0-9 1" fill="none"/></clipPath><radialGradient id="bb" cx="-176.5" cy="630.06" r=".52" gradientTransform="matrix(71.61 0 0 -67.18 12792.72 42483.46)" xlink:href="#i"/><clipPath id="bc" transform="translate(-91.47 -6.19)"><path d="M161.86 181c17.54 3.56 38.6 1.6 46.69-15.17a3.16 3.16 0 0 0 .22-.41 11.14 11.14 0 0 1-.72-9 36.94 36.94 0 0 0-11.13-1.72c-16 0-30.82 10.46-35.07 26.27" fill="none"/></clipPath><radialGradient id="bd" cx="-175.84" cy="630.05" r=".52" gradientTransform="matrix(73.83 0 0 -69.26 13081.64 43787.28)" xlink:href="#i"/><clipPath id="be" transform="translate(-91.47 -6.19)"><path d="M211.57 155.38c-5.83 5.57.83 14.7 7.92 14.24 6.55-.46 12.65-7.48 7-14.44a60.42 60.42 0 0 1-15 .21" fill="none"/></clipPath><radialGradient id="bf" cx="-175.74" cy="629.86" r=".52" gradientTransform="matrix(32.98 0 0 -30.94 5920.79 19646.73)" xlink:href="#i"/></defs><g data-name=" 2"><g data-name=" 1"><g clip-path="url(#j)"><path fill="url(#k)" d="M11.17 0h233.61v202.58H11.17z"/></g><g clip-path="url(#l)"><path fill="url(#m)" d="M0 165.34h254.67v223.58H0z"/></g><g clip-path="url(#n)"><path fill="url(#f)" d="M69.62 35.13h114.33v111.74H69.62z"/></g><g clip-path="url(#o)"><path fill="url(#i)" d="M6.21 161.93h243.73v50.14H6.21z"/></g><g clip-path="url(#p)"><path fill="url(#q)" d="M67.48 33.12h117.19v114.42H67.48z"/></g><g clip-path="url(#r)"><path fill="url(#b)" d="M126.59 33.12h58.07v61.23h-58.07z"/></g><g clip-path="url(#s)"><path d="M126.59 32.45zm.22 0zm57 62.11a38.43 38.43 0 0 0-13.86-16.92 80.74 80.74 0 0 0-16.72-8.77c-9.35-3.82-15.62-7.79-19.85-12.54s-6.38-10.27-7.53-17v-4.14a5.66 5.66 0 0 1 .93-.05h.5v4.07c1.1 6.45 3.19 11.71 7.21 16.25s10.17 8.46 19.36 12.17a85 85 0 0 1 17 8.93 41.79 41.79 0 0 1 13.1 14.75V91c0 1.19-.06 2.37-.11 3.56" fill="#3e0000"/></g><g clip-path="url(#t)"><path fill="url(#u)" d="M67.48 33.12h59.12v63.4H67.48z"/></g><g clip-path="url(#s)"><path d="M127.14 35.14c-.77 7.79-2.48 14-6.32 19.35-4.18 5.67-10.78 10.27-21.39 14.6a79.08 79.08 0 0 0-17.21 9.29 39.07 39.07 0 0 0-12.54 15.27c0-.88-.06-1.75-.06-2.63v-.46a41.09 41.09 0 0 1 11.66-13.21 77.3 77.3 0 0 1 17.6-9.54c10.34-4.23 16.72-8.67 20.73-14.14 3.68-5.06 5.33-11 6.1-18.52.38 0 .71-.05 1.1-.05z" fill="#3e0000"/><path d="M166.13 96.11c-6 9.29-14.68 8.46-23.37 2.73 2.59-3.3 6.05-6.4 10.56-7 3.46-.41 7.26.67 11.38 3.3.49.26.93.62 1.43.93m2.26 1c2.14.46 4-1.5 5.06-3.82-1.7.83-4.29-.1-6-1.19-10.67-7-21-3.92-27.94 7.22 9.46 5.62 21.17 8.25 28.87-2.22" fill="#380000"/></g><g clip-path="url(#v)"><path fill="url(#d)" d="M141.11 90.68h26.56v16.47h-26.56z"/></g><g clip-path="url(#w)"><path fill="url(#e)" d="M145.62 89.75h16.66v15.17h-16.66z"/></g><g clip-path="url(#s)" fill-rule="evenodd"><path d="M154.2 93.38a3.94 3.94 0 1 1-1 7.79 4 4 0 0 1-3.67-4.36 4.16 4.16 0 0 1 4.68-3.46" fill="#201600"/><path d="M151.45 92.81a2.17 2.17 0 0 1 2 2.37 2.19 2.19 0 0 1-2.53 1.86 2.11 2.11 0 0 1-2-2.37 2.25 2.25 0 0 1 2.53-1.86m4.51 5.47a1.28 1.28 0 0 1 1.21 1.44 1.41 1.41 0 0 1-1.64 1.09 1.39 1.39 0 0 1-1.21-1.44 1.41 1.41 0 0 1 1.6-1.13" fill="#fff"/></g><g clip-path="url(#x)"><path fill="url(#c)" d="M136.82 108.38h32.72v30.75h-32.72z"/></g><g clip-path="url(#y)"><path fill="url(#z)" d="M84.08 108.38h32.78v30.75H84.08z"/></g><g clip-path="url(#s)"><path d="M88.43 95.23c5.06 9.8 13.75 9.75 23 4.8-2.25-3.51-5.39-6.86-9.79-7.84-3.41-.77-7.31 0-11.71 2.22-.49.26-1 .57-1.49.83m-2.31.83c-2.25.26-3.91-1.86-4.67-4.28 1.59 1 5 .05 6.76-.93 11.77-6.65 20.51-1.75 26.34 10-10.23 4.75-22.55 6.86-28.43-4.8" fill="#380000"/></g><g clip-path="url(#A)"><path fill="url(#g)" d="M112.03 88.26l-23.43.39-.18-9.98 23.43-.39.18 9.98z"/></g><g clip-path="url(#B)"><path fill="url(#C)" d="M86.89 90.79h26.12v16.62H86.89z"/></g><g clip-path="url(#D)"><path fill="url(#E)" d="M92.44 89.97h15.95v14.86H92.44z"/></g><g clip-path="url(#F)"><path fill="url(#G)" d="M113.95 117.77h26.14v13.05h-26.14z"/></g><g clip-path="url(#s)" fill-rule="evenodd"><path d="M114.53 121.6c7.48 4.08 17.54 4.8 25.13-1-9.73 3.92-16.61 3.3-25.13 1" fill="#380000"/><path d="M127.2 125.46c1.21.1 2.09.72 1.92 1.44s-1.26 1.24-2.47 1.19-2.09-.77-1.92-1.5 1.26-1.24 2.47-1.13m-4.67-6.24c1.21.1 2 .72 1.93 1.44s-1.26 1.24-2.47 1.13-2.09-.72-1.92-1.44 1.26-1.24 2.47-1.14m8.62.22c1.21.1 2.09.77 1.92 1.5s-1.26 1.19-2.47 1.13-2-.77-1.92-1.5 1.26-1.19 2.47-1.13" fill="#de8281"/><path d="M125.44 125.57a1.31 1.31 0 0 1 1.21 1.44 1.4 1.4 0 0 1-1.54 1.19 1.35 1.35 0 0 1-1.21-1.5 1.32 1.32 0 0 1 1.54-1.13" fill="#fff"/></g><g clip-path="url(#H)"><path fill="url(#I)" d="M166.34 86l-22.28 11.32-9.2-16.55 22.27-11.33L166.34 86z"/></g><g clip-path="url(#s)" fill="#380000" fill-rule="evenodd"><path d="M124.89 111.43a1 1 0 0 1 .93 1.08 1.11 1.11 0 0 1-1.16.88 1.006 1.006 0 1 1 .22-2m4.13.04a1 1 0 0 1 .88 1.08 1.08 1.08 0 0 1-1.15.88 1 1 0 0 1-.88-1.08 1 1 0 0 1 1.16-.88"/></g><g clip-path="url(#J)"><path fill="url(#K)" d="M0 165.34h255.61v194.84H0z"/></g><g clip-path="url(#s)" fill-rule="evenodd"><path d="M100.03 93.64a4.16 4.16 0 0 1 4.34 3.82 4.22 4.22 0 0 1-8.41.21 4 4 0 0 1 4.07-4" fill="#201600"/><path d="M97.28 93.43a2.22 2.22 0 0 1 2.36 2.06 2.28 2.28 0 0 1-2.25 2.22 2.21 2.21 0 0 1-2.31-2.12 2.19 2.19 0 0 1 2.2-2.17m5.25 4.76a1.37 1.37 0 0 1 1.43 1.29 1.28 1.28 0 0 1-1.32 1.34 1.46 1.46 0 0 1-1.49-1.29 1.36 1.36 0 0 1 1.38-1.34" fill="#fff"/></g><g clip-path="url(#L)"><path fill="#faebde" d="M43.23 88.03h23.54v36.45H43.23z"/></g><g clip-path="url(#M)"><path fill="#faebde" d="M46.52 44.92h24.64v35.56H46.52z"/></g><g clip-path="url(#N)"><path fill="#faebde" d="M47.35 128.43h32.49v24.37H47.35z"/></g><g clip-path="url(#O)"><path fill="#faebde" d="M172.51 128.43h32.44v24.37h-32.44z"/></g><g clip-path="url(#P)"><path fill="#faebde" d="M188.02 85.78h23.54v36.48h-23.54z"/></g><g clip-path="url(#Q)"><path fill="#faebde" d="M178.67 39.29h24.63v35.56h-24.63z"/></g><g clip-path="url(#R)"><path fill="#faebde" d="M25.96 158.12h36.9v23.21h-36.9z"/></g><g clip-path="url(#S)"><path fill="#faebde" d="M189.67 156.25h36.9v23.17h-36.9z"/></g><g clip-path="url(#T)"><path fill="url(#U)" d="M30.74 297.23h7.69v6.16h-7.69z"/></g><g clip-path="url(#V)"><path fill="url(#W)" d="M11.47 207.53h6.41v7.54h-6.41z"/></g><g clip-path="url(#X)"><path fill="url(#Y)" d="M74.02 310.25h7.7v7.01h-7.7z"/></g><g clip-path="url(#Z)"><path fill="url(#aa)" d="M120.1 346.55h7.67v6.24h-7.67z"/></g><g clip-path="url(#ab)"><path fill="url(#ac)" d="M171.12 312.2h8.01v6.09h-8.01z"/></g><g clip-path="url(#ad)"><path fill="url(#ae)" d="M220.12 299.67h8v6.09h-8z"/></g><g clip-path="url(#af)"><path fill="url(#ag)" d="M223.1 248.32h7.45v7.09h-7.45z"/></g><g clip-path="url(#ah)"><path fill="url(#ai)" d="M236.8 207.7h8.02v6.28h-8.02z"/></g><g clip-path="url(#aj)"><path fill="url(#ak)" d="M31.75 241.27h6.37v7.69h-6.37z"/></g><g clip-path="url(#al)"><path fill="url(#am)" d="M6.99 224.17h27.38v30.1H6.99z"/></g><g clip-path="url(#an)"><path fill="url(#ao)" d="M24.65 265.19h24.3v31.85h-24.3z"/></g><g clip-path="url(#ap)"><path fill="url(#aq)" d="M57.27 309.45h28.19v29.74H57.27z"/></g><g clip-path="url(#ar)"><path fill="url(#as)" d="M111.03 329.93h34.37v23.13h-34.37z"/></g><g clip-path="url(#at)"><path fill="url(#au)" d="M159.81 314.43h34.31v21.56h-34.31z"/></g><g clip-path="url(#av)"><path fill="url(#aw)" d="M200.34 276.35h32.99v26.46h-32.99z"/></g><g clip-path="url(#ax)"><path fill="url(#ay)" d="M216.84 223.99h33.21v25.95h-33.21z"/></g><g clip-path="url(#az)"><path fill="url(#aA)" d="M39.16 291.35h21.45v32.93H39.16z"/></g><g clip-path="url(#aB)"><path fill="url(#aC)" d="M85.4 319.93h26.67v28.8H85.4z"/></g><g clip-path="url(#aD)"><path fill="url(#aE)" d="M140.78 324.74h33.87v22.18h-33.87z"/></g><g clip-path="url(#aF)"><path fill="url(#aG)" d="M184.56 301.94h35.99v19.81h-35.99z"/></g><g clip-path="url(#aH)"><path fill="url(#aI)" d="M214.2 251.06h28.1v26.43h-28.1z"/></g><g clip-path="url(#aJ)"><path fill="url(#aK)" d="M216.78 206.45h22.27v26.72h-22.27z"/></g><g clip-path="url(#aL)"><path fill="url(#aM)" d="M15.4 251.5h24.03v29.59H15.4z"/></g><path d="M107.58 229.93c2.15-1.5 3.74-1.6 6.38-.36 3.91 1.81 1.71 6.24-1 4.44V234c1.1-.52 2.53-1.7 1.54-2.94-1.15-1.44-3-1-4 .26a3.26 3.26 0 0 0-.28 3.51c1.71 3.41 6.1 2.79 7.86.36 1.87-2.63 0-5.36-2.42-6.76a6.28 6.28 0 0 0-3.06-.74 6.12 6.12 0 0 0-5 2.29m4.4-4.49c1.92-.41 7.15-.05 7 3.92a1.56 1.56 0 0 0 2.75 1c.66-.67.55-1.81-.77-3a8.72 8.72 0 0 0-6-2.45 7.52 7.52 0 0 0-3 .6m3.8-2.32c2.36.41 3.35.41 4.84 2.22.49.62 1.21 2 2.25 1.24s-.28-1.91-1-2.27a13.94 13.94 0 0 0-5.27-1.27 3.55 3.55 0 0 0-.83.08m2-1.34c1.7.36 3.41.46 4.78 1.24.71.41 1.76 1.86 2.64.52.66-.93-.71-1.5-2.14-1.86a9.08 9.08 0 0 0-1.92-.18 27.83 27.83 0 0 0-3.36.28m3.35-1.75a5.09 5.09 0 0 1 4.07.88c.55.41.88 1 1.71.46s.11-1.55-.66-1.7a11 11 0 0 0-1.78-.12 8.44 8.44 0 0 0-3.33.48m-9.9-.83c0 3.41-1.16 5.26-2.81 7.79 1.54-1.86 5-5.26 4.4-7.89-.19-.82-.59-1.25-.94-1.25s-.66.44-.66 1.35m14.46-3.2a10.33 10.33 0 0 1-3.3 2.53 10.2 10.2 0 0 0 3.9-1.39c1.29-.7 1.25-1.76.54-1.76a1.81 1.81 0 0 0-1.14.62m-6.66-.05c-.33 1.29-.44 3.51-3.08 5.16 1.87-.57 4.78-3.1 4.78-5 0-.7-.43-1.1-.85-1.1s-.71.28-.86.89m3.08-.31a14.48 14.48 0 0 1-2.09 3.35c.6-.26 2.86-1.55 3.47-2.68.32-.67-.06-1.3-.56-1.3-.27 0-.57.18-.82.63m-6 .31c.11 2.63-.11 3.56-2 6 1.1-.62 3.91-4.08 3.63-6-.09-.82-.58-1.32-1-1.32s-.7.4-.65 1.32m-3-.52c.71 3.25.61 5.21-1.32 8.41 1.76-1.5 3.9-6.29 3.19-9-.25-1-.77-1.53-1.21-1.53s-1 .73-.66 2.15m20.46-1.7c-.22.67 1 1.13 1.21 1.75.88 2.48-10.23 3-11.55 3.35 2.58-.31 12 .31 12.87-3 .29-1-.83-2.82-1.73-2.82-.31 0-.6.22-.8.76" transform="translate(-91.47 -6.19)" fill="url(#a)"/><g clip-path="url(#aN)"><path fill="url(#aO)" d="M16.11 206.78h28.77v25.21H16.11z"/></g><path d="M119 373.44c15.67 43.28 182 40.86 199.51.36a7.74 7.74 0 0 0-4.23-9.85c-5 29.15-163.71 42.51-190.55-.15a7.76 7.76 0 0 0-4.73 9.65" transform="translate(-91.47 -6.19)" fill="url(#h)"/><g clip-path="url(#aP)"><path fill="url(#aQ)" d="M26.18 357.6H228.5v52.93H26.18z"/></g><g clip-path="url(#aR)"><path fill="#faebde" d="M38.77 142.26h12.06v10.13H38.77z"/></g><g clip-path="url(#aS)"><path fill="#faebde" d="M82.05 139.27h10.88v8.83H82.05z"/></g><g clip-path="url(#aT)"><path fill="#faebde" d="M44.38 117.54h8.09v6.89h-8.09z"/></g><g clip-path="url(#aU)"><path fill="#faebde" d="M56.92 77.79h7.1v7.13h-7.1z"/></g><g clip-path="url(#aV)"><path fill="#faebde" d="M200.44 143.91h12.06v10.13h-12.06z"/></g><g clip-path="url(#aW)"><path fill="#faebde" d="M158.35 140.92h10.87v8.83h-10.87z"/></g><g clip-path="url(#aX)"><path fill="#faebde" d="M199.17 117.18h8.09v6.89h-8.09z"/></g><g clip-path="url(#aY)"><path fill="#faebde" d="M191.21 76.07h7.15v7.14h-7.15z"/></g><g clip-path="url(#aZ)"><path fill="#f9e6d0" d="M5.45 32.45h245.21v173.33H5.45z"/></g><g clip-path="url(#ba)"><path fill="url(#bb)" d="M137.87 149.38h44.93v28.03h-44.93z"/></g><g clip-path="url(#bc)"><path fill="url(#bd)" d="M70.39 148.56h46.91v29.83H70.39z"/></g><g clip-path="url(#be)"><path fill="url(#bf)" d="M114.27 148.98h26.4v14.91h-26.4z"/></g></g></g></svg>