<svg xmlns="http://www.w3.org/2000/svg" xmlns:xlink="http://www.w3.org/1999/xlink" viewBox="0 0 255.09 405.08"><defs><clipPath id="j" transform="translate(-91.28 -6.11)"><path d="M131.35 92.75c-1.26 43.37-1.59 43-28.92 96.05C159.17 206 276 205 335.56 188.6c-29-53.91-30.46-54-30.57-97.63-.11-44.18-37.48-84.86-87-84.86-54.5 0-85.39 40.42-86.66 86.64" fill="none"/></clipPath><radialGradient id="k" cx="-179.42" cy="594.3" r=".51" gradientTransform="matrix(377.14 0 0 -349.8 67770.67 207954.51)" gradientUnits="userSpaceOnUse"><stop offset=".07" stop-color="#fff"/><stop offset=".4" stop-color="#dc796b"/><stop offset=".65" stop-color="#af4f46"/><stop offset="1" stop-color="#802f1f"/></radialGradient><clipPath id="l" transform="translate(-91.28 -6.11)"><path d="M186.06 194.66c-16.9 8.6-38.64 14.1-61.19 14.1a132.74 132.74 0 0 1-28.15-3c-3.57 12.62-5.43 24.18-5.43 31.15 0 46 19.15 85.57 34.52 128.63 4.56 12.73 35.73 24.33 92.58 24.33s87.2-11.86 92.53-24.33c16.74-39.45 34.52-85.57 34.52-128.63a124.46 124.46 0 0 0-4-31.2 190 190 0 0 1-35.34 3.46c-25.08 0-45.61-5.7-60.54-14.4-11.91-6.92-20.25-15.83-24.69-25.3a12.27 12.27 0 0 1-5.27-.2c-5.6 9.67-16.08 18.53-29.53 25.4" fill="none"/></clipPath><radialGradient id="m" cx="-179.43" cy="594.68" r=".51" gradientTransform="matrix(335.89 0 0 -311.54 60381.16 185479.44)" gradientUnits="userSpaceOnUse"><stop offset="0" stop-color="#faebe8"/><stop offset=".12" stop-color="#fff"/><stop offset=".51" stop-color="#d24a43"/><stop offset="1" stop-color="#732813"/></radialGradient><clipPath id="n" transform="translate(-91.28 -6.11)"><path d="M217.84 40.78a58.08 58.08 0 0 0-40.34 16.13 53.78 53.78 0 0 0 0 78 58.42 58.42 0 0 0 80.62 0 53.78 53.78 0 0 0 0-78 58.05 58.05 0 0 0-40.28-16.13z" fill="none"/></clipPath><radialGradient id="e" cx="-179.38" cy="593.86" r=".51" gradientTransform="matrix(187.53 0 0 -173.94 33748.88 103353.15)" gradientUnits="userSpaceOnUse"><stop offset="0" stop-color="#d24a43"/><stop offset="1" stop-color="#360000"/></radialGradient><clipPath id="o" transform="translate(-91.28 -6.11)"><path d="M223.66 168.7c18.82 40.87 78.26 44.49 117.06 34.41a135.29 135.29 0 0 0-5.16-14.51c-24.48 6.31-51.26 5.65-74.47-6.06-10.48.05-28.92-6.72-34.25-15.73a12.24 12.24 0 0 1-3.18 1.88M169.33 182c-20.47 10.49-44.56 13.59-66.9 6.77-1.87 4.79-3.51 9.67-4.94 14.41 36.33 12.17 94.78-.3 115.41-34.92a11.46 11.46 0 0 1-2.91-2l-.44-.41c-8 13.34-22 15.07-40.23 16.14" fill="none"/></clipPath><radialGradient id="i" cx="-179.41" cy="594.68" r=".51" gradientTransform="matrix(283.15 0 0 -262.63 50906.5 156389.99)" gradientUnits="userSpaceOnUse"><stop offset=".23" stop-color="#d24a43"/><stop offset="1" stop-color="#772a16"/></radialGradient><clipPath id="p" transform="translate(-91.28 -6.11)"><path d="M158.62 95.24c0 31.1 26.29 56.45 58.5 56.45s58.45-25.35 58.45-56.45-26.29-56.45-58.45-56.45-58.5 25.35-58.5 56.45" fill="none"/></clipPath><radialGradient id="q" cx="-179.34" cy="592.88" r=".51" gradientTransform="matrix(85.82 0 0 -79.6 15505.83 47250.73)" gradientUnits="userSpaceOnUse"><stop offset="0" stop-color="#fcf1ec"/><stop offset="1" stop-color="#f2cdbe"/></radialGradient><clipPath id="r" transform="translate(-91.28 -6.11)"><path d="M217.62 44.85c2.25 13.08 8.45 21.18 26.95 28.61 9.82 4 24.7 10.74 30.84 25.76q.16-2 .16-4c0-31-25.9-56.2-58-56.45z" fill="none"/></clipPath><radialGradient id="a" cx="-180" cy="591.39" r=".51" gradientTransform="matrix(49.48 0 0 -45.89 9059.54 27191.25)" gradientUnits="userSpaceOnUse"><stop offset="0" stop-color="#ab6442"/><stop offset="1" stop-color="#3e0000"/></radialGradient><clipPath id="s" transform="translate(-91.28 -6.11)"><path fill="none" d="M0 0h432.6v408.89H0z"/></clipPath><clipPath id="t" transform="translate(-91.28 -6.11)"><path d="M217.13 38.79c-32.33 0-58.5 25.25-58.5 56.45a56.3 56.3 0 0 0 .33 6.11c5.54-16.35 21.12-23.57 31.27-27.69 20.91-8.5 26-17.87 27.39-34.46v-.41z" fill="none"/></clipPath><radialGradient id="u" cx="-178.88" cy="591.5" r=".51" gradientTransform="matrix(50.97 0 0 -47.28 9213.15 28017.43)" xlink:href="#a"/><clipPath id="v" transform="translate(-91.28 -6.11)"><path d="M232.11 103.9q17.29 11.91 26.51-3.21-6.87-5.1-12.82-5.1-7.59 0-13.69 8.3" fill="none"/></clipPath><radialGradient id="c" cx="-180.36" cy="590.78" r=".51" gradientTransform="matrix(29.73 0 0 -27.57 5516.16 16386.34)" gradientUnits="userSpaceOnUse"><stop offset="0" stop-color="#fff"/><stop offset="1" stop-color="#e2e2e2"/></radialGradient><clipPath id="w" transform="translate(-91.28 -6.11)"><path d="M237.16 101a7.37 7.37 0 0 0 6.8 8.09 7.76 7.76 0 0 0 8.78-6.31 7.41 7.41 0 0 0-6.86-8.09 8.26 8.26 0 0 0-1-.06 7.62 7.62 0 0 0-7.73 6.37" fill="none"/></clipPath><radialGradient id="d" cx="-180.35" cy="590.24" r=".51" gradientTransform="matrix(25.87 0 0 -23.99 4815.58 14258.5)" gradientUnits="userSpaceOnUse"><stop offset="0" stop-color="#3eb5f1"/><stop offset="1" stop-color="#272e5b"/></radialGradient><clipPath id="x" transform="translate(-91.28 -6.11)"><path d="M227.83 128.23c0 8.35 7.25 15.17 16.3 15.17s16.35-6.82 16.35-15.17-7.35-15.17-16.35-15.17-16.3 6.82-16.3 15.17" fill="none"/></clipPath><radialGradient id="b" cx="-180.44" cy="591.28" r=".51" gradientTransform="matrix(26.25 0 0 -24.35 4889.7 14519.73)" gradientUnits="userSpaceOnUse"><stop offset="0" stop-color="#e6a5aa"/><stop offset="1" stop-color="#f2cdbe"/></radialGradient><clipPath id="y" transform="translate(-91.28 -6.11)"><path d="M175.2 128.23c0 8.35 7.35 15.17 16.35 15.17s16.36-6.82 16.36-15.17-7.36-15.17-16.36-15.17-16.35 6.82-16.35 15.17" fill="none"/></clipPath><radialGradient id="z" cx="-178.52" cy="591.28" r=".51" gradientTransform="matrix(26.25 0 0 -24.35 4786.8 14519.73)" xlink:href="#b"/><clipPath id="A" transform="translate(-91.28 -6.11)"><path d="M179.7 85.93c8.89-1.27 15.59-.51 23.22 7.28-3.17-6.62-8.46-9.47-14.17-9.47a21.24 21.24 0 0 0-9 2.19" fill="none"/></clipPath><linearGradient id="f" x1="-179.55" y1="596.83" x2="-179" y2="596.83" gradientTransform="scale(-55.82 55.82) rotate(1 34165.13 10516.894)" gradientUnits="userSpaceOnUse"><stop offset="0" stop-color="#380000"/><stop offset="1" stop-color="#e6a073"/></linearGradient><clipPath id="B" transform="translate(-91.28 -6.11)"><path d="M178 99.67q7.66 15.88 26.07 5.55-5.65-9.51-14.06-9.53-5.43 0-12 4" fill="none"/></clipPath><radialGradient id="C" cx="-178.6" cy="590.7" r=".51" gradientTransform="matrix(29.23 0 0 -27.11 5319.86 16108.79)" xlink:href="#c"/><clipPath id="D" transform="translate(-91.28 -6.11)"><path d="M191.28 94.89c-4.28.1-7.74 3.41-7.63 7.43a7.62 7.62 0 0 0 8.07 7.08 7.5 7.5 0 0 0 7.63-7.43c-.11-4-3.62-7.08-7.86-7.08h-.2" fill="none"/></clipPath><radialGradient id="E" cx="-178.41" cy="590.33" r=".51" gradientTransform="matrix(26.18 0 0 -24.28 4767.16 14430.69)" xlink:href="#d"/><clipPath id="F" transform="translate(-91.28 -6.11)"><path d="M217.84 125.53c-1.37-3-4.12-3.21-6.37-2.7-2.74.66-2 2.7-6.47 2.8.82.71 5.71 4.38 7.08 4.38.82 3.46 3.07 5.19 5.43 5.19s4.72-1.78 5.92-5.19c2.36-1.48 5.54-2.85 7.57-5 .07-.07-.37 0-1 0-1.39.12-3.78.24-4.56-.76a4 4 0 0 0-3.18-1.7 5.31 5.31 0 0 0-4.4 2.93" fill="none"/></clipPath><radialGradient id="G" cx="-179.37" cy="592.31" r=".51" gradientTransform="matrix(39.37 0 0 -36.52 7184.66 21747.49)" xlink:href="#e"/><clipPath id="H" transform="translate(-91.28 -6.11)"><path d="M229.91 93c7.74-7.69 14.44-8.25 23.33-6.87a21.2 21.2 0 0 0-9.34-2.36c-5.58 0-10.77 2.76-14 9.23" fill="none"/></clipPath><linearGradient id="I" x1="-177.88" y1="596.38" x2="-177.34" y2="596.38" gradientTransform="scale(-56 56) rotate(28 1102.92 649.94)" xlink:href="#f"/><clipPath id="J" transform="translate(-91.28 -6.11)"><path d="M186.06 194.66c-16.9 8.6-38.64 14.1-61.19 14.1a133.23 133.23 0 0 1-23.27-2 11.09 11.09 0 0 0-1 2.29c-1.81 5.19-.55 11 3.24 16.8-12.51 7.38-10.54 20.11-2.25 30-7.63 9.47-1 25 9.88 29.57-2.42 11.3-.82 21.48 12.57 25.76.33 12 9.82 17.46 21.24 19 4 14.1 11.91 18.53 28.43 15 6.31 12.67 22.12 14.1 33.42 5.55 8.78 9.47 20.86 10.84 30.57 1.88 8.61 4.79 21.18 2.29 26.34-6.36a9.87 9.87 0 0 0 .88-1.07c13.17 1.88 26-2.55 27-16l.11-.21c13.39.46 22.72-6.62 22.28-19.34 12.29-3.21 14.87-14.71 12.29-25.25 10-3.66 17.29-19.09 9.55-30.79 8.29-9.93 10.26-22.65-2.25-30 3.73-5.8 5.1-11.66 3.24-16.85l-.05-.15a182.81 182.81 0 0 1-31 2.7c-25.08 0-45.61-5.7-60.54-14.4-11.91-6.92-20.25-15.83-24.69-25.3a12.27 12.27 0 0 1-5.27-.2c-5.6 9.67-16.08 18.53-29.53 25.4" fill="none"/></clipPath><radialGradient id="K" cx="-179.48" cy="594.72" r=".51" gradientTransform="matrix(358.2 0 0 -332.24 64417.43 197815.82)" gradientUnits="userSpaceOnUse"><stop offset=".32" stop-color="#fff"/><stop offset=".67" stop-color="#f5d9d2"/><stop offset=".95" stop-color="#eec2be"/><stop offset="1" stop-color="#ebb6a8"/></radialGradient><clipPath id="L" transform="translate(-91.28 -6.11)"><path d="M153.69 116c.11 1.73.55 4.84 2 4.68 1.1-.1.82-1.78-.11-1.27-.82-.51-1-2.14-1.21-3.51a6.81 6.81 0 0 0-1.86-4.28 7.4 7.4 0 0 1 1.21 4.38m-6.09 1.48c.11 1.12 1.54 1.88 2.14.46.82-1.93-.66-7.23-2.58-8.3 2.25 1.93.22 5.55.44 7.84M156 115c.49 1.88 1.87 1.27 1.37-.25-.77-2.34-2.69-4.48-7.35-6.11 4.44 2.5 5.21 3.16 6 6.36m-4.64 4a49.18 49.18 0 0 1-1.21 5.65c-.71 3.56 1.65 4.33 2.64.36 1.65-6.41-1.54-17.2-9.06-18.73 5.6 1.53 8.07 7.64 7.63 12.73m-17-12.67c.82-1.32 4.11-1.12 5.93-.56 2.14.61 3.4 2.65 4 4.79s.49 5.45-1.81 6.67c-3.07 1.58-6-.87-6.48-3.67-.38-2.34 1.26-6.11 4-4.84 2.25 1.12 3.57 3.77 2 5.85-1.7 1.78-4.12.66-4.23-.66 4.72-1.12-1.37-5.4-1.26-.46.33 2.85 4.23 3.87 6.09 1.42 1.76-2.29.22-6.21-2.69-7.07-2.74-.81-4.66 3.41-4.66 5.5.11 3.56 4.39 6.77 7.85 4.33 2.36-1.68 2.74-4.68 2.09-7.33a6.78 6.78 0 0 0-4.61-5.19 12 12 0 0 0-2.35-.24c-1.6 0-3.22.36-3.79 1.46m13.5-3c-1.32 1.63 1.32 3.26 2.58 2 .49-.46.49-1.12-.27-1.88.22-.56 2.52-.36 3.29.81 1.59 2.29-.55 2.9-2.69 2.9-3.13.05-5.32-2.19-8.4-2.49 3 .81 6 3 8.73 3.1 2.14.15 4.17-.81 3.24-3.36a4 4 0 0 0-3.75-2.29 3.41 3.41 0 0 0-2.73 1.22m-5.6-9.57a9.09 9.09 0 0 0-3.68 3.51c-2.08 3.77 2.69 5.45 5.49 3.51 2.52-1.78 1.76-5.14-.88-4.79-1.26.2-3.62 1.22-2.25 2.65.66.66 1.92.76 2.36-1 1.21-1.07 2.25 1.58.05 2.85-2.41 1.37-5.76-.25-3.84-3.16a10.78 10.78 0 0 1 3.18-3 4.47 4.47 0 0 1 4.77.05c1.59 1.43 1.92 2.8 1.48 4a7.4 7.4 0 0 1-4 3.56 37.15 37.15 0 0 1-8.23 2c2.58-.36 6.15-.41 8.51-1.58s4.77-3.21 4.39-5.8a4 4 0 0 0-1.92-2.8 4.48 4.48 0 0 0-2.46-.74 6.82 6.82 0 0 0-3 .79" fill="none"/></clipPath><radialGradient id="g" cx="155.82" cy="110.96" r="14.94" gradientTransform="matrix(1.06 0 0 1 -109.98 -6.11)" gradientUnits="userSpaceOnUse"><stop offset="0" stop-color="#f9eae9"/><stop offset="1" stop-color="#fff"/></radialGradient><clipPath id="M" transform="translate(-91.28 -6.11)"><path d="M141.34 72.29c-.33 1.27-.77 2.9-1.65 3.31-.88-.56-1.32 1-.27 1.27 1.43.31 2.25-2.75 2.53-4.48a7.85 7.85 0 0 1 1.76-4.23 6.71 6.71 0 0 0-2.36 4.12m4.34 2.44c.38 1.53 1.92.92 2.2-.2.49-2.29-1.1-6.11 1.37-7.79-2 .87-4.12 6-3.57 8m-7.24-3.87c-.71 1.48.6 2.24 1.26.41 1.21-3.11 2-3.66 6.75-5.7-4.83 1.12-7 3-8 5.29m3.29 10.64c.49 4 3 3.51 2.69-.1a40.76 40.76 0 0 1-.49-5.75c.16-5.09 3.35-10.94 9.06-11.81-7.63.71-12.07 11.1-11.25 17.66M156.32 63c-2.52.31-4.39 2.44-5.21 4.68-1 2.54-.93 5.6 1.21 7.48 3.13 2.8 7.79.05 8.29-3.46.27-2.09-1.1-6.46-4-6s-5 4.28-3.51 6.77a3.46 3.46 0 0 0 6.26-.76c.66-4.94-5.93-1.32-1.37.31-.22 1.32-2.8 2.14-4.23.2-1.37-2.29.22-4.73 2.63-5.6 2.85-1 4.06 2.9 3.4 5.19-.82 2.75-4.06 4.89-6.92 3-2.14-1.43-1.81-4.78-1-6.82s2.31-3.92 4.55-4.33c1.87-.36 5.16-.2 5.82 1.22-.59-1.48-2.91-1.94-4.85-1.94a11.13 11.13 0 0 0-1.13.06m-13.61-2.14c-1.26 2.44.6 3.61 2.74 3.72 2.74.1 6-1.68 9.11-2.19-3.13 0-5.6 2-8.67 1.63-2.14-.25-4.23-1.12-2.36-3.21.93-1.07 3.24-1 3.4-.46-.82.66-.93 1.32-.55 1.83 1.15 1.42 4 .05 2.85-1.68a3.44 3.44 0 0 0-3-1.55 3.93 3.93 0 0 0-3.51 1.91m7.9-9.86a4 4 0 0 0-2.25 2.55c-.71 2.55 1.37 4.73 3.62 6.21s5.82 1.83 8.29 2.44a33.25 33.25 0 0 1-8-2.8c-1.54-.92-3.13-2.34-3.51-4-.27-1.17.22-2.5 1.92-3.77a4.46 4.46 0 0 1 4.77.46 11.21 11.21 0 0 1 2.85 3.31c1.48 3.05-2 4.38-4.23 2.75-2-1.48-.71-4.07.38-2.85.22 1.83 1.48 1.83 2.19 1.22 1.54-1.22-.66-2.5-1.86-2.8-2.58-.66-3.79 2.6-1.48 4.63 2.52 2.19 7.52 1.07 5.87-2.9a8.65 8.65 0 0 0-3.24-3.87 6 6 0 0 0-3.28-1.14 4.58 4.58 0 0 0-2.1.52" fill="none"/></clipPath><radialGradient id="N" cx="-179.02" cy="593.11" r=".51" gradientTransform="matrix(90.89 0 0 -84.3 16354.13 50071.03)" xlink:href="#g"/><clipPath id="O" transform="translate(-91.28 -6.11)"><path d="M143.86 147.21c2.25 1.27 5.21 1.63 9.82-.1-5 .92-6.09 1-9-.92a2.3 2.3 0 0 0-1.16-.43c-.75 0-.74.86.33 1.45m9.71 1.27c-1.7 1.27-2.47 3.21.05 4.53 2.36 1.17 5.87-.61 5.54-3.31-.22-2-3.35-1.53-3.35.2 0 .61.49 1.12 1.59 1.22.22.51-1.59 1.78-3 1.43-2.85-.66-1.7-2.44-.16-3.82 2.3-2 5.54-1.73 8.07-3.46-2.8 1.27-6.58 1.63-8.73 3.21m8.29.36c-.88 2.44-1.21 5.35 1 7a4.58 4.58 0 0 0 3.46.87 4.71 4.71 0 0 0 4-3.41 8.23 8.23 0 0 0 .22-4.94c-1.26-4.07-6-2.29-6.64.81-.6 3 2.47 4.94 4.12 3 .77-.92 1.76-3.16-.27-3.31-.93-.1-2 .61-1 2.19-.11 1.58-2.85.25-2.14-2.09.82-2.54 4.45-3.36 5.16-.05a10.41 10.41 0 0 1-.16 4.23 4.15 4.15 0 0 1-3.57 3c-2.25-.1-3.46-.86-4-2a6.38 6.38 0 0 1 .33-5.09 29.51 29.51 0 0 1 4.66-6.62c-1.65 1.83-4.28 4.12-5.16 6.46m-21-7c-.71.76.66 1.83 1 .87 1-.15 2.31.92 3.46 1.78a7.55 7.55 0 0 0 4.45 2 9.25 9.25 0 0 1-4.06-2.44c-1.07-1-3-2.52-4.14-2.52a.89.89 0 0 0-.69.28m6.37-1.68c.82 1.93 5.76 4.89 8 4.53-3.07-.05-4.23-4-6-5.55a1.74 1.74 0 0 0-1.08-.39c-.69 0-1.24.48-.84 1.41m-7.46-3.31c3.46 5.75 13.67 11.76 20.31 8.14-5.21 2.39-11.47-.61-14.82-4.63a43.4 43.4 0 0 1-3.24-4.94c-.86-1.26-1.76-1.85-2.37-1.85-.86 0-1.14 1.18.12 3.27m12.57-.61c-.49 2.7 1.37 5.19 3.79 6.72 2.08 1.32 4.94 2 7.19.86 1.76-.86 4.23-2.9 3.68-4.73.33 1.53-2.25 3.41-4 4.17-2.09.86-4.5.15-6.48-1.07s-4.34-3.72-3.46-6.06c1.1-3.1 5-3.15 7.46-1.32 2 1.48 3.46 5.29.55 6-2.53.66-5.38-.51-5.71-3.05a2.31 2.31 0 0 1 3.57-2.14c-2.69 3.77 4.94 3.1 1.26-.51-2.3-1.83-5.93-.15-5.54 2.8s4.39 4.73 7.13 3.56 1-5.45-.55-7a6.34 6.34 0 0 0-4.33-1.65c-2.14 0-4.17 1.07-4.62 3.38" fill="none"/></clipPath><radialGradient id="P" cx="163.94" cy="144.86" r="13.77" xlink:href="#g"/><clipPath id="Q" transform="translate(-91.28 -6.11)"><path d="M289.73 146.2c-3 1.88-4 1.83-9.06.92 4.61 1.73 7.58 1.37 9.82.1 1.07-.59 1.08-1.45.36-1.45a2.18 2.18 0 0 0-1.12.43m-9.6 2.55c1.54 1.37 2.69 3.16-.17 3.82-1.37.36-3.24-.92-3-1.43 1.1-.1 1.59-.61 1.59-1.22 0-1.73-3.13-2.19-3.35-.2-.33 2.7 3.18 4.48 5.54 3.31 2.52-1.32 1.76-3.26.05-4.53-2.14-1.58-5.87-1.93-8.67-3.21 2.47 1.73 5.71 1.43 8 3.46M272 149a6.63 6.63 0 0 1 .38 5.09c-.55 1.17-1.76 1.94-4 2a4.16 4.16 0 0 1-3.62-3 10.39 10.39 0 0 1-.17-4.23c.71-3.31 4.34-2.49 5.16.05.71 2.34-2 3.66-2.14 2.09 1-1.58-.06-2.29-1-2.19-2 .15-1 2.39-.28 3.31 1.65 1.94 4.72-.05 4.12-3-.61-3.1-5.38-4.89-6.59-.81a8.25 8.25 0 0 0 .17 4.94 4.71 4.71 0 0 0 4 3.41 4.52 4.52 0 0 0 3.46-.87c2.2-1.68 1.92-4.58 1-7s-3.51-4.63-5.16-6.46A29.47 29.47 0 0 1 272 149m16.63-4.94a9 9 0 0 1-4.06 2.44 7.55 7.55 0 0 0 4.45-2c1.15-.86 2.47-1.93 3.46-1.78.33 1 1.7-.1 1-.87a1 1 0 0 0-.71-.28c-1.21 0-3.1 1.52-4.17 2.52m-3.46-4.94c-1.81 1.58-3 5.5-6 5.55 2.2.36 7.13-2.6 8-4.53.43-.94-.13-1.41-.83-1.41a1.76 1.76 0 0 0-1.09.39m7.19-3.72c-1.15 1.68-2 3.41-3.24 4.94-3.4 4-9.66 7-14.87 4.63 6.64 3.61 16.85-2.39 20.31-8.14 1.26-2.09 1-3.27.13-3.27-.6 0-1.49.58-2.32 1.85m-19.26-.92c-1.59 1.53-3.24 5.8-.6 7s6.75-.71 7.13-3.56-3.24-4.63-5.54-2.8c-3.62 3.61 4 4.27 1.26.51a2.35 2.35 0 0 1 3.62 2.14c-.38 2.54-3.24 3.72-5.71 3.05-3-.71-1.42-4.53.55-6 2.36-1.83 6.37-1.78 7.46 1.32.82 2.34-1.59 4.89-3.51 6.06s-4.39 1.93-6.48 1.07c-1.7-.76-4.28-2.65-4-4.17-.55 1.83 1.92 3.87 3.68 4.73 2.3 1.17 5.1.46 7.19-.86 2.42-1.53 4.28-4 3.79-6.72-.44-2.32-2.47-3.38-4.61-3.38a6.19 6.19 0 0 0-4.28 1.65" fill="none"/></clipPath><radialGradient id="R" cx="281.97" cy="144.86" r="13.76" xlink:href="#g"/><clipPath id="S" transform="translate(-91.28 -6.11)"><path d="M282.49 113.67c-.17 1.32-.39 3-1.15 3.46-1-.46-1.21 1.17-.17 1.32 1.48.15 1.86-3 2-4.73a7.21 7.21 0 0 1 1.21-4.33 6.67 6.67 0 0 0-1.87 4.27m4.61 2c.61 1.48 2 .71 2.14-.46.22-2.29-1.81-5.91.44-7.84-1.92 1.07-3.35 6.36-2.58 8.3m-7.68-3.1c-.49 1.58.88 2.19 1.37.3.77-3.26 1.54-3.87 6-6.36-4.67 1.58-6.58 3.72-7.36 6.06m4.55 10.22c1 4 3.35 3.21 2.63-.36a51.66 51.66 0 0 1-1.21-5.65c-.38-5.09 2-11.2 7.63-12.73-7.52 1.53-10.7 12.32-9.06 18.73m12.29-19.9c-2.52.56-4.12 2.85-4.67 5.19-.66 2.6-.27 5.65 2.09 7.28 3.46 2.49 7.74-.76 7.85-4.28 0-2.14-1.92-6.31-4.67-5.5-2.91.81-4.44 4.73-2.69 7.08a3.46 3.46 0 0 0 6.15-1.43c.06-4.94-6-.66-1.32.46-.11 1.32-2.52 2.44-4.17.66-1.65-2.14-.33-4.79 2-5.85 2.69-1.27 4.33 2.44 3.95 4.78-.44 2.85-3.4 5.29-6.48 3.72-2.3-1.22-2.41-4.58-1.81-6.72s1.81-4.12 4-4.79c1.81-.51 5.1-.71 5.93.61-.58-1.1-2.2-1.48-3.78-1.48a10.3 10.3 0 0 0-2.31.26m-13.83-.71c-1 2.55 1 3.51 3.18 3.41 2.74-.2 5.76-2.29 8.78-3.11-3.13.25-5.32 2.54-8.45 2.49-2.14-.05-4.28-.66-2.69-3 .83-1.12 3.08-1.32 3.29-.81-.71.76-.77 1.43-.27 1.88 1.26 1.27 3.9-.36 2.58-1.93a3.41 3.41 0 0 0-2.76-1.26 3.85 3.85 0 0 0-3.66 2.28m6.58-10.64a4 4 0 0 0-1.92 2.8c-.38 2.6 1.92 4.53 4.39 5.75s6 1.22 8.51 1.58a35 35 0 0 1-8.23-1.93 7.61 7.61 0 0 1-4-3.56c-.44-1.17-.11-2.54 1.48-4a4.37 4.37 0 0 1 4.78-.05 10.8 10.8 0 0 1 3.18 3c1.92 2.85-1.43 4.53-3.84 3.16-2.2-1.27-1.15-4 .05-2.9.44 1.83 1.7 1.68 2.36 1 1.37-1.38-1-2.44-2.25-2.6-2.58-.41-3.4 3-.88 4.79 2.8 1.88 7.58.25 5.49-3.56a8.92 8.92 0 0 0-3.68-3.46 6.53 6.53 0 0 0-3-.83 4.33 4.33 0 0 0-2.47.78" fill="none"/></clipPath><radialGradient id="T" cx="292.4" cy="108.75" r="14.95" xlink:href="#g"/><clipPath id="U" transform="translate(-91.28 -6.11)"><path d="M290 66.84c.28 1.73 1.1 4.79 2.53 4.48 1-.26.6-1.83-.27-1.27-.88-.41-1.26-2-1.65-3.31a6.63 6.63 0 0 0-2.3-4.07 7.45 7.45 0 0 1 1.7 4.17M284.08 69c.22 1.12 1.76 1.73 2.2.2.55-2-1.59-7.13-3.62-8 2.47 1.73.88 5.5 1.43 7.79m8.12-3.26c.71 1.83 2 1.07 1.26-.41-1-2.29-3.13-4.17-8-5.29 4.72 2 5.54 2.6 6.75 5.7M288 70.1a50.94 50.94 0 0 1-.55 5.75c-.22 3.61 2.2 4.12 2.69.1.88-6.57-3.62-17-11.25-17.66 5.76.92 8.89 6.72 9.11 11.81m-18.41-10.79c.71-1.43 4-1.58 5.82-1.22 2.25.41 3.73 2.29 4.55 4.33s1.15 5.4-1 6.82c-2.85 1.93-6.09-.2-6.91-3-.66-2.29.55-6.21 3.4-5.19 2.42.87 4 3.31 2.69 5.6-1.48 1.93-4 1.12-4.28-.2 4.55-1.63-2-5.24-1.32-.31.66 2.75 4.72 3.36 6.26.76s-.55-6.21-3.57-6.77c-2.85-.51-4.22 3.87-4 6 .55 3.51 5.16 6.26 8.34 3.46 2.09-1.88 2.14-4.94 1.21-7.48a7 7 0 0 0-5.27-4.68 11 11 0 0 0-1.12-.06c-1.92 0-4.28.46-4.87 1.94m13.06-4.38c-1.1 1.73 1.7 3.1 2.85 1.68.38-.51.33-1.17-.55-1.83.16-.56 2.47-.61 3.4.46 1.87 2.09-.22 3-2.31 3.21-3.13.36-5.6-1.63-8.67-1.63 3 .51 6.31 2.29 9.05 2.19 2.14-.1 4-1.27 2.8-3.72a4 4 0 0 0-3.54-1.89 3.5 3.5 0 0 0-3 1.54M276 46a9 9 0 0 0-3.24 3.87c-1.59 4 3.35 5.09 5.87 2.9 2.3-2 1.1-5.29-1.48-4.63-1.15.31-3.4 1.58-1.87 2.8.71.61 2 .61 2.2-1.22 1.1-1.22 2.47 1.37.38 2.85-2.2 1.63-5.71.31-4.17-2.75a11.13 11.13 0 0 1 2.8-3.31 4.46 4.46 0 0 1 4.77-.46c1.76 1.27 2.25 2.6 1.92 3.77a7.06 7.06 0 0 1-3.51 4 33.29 33.29 0 0 1-8 2.8c2.47-.61 6.09-1 8.29-2.44s4.34-3.67 3.62-6.21a3.88 3.88 0 0 0-2.25-2.55 4.6 4.6 0 0 0-2.1-.53A6 6 0 0 0 276 46" fill="none"/></clipPath><radialGradient id="V" cx="284.1" cy="62.43" r="14.88" xlink:href="#g"/><clipPath id="W" transform="translate(-91.28 -6.11)"><path d="M137.55 173.79c-2.69 1-5.16 3-5.32 5.75-.22 4.07 5.1 5.5 8.29 3.56 1.92-1.17 4.56-5 2.25-6.67s-6.75-.71-7.79 1.93c-1.1 2.8 2 5.19 4.72 3.87 4.45-2.75-2.85-5-1.1-.71a2.3 2.3 0 0 1-3-2.85c1-2.44 4.06-3 6.31-1.78 2.69 1.32.27 4.68-2 5.75-2.8 1.22-6.64.41-7-2.85-.22-2.49 2.69-4.48 4.88-5.19s4.72-1 6.53.3c1.48 1.07 3.51 3.51 2.85 4.89 1-1.68-.93-4.17-2.42-5.4a6 6 0 0 0-3.86-1.23 10 10 0 0 0-3.38.62m-9.33.87c-.93 1.27.55 1.93 1.59 1.37 2.2-1.12 4.28-4.73 7.24-4.12a3.48 3.48 0 0 0-1.33-.22c-2.49 0-6.46 1.54-7.5 3m-8.07 1.68c-3 3-.93 4.38 1.81 1.83 1.54-1.37 2.75-3 4.39-4.17 4.28-3.21 11-4.79 15.59-1.37a10.63 10.63 0 0 0-7.09-2.31 22.33 22.33 0 0 0-14.7 6m7.29-6.34c-1.32.66-2.85 1.38-3.79 1.07-.11-1-1.7-.25-1.21.66.71 1.17 3.73-.25 5.27-1.17a9 9 0 0 1 4.55-1.58 5.45 5.45 0 0 0-.94-.08 9.05 9.05 0 0 0-3.89 1.1m-.77-3c-1.65.51-1.43 1.88.55 1.17 3.29-1.22 4.28-1 9 1a13 13 0 0 0-7.06-2.51 8.56 8.56 0 0 0-2.49.38m10.92-3.56c-2.8.71-2.47 2.8-1.15 4.38 1.7 2 5.27 3.1 7.68 4.89-2-2.19-5.21-2.55-7-5-1.21-1.68-1.87-3.66 1.1-3.72 1.43-.05 2.91 1.58 2.58 2-1.1-.1-1.7.25-1.87.86-.38 1.68 2.58 2.75 3.24.87.83-2.26-1.41-4.44-3.73-4.44a3.5 3.5 0 0 0-.88.11m9.66-.92c-2.52 1.22-2.91 4.07-2.63 6.67.28 2.44 2.31 5.24 3.4 7.38a31.54 31.54 0 0 1-2.91-7.38 6.77 6.77 0 0 1 .93-5.09c.77-1 2.14-1.53 4.34-1.12a3.84 3.84 0 0 1 2.74 3.61 9.52 9.52 0 0 1-.88 4.17c-1.48 3.05-4.83 1.48-4.94-1.17-.16-2.39 2.8-3.16 2.52-1.58-1.32 1.32-.49 2.24.44 2.34 2 .25 1.59-2.14 1.1-3.16-1.15-2.24-4.61-1-4.77 2-.11 3.16 4.06 5.9 6.26 2.19a8.23 8.23 0 0 0 1-4.84 4.58 4.58 0 0 0-3.07-4.17 5.06 5.06 0 0 0-1.67-.3 4.86 4.86 0 0 0-1.9.4" fill="none"/></clipPath><radialGradient id="X" cx="145.84" cy="173.59" r="14.73" xlink:href="#g"/><clipPath id="Y" transform="translate(-91.28 -6.11)"><path d="M289.79 172.56c-1.48 1.22-3.4 3.71-2.41 5.34-.66-1.37 1.32-3.77 2.85-4.84 1.81-1.32 4.28-1.07 6.53-.36s5.1 2.75 4.89 5.19c-.33 3.26-4.23 4.12-7 2.85-2.25-1-4.66-4.43-2-5.75 2.25-1.12 5.33-.61 6.31 1.78a2.29 2.29 0 0 1-3 2.85c1.76-4.22-5.54-2-1.09.76 2.69 1.32 5.82-1.12 4.72-3.87s-5.38-3.72-7.79-2 .33 5.5 2.25 6.67c3.18 1.93 8.51.51 8.23-3.56-.11-2.7-2.58-4.73-5.27-5.75a9.89 9.89 0 0 0-3.35-.62 5.94 5.94 0 0 0-3.9 1.28m7.74-2.55c3-.61 5 3 7.19 4.12 1.1.56 2.58-.1 1.65-1.37s-5.08-2.94-7.57-2.94a3.47 3.47 0 0 0-1.26.2m-4.88.71c4.56-3.41 11.31-1.78 15.59 1.43 1.65 1.22 2.85 2.75 4.39 4.12 2.74 2.55 4.77 1.17 1.81-1.83a22.61 22.61 0 0 0-14.76-6 10.47 10.47 0 0 0-7 2.3m9.71-3.67a9.5 9.5 0 0 1 4.56 1.58c1.54.92 4.56 2.34 5.27 1.17.49-.87-1.1-1.63-1.21-.61-.93.31-2.47-.46-3.79-1.07a9.58 9.58 0 0 0-4-1.13 5.74 5.74 0 0 0-.82.06m-4 .26c4.72-2 5.71-2.19 9-1 2 .71 2.2-.66.55-1.17a8.71 8.71 0 0 0-2.54-.39 12.69 12.69 0 0 0-7 2.52m-6-1.37c.66 1.88 3.62.81 3.24-.92-.17-.61-.77-1-1.87-.81-.33-.51 1.15-2.09 2.58-2.09 3 .1 2.3 2.09 1.1 3.72-1.76 2.44-5 2.85-7 5 2.47-1.83 6-3 7.74-4.94 1.32-1.58 1.59-3.67-1.15-4.38a3.48 3.48 0 0 0-.87-.11c-2.32 0-4.57 2.22-3.74 4.49m-8.67-5.35c-1.81.61-2.74 2-3 4.12a8.23 8.23 0 0 0 1 4.84c2.19 3.77 6.37 1 6.26-2.19-.17-3-3.62-4.28-4.78-2-.55 1-.93 3.41 1 3.21 1-.15 1.81-1 .44-2.39-.22-1.53 2.74-.81 2.58 1.58-.11 2.65-3.51 4.23-5 1.17a10.15 10.15 0 0 1-.82-4.17 3.83 3.83 0 0 1 2.74-3.61c2.2-.41 3.57.15 4.33 1.12a6.76 6.76 0 0 1 .93 5.09 27.94 27.94 0 0 1-3 7.38c1.15-2.14 3.18-4.89 3.46-7.38s-.11-5.45-2.63-6.62a4.34 4.34 0 0 0-1.85-.42 5.58 5.58 0 0 0-1.77.31" fill="none"/></clipPath><radialGradient id="Z" cx="300.26" cy="171.72" r="14.72" xlink:href="#g"/><clipPath id="aa" transform="translate(-91.28 -6.11)"><path d="M127.95 303.13c-1.76.15-1.59 2 .05 2.19 1.13.16 1.63-.46 1.57-1.08a1.33 1.33 0 0 0-1.46-1.11h-.17m-4.33-1.13c-1.65.31-1.15 1.88.38 2 1.28.13 1.61-.45 1.42-1a1.66 1.66 0 0 0-1.52-1h-.28m1.59-.51c1 1.37 3.62.1 2.14-1.58a1.36 1.36 0 0 0-1-.47 1.28 1.28 0 0 0-1.11 2.05" fill="none"/></clipPath><radialGradient id="h" cx="136.57" cy="302.44" r="3.34" gradientTransform="matrix(1.06 0 0 1 -109.98 -6.11)" gradientUnits="userSpaceOnUse"><stop offset="0" stop-color="#d24a43"/><stop offset="1" stop-color="#ac4036"/></radialGradient><clipPath id="ab" transform="translate(-91.28 -6.11)"><path d="M104.68 216.54c1.1 1.78 3.18 0 1.81-1.37a1.44 1.44 0 0 0-1-.52 1.15 1.15 0 0 0-.78 1.89m1.54-4.43a1.38 1.38 0 1 0 2.69.56 1.26 1.26 0 0 0-1.37-1.51 1.34 1.34 0 0 0-1.32.95m-2.91.66c1.37 2.09 2.8-.46 1.54-1.53a1.51 1.51 0 0 0-.9-.36c-.8 0-1.21 1-.63 1.89" fill="none"/></clipPath><radialGradient id="ac" cx="117.79" cy="214.61" r="3.39" xlink:href="#h"/><clipPath id="ad" transform="translate(-91.28 -6.11)"><path d="M170.31 318.4c2.08.76 2.52-1.83.49-2.14h-.33c-1.5 0-1.6 1.64-.16 2.16m-3.62-2.14c2.47.82 1.87-2 .16-2h-.08c-1.62 0-1.49 1.59-.09 2m1.81-2.19c.66 1.53 3.51.82 2.47-1.12a1.36 1.36 0 0 0-2.47 1.12" fill="none"/></clipPath><radialGradient id="ae" cx="177.4" cy="315.7" r="3.54" xlink:href="#h"/><clipPath id="af" transform="translate(-91.28 -6.11)"><path d="M217.18 351.84c-1.81.1-1.7 2 0 2.19 1.12.19 1.62-.45 1.56-1.08a1.32 1.32 0 0 0-1.44-1.11h-.12m-4.33-1.22c-1.7.26-1.21 1.83.33 2 1.29.15 1.63-.43 1.44-1a1.62 1.62 0 0 0-1.5-1h-.28m1.59-.46c1 1.37 3.62.1 2.14-1.63a1.29 1.29 0 0 0-1-.47 1.32 1.32 0 0 0-1.14 2.1" fill="none"/></clipPath><radialGradient id="ag" cx="220.86" cy="351.14" r="3.36" xlink:href="#h"/><clipPath id="ah" transform="translate(-91.28 -6.11)"><path d="M263.23 318.09c-.93 1.38.66 2.09 1.81 1.17 1.3-1.08.48-1.82-.48-1.82a1.57 1.57 0 0 0-1.33.65m3.84-2.19c-1.1 1.32.49 2.44 1.76 1.48s.42-2.05-.6-2.05a1.52 1.52 0 0 0-1.16.58m-3.18.81c1.76.21 2.47-2.44.11-2.54h-.11a1.27 1.27 0 1 0 0 2.55" fill="none"/></clipPath><radialGradient id="ai" cx="269.14" cy="317.18" r="3.41" xlink:href="#h"/><clipPath id="aj" transform="translate(-91.28 -6.11)"><path d="M312.07 305.78c-.88 1.32.71 2 1.86 1.12 1.3-1 .49-1.79-.49-1.79a1.65 1.65 0 0 0-1.38.67m3.84-2.19c-1.1 1.32.49 2.44 1.81 1.43s.44-2-.59-2a1.61 1.61 0 0 0-1.22.61m-3.18.76c1.81.25 2.53-2.44.16-2.55h-.1a1.28 1.28 0 0 0-.06 2.55" fill="none"/></clipPath><radialGradient id="ak" cx="315.35" cy="304.81" r="3.41" xlink:href="#h"/><clipPath id="al" transform="translate(-91.28 -6.11)"><path d="M317.39 256.6c.28 1.53 2 1.12 2.25-.31.16-1-.25-1.4-.76-1.4a1.6 1.6 0 0 0-1.49 1.7m-2.14-3.51c-1.32 1 .11 3 1.7 2a1.29 1.29 0 0 0-.63-2.39 1.82 1.82 0 0 0-1.07.41m3.57-.51c.05 1.68 2.08 1.58 2.36.05.19-1-.4-1.5-1-1.5a1.32 1.32 0 0 0-1.31 1.44" fill="none"/></clipPath><radialGradient id="am" cx="317.91" cy="254.63" r="3.51" xlink:href="#h"/><clipPath id="an" transform="translate(-91.28 -6.11)"><path d="M330.29 215.68c-.16 1.58 1.59 1.58 2.2.31.52-1.11 0-1.58-.63-1.58a1.57 1.57 0 0 0-1.57 1.28m-1.09-3.87c-1.59.61-.71 2.85 1 2.34a1.27 1.27 0 0 0-.25-2.51 2.1 2.1 0 0 0-.79.17m3.57.36c-.38 1.63 1.59 2 2.3.61a1.08 1.08 0 0 0-1-1.72 1.36 1.36 0 0 0-1.35 1.11" fill="none"/></clipPath><radialGradient id="ao" cx="331.1" cy="214.16" r="3.46" xlink:href="#h"/><clipPath id="ap" transform="translate(-91.28 -6.11)"><path d="M124.1 249.88a1.21 1.21 0 1 0 2.08-1.12 1.43 1.43 0 0 0-1.13-.67 1.19 1.19 0 0 0-1 1.79m2.25-4.17a1.37 1.37 0 1 0 2.58.92 1.28 1.28 0 0 0-1.32-1.71 1.39 1.39 0 0 0-1.26.8m-3 .25c1 2.24 2.85 0 1.76-1.27a1.33 1.33 0 0 0-1-.51c-.71 0-1.21.85-.79 1.79" fill="none"/></clipPath><radialGradient id="aq" cx="136.9" cy="247.97" r="3.42" xlink:href="#h"/><clipPath id="ar" transform="translate(-91.28 -6.11)"><path d="M104.07 250.19c2.14.31 4.17 2 6.15 5.4-.55-1.88-2-7.33-5.87-7.64h-.48c-2.67 0-1 2.07.21 2.26m9.22-2.44c-2.8 2.34-4.34 8 1.65 9-2.91-1.37-3.57-3.36-2.25-5.19a5.14 5.14 0 0 1 3.35-2.24c1.43-.31 4.39.56 3.46 2.8-1.65 2.19-2.74 1.83-3.07 1.12 1.76.36 1.92-1.53 1-2.34-2.08-2-4.39 1.27-3.35 3 1.87 3.11 7.08.25 7.79-2.09 1-3.14-2.26-5.11-5.29-5.11a5.3 5.3 0 0 0-3.32 1m.88-1.53c.55-.3 4.33-.15 6.42 0 2.36.26 1.87-1.53.11-1.68h-.48a17.42 17.42 0 0 0-6.05 1.7m-14.43-2.9c-1.48 2 2 2.65 3.4 2.39 4-.41 4.5 2.7 5.76 4.33 0-1.63-2-5.6-3.46-7a3.74 3.74 0 0 0-2.67-1 3.84 3.84 0 0 0-3 1.28m11.25 3.88c2.8-2.65 3.29-2.34 8.84-3.1 2.2-.26 2.8-2.24.33-2.54h-.41c-3 0-7.71 3-8.76 5.67m9.55-8.6c-2.14.1-6.53 2.75-6.92 4.73 1.92-2.24 5.6-1.78 7.57-2.9 1.08-.65.73-1.83-.58-1.83h-.08m-16.35.71c-.33.92.28 1.83 1.81 2.7a4.6 4.6 0 0 1 1.65 2 19.31 19.31 0 0 1 1.54 3.05h.17a8.29 8.29 0 0 0-.44-4.94 5.54 5.54 0 0 0-2.36-3.1 2.83 2.83 0 0 0-1.37-.47 1 1 0 0 0-1 .73m4.77-1.37c.22 2.39 2.52 3.66 2.14 6.41 1.59-2 1.15-5.09-.27-7.18a1.36 1.36 0 0 0-1-.71c-.51 0-.9.56-.84 1.47m7 1.48c1.37-.56 5.65-1.83 6.37-2.85a.69.69 0 0 0-.17-1.12 1.57 1.57 0 0 0-.81-.2c-2 0-5.2 2.8-5.39 4.17m-2.58-3.77c-.93 1.53-.77 4.74-.38 6a17.77 17.77 0 0 0 2.91-5.14 1.22 1.22 0 0 0-1.27-1.55 1.48 1.48 0 0 0-1.26.69m9.22-6.11c-.27 2.44-1.81 3.77-3.51 5.75 2.31-.81 6.2-3.16 6.37-5.6.11-1.64-.48-2.37-1.15-2.37s-1.51.8-1.7 2.22" fill="none"/></clipPath><radialGradient id="as" cx="123.45" cy="242.16" r="13.92" xlink:href="#h"/><clipPath id="at" transform="translate(-91.28 -6.11)"><path d="M122.68 295.6c-2.8 1.68.11 2.49 1.21 1.93 2-1 4.66-.76 8.45.87-1.3-1-4.48-3.39-7.41-3.39a4.32 4.32 0 0 0-2.25.59m-6.7-1.07c.17 2.44 3.35 1 4.28-.05 2.85-2.54 5.38-.41 7.41.25-1.1-1.38-5.27-3.36-7.3-3.67a3.87 3.87 0 0 0-.54 0c-2.26 0-4 2-3.85 3.5m2.63-7.23c-1.43.05-2 .61-1.7 1.48s1.37 1.32 3.18 1.12a5.45 5.45 0 0 1 2.64.71 25.16 25.16 0 0 1 3.24 1.58l.16-.1a9.6 9.6 0 0 0-3.57-3.67 6.6 6.6 0 0 0-3.53-1.14h-.42m11.08 3.1c-.77 3.41 1.76 8.81 7.19 6.21-3.24.61-5-.66-5.21-2.85a4.56 4.56 0 0 1 1.21-3.66c.93-1.07 3.84-2 4.61.3.11 2.65-1 3-1.76 2.65 1.65-.76.55-2.34-.66-2.5-3-.41-2.69 3.46-.71 4.27 3.51 1.43 5.76-3.77 4.77-6.05a3.72 3.72 0 0 0-3.67-2.32c-2.49 0-5.29 1.72-5.77 3.95m3.79-6.77c-2 1.17-4.12 4.94-4.12 5 .22-.56 3.35-2.54 5.16-3.61 1.5-.85 1-1.71 0-1.71a2.15 2.15 0 0 0-1 .28m-13.7 1.4c1.7 1.78 4.39 1.53 5.87 3.92-.11-2.54-2.41-4.73-4.88-5.55a2.29 2.29 0 0 0-.76-.15c-.92 0-1.12.88-.23 1.78m11.25-3.41c-2.53 1.38-4.56 6.82-3.57 9.67.44-3.71 1-3.71 5-7.43 1.21-1.16 1-2.58-.25-2.58a2.59 2.59 0 0 0-1.17.34m-9.22-.92c.22 1.78 2.47 4.23 3.62 5a16 16 0 0 0-1.1-5.7 1.25 1.25 0 0 0-1.16-.78 1.35 1.35 0 0 0-1.37 1.49m7.57-1.63c-1.59 1.27-3.4 5.85-2.41 7.63.11-2.85 3.29-4.53 4.12-6.57.35-.82-.12-1.42-.79-1.42a1.51 1.51 0 0 0-.91.35m-.71-3.41c-2.14.15-3.24 5.24-2.36 6.57.71-1.17 3.29-4.58 3.18-5.8-.05-.51-.24-.77-.69-.77h-.13m-3.51-5c1.32 2.09 1 4 1 6.57 1.26-2 2.8-6 1.37-8-.72-1-1.42-1.4-2-1.4-1 0-1.39 1.33-.41 2.87" fill="none"/></clipPath><radialGradient id="au" cx="138.66" cy="283.5" r="13.75" xlink:href="#h"/><clipPath id="av" transform="translate(-91.28 -6.11)"><path d="M163.56 336.32c-1.37 2.85 1.54 2 2.14 1 1-1.78 3.4-3 7.57-3.61-.65 0-1.66-.13-2.79-.13-2.58 0-5.82.44-6.92 2.78m-4.61-2.6a3.56 3.56 0 0 0-1.65 5.14c1.59 1.94 3.35-.92 3.56-2.24.88-3.61 4.23-3.05 6.31-3.61a7.5 7.5 0 0 0-2.13-.24 19.56 19.56 0 0 0-6.1.95m-3.73-2.24c-1.15.81-1.32 1.58-.55 2.14s2 .36 3.35-.71a5.54 5.54 0 0 1 2.58-.76 30.8 30.8 0 0 1 3.62-.36l.11-.15a10.1 10.1 0 0 0-5.16-1.22h-.31a5.8 5.8 0 0 0-3.65 1.07m-.55-4.38c-1.59.3-1.37 1.47.17 1.88a7.83 7.83 0 0 0 3.17 0 6.79 6.79 0 0 1 4.08.25 7 7 0 0 0-5.53-2.29 8.86 8.86 0 0 0-1.88.2m-.71-2.75c1.21 1.32 4.56 2.19 6 2.24a18.54 18.54 0 0 0-4.28-4.17 1.54 1.54 0 0 0-.81-.25 1.29 1.29 0 0 0-.9 2.18m12.35 4c1.37 3.26 6.7 6.46 9.66 1.53-2.3 2.14-4.56 2-6 .25a4.72 4.72 0 0 1-1.21-3.66c.22-1.37 2-3.61 4.06-2.09 1.7 2.14.93 3 .11 3.05.93-1.42-.88-2.19-2-1.68-2.69 1.17-.16 4.28 2 3.92 3.73-.61 2.52-6.11.38-7.53a4.07 4.07 0 0 0-2.25-.7c-3.24 0-5.92 4.13-4.67 6.91m-.88-7.54c-1 2-.49 6.16-.44 6.26-.11-.56 1.26-3.82 2.14-5.6.55-1.11.18-1.65-.38-1.65a1.6 1.6 0 0 0-1.32 1m-3.24-.46c-1.26 2.39.22 8 2.74 9.83-1.76-3.31-1.26-3.61-.22-8.7.24-1.28-.39-2.22-1.16-2.22-.46 0-1 .32-1.37 1.1m-2.91-1.32c-.55 1.88.66 6.62 2.58 7.58-1.65-2.39 0-5.45-.49-7.58a1.11 1.11 0 0 0-1-.9 1.14 1.14 0 0 0-1 .9m-2.63-2.44c-1.7 1.17.49 6 2 6.67-.11-1.37 0-5.5-.82-6.52a.73.73 0 0 0-1.15-.15m-5.87-2.39c2.36 1.07 3.18 2.85 4.72 5-.11-2.29-1.21-6.41-3.68-7.38a4.62 4.62 0 0 0-1.65-.38c-1.73 0-1.54 1.79.61 2.77" fill="none"/></clipPath><radialGradient id="aw" cx="171.27" cy="326.13" r="14" xlink:href="#h"/><clipPath id="ax" transform="translate(-91.28 -6.11)"><path d="M222 345.33a5.72 5.72 0 0 0-2.85 2.75c-.55 1.22-.28 2 .71 2.09s1.87-.56 2.52-2.14a4.72 4.72 0 0 1 1.81-1.88c.6-.46 1.54-1.07 3-2V344a10.39 10.39 0 0 0-5.16 1.32m1.59 3a3.56 3.56 0 0 0 1.37 5.19c2.41 1 2.41-2.34 1.87-3.56-1.16-3.56 2-4.63 3.51-6.06-1.76.31-5.54 2.85-6.75 4.43m-7.25-3.82c-1.21 1.07-.38 1.93 1.16 1.58 2.52-.66 3.46-3 6.42-3.16a5.91 5.91 0 0 0-2.27-.43 8.38 8.38 0 0 0-5.31 2m12.63 3.94c.33 3.1 2.36 1 2.3-.15-.05-2 1.32-4.17 4.61-6.62-1.92.81-7.36 3.11-6.92 6.77m-14.76-6c1.76.56 5.16-.2 6.42-.81a20.66 20.66 0 0 0-6-1.63h-.12a1.24 1.24 0 0 0-.32 2.45m1.81-7.08c.49 1.94 4.11 5.45 6.25 5.45-2.69-1.37-2.91-4.79-4.5-6.36a1.29 1.29 0 0 0-.92-.44c-.59 0-1.06.54-.84 1.36m-3.62-.87c-.82 1.78 3.62 5 5.27 4.89-.82-1.17-3-4.79-4.17-5.29a1.38 1.38 0 0 0-.47-.1.63.63 0 0 0-.63.5m6.81.66c.16 2.7 4.5 6.82 7.68 7.33-3.35-2.09-3.07-2.6-4.88-7.48a2.11 2.11 0 0 0-1.73-1.53c-.62 0-1.13.53-1.07 1.68m3.07-1.07c.17 2.24 2.85 5.6 3 5.65-.44-.46-1-3.92-1.21-5.85-.1-1-.48-1.34-.87-1.34s-1 .65-.94 1.54m-16.63-1.53c-3.62.41-2.63 2.75.38 2.59 2.63-.15 4.28 1 6.75 2.09-1.25-1.84-4.21-4.7-6.76-4.7h-.37m21.4 7.69c2.91 2.14 9.22 2.5 9.17-3.16-.88 2.9-2.85 3.87-5 3a5 5 0 0 1-3-2.6c-.6-1.27-.22-4.12 2.3-3.72 2.64 1.07 2.42 2.19 1.76 2.6 0-1.68-2-1.48-2.63-.51-1.7 2.24 2.09 3.77 3.73 2.49 3-2.29-1-6.46-3.62-6.72h-.42c-4.56 0-5.3 6.4-2.27 8.62" fill="none"/></clipPath><radialGradient id="ay" cx="224.89" cy="343.08" r="14.02" xlink:href="#h"/><clipPath id="az" transform="translate(-91.28 -6.11)"><path d="M265.48 331.69c-1.43.81-.39 2.59 1.15 2.24 1.81-.46 4.12-2.9 4.77-4.07a21.43 21.43 0 0 0-5.92 1.83m-12-1.22c-2.74 2.24-.44 3.67 1.92 1.88 2-1.53 4.12-1.48 6.81-1.88a15.88 15.88 0 0 0-5.22-1 5.38 5.38 0 0 0-3.5 1m16.08 4c-.33 1.48.93 1.78 1.92.66 1.7-1.83 1-4.28 3.29-6a7 7 0 0 0-5.22 5.34m5.16-2.34a5 5 0 0 0-.6 3.77c.28 1.27 1 1.73 1.87 1.32s1.15-1.48.71-3.11a4.31 4.31 0 0 1 .33-2.49 23.93 23.93 0 0 1 1.15-3.21l-.11-.15a9.13 9.13 0 0 0-3.35 3.87m-13.89-4.63c-.55.1-.82.41-.66.92.44 1.93 6.09 2.14 7.35 1.12-1.28-.43-4.87-2.06-6.41-2.06a1.45 1.45 0 0 0-.29 0m17.07 6.21c-.05 2.39 2.69 3.82 4.28 3.51 2.63-.51.55-3.21-.66-3.92-3.13-2.24-1.26-4.83-.88-6.87-1.26 1.22-2.74 5.34-2.74 7.28m-14.21-6.52c1.59 1.27 6.75 2.24 8.51 1.07-3.07.36-5.32-2.34-7.63-2.8h-.3c-1.1 0-1.53 1-.57 1.75m2.47-1.88c1.81 2.14 8 3.16 10.81 1.83-4 .1-4.12-.41-8.62-3.46a2.93 2.93 0 0 0-1.57-.52c-1.1 0-1.71.9-.62 2.15m16.19 5.6c2.2 2.34 2.63-.46 1.87-1.42-1.32-1.63-1.54-4.12-.38-7.89-1 1.73-4.06 6.57-1.48 9.32M268 322.83c1.59 1.68 5.87 3 6 3-.6-.15-3.24-2.65-4.61-4.17a1.79 1.79 0 0 0-1.2-.72c-.72 0-.93 1-.17 1.89m4.61-6c-4.28 2.29-.83 8.25 3.18 8.45 3.73.15 9.11-3 5.54-7.53 1.09 2.85.05 4.73-2.25 5.19a5.6 5.6 0 0 1-4.12-.51c-1.26-.76-2.69-3.26-.38-4.33 2.85-.51 3.35.51 3.07 1.22-1-1.37-2.53-.15-2.53 1 0 2.75 4.12 1.93 4.67-.05.74-2.56-2.38-3.91-5-3.91a4.88 4.88 0 0 0-2.23.45" fill="none"/></clipPath><radialGradient id="aA" cx="270.88" cy="327" r="13.69" xlink:href="#h"/><clipPath id="aB" transform="translate(-91.28 -6.11)"><path d="M292.7 301.4c-1.48 3.1 1.21 3.51 2.63 1 1.21-2.14 3.07-2.9 5.43-4.22-2.47 0-7 1-8.07 3.21m5.49-5.4c-.44.31-.55.66-.22 1.07 1.26 1.58 6.53-.36 7.24-1.73-1.42.1-5.92-.1-7 .66m6 2.09c-.93 1.27.77 2.49 2 1.58 1.48-1.07 2.53-4.17 2.58-5.5a18.91 18.91 0 0 0-4.61 3.92m-.35-5.24a9.93 9.93 0 0 0-3.11-.11c-1.32.25-1.37 1.53-.05 1.88 2 .61 7.13-.46 8.23-2.19-1.6.85-3.4.63-5.07.41m5.34 6.25c.38 1.48 1.59 1.27 2-.1.71-2.34-.93-4.27.44-6.72a6.48 6.48 0 0 0-2.47 6.82m3.68-4.07a5.38 5.38 0 0 0 1.1 3.66c.82 1.07 1.65 1.22 2.31.51s.44-1.78-.72-3.1a4.24 4.24 0 0 1-.77-2.39 27.22 27.22 0 0 1-.33-3.36l-.16-.1a8.82 8.82 0 0 0-1.43 4.79M302.14 292c2.58 1.27 8.61 0 10.7-2.34-3.62 1.58-4 1.12-9.44 0a3.84 3.84 0 0 0-.67-.06c-1.75 0-2.55 1.4-.59 2.35m14.32 3.31c1 2.19 4.17 2.49 5.54 1.58 2.14-1.43-.93-3.11-2.36-3.31-3.84-.87-3.24-4-3.79-6-.6 1.58-.17 5.91.6 7.69M302.74 289c2.14 1 6.64.56 6.75.46-.66.15-4.12-1.17-6-2a2.63 2.63 0 0 0-1.05-.28c-1.08 0-.93 1.28.34 1.85m16.63 2c3 1.32 2.19-1.42 1.1-2-1.92-1-3.18-3.21-3.73-7.08-.22 2-.93 7.48 2.63 9.06m-6.52-6.01a5.82 5.82 0 0 1-4 1c-1.43-.21-3.9-1.93-2.19-3.77 2.36-1.53 3.29-.82 3.35-.05-1.59-.92-2.42.81-1.92 1.83 1.26 2.54 4.61.25 4.28-1.73-.6-3.51-6.53-2.44-8.07-.51-3 3.72 2.8 7.89 6.58 6.57 3.51-1.27 7-6.11 1.76-9 2.3 2.19 2.14 4.28.22 5.6" fill="none"/></clipPath><radialGradient id="aC" cx="308.48" cy="291.85" r="14.36" xlink:href="#h"/><clipPath id="aD" transform="translate(-91.28 -6.11)"><path d="M309.22 249.22c-1.54 3 1.1 3.51 2.58 1.07 1.26-2.14 3.18-2.8 5.54-4.12h-.21c-2.51 0-6.79.88-7.91 3.06m5.65-5.29a.68.68 0 0 0-.27 1.07c1.26 1.58 6.53-.15 7.3-1.53h-2.92c-1.67 0-3.47.09-4.11.5m6 2.24c-1 1.27.66 2.54 2 1.63 1.48-1 2.63-4.07 2.74-5.4a18.51 18.51 0 0 0-4.72 3.77m-.28-5.23a10.33 10.33 0 0 0-3.06-.22c-1.32.25-1.43 1.48-.11 1.88 2 .66 7.19-.26 8.29-2-1.62.86-3.43.59-5.11.32m5.22 6.35c.33 1.53 1.59 1.37 2 0 .82-2.29-.83-4.28.66-6.67-2.31 1.32-3.13 4.33-2.69 6.72m3.79-4a5.13 5.13 0 0 0 1 3.72c.82 1.07 1.65 1.27 2.25.56s.55-1.73-.6-3.1a4.46 4.46 0 0 1-.66-2.44 22.34 22.34 0 0 1-.22-3.36l-.16-.1a9 9 0 0 0-1.59 4.73M318.93 240c2.52 1.32 8.62.15 10.76-2.08-3.68 1.53-4 1.07-9.44-.15a3.46 3.46 0 0 0-.78-.1c-1.64 0-2.4 1.36-.53 2.33m14.27 3.66c.93 2.24 4.06 2.65 5.43 1.78 2.2-1.37-.82-3.16-2.25-3.41-3.84-1-3.13-4.07-3.57-6-.71 1.53-.38 5.85.38 7.64m-13.61-6.62c2.14 1 6.64.76 6.75.66-.61.15-4.06-1.32-5.93-2.24a2.68 2.68 0 0 0-1.07-.28c-1.08 0-1 1.25.25 1.86m16.58 2.5c3 1.38 2.25-1.37 1.15-2-1.86-1.07-3.07-3.26-3.51-7.18-.28 2-1.15 7.48 2.36 9.16m-6.26-6.21a5.73 5.73 0 0 1-4.06.92c-1.43-.25-3.79-2-2.09-3.87 2.41-1.43 3.29-.71 3.35.05-1.54-.92-2.41.76-1.92 1.83 1.09 2.55 4.55.36 4.28-1.68-.44-3.46-6.42-2.59-8-.71-3.07 3.67 2.53 7.94 6.31 6.72 3.57-1.12 7.25-5.91 2.09-8.91 2.2 2.29 2 4.38.05 5.65" fill="none"/></clipPath><radialGradient id="aE" cx="324.15" cy="239.93" r="14.31" xlink:href="#h"/><clipPath id="aF" transform="translate(-91.28 -6.11)"><path d="M142.16 316.31c-2.74.25-5.65 2.85-5.43 5.75.77-2.39 1.92-3.36 4.83-3.87 4.28-.76 5.38 4 2.09 4.07l-.06-.05c.55-1 .93-2.75-.66-3.16a2.29 2.29 0 0 0-3 2.39 3.52 3.52 0 0 0 2 3 4.44 4.44 0 0 0 6.48-4.12c-.15-2.82-2.84-4-5.47-4h-.78m-4.83-.31c1.26-1.32 5.71-4 8.12-.76a1.61 1.61 0 0 0 2.85-.76c.06-.92-.77-1.73-2.58-2a10 10 0 0 0-1.26-.08 8.23 8.23 0 0 0-7.14 3.65m-4.56-4.48c2.2 2.65 2.47 4.79 2.8 7.74 0-2.34.6-7-1.59-8.71a2.3 2.3 0 0 0-1.25-.54c-.58 0-.71.58 0 1.51m11.69-1.88c-1.92.31-4.77 1.53-5.6 2.44 2.14-1 2.91-1.53 5.27-.91.82.2 2.25.86 2.58-.31s-.78-1.25-1.67-1.25a5.29 5.29 0 0 0-.58 0m-.66-2.75a15.29 15.29 0 0 0-4.17 3.05 17 17 0 0 1 4.61-1.73 4.8 4.8 0 0 1 .74 0c.85.06 1.85.11 1.73-1.08-.05-.53-.44-.72-1-.72a5.88 5.88 0 0 0-1.93.46m-12 .66c2.63 2.14 3.79 3.77 4.28 7.38.49-2.19-.88-7.13-3.18-8.91a2.77 2.77 0 0 0-1.54-.65c-.89 0-1 1 .45 2.18m2.69-1.27c1.81 2 2.25 2.85 2.25 5.8.55-1.12.55-5.34-.88-6.77a1.89 1.89 0 0 0-1.23-.55c-.65 0-1 .57-.14 1.52m10.54-2.75a11.34 11.34 0 0 0-3.9 3.11 5.2 5.2 0 0 1 3.79-1.58c.71.05 1.43.36 1.65-.56.21-.7-.42-1.07-1-1.07a1.27 1.27 0 0 0-.52.1m-8.18 1.12c.55 1.17 1.92 3 .88 5.75 1.1-1.48 1.87-5.14.6-6.57a1.25 1.25 0 0 0-.93-.52c-.53 0-.9.52-.55 1.34m2.25-2c.22 1.07.71 2.9.49 3.82.33-.56 1.32-2.85 1-4.07a1 1 0 0 0-.91-.83c-.4 0-.74.34-.63 1.08m3.07-1.73a8.29 8.29 0 0 1-1 3.82 8.86 8.86 0 0 0 2.19-3.21c.49-1.09.07-1.85-.41-1.85s-.69.36-.8 1.24m4.83-6.11c.22.61 1.48.31 2.09.71 2.25 1.43-6.26 8-7.08 9.06 1.87-1.68 9.71-6.46 8.34-9.62a3.32 3.32 0 0 0-2.58-1.39c-.65 0-1.08.34-.76 1.24" fill="none"/></clipPath><radialGradient id="aG" cx="151" cy="309.84" r="13.53" xlink:href="#h"/><clipPath id="aH" transform="translate(-91.28 -6.11)"><path d="M183.16 343.65c-1.81.1-2 1.17-.17 1.48 3.57.51 5.38 1.88 7.79 3.82-1.72-1.65-4.65-5.3-7.46-5.3h-.17m-4.15-2.6c-2.52.15-2.52 1.88.33 1.78 3.51-.1 5.54.3 8.56 2.6-1.16-1.82-5.59-4.39-8.56-4.39H179m14.32 1.53a5.51 5.51 0 0 0 .33 7.64c-1.21-2.19-1.1-3.66.66-5.9 2.47-3.26 6.8-.56 4.5 1.63h-.06c-.38-1.07-1.37-2.6-2.85-1.88-1.7.81-1.54 2.54-.38 3.72a3.93 3.93 0 0 0 3.62.81c3.9-1 4-5.14 1.65-7.13a4.23 4.23 0 0 0-2.86-1.11 6.65 6.65 0 0 0-4.6 2.23m-13-2.39a8 8 0 0 1 5.93 2.75c-.44-1.12-3.62-4.17-5.71-4.28h-.16c-1.48 0-2.07 1.34-.06 1.53m12.68-2.65c-2.91 1.83-4.28 5.14-3.4 7.94-.11-1.83 1.1-6.57 5.27-5.8a1.47 1.47 0 0 0 1.48-2.39 1.66 1.66 0 0 0-1.27-.5 3.76 3.76 0 0 0-2.08.76m-12.18 0c1.26.51 3.57.91 4.88 3.61-.27-1.78-2.47-4.89-4.45-5.14h-.3c-1.09 0-1.41 1-.14 1.55m9.22-1.22c-1.26 1.48-2.36 4.17-2.25 5.34.77-2 .93-3 3.13-4 .71-.36 2.19-.82 1.65-1.88a.88.88 0 0 0-.79-.51 2.77 2.77 0 0 0-1.73 1.07m-9.05-1.78a14.45 14.45 0 0 1 3.24 2.49c-.22-.66-1.15-2.9-2.3-3.61a1.28 1.28 0 0 0-.67-.2c-.72 0-1.2.69-.26 1.32m6.53.15a14.69 14.69 0 0 0-.77 4.83 15.35 15.35 0 0 1 2.09-4.17c.55-.61 2.25-1.32 1-2.34a.88.88 0 0 0-.56-.22c-.66 0-1.27.9-1.75 1.9m-1.55-3.26c-.55 1.32-.82 4-.49 4.73a4.29 4.29 0 0 1 1.59-3.56c.55-.41 1.26-.66.77-1.48a.84.84 0 0 0-.75-.44 1.29 1.29 0 0 0-1.12.74m-4 0c.77 1 1.87 2.09 2.08 3.36.28-.86-.38-2.7-.77-3.71-.34-.81-.91-1.18-1.32-1.18s-.76.57 0 1.53m-1.1-7.54c.66.31 1.37-.71 2-.82 2.74-.4 1.48 9.83 1.65 11.1.11-2.44 2.25-10.89-1.1-12.27a1.89 1.89 0 0 0-.71-.12c-1.53 0-3.69 1.24-1.87 2.1" fill="none"/></clipPath><radialGradient id="aI" cx="197.09" cy="336" r="13.42" xlink:href="#h"/><clipPath id="aJ" transform="translate(-91.28 -6.11)"><path d="M246 346.19c-1.54.87-1.21 1.94.6 1.37 3.46-1.07 5.71-.61 8.78.05-1.8-.58-4.86-1.87-7.31-1.87a4.36 4.36 0 0 0-2.07.44m-4.94-.56c-2.14 1.27-1.26 2.8 1.21 1.48a11.5 11.5 0 0 1 8.89-1.37 12.76 12.76 0 0 0-5.44-1 10.07 10.07 0 0 0-4.66.91m.22-2.8c-1.48.66-1.37 2.19.55 1.48 2.58-.92 3.62-1 6.7-.1a12 12 0 0 0-5.73-1.62 4 4 0 0 0-1.52.25m-.71-2.7c-1.26.41-1.15 1.68.33 1.58s3.68-.71 6.15 1.12a8.65 8.65 0 0 0-5.65-2.85 2.73 2.73 0 0 0-.84.12m-.93-1.07c1.15.21 3.18.36 4.06.87-.49-.51-2.47-2.09-3.84-2.24h-.14c-1.11 0-1.56 1.18-.08 1.38m14.87 1.83a5.85 5.85 0 0 0 4.12 6.62c-2.2-1.48-2.8-2.8-2.36-5.5.6-4 5.76-3.46 4.78-.51v.05c-.88-.81-2.52-1.73-3.46-.46-1.15 1.43-.17 2.9 1.48 3.41a3.8 3.8 0 0 0 3.62-.81c2.91-2.6.93-6.26-2.08-7a5 5 0 0 0-1.28-.17c-2.53 0-4.24 2.16-4.81 4.4m-6-4.22c-.33 1.83 0 4.68.71 5.7-.33-2.14-.66-3.05.77-4.94.44-.61 1.54-1.63.5-2.34a1.07 1.07 0 0 0-.59-.2c-.79 0-1.25 1.16-1.38 1.78m3.29-.15a7.06 7.06 0 0 0 .93 8.5c-1-1.58-2.25-6.31 1.81-7.38a1.43 1.43 0 0 0 .11-2.75 1.56 1.56 0 0 0-.59-.12 2.79 2.79 0 0 0-2.26 1.74m-12.9-.66a10.29 10.29 0 0 1 3.57 2.09c-.22-.87-1.7-2.24-2.58-3a2.13 2.13 0 0 0-1.31-.55c-.83 0-1.12.79.32 1.46m6.59.56a14 14 0 0 0 1.76 4.63c-.17-1.63-.6-3.16-.28-4.58.22-.81 1.37-2.19-.27-2.54a1.09 1.09 0 0 0-.25 0c-.88 0-1.06 1.26-1 2.53m-3-2.19a9.58 9.58 0 0 0 1.92 4.38c-.82-1.63-.88-2.75-.39-3.82.28-.61.82-1.12-.05-1.68a.89.89 0 0 0-.48-.15 1.12 1.12 0 0 0-1 1.27m-7-7.43c-1.54.05-3.68 2.85-1.32 2.85.71 0 .88-1.22 1.43-1.58 2.2-1.53 6.2 8 7 9.11-1.08-2.16-3.39-10.39-6.92-10.39h-.16" fill="none"/></clipPath><radialGradient id="aK" cx="252.72" cy="337.49" r="13.69" xlink:href="#h"/><clipPath id="aL" transform="translate(-91.28 -6.11)"><path d="M295.44 319.37c-1.1 1.33-.33 2.14 1.1 1 2.74-2.19 5-2.54 8.18-3-2.53.1-7.57-.15-9.28 2m-4.83 1.22c-1.48 1.88 0 3 1.7.92a10.89 10.89 0 0 1 7.69-4.38 5 5 0 0 0-.75-.05c-2.58 0-7 1.48-8.64 3.51m-.93-2.7c-1.1 1.12-.39 2.49 1.15 1.17 2-1.78 2.91-2.24 6.09-2.44a5.9 5.9 0 0 0-1.65-.17c-1.87 0-4.56.42-5.59 1.45m-1.76-2.24c-1 .81-.38 1.93 1 1.32S292 315 295 315.85a9.21 9.21 0 0 0-4.2-.94 4.69 4.69 0 0 0-2.88.74m-1.65-2c-1.15.3-1.15 1.73.33 1.37a15.59 15.59 0 0 1 4.12-.66 12.72 12.72 0 0 0-3.72-.78 3.21 3.21 0 0 0-.72.07m-1.65-1.33a9.44 9.44 0 0 1 4.12.66c-.55-.71-2.47-1.48-3.57-1.84a2.8 2.8 0 0 0-.87-.15c-1.31 0-1.61 1.2.32 1.32m2.58-2.8a9.72 9.72 0 0 0 3.62 3.41c-1.43-1.22-2-2.24-1.92-3.41 0-.66.27-1.32-.77-1.53H288a1 1 0 0 0-.75 1.54m3.84-1.73c-1.15.15-.77 1.48-.11 2.7a13.62 13.62 0 0 0 3.51 3.67c-.83-1.43-1.87-2.7-2.14-4.12-.15-.76.31-2.27-1-2.27h-.31m2.8 1.88a10.16 10.16 0 0 0 3 5c-1.21-1.88-1.81-2.6-1.32-4.84.17-.71.77-2-.5-2.34a1.44 1.44 0 0 0-.3 0c-1.06 0-1 1.52-.85 2.17m3-1.27a7.45 7.45 0 0 0 4.28 7.53c-1.48-1.12-4.61-5-1.32-7.48a1.45 1.45 0 0 0-1-2.6c-1 0-1.81.82-2 2.55m8.23-3c-3.35.41-4.33 3.46-3.9 6.06a6.27 6.27 0 0 0 6.53 4.68c-2.63-.56-3.73-1.58-4.5-4.23-1-3.92 4-5.24 4.28-2.19h-.05c-1.16-.46-3-.71-3.35.82-.44 1.73 1 2.75 2.8 2.65a3.57 3.57 0 0 0 3-2c1.56-3.23-1.32-5.83-4.29-5.83h-.49m-27.33-.31c-1.32.61-2.25 4 0 3.1.66-.25.27-1.42.66-1.93 1.43-2.19 9.05 5.29 10.15 6-1.74-1.48-6.5-7.38-9.83-7.38a2.42 2.42 0 0 0-1 .2" fill="none"/></clipPath><radialGradient id="aM" cx="295.01" cy="313.82" r="13.85" xlink:href="#h"/><clipPath id="aN" transform="translate(-91.28 -6.11)"><path d="M315 274.11c-1.76 1-.88 2.7.66 1.12a9.48 9.48 0 0 1 3.13-2.65h-.08a9.6 9.6 0 0 0-3.71 1.53m-9.66 1.73c-.33 1.38 2 4.07 2.64 1.94.16-.66-1-1.12-1.26-1.68-1-2.39 10-3.41 11.3-3.82-2.52.41-11.91.25-12.68 3.56m12.51-1c-.44 1 .77 1.88 1.37.56.5-1 1.21-2.75 2-3.41-.66.31-2.8 1.68-3.35 2.85m2.75 0c.11 1.28 1.43 1.48 1.7.1s.27-3.46 2.8-5.19c-1.81.66-4.61 3.26-4.5 5.09m-6.41-4.84c-.71.61 0 1.48.77 1.63 1.48.2 4.39-.1 5-.56-1.92.3-3.07 0-4.06-.71-.37-.28-.7-.63-1.11-.63a1 1 0 0 0-.64.27m9.38 4.94c.27 1.48 1.92 1.83 1.7-.1-.28-2.54-.11-3.51 1.7-6-1.1.66-3.73 4.17-3.4 6.11m-7.79-7.18c-.6.92.82 1.48 2.25 1.73a16.09 16.09 0 0 0 5.27-.36 17.08 17.08 0 0 1-4.83-1c-.53-.25-1.21-1-1.85-1a1 1 0 0 0-.83.59m10.65 8.15c.71 2.24 2.58 1.83 1.87-.71a9.21 9.21 0 0 1 .93-8.3c-1.7 1.53-3.62 6.36-2.8 9m-8.4-11.25c-1.15.86.33 1.88 1.1 2.19 1.81.82 4.83 1.27 6.09.92-2.3-.25-3.29-.25-4.88-2-.43-.48-1-1.34-1.7-1.34a1 1 0 0 0-.61.22m10.32 7c.49 1.63 1.65 1.58 1.59-.2-.17-3.31.88-5.24 2.41-7.79-1.43 1.88-4.77 5.4-4 8m-9.44-10.74c-.6.71-.44 1.83.88 3a8.54 8.54 0 0 0 9.11 1.43c-1.87.46-7.13.36-7.19-3.56a1.43 1.43 0 0 0-1.55-1.42 1.59 1.59 0 0 0-1.25.55m3.46-4.84c-1.75 2.65.22 5.24 2.75 6.52 2.36 1.22 6.37.61 8-1.88-2.09 1.58-3.62 1.73-6.31.66-4-1.63-2-6.11.71-4.43l.05.05c-1.1.56-2.47 1.78-1.43 3 1.21 1.38 3 .87 4-.46a3.09 3.09 0 0 0 .11-3.41 4.23 4.23 0 0 0-3.75-2.2 4.92 4.92 0 0 0-4.1 2.2" fill="none"/></clipPath><radialGradient id="aO" cx="319.25" cy="266.88" r="13.15" xlink:href="#h"/><clipPath id="aP" transform="translate(-91.28 -6.11)"><path d="M309 233.85c.55 1.27 4.06 2.34 3.35.25-.22-.66-1.53-.36-2.08-.76-2.25-1.47 6.37-8 7.25-9-1.92 1.63-9.88 6.31-8.51 9.47m7-6.41c-.82 1.78.88 2.7 1.21.61a8.34 8.34 0 0 1 1-3.82c-.82.46-1.76 2.19-2.25 3.21m2.8-.87c.22 1.12 1.76 1.22 1.48-.2a13.53 13.53 0 0 1-.38-3.82c-.33.56-1.37 2.8-1.1 4m-4.22-2.7c-.77-.1-1.43-.36-1.7.56s.88 1.28 1.59 1a10.72 10.72 0 0 0 3.9-3.05 5 5 0 0 1-3.79 1.53m.77-3.16a4.44 4.44 0 0 1-.78 0c-.86-.06-1.83-.11-1.74 1s1.59.82 3 .31a16.33 16.33 0 0 0 4.17-3 17.27 17.27 0 0 1-4.61 1.63m5.76 4.48c.82 1 2 .51 1.48-.77s-1.87-3.05-.77-5.8c-1.1 1.48-1.92 5.09-.71 6.57m2.52-1.48c1.1 1.12 2.69.56 1.37-1-1.76-1.93-2.2-2.85-2.2-5.8-.49 1.12-.55 5.34.82 6.77m-8.18-6c-.82-.2-2.2-.87-2.58.25-.44 1.27 1.43 1.38 2.25 1.27 1.92-.25 4.78-1.43 5.6-2.39-2.08 1-2.91 1.53-5.27.87m11.14 5.29c1.92 1.53 3.24.25 1.1-1.53-2.58-2.14-3.73-3.77-4.12-7.38-.55 2.14.71 7.12 3 8.91m-12.4-9.37a1.61 1.61 0 0 0-2.86.71c-.05.92.77 1.78 2.58 2 3.46.56 6.92-.87 8.45-3.41-1.32 1.32-5.76 3.92-8.17.66m11.47 4.84c1.32 1.12 2.3.46 1.15-1-2.09-2.7-2.36-4.84-2.63-7.74-.05 2.34-.71 7 1.48 8.71" fill="none"/></clipPath><radialGradient id="aQ" cx="318.93" cy="223.01" r="11.92" xlink:href="#h"/><clipPath id="aR" transform="translate(-91.28 -6.11)"><path d="M106.65 276.61c1.7-1.93 3.18-2.39 6.09-1.83 4.23.87 3.24 5.6.16 4.48l-.05-.05c1-.71 2-2.19.77-3.16a2.43 2.43 0 0 0-3.79 1.17 3.13 3.13 0 0 0 .6 3.41c2.58 2.85 6.64 1.27 7.74-1.48 1.1-2.9-1.37-5.09-4.12-5.91a5.56 5.56 0 0 0-1.55-.21c-2.38 0-5.05 1.33-5.86 3.57m3.07-5.34c1.76-.82 6.91-1.63 7.85 2.19a1.6 1.6 0 0 0 2.91.36c.44-.81.06-1.88-1.54-2.8a9.33 9.33 0 0 0-4.57-1.19 7.7 7.7 0 0 0-4.65 1.45m3.07-3.05c2.36-.15 3.35-.36 5.27 1 .66.51 1.65 1.58 2.47.66s-.71-1.73-1.54-1.93a13.92 13.92 0 0 0-2.74-.25 9.36 9.36 0 0 0-3.46.5m6.69-3a17.42 17.42 0 0 0-5.1 1.27 17.53 17.53 0 0 1 4.94.1c.82.21 2.25 1.37 2.74-.1.36-.95-.9-1.28-2.27-1.28h-.31m-12.07.26c.88 3.26.28 5.34-.66 8.14 1-2.14 3.46-6.21 2.14-8.6-.37-.66-.78-1-1.1-1s-.63.49-.38 1.43m14.65-2.9c-1.48.05-4.28.86-4.88 1.48a5.16 5.16 0 0 1 4.17-.1c.66.31 1.15.81 1.76.05s-.22-1.43-1-1.43h-.07m-10.81-1.27c.82 2.44.82 3.41-.38 6.16.93-.81 2.74-4.73 2-6.57a1.42 1.42 0 0 0-1.15-1c-.45 0-.76.46-.44 1.43m2.85-.66c0 1.32.49 3.46-1.59 5.6 1.59-1 3.84-4 3.29-5.8a1 1 0 0 0-.92-.87c-.41 0-.78.36-.78 1.08m-5.87.87c1.48 2.9 1.92 4.83.82 8.3 1.37-1.78 2.19-6.87.82-9.31-.49-.85-1.06-1.23-1.48-1.23-.62 0-.91.83-.16 2.25m8.78-1.88a14.36 14.36 0 0 1-1.15 3.72c.55-.41 2.36-2.14 2.63-3.41a.86.86 0 0 0-.73-1.1c-.31 0-.62.23-.75.8m3.57-.46c-.71 1.07-1.37 2.44-2.52 3.16 1-.15 2.52-1.43 3.4-2.19s.78-1.86.21-1.86c-.3 0-.7.25-1.09.89m7-3.92c-.06.66 1.26.86 1.64 1.37 1.43 2.19-9.16 5.24-10.32 5.8 2.42-.86 11.64-2.39 11.69-5.8a2.94 2.94 0 0 0-2.27-2.33c-.4 0-.7.26-.75 1" fill="none"/></clipPath><radialGradient id="aS" cx="129.81" cy="268.88" r="13.07" xlink:href="#h"/><clipPath id="aT" transform="translate(-91.28 -6.11)"><path d="M107.37 226.88c2.14-1.47 3.73-1.58 6.37-.35 3.9 1.78 1.7 6.16-1 4.38 1.1-.51 2.52-1.68 1.54-2.9-1.15-1.43-3-1-4 .25a3.19 3.19 0 0 0-.27 3.46c1.7 3.36 6.09 2.75 7.85.36 1.86-2.59 0-5.29-2.42-6.67a6.33 6.33 0 0 0-3.06-.73 6.14 6.14 0 0 0-5 2.26m4.39-4.43c1.92-.41 7.13-.05 7 3.87a1.56 1.56 0 0 0 2.74 1c.66-.66.55-1.78-.77-3a8.75 8.75 0 0 0-6-2.42 7.54 7.54 0 0 0-3 .59m3.79-2.29c2.36.41 3.35.41 4.83 2.19.49.61 1.21 1.93 2.25 1.22s-.27-1.88-1-2.24a14 14 0 0 0-5.26-1.25 3.6 3.6 0 0 0-.83.08m2-1.32c1.7.36 3.4.46 4.77 1.22.71.41 1.76 1.83 2.63.51.66-.92-.71-1.48-2.14-1.83a9.11 9.11 0 0 0-1.91-.18 28.12 28.12 0 0 0-3.36.28m3.35-1.73a5.12 5.12 0 0 1 4.14.79c.55.41.88 1 1.7.46s.11-1.53-.66-1.68a11.07 11.07 0 0 0-1.78-.12 8.51 8.51 0 0 0-3.33.48m-9.88-.81c0 3.36-1.15 5.19-2.8 7.69 1.54-1.83 5-5.19 4.39-7.79-.19-.81-.58-1.23-.93-1.23s-.66.43-.66 1.33m14.43-3.16a10.32 10.32 0 0 1-3.29 2.49 10.28 10.28 0 0 0 3.9-1.37c1.29-.69 1.24-1.73.54-1.73a1.8 1.8 0 0 0-1.14.61m-6.64 0c-.33 1.27-.44 3.46-3.07 5.09 1.87-.56 4.77-3.06 4.77-4.89 0-.69-.43-1.08-.85-1.08s-.7.27-.85.88m3.07-.31a14.33 14.33 0 0 1-2.09 3.31c.6-.25 2.85-1.53 3.46-2.65.32-.66-.05-1.28-.55-1.28a1 1 0 0 0-.82.62m-6 .31c.11 2.59-.11 3.51-2 5.9 1.1-.61 3.9-4 3.62-5.9-.09-.81-.57-1.31-1-1.31s-.7.39-.65 1.31m-3-.51a9.5 9.5 0 0 1-1.32 8.3c1.76-1.48 3.9-6.21 3.18-8.91-.25-1-.77-1.5-1.21-1.5s-1 .72-.66 2.12m20.42-1.68c-.22.66 1 1.12 1.21 1.73.88 2.44-10.21 3-11.52 3.31 2.58-.31 12 .31 12.84-3 .29-1-.83-2.79-1.73-2.79-.31 0-.6.21-.8.75" fill="none"/></clipPath><radialGradient id="aU" cx="132.72" cy="222.58" r="13.02" xlink:href="#h"/><clipPath id="aV" transform="translate(-91.28 -6.11)"><path d="M118.73 368.49c15.64 42.7 181.66 40.31 199.11.36a7.61 7.61 0 0 0-4.22-9.72c-5 28.76-163.38 41.95-190.16-.15a7.64 7.64 0 0 0-4.72 9.52" fill="none"/></clipPath><radialGradient id="aW" cx="-179.44" cy="595.18" r=".51" gradientTransform="matrix(250.82 0 0 -232.64 45123.77 138793.08)" gradientUnits="userSpaceOnUse"><stop offset="0" stop-color="#da7057"/><stop offset="1" stop-color="#9f3c31"/></radialGradient><clipPath id="aX" transform="translate(-91.28 -6.11)"><path d="M139 152.51c-2.69.81-2.41 4 .06 3.82 3-.14 3-3.93.67-3.93a2.66 2.66 0 0 0-.73.11m-6.53-.66c-2.47 1.07-1.7 3.66.55 3.46 3.41-.31 2.37-3.64.29-3.64a2.19 2.19 0 0 0-.84.18m2.36-1.32c1.54 2 5.43-1.07 3.18-3.51a1.48 1.48 0 0 0-1.14-.53c-1.55 0-3.26 2.31-2 4" fill="none"/></clipPath><radialGradient id="aY" cx="146.21" cy="151.48" r="5.36" xlink:href="#g"/><clipPath id="aZ" transform="translate(-91.28 -6.11)"><path d="M174.76 149c-1.59 1.63.16 3.26 1.92 2.34 2.28-1.17.89-2.86-.62-2.86a1.85 1.85 0 0 0-1.3.52m5.54-1.68c-1.87 1.48-.27 3.72 1.7 2.75a1.65 1.65 0 0 0-.49-3.22 1.93 1.93 0 0 0-1.21.47m-4.17-.05c2.09 1 4-2.6 1-3.61a1.69 1.69 0 0 0-.59-.11c-1.65 0-2.42 2.77-.45 3.73" fill="none"/></clipPath><radialGradient id="ba" cx="186.48" cy="147.9" r="4.76" xlink:href="#g"/><clipPath id="bb" transform="translate(-91.28 -6.11)"><path d="M141.56 126.19c-1.76.56-1.59 2.7.06 2.55 2-.14 2-2.64.5-2.64a1.86 1.86 0 0 0-.55.09m-4.34-.36c-1.65.76-1.15 2.49.38 2.34 2.27-.27 1.56-2.47.2-2.47a1.43 1.43 0 0 0-.58.13m1.59-1c1 1.37 3.62-.81 2.14-2.44a1 1 0 0 0-.74-.33 1.87 1.87 0 0 0-1.4 2.78" fill="none"/></clipPath><radialGradient id="bc" cx="149.63" cy="125.49" r="3.61" xlink:href="#g"/><clipPath id="bd" transform="translate(-91.28 -6.11)"><path d="M152 89.08c1.76.81 3.18-1.73 1.32-2.14a1.94 1.94 0 0 0-.41 0c-1.39 0-2.1 1.58-.9 2.18m-2.74-2.34c2.14.92 2.63-1.88.93-2h-.2c-1.48 0-1.88 1.56-.73 2m2.63-2.09c.05 1.58 3.13 1 2.85-1a.89.89 0 0 0-1-.77 1.89 1.89 0 0 0-1.89 1.79" fill="none"/></clipPath><radialGradient id="be" cx="160.98" cy="86.38" r="3.43" xlink:href="#g"/><clipPath id="bf" transform="translate(-91.28 -6.11)"><path d="M294.34 158c2.47.1 2.75-3.05.06-3.82a2.7 2.7 0 0 0-.77-.12c-2.31 0-2.22 3.76.72 3.94m6-1.07c2.25.2 3-2.39.55-3.41a2.1 2.1 0 0 0-.83-.18c-2 0-3.12 3.27.28 3.59m-5-8.3c-2.25 2.44 1.7 5.6 3.18 3.51 1.26-1.73-.44-4-2-4a1.56 1.56 0 0 0-1.16.53" fill="none"/></clipPath><radialGradient id="bg" cx="298.7" cy="153.11" r="5.35" xlink:href="#g"/><clipPath id="bh" transform="translate(-91.28 -6.11)"><path d="M256.7 153c1.76.92 3.46-.71 1.87-2.29a1.8 1.8 0 0 0-1.31-.55c-1.49 0-2.86 1.67-.56 2.84m-5.32-1.22c1.92.92 3.51-1.27 1.65-2.75a1.94 1.94 0 0 0-1.22-.48 1.65 1.65 0 0 0-.43 3.23m4.78-6.46c-2.85 1-1 4.63 1.09 3.61s1.2-3.73-.49-3.73a1.73 1.73 0 0 0-.61.11" fill="none"/></clipPath><radialGradient id="bi" cx="258.44" cy="149.52" r="4.76" xlink:href="#g"/><clipPath id="bj" transform="translate(-91.28 -6.11)"><path d="M292.09 128.38c1.65.15 1.81-2 0-2.55a1.76 1.76 0 0 0-.54-.09c-1.5 0-1.44 2.5.54 2.64m4-.56c1.54.15 2-1.58.38-2.34a1.42 1.42 0 0 0-.58-.13c-1.36 0-2.07 2.2.2 2.47m-3.35-5.75c-1.48 1.63 1.15 3.82 2.14 2.44a1.87 1.87 0 0 0-1.4-2.78 1 1 0 0 0-.74.33" fill="none"/></clipPath><radialGradient id="bk" cx="295.64" cy="125.13" r="3.61" xlink:href="#g"/><clipPath id="bl" transform="translate(-91.28 -6.11)"><path d="M284 85.27c-1.92.36-.44 3 1.26 2.09 1.2-.56.53-2.13-.85-2.13a1.9 1.9 0 0 0-.41 0m3.1-2.23c-1.64.15-1.15 3 .94 2 1.2-.53.76-2-.72-2h-.21m-4.5-1.12c-.33 2 2.8 2.6 2.85 1a1.89 1.89 0 0 0-1.9-1.75.87.87 0 0 0-1 .73" fill="none"/></clipPath><radialGradient id="bm" cx="287.68" cy="84.7" r="3.45" xlink:href="#g"/><clipPath id="bn" transform="translate(-91.28 -6.11)"><path d="M217.84 40.78a58.05 58.05 0 0 1 40.28 16.14 53.78 53.78 0 0 1 0 78 58.42 58.42 0 0 1-80.62 0 53.78 53.78 0 0 1 0-78 58.08 58.08 0 0 1 40.34-16.14zm-42.42 14.3a56.35 56.35 0 0 0 0 81.65 60.45 60.45 0 0 0 22.12 13.54 39.39 39.39 0 0 0-38.8 30.29c1.87.31 3.68.66 5.54.92a89.26 89.26 0 0 1-37.15 8.35 81.63 81.63 0 0 1-23.71-3.51c-.33.81-.66 1.63-1 2.49a84.92 84.92 0 0 0 24.7 3.67A92.81 92.81 0 0 0 169.33 182c15.91 1.37 32.11-2.6 40.23-16.14l.44.41a11.46 11.46 0 0 0 2.91 2c-5.38 9.11-15.36 17.46-28.21 24-16.52 8.45-37.76 13.74-59.82 13.74a128.75 128.75 0 0 1-27.39-2.85c-.28.87-.49 1.73-.77 2.54a132.74 132.74 0 0 0 28.15 3c22.55 0 44.29-5.5 61.19-14.1 13.45-6.87 23.93-15.73 29.53-25.4a12.27 12.27 0 0 0 5.27.2c4.45 9.47 12.79 18.38 24.69 25.3 14.93 8.7 35.46 14.4 60.54 14.4a190 190 0 0 0 35.34-3.46c-.22-.86-.49-1.73-.71-2.6a186.36 186.36 0 0 1-34.63 3.41c-24.53 0-44.51-5.5-59-14-11.25-6.62-19.21-15-23.44-23.82a12.24 12.24 0 0 0 3.18-1.88c7.13 11.35 20.42 15.88 34.25 15.73a88.11 88.11 0 0 0 42.92 10.7 118.11 118.11 0 0 0 31.56-4.58c-.38-.81-.71-1.63-1.1-2.44a115.79 115.79 0 0 1-30.46 4.32 86.34 86.34 0 0 1-37.54-8.2 106.15 106.15 0 0 0 10.7-1.53 39.07 39.07 0 0 0-40.34-30 60.79 60.79 0 0 0 23.38-14 56.23 56.23 0 0 0 0-81.65 61.49 61.49 0 0 0-84.79 0" fill="none"/></clipPath><clipPath id="bo" transform="translate(-91.28 -6.11)"><path d="M230.29 154.49a10.86 10.86 0 0 1-1.42 10.23 26.33 26.33 0 0 0 4.77 6.11c9.88 9.52 25.3 10.33 40.06 7.84a34.91 34.91 0 0 0-1.15-3.41 35.56 35.56 0 0 0-33.24-21.75 42.9 42.9 0 0 0-9 1" fill="none"/></clipPath><radialGradient id="bp" cx="-179.82" cy="593.88" r=".51" gradientTransform="matrix(72.43 0 0 -67.18 13176.98 40050.19)" xlink:href="#i"/><clipPath id="bq" transform="translate(-91.28 -6.11)"><path d="M161.53 178.62c17.51 3.51 38.53 1.58 46.59-15a3 3 0 0 0 .22-.41 10.89 10.89 0 0 1-.71-8.86 37.23 37.23 0 0 0-11.1-1.7c-16 0-30.76 10.32-35 25.93" fill="none"/></clipPath><radialGradient id="br" cx="-179.14" cy="593.87" r=".51" gradientTransform="matrix(74.67 0 0 -69.26 13475.73 41279.96)" xlink:href="#i"/><clipPath id="bs" transform="translate(-91.28 -6.11)"><path d="M211.15 153.32c-5.82 5.5.82 14.51 7.9 14 6.53-.46 12.62-7.38 7-14.25a61 61 0 0 1-14.93.2" fill="none"/></clipPath><radialGradient id="bt" cx="-179.42" cy="593.09" r=".51" gradientTransform="matrix(33.36 0 0 -30.94 6109.14 18506.93)" xlink:href="#i"/></defs><g data-name=" 2"><g data-name=" 1"><g clip-path="url(#j)"><path fill="url(#k)" d="M11.14 0h233.13v199.89H11.14z"/></g><g clip-path="url(#l)"><path fill="url(#m)" d="M0 163.14h254.15v220.61H0z"/></g><g clip-path="url(#n)"><path fill="url(#e)" d="M69.48 34.66h114.1v110.25H69.48z"/></g><g clip-path="url(#o)"><path fill="url(#i)" d="M6.2 159.78h243.23v49.48H6.2z"/></g><g clip-path="url(#p)"><path fill="url(#q)" d="M67.34 32.68h116.95v112.9H67.34z"/></g><g clip-path="url(#r)"><path fill="url(#a)" d="M126.34 32.68h57.96V93.1h-57.96z"/></g><g clip-path="url(#s)"><path d="M126.34 32.02zm.22 0zm56.91 61.29a38 38 0 0 0-13.83-16.7 80.92 80.92 0 0 0-16.68-8.65c-9.33-3.77-15.59-7.69-19.81-12.37s-6.37-10.13-7.52-16.7v-4.17a5.7 5.7 0 0 1 .93-.05h.5v4c1.1 6.36 3.18 11.55 7.19 16s10.15 8.35 19.32 12a85.32 85.32 0 0 1 17 8.81 41.39 41.39 0 0 1 13.06 14.56v-.25c0 1.17-.06 2.34-.11 3.51" fill="#3e0000"/></g><g clip-path="url(#t)"><path fill="url(#u)" d="M67.34 32.68h59v62.56h-59z"/></g><g clip-path="url(#s)"><path d="M126.89 34.67c-.77 7.69-2.47 13.85-6.31 19.09-4.17 5.6-10.76 10.13-21.35 14.41a79.2 79.2 0 0 0-17.18 9.16 38.62 38.62 0 0 0-12.51 15.06c0-.87-.06-1.73-.06-2.6v-.46a40.68 40.68 0 0 1 11.63-13 77.42 77.42 0 0 1 17.61-9.44c10.32-4.17 16.68-8.55 20.69-13.95 3.68-5 5.32-10.89 6.09-18.27.38 0 .71-.05 1.1-.05z" fill="#3e0000"/><path d="M165.8 94.83c-6 9.16-14.65 8.35-23.32 2.7 2.58-3.26 6-6.31 10.54-6.87 3.46-.41 7.24.66 11.36 3.26.5.25.93.61 1.43.92m2.25 1c2.14.46 4-1.48 5-3.77-1.7.82-4.28-.1-6-1.17-10.65-6.87-20.91-3.87-27.88 7.13 9.44 5.55 21.13 8.14 28.81-2.19" fill="#380000"/></g><g clip-path="url(#v)"><path fill="url(#c)" d="M140.82 89.48h26.51v16.25h-26.51z"/></g><g clip-path="url(#w)"><path fill="url(#d)" d="M145.33 88.56h16.63v14.97h-16.63z"/></g><g clip-path="url(#s)" fill-rule="evenodd"><path d="M153.89 92.14a4 4 0 0 1 3.62 4.33 4.07 4.07 0 0 1-4.67 3.36 3.91 3.91 0 0 1-3.62-4.28 4.14 4.14 0 0 1 4.67-3.41" fill="#201600"/><path d="M151.15 91.58a2.14 2.14 0 0 1 2 2.34 2.18 2.18 0 0 1-2.53 1.83 2.09 2.09 0 0 1-2-2.34 2.24 2.24 0 0 1 2.53-1.83m4.5 5.39a1.27 1.27 0 0 1 1.21 1.43 1.41 1.41 0 0 1-1.59 1.12 1.37 1.37 0 0 1-1.21-1.42 1.41 1.41 0 0 1 1.59-1.12" fill="#fff"/></g><g clip-path="url(#x)"><path fill="url(#b)" d="M136.54 106.95h32.65v30.34h-32.65z"/></g><g clip-path="url(#y)"><path fill="url(#z)" d="M83.91 106.95h32.71v30.34H83.91z"/></g><g clip-path="url(#s)"><path d="M88.25 93.97c5 9.67 13.72 9.62 22.94 4.73-2.25-3.46-5.38-6.77-9.77-7.74-3.4-.76-7.3 0-11.69 2.19-.49.25-1 .56-1.48.81m-2.3.81c-2.25.25-3.9-1.83-4.67-4.22 1.59 1 4.94.05 6.75-.92 11.75-6.57 20.47-1.73 26.29 9.87-10.21 4.68-22.5 6.77-28.37-4.73" fill="#380000"/></g><g clip-path="url(#A)"><path fill="url(#f)" d="M111.8 87.09l-23.38.39-.18-9.85 23.38-.38.18 9.84z"/></g><g clip-path="url(#B)"><path fill="url(#C)" d="M86.71 89.58h26.07v16.4H86.71z"/></g><g clip-path="url(#D)"><path fill="url(#E)" d="M92.26 88.77h15.91v14.66H92.26z"/></g><g clip-path="url(#F)"><path fill="url(#G)" d="M113.71 116.21h26.08v12.88h-26.08z"/></g><g clip-path="url(#s)" fill-rule="evenodd"><path d="M114.32 119.98c7.46 4 17.51 4.73 25.08-1-9.71 3.87-16.58 3.26-25.08 1" fill="#380000"/><path d="M126.94 123.8c1.21.1 2.09.71 1.92 1.43s-1.27 1.22-2.47 1.17-2.08-.76-1.92-1.48 1.26-1.22 2.47-1.12m-4.6-6.16c1.21.1 2 .71 1.92 1.43s-1.26 1.22-2.47 1.12-2.09-.71-1.92-1.43 1.26-1.22 2.47-1.12m8.55.25c1.21.1 2.09.76 1.92 1.48s-1.26 1.17-2.47 1.12-2-.76-1.92-1.48 1.26-1.17 2.47-1.12" fill="#de8281"/><path d="M125.19 123.89a1.29 1.29 0 0 1 1.21 1.43 1.39 1.39 0 0 1-1.54 1.17 1.33 1.33 0 0 1-1.2-1.48 1.32 1.32 0 0 1 1.54-1.12" fill="#fff"/></g><g clip-path="url(#H)"><path fill="url(#I)" d="M166 84.86l-22.23 11.17-9.19-16.33 22.23-11.18L166 84.86z"/></g><g clip-path="url(#s)" fill="#380000" fill-rule="evenodd"><path d="M124.64 109.95a1 1 0 0 1 .93 1.07 1.11 1.11 0 0 1-1.15.87 1 1 0 0 1-.93-1.07 1 1 0 0 1 1.15-.87m4.08 0a1 1 0 0 1 .88 1.07 1.07 1.07 0 0 1-1.15.87 1 1 0 0 1-.88-1.07 1 1 0 0 1 1.15-.87"/></g><g clip-path="url(#J)"><path fill="url(#K)" d="M0 163.14h255.09V355.4H0z"/></g><g clip-path="url(#s)" fill-rule="evenodd"><path d="M99.83 92.39a4.13 4.13 0 0 1 4.34 3.77 4.21 4.21 0 0 1-8.4.2 4 4 0 0 1 4.06-4" fill="#201600"/><path d="M97.09 92.19a2.21 2.21 0 0 1 2.36 2 2.27 2.27 0 0 1-2.25 2.19 2.2 2.2 0 0 1-2.3-2.09 2.17 2.17 0 0 1 2.19-2.14m5.27 4.74a1.36 1.36 0 0 1 1.43 1.27 1.27 1.27 0 0 1-1.32 1.32 1.45 1.45 0 0 1-1.48-1.27 1.35 1.35 0 0 1 1.37-1.32" fill="#fff"/></g><g clip-path="url(#L)"><path fill="url(#g)" d="M43.14 86.86h23.49v35.96H43.14z"/></g><g clip-path="url(#M)"><path fill="url(#N)" d="M46.43 44.32h24.59v35.09H46.43z"/></g><g clip-path="url(#O)"><path fill="url(#P)" d="M47.26 126.72h32.43v24.05H47.26z"/></g><g clip-path="url(#Q)"><path fill="url(#R)" d="M172.16 126.72h32.38v24.05h-32.38z"/></g><g clip-path="url(#S)"><path fill="url(#T)" d="M187.64 84.64h23.49v36h-23.49z"/></g><g clip-path="url(#U)"><path fill="url(#V)" d="M178.31 38.77h24.59v35.09h-24.59z"/></g><g clip-path="url(#W)"><path fill="url(#X)" d="M25.9 156.03h36.82v22.9H25.9z"/></g><g clip-path="url(#Y)"><path fill="url(#Z)" d="M189.29 154.17h36.82v22.86h-36.82z"/></g><g clip-path="url(#aa)"><path fill="url(#h)" d="M30.68 293.29h7.67v6.08h-7.67z"/></g><g clip-path="url(#ab)"><path fill="url(#ac)" d="M11.44 204.78h6.4v7.44h-6.4z"/></g><g clip-path="url(#ad)"><path fill="url(#ae)" d="M73.87 306.14h7.68v6.91h-7.68z"/></g><g clip-path="url(#af)"><path fill="url(#ag)" d="M119.86 341.95h7.66v6.16h-7.66z"/></g><g clip-path="url(#ah)"><path fill="url(#ai)" d="M170.77 308.06h8v6.01h-8z"/></g><g clip-path="url(#aj)"><path fill="url(#ak)" d="M219.67 295.69h7.99v6.01h-7.99z"/></g><g clip-path="url(#al)"><path fill="url(#am)" d="M222.65 245.03h7.44v6.99h-7.44z"/></g><g clip-path="url(#an)"><path fill="url(#ao)" d="M236.32 204.95h8v6.2h-8z"/></g><g clip-path="url(#ap)"><path fill="url(#aq)" d="M31.68 238.07h6.36v7.59h-6.36z"/></g><g clip-path="url(#ar)"><path fill="url(#as)" d="M6.97 221.2H34.3v29.7H6.97z"/></g><g clip-path="url(#at)"><path fill="url(#au)" d="M24.6 261.67h24.25v31.43H24.6z"/></g><g clip-path="url(#av)"><path fill="url(#aw)" d="M57.16 305.34h28.13v29.34H57.16z"/></g><g clip-path="url(#ax)"><path fill="url(#ay)" d="M110.81 325.55h34.3v22.82h-34.3z"/></g><g clip-path="url(#az)"><path fill="url(#aA)" d="M159.48 310.26h34.25v21.27h-34.25z"/></g><g clip-path="url(#aB)"><path fill="url(#aC)" d="M199.93 272.69h32.93v26.11h-32.93z"/></g><g clip-path="url(#aD)"><path fill="url(#aE)" d="M216.39 221.02h33.15v25.61h-33.15z"/></g><g clip-path="url(#aF)"><path fill="url(#aG)" d="M39.08 287.48h21.4v32.49h-21.4z"/></g><g clip-path="url(#aH)"><path fill="url(#aI)" d="M85.23 315.68h26.62v28.42H85.23z"/></g><g clip-path="url(#aJ)"><path fill="url(#aK)" d="M140.5 320.43h33.8v21.89h-33.8z"/></g><g clip-path="url(#aL)"><path fill="url(#aM)" d="M184.18 297.93h35.92v19.55h-35.92z"/></g><g clip-path="url(#aN)"><path fill="url(#aO)" d="M213.76 247.73h28.04v26.08h-28.04z"/></g><g clip-path="url(#aP)"><path fill="url(#aQ)" d="M216.34 203.71h22.23v26.37h-22.23z"/></g><g clip-path="url(#aR)"><path fill="url(#aS)" d="M15.37 248.17h23.98v29.2H15.37z"/></g><g clip-path="url(#aT)"><path fill="url(#aU)" d="M16.08 204.03h28.71v24.88H16.08z"/></g><g clip-path="url(#aV)"><path fill="url(#aW)" d="M26.12 352.86h201.91v52.22H26.12z"/></g><g clip-path="url(#aX)"><path fill="url(#aY)" d="M38.69 140.37h12.04v10H38.69z"/></g><g clip-path="url(#aZ)"><path fill="url(#ba)" d="M81.88 137.43h10.86v8.72H81.88z"/></g><g clip-path="url(#bb)"><path fill="url(#bc)" d="M44.29 115.98h8.08v6.8h-8.08z"/></g><g clip-path="url(#bd)"><path fill="url(#be)" d="M56.8 76.75h7.08v7.03H56.8z"/></g><g clip-path="url(#bf)"><path fill="url(#bg)" d="M200.03 142h12.03v10h-12.03z"/></g><g clip-path="url(#bh)"><path fill="url(#bi)" d="M158.02 139.05h10.84v8.72h-10.84z"/></g><g clip-path="url(#bj)"><path fill="url(#bk)" d="M198.77 115.62h8.08v6.8h-8.08z"/></g><g clip-path="url(#bl)"><path fill="url(#bm)" d="M190.82 75.06h7.13v7.05h-7.13z"/></g><g clip-path="url(#bn)"><path fill="#fcf3f2" d="M5.43 32.02h244.72v171.03H5.43z"/></g><g clip-path="url(#bo)"><path fill="url(#bp)" d="M137.59 147.4h44.84v27.65h-44.84z"/></g><g clip-path="url(#bq)"><path fill="url(#br)" d="M70.25 146.58h46.81v29.44H70.25z"/></g><g clip-path="url(#bs)"><path fill="url(#bt)" d="M114.04 147.01h26.34v14.71h-26.34z"/></g></g></g></svg>