<svg id="Слой_1" data-name="Слой 1" xmlns="http://www.w3.org/2000/svg" xmlns:xlink="http://www.w3.org/1999/xlink" viewBox="0 0 342.67 81"><defs><style>.cls-1{fill:none;}.cls-2{clip-path:url(#clip-path);}.cls-3{fill:#fff;}.cls-4,.cls-5,.cls-6{fill:#5b6ec0;}.cls-4{opacity:0.6;}.cls-4,.cls-5{isolation:isolate;}.cls-5{opacity:0.8;}.cls-7{fill:#163bd5;}</style><clipPath id="clip-path"><rect class="cls-1" x="1" y="1" width="341.67" height="80" rx="12" ry="12"/></clipPath></defs><title>Призы</title><g class="cls-2"><rect class="cls-3" x="-121.67" y="-62" width="533" height="190"/><circle class="cls-4" cx="308.67" cy="41" r="116.34"/><circle class="cls-5" cx="308.67" cy="41" r="83.96"/><circle class="cls-6" cx="308.67" cy="41" r="50.06"/><circle class="cls-6" cx="308.67" cy="41" r="50.06"/><path class="cls-3" d="M332.83,21.87H326v-6a1.22,1.22,0,0,0-1.22-1.22H296.15a1.22,1.22,0,0,0-1.22,1.22v6h-6.86a1.22,1.22,0,0,0-1.22,1.22,13.89,13.89,0,0,0,8.49,12.77,15.57,15.57,0,0,0,11.24,11.51,5.83,5.83,0,0,1-4.51,6.13h0l-0.07,0,0,0-0.06,0-0.06,0,0,0-0.06,0,0,0-0.06,0,0,0-0.06.05,0,0,0,0.05,0,0,0,0.06,0,0,0,0.06,0,0,0,0.06,0,0,0,0.06,0,0,0,0.08v0.15s0,0.07,0,.1v0h0s0,0,0,0v3.63H297.7a1.22,1.22,0,0,0-1.22,1.22v8.54a1.22,1.22,0,0,0,1.22,1.22h25.62a1.22,1.22,0,0,0,1.22-1.22V59.57a1.22,1.22,0,0,0-1.22-1.22H319.9V54.69a1.21,1.21,0,0,0-.33-0.83h0l-0.08-.07h0l-0.08-.06h0l-0.08-.05h0l-0.09,0h0l-0.1,0h0l-0.11,0h0a5.83,5.83,0,0,1-4.51-6.16,15.57,15.57,0,0,0,11.12-11.47A13.89,13.89,0,0,0,334,23.09,1.22,1.22,0,0,0,332.83,21.87Zm-43.48,2.44h5.58v8.07h0c0,0.18,0,.36,0,0.54A11.46,11.46,0,0,1,289.35,24.31Zm32.74,36.47v6.1H298.92v-6.1h23.18Zm-4.64-4.88v2.44H303.55V55.91h13.91Zm-10.65-2.44a8.33,8.33,0,0,0,.93-1.19,8.19,8.19,0,0,0,1.3-4.49c0.46,0,.93.06,1.41,0.06s1,0,1.53-.08a8.29,8.29,0,0,0,2.24,5.69h-7.4Zm16.71-21.13a13.07,13.07,0,1,1-26.15,0V17.11h26.15V32.34h0Zm2.43,0.6c0-.18,0-0.37,0-0.55h0V24.31h5.58A11.46,11.46,0,0,1,325.95,32.95Z"/><path class="cls-3" d="M314.29,62.62h-7.56a1.22,1.22,0,1,0,0,2.44h7.56A1.22,1.22,0,1,0,314.29,62.62Z"/><path class="cls-3" d="M317.83,28a1.22,1.22,0,0,0-1-.83l-3.63-.53-1.62-3.29a1.22,1.22,0,0,0-2.19,0l-1.62,3.29-3.63.53a1.22,1.22,0,0,0-.68,2.08l2.62,2.56-0.62,3.61a1.22,1.22,0,0,0,1.77,1.29L310.51,35l3.24,1.71a1.22,1.22,0,0,0,1.77-1.29l-0.62-3.61,2.62-2.56A1.22,1.22,0,0,0,317.83,28Zm-5.09,2.51a1.22,1.22,0,0,0-.35,1.08l0.31,1.81-1.62-.85a1.22,1.22,0,0,0-1.14,0l-1.62.85,0.31-1.81a1.22,1.22,0,0,0-.35-1.08L307,29.28l1.81-.26a1.22,1.22,0,0,0,.92-0.67l0.81-1.64,0.81,1.64a1.22,1.22,0,0,0,.92.67l1.81,0.26Z"/><path class="cls-7" d="M76.25,49.21H73.11V37.29H66.18V49.21H63.05V34.54h13.2V49.21Z"/><path class="cls-7" d="M85.14,49.48a4,4,0,0,1-3.28-1.63v5.41H79.07V38.59h2.79v1.34a4,4,0,0,1,3.28-1.61,4.32,4.32,0,0,1,3.4,1.49,6,6,0,0,1,1.31,4.08A6,6,0,0,1,88.54,48,4.3,4.3,0,0,1,85.14,49.48ZM84.26,47a2.44,2.44,0,0,0,1.95-.86,3.32,3.32,0,0,0,.74-2.24,3.29,3.29,0,0,0-.74-2.22,2.44,2.44,0,0,0-1.95-.86,3,3,0,0,0-1.36.35,2.77,2.77,0,0,0-1,.86v3.76a2.75,2.75,0,0,0,1,.86A3,3,0,0,0,84.26,47Z"/><path class="cls-7" d="M94.58,49.21H91.89V38.59h2.79V45l4.38-6.42h2.82V49.21H99.09V42.55Z"/><path class="cls-7" d="M108.53,49.48a6.8,6.8,0,0,1-4.95-1.69L104.85,46a5.49,5.49,0,0,0,3.67,1.21,3.49,3.49,0,0,0,1.63-.31,0.93,0.93,0,0,0,.57-0.84q0-1.19-2.38-1.19h-2.18V42.77h2.18q2.18,0,2.18-1.14a0.89,0.89,0,0,0-.59-0.78,3.45,3.45,0,0,0-1.54-.3,4.5,4.5,0,0,0-3.3,1.21l-1.36-1.65a6.11,6.11,0,0,1,4.51-1.76,7.63,7.63,0,0,1,3.83.76,2.39,2.39,0,0,1,1.36,2.15,2.08,2.08,0,0,1-.81,1.65,3.91,3.91,0,0,1-2,.86,3.81,3.81,0,0,1,2.06.75,2.11,2.11,0,0,1,.93,1.78,2.65,2.65,0,0,1-1.39,2.31A6.92,6.92,0,0,1,108.53,49.48Z"/><path class="cls-7" d="M115.74,38.59h2.79v3.65h3.63a3.64,3.64,0,0,1,2.73,1,3.65,3.65,0,0,1,0,5,3.61,3.61,0,0,1-2.71,1h-6.42V38.59Zm6,6h-3.21v2.29h3.21a1.28,1.28,0,0,0,.91-0.32,1.17,1.17,0,0,0,0-1.65A1.28,1.28,0,0,0,121.75,44.57Zm8.32,4.64h-2.82V38.59h2.82V49.21Z"/></g></svg>