<svg id="Слой_1" data-name="Слой 1" xmlns="http://www.w3.org/2000/svg" xmlns:xlink="http://www.w3.org/1999/xlink" viewBox="0 0 342.67 81"><defs><style>.cls-1{fill:none;}.cls-2{clip-path:url(#clip-path);}.cls-3{fill:#fff;}.cls-4,.cls-5,.cls-6{fill:#5b6ec0;}.cls-4{opacity:0.6;}.cls-4,.cls-5{isolation:isolate;}.cls-5{opacity:0.8;}.cls-7{fill:#163bd5;}</style><clipPath id="clip-path"><rect class="cls-1" x="1" y="1" width="341.67" height="80" rx="12" ry="12"/></clipPath></defs><title>Курсы</title><g class="cls-2"><rect class="cls-3" x="-121.67" y="-62" width="533" height="190"/><circle class="cls-4" cx="308.67" cy="41" r="116.34"/><circle class="cls-5" cx="308.67" cy="41" r="83.96"/><circle class="cls-6" cx="308.67" cy="41" r="50.06"/><circle class="cls-6" cx="308.67" cy="41" r="50.06"/><path class="cls-3" d="M330.6,20H281.5a3.06,3.06,0,0,0-3.05,3.05v32.2a3.06,3.06,0,0,0,3.05,3.05H300v0.19a5.75,5.75,0,0,1-5.74,5.74,1.22,1.22,0,0,0,0,2.44h0.09l0.25,0h22.86l0.25,0h0.09a1.22,1.22,0,0,0,0-2.44,5.75,5.75,0,0,1-5.74-5.74V58.34H330.6a3.06,3.06,0,0,0,3.05-3.05V23.08A3.06,3.06,0,0,0,330.6,20ZM300.08,64.29a8.16,8.16,0,0,0,2.38-5.76h0V58.34h7.17v0.19h0A8.16,8.16,0,0,0,312,64.29H300.08Zm31.13-9a0.61,0.61,0,0,1-.61.61H311.1l-0.25,0-0.25,0h-9.11l-0.25,0-0.25,0H281.5a0.61,0.61,0,0,1-.61-0.61v-7h50.32v7Zm0-9.42H280.88V23.08a0.61,0.61,0,0,1,.61-0.61h49.1a0.61,0.61,0,0,1,.61.61V45.86h0Z"/><path class="cls-3" d="M311.85,33.79a1.22,1.22,0,0,0-.76-1.07l-9.89-4h0l-0.08,0h0l-0.07,0h-0.53l-0.06,0-0.06,0h-0.05l-0.06,0,0,0,0,0-0.05,0,0,0-0.16.13-0.05.06,0,0,0,0.06,0,0,0,0.05,0,0.05,0,0,0,0.06h0v0l0,0.06v0.23s0,0,0,.06,0,0,0,.06,0,0,0,.06,0,0,0,.06v0.18l0,0.06,0,0.06v0l4,9.91a1.22,1.22,0,0,0,1.07.76h0.06a1.22,1.22,0,0,0,1.08-.65l1.26-2.39,2,2a1.22,1.22,0,0,0,1.73-1.73l-2-2,2.39-1.26A1.22,1.22,0,0,0,311.85,33.79Zm-5.64,1h0l0,0-0.06,0h0l-0.1.07,0,0-0.05,0a1.23,1.23,0,0,0-.15.19l0,0.05,0,0h0l-0.8,1.53-1.94-4.8,4.8,1.94Z"/><circle class="cls-3" cx="306.18" cy="52.05" r="1.65"/><path class="cls-7" d="M85.35,49H81.5l-4.44-5.87-1.14,1.36V49H72.79V34.33h3.12v6.56l5.19-6.56H85l-5.83,6.89Z"/><path class="cls-7" d="M86.34,53.16l0.42-2.51a2.14,2.14,0,0,0,.88.18,1.45,1.45,0,0,0,1.47-.77l0.4-.9L85.19,38.37h3L91,45.77l2.77-7.39h3l-5,12.36a3.69,3.69,0,0,1-1.54,2,5.32,5.32,0,0,1-2.49.6A5.75,5.75,0,0,1,86.34,53.16Z"/><path class="cls-7" d="M104.07,49.26a4,4,0,0,1-3.28-1.63V53H98V38.37h2.79v1.34a4,4,0,0,1,3.28-1.61,4.32,4.32,0,0,1,3.4,1.49,6,6,0,0,1,1.31,4.08,6,6,0,0,1-1.31,4.09A4.3,4.3,0,0,1,104.07,49.26Zm-0.88-2.49a2.44,2.44,0,0,0,1.95-.86,3.32,3.32,0,0,0,.74-2.24,3.29,3.29,0,0,0-.74-2.22,2.44,2.44,0,0,0-1.95-.86,3,3,0,0,0-1.36.35,2.77,2.77,0,0,0-1,.86v3.76a2.75,2.75,0,0,0,1,.86A3,3,0,0,0,103.19,46.78Z"/><path class="cls-7" d="M115.77,49.26a5.52,5.52,0,0,1-4-1.56,5.88,5.88,0,0,1,0-8,5.52,5.52,0,0,1,4-1.56A4.85,4.85,0,0,1,120,40l-1.83,1.72a2.54,2.54,0,0,0-2.24-1.14,2.74,2.74,0,0,0-2.08.85,3.11,3.11,0,0,0-.8,2.23,3.15,3.15,0,0,0,.8,2.24,2.72,2.72,0,0,0,2.08.86,2.6,2.6,0,0,0,2.24-1.14L120,47.33A4.83,4.83,0,0,1,115.77,49.26Z"/><path class="cls-7" d="M121.8,38.37h2.79V42h3.63A3.64,3.64,0,0,1,131,43a3.65,3.65,0,0,1,0,5,3.61,3.61,0,0,1-2.71,1H121.8V38.37Zm6,6h-3.21v2.29h3.21a1.28,1.28,0,0,0,.91-0.32,1.17,1.17,0,0,0,0-1.65A1.28,1.28,0,0,0,127.81,44.36ZM136.12,49h-2.82V38.37h2.82V49Z"/></g></svg>