<svg id="Слой_1" data-name="Слой 1" xmlns="http://www.w3.org/2000/svg" xmlns:xlink="http://www.w3.org/1999/xlink" viewBox="0 0 342.67 81"><defs><style>.cls-1{fill:none;}.cls-2{clip-path:url(#clip-path);}.cls-3{fill:#fff;}.cls-4,.cls-5,.cls-6{fill:#5b6ec0;}.cls-4{opacity:0.6;}.cls-4,.cls-5{isolation:isolate;}.cls-5{opacity:0.8;}.cls-7{fill:#163bd5;}</style><clipPath id="clip-path"><rect class="cls-1" x="1" y="1" width="341.67" height="80" rx="12" ry="12"/></clipPath></defs><title>Тренировки</title><g class="cls-2"><rect class="cls-3" x="-121.67" y="-62" width="533" height="190"/><circle class="cls-4" cx="308.67" cy="41" r="116.34"/><circle class="cls-5" cx="308.67" cy="41" r="83.96"/><circle class="cls-6" cx="308.67" cy="41" r="50.06"/><circle class="cls-6" cx="308.67" cy="41" r="50.06"/><path class="cls-3" d="M333.27,45.85a5.75,5.75,0,0,0-.94-3.14,6.67,6.67,0,0,0,.94-3.43,6.76,6.76,0,0,0-2.94-5.56,4.8,4.8,0,0,0,.31-1.69,4.91,4.91,0,0,0-4.08-4.8,4.92,4.92,0,0,0-4.49-4.61A4.52,4.52,0,0,0,318,20.08a4.57,4.57,0,0,0-1.32.2,3.57,3.57,0,0,0-2.78-1.32,3.52,3.52,0,0,0-3.54,3.48V34.88a5.18,5.18,0,0,0,1.82,3.92,5.47,5.47,0,0,0-1.82,4.07v7.66a5.41,5.41,0,0,0,.68,2.63,5.08,5.08,0,0,0-.68,2.55v6a5,5,0,0,0,9.23,2.47,5,5,0,0,0,2,.42,4.92,4.92,0,0,0,5-4.78,6.42,6.42,0,0,0,4.68-6.16,6.31,6.31,0,0,0-.69-2.87A5.78,5.78,0,0,0,333.27,45.85Zm-3.54,3.34c-1.21-2.06-3.63-2.48-4.9-2.55A4.89,4.89,0,0,0,323.14,44a0.89,0.89,0,0,0-1.24.12,0.85,0.85,0,0,0,.12,1.22,3.16,3.16,0,0,1,1.18,2.46,3.24,3.24,0,0,1-6.47,0,3.16,3.16,0,0,1,.78-2.08l0,0a3.62,3.62,0,0,0,.73-0.18A3.51,3.51,0,0,0,320.37,41a0.89,0.89,0,0,0-1.13-.51,0.86,0.86,0,0,0-.52,1.11,1.78,1.78,0,0,1-1.07,2.3,1.83,1.83,0,0,1-2.34-1.05,0.88,0.88,0,0,0-1.13-.51,0.86,0.86,0,0,0-.52,1.11,3.53,3.53,0,0,0,1.95,2,4.85,4.85,0,0,0-.63,2.37,5,5,0,0,0,9.95.6c1.08,0.09,3,.5,3.56,2.28a0.84,0.84,0,0,0,.11.22v0a4.61,4.61,0,0,1,.87,2.71,4.67,4.67,0,0,1-3,4.36A5.5,5.5,0,0,0,325,55.12a0.89,0.89,0,0,0-1.24,0,0.86,0.86,0,0,0,0,1.22,3.49,3.49,0,0,1,1,2.63,0.76,0.76,0,0,0,0,.11,0.77,0.77,0,0,0,0,.11,3,3,0,0,1,0,.46,3.17,3.17,0,0,1-3.2,3.14,3.22,3.22,0,0,1-1.23-.25,4.37,4.37,0,0,0-.75-4.22,2.82,2.82,0,0,0-.13-3.15,0.89,0.89,0,0,0-1.23-.19,0.86,0.86,0,0,0-.2,1.21,1.12,1.12,0,0,1-.26,1.58,1.16,1.16,0,0,1-1.61-.25,0.89,0.89,0,0,0-1.23-.19,0.86,0.86,0,0,0-.2,1.21,2.92,2.92,0,0,0,3.51.94,2.41,2.41,0,0,1,.21,2.89,0.82,0.82,0,0,0-.1.2,0.74,0.74,0,0,0,0,.07,3.2,3.2,0,0,1-6.23-1v-6a3.4,3.4,0,0,1,.23-1.22,6.85,6.85,0,0,0,3.78,1.09h0.25a0.86,0.86,0,0,0,0-1.73h-0.22a4.83,4.83,0,0,1-3.36-1.22,3.72,3.72,0,0,1-.66-2.11V42.86a3.77,3.77,0,0,1,2-3.33l0.06,0h0a3.08,3.08,0,0,1,3.77.29,0.89,0.89,0,0,0,1.24-.1,0.86,0.86,0,0,0-.1-1.22,4.89,4.89,0,0,0-5.43-.68,3.46,3.46,0,0,1-1.6-2.89V22.43a1.77,1.77,0,0,1,3.27-.91,3.36,3.36,0,0,1-1.07,2A0.86,0.86,0,0,0,314,24.7a0.89,0.89,0,0,0,1.21.3,4.8,4.8,0,0,0,1.87-3,2.67,2.67,0,0,1,3.48,1.66,5.56,5.56,0,0,1-1.11,3.59,3,3,0,0,1-1.59.9,2.74,2.74,0,0,0-1.79-2,0.89,0.89,0,0,0-1.12.53,0.86,0.86,0,0,0,.54,1.1,1,1,0,0,1,.63,1.27,1,1,0,0,1-1.3.62,0.88,0.88,0,0,0-1.12.53,0.86,0.86,0,0,0,.54,1.1,2.79,2.79,0,0,0,3.4-1.37,4.87,4.87,0,0,0,3.14-1.54,6.73,6.73,0,0,0,1.52-4,3.16,3.16,0,0,1,2.49,3.06,3.11,3.11,0,0,1,0,.44,0.72,0.72,0,0,0,0,.19,2.82,2.82,0,0,1-.71,1.74,0.86,0.86,0,0,0-.26,1.2,0.89,0.89,0,0,0,1.22.26A3.67,3.67,0,0,0,326.42,29a3.15,3.15,0,0,1,2.46,3,3.09,3.09,0,0,1-.1.78,6.74,6.74,0,0,0-6.52.62,4.14,4.14,0,0,0-5.35.72,0.86,0.86,0,0,0,.08,1.22,0.89,0.89,0,0,0,1.24-.08,2.36,2.36,0,0,1,1.62-.79,2.39,2.39,0,0,1,1.72.57,2.3,2.3,0,0,1,.22,3.29,0.86,0.86,0,0,0,.08,1.22,0.89,0.89,0,0,0,1.24-.08,4,4,0,0,0,.39-4.79,4.79,4.79,0,0,1,5.16,0l0.06,0,0.05,0a5.06,5.06,0,0,1,2.72,4.47,5,5,0,0,1-.41,1.95,3.73,3.73,0,0,0-1.9-.82,4.08,4.08,0,0,0-2.75-3,0.89,0.89,0,0,0-1.11.56,0.86,0.86,0,0,0,.57,1.09,2.31,2.31,0,0,1,.48,4.22,0.86,0.86,0,0,0-.31,1.19,0.89,0.89,0,0,0,1.21.3,4.07,4.07,0,0,0,1.92-2.64,2.14,2.14,0,0,1,1.29,1l0,0.06,0,0a4,4,0,0,1,.93,2.57A4,4,0,0,1,329.73,49.19Z"/><path class="cls-3" d="M308.57,34.88V22.43A3.52,3.52,0,0,0,305,18.95a3.57,3.57,0,0,0-2.78,1.32,4.57,4.57,0,0,0-1.32-.19,4.52,4.52,0,0,0-4.06,2.54,4.92,4.92,0,0,0-4.49,4.61,4.9,4.9,0,0,0-4.08,4.8,4.8,4.8,0,0,0,.31,1.69,6.76,6.76,0,0,0-2.94,5.56,6.67,6.67,0,0,0,.94,3.43,5.74,5.74,0,0,0,1.77,8,6.3,6.3,0,0,0-.69,2.87,6.42,6.42,0,0,0,4.68,6.16,4.92,4.92,0,0,0,5,4.78,5,5,0,0,0,2-.42,5,5,0,0,0,9.23-2.47v-6a5.08,5.08,0,0,0-.68-2.55,5.41,5.41,0,0,0,.68-2.63V42.86a5.47,5.47,0,0,0-1.82-4.07A5.18,5.18,0,0,0,308.57,34.88Zm-1.76,0h0a3.46,3.46,0,0,1-1.6,2.89,4.89,4.89,0,0,0-5.43.68,0.86,0.86,0,0,0-.1,1.22,0.89,0.89,0,0,0,1.24.1,3.07,3.07,0,0,1,3.77-.29l0,0,0.06,0a3.77,3.77,0,0,1,2,3.33v7.66a3.72,3.72,0,0,1-.66,2.11,4.83,4.83,0,0,1-3.36,1.22h-0.22a0.86,0.86,0,0,0,0,1.73h0.25a6.85,6.85,0,0,0,3.78-1.09,3.38,3.38,0,0,1,.23,1.22v6a3.2,3.2,0,0,1-6.23,1,0.74,0.74,0,0,0,0-.07,0.82,0.82,0,0,0-.1-0.2,2.41,2.41,0,0,1,.21-2.89,2.92,2.92,0,0,0,3.51-.94,0.86,0.86,0,0,0-.2-1.21,0.89,0.89,0,0,0-1.23.19,1.16,1.16,0,0,1-1.61.25,1.12,1.12,0,0,1-.26-1.58,0.86,0.86,0,0,0-.2-1.21,0.89,0.89,0,0,0-1.23.19,2.82,2.82,0,0,0-.13,3.15,4.37,4.37,0,0,0-.75,4.22,3.22,3.22,0,0,1-1.23.25,3.17,3.17,0,0,1-3.2-3.14,3,3,0,0,1,0-.46,0.78,0.78,0,0,0,0-.11,0.76,0.76,0,0,0,0-.11,3.49,3.49,0,0,1,1-2.63,0.86,0.86,0,0,0,0-1.22,0.89,0.89,0,0,0-1.24,0A5.5,5.5,0,0,0,292.48,58a4.68,4.68,0,0,1-3-4.36,4.61,4.61,0,0,1,.87-2.7v0a0.84,0.84,0,0,0,.11-0.22c0.57-1.78,2.48-2.19,3.56-2.28a5,5,0,0,0,10-.6,4.84,4.84,0,0,0-.63-2.37,3.53,3.53,0,0,0,1.95-2,0.86,0.86,0,0,0-.52-1.11,0.88,0.88,0,0,0-1.13.51,1.83,1.83,0,0,1-2.34,1.05,1.78,1.78,0,0,1-1.07-2.3,0.86,0.86,0,0,0-.52-1.11,0.89,0.89,0,0,0-1.13.51,3.51,3.51,0,0,0,2.11,4.53,3.62,3.62,0,0,0,.73.18l0,0a3.16,3.16,0,0,1,.78,2.08,3.24,3.24,0,0,1-6.47,0,3.16,3.16,0,0,1,1.18-2.46A0.85,0.85,0,0,0,297,44.1,0.89,0.89,0,0,0,295.8,44a4.89,4.89,0,0,0-1.68,2.65c-1.27.07-3.69,0.49-4.9,2.55a4,4,0,0,1-1.78-3.34,4,4,0,0,1,.93-2.57l0,0,0-.06a2.14,2.14,0,0,1,1.29-1,4.07,4.07,0,0,0,1.92,2.64,0.89,0.89,0,0,0,1.21-.3,0.86,0.86,0,0,0-.31-1.19,2.32,2.32,0,0,1,.49-4.22A0.86,0.86,0,0,0,293.6,38a0.89,0.89,0,0,0-1.11-.56,4.08,4.08,0,0,0-2.75,3,3.74,3.74,0,0,0-1.9.82,5,5,0,0,1-.41-1.95,5.06,5.06,0,0,1,2.72-4.47l0.05,0,0.06,0a4.79,4.79,0,0,1,5.16,0,4,4,0,0,0,.39,4.79,0.89,0.89,0,0,0,1.24.08,0.86,0.86,0,0,0,.08-1.22,2.3,2.3,0,0,1,.22-3.29,2.4,2.4,0,0,1,3.34.22,0.89,0.89,0,0,0,1.24.08,0.86,0.86,0,0,0,.08-1.22,4.14,4.14,0,0,0-5.35-.72,6.74,6.74,0,0,0-6.52-.62,3.09,3.09,0,0,1-.1-0.78,3.15,3.15,0,0,1,2.46-3,3.68,3.68,0,0,0,1.39,2.31,0.89,0.89,0,0,0,1.22-.26,0.86,0.86,0,0,0-.26-1.2,2.82,2.82,0,0,1-.71-1.74,0.75,0.75,0,0,0,0-.19,3.11,3.11,0,0,1,0-.44,3.16,3.16,0,0,1,2.49-3.06,6.73,6.73,0,0,0,1.52,4,4.87,4.87,0,0,0,3.14,1.54,2.79,2.79,0,0,0,3.4,1.37,0.86,0.86,0,0,0,.54-1.1,0.88,0.88,0,0,0-1.12-.53,1,1,0,0,1-1.3-.62,1,1,0,0,1,.63-1.27,0.86,0.86,0,0,0,.54-1.1,0.89,0.89,0,0,0-1.12-.53,2.74,2.74,0,0,0-1.79,2,3,3,0,0,1-1.59-.9,5.56,5.56,0,0,1-1.11-3.59A2.67,2.67,0,0,1,301.84,22a4.81,4.81,0,0,0,1.87,3,0.89,0.89,0,0,0,1.21-.3,0.86,0.86,0,0,0-.31-1.19,3.35,3.35,0,0,1-1.07-2,1.77,1.77,0,0,1,3.27.91V34.88h0Z"/><path class="cls-7" d="M42.59,48.85H39.44V36.93H35.15V34.18h11.7v2.75H42.59V48.85Z"/><path class="cls-7" d="M54.87,49.12a4,4,0,0,1-3.28-1.63V52.9H48.79V38.23h2.79v1.34A4,4,0,0,1,54.87,38a4.32,4.32,0,0,1,3.4,1.49,6,6,0,0,1,1.31,4.08,6,6,0,0,1-1.31,4.09A4.3,4.3,0,0,1,54.87,49.12ZM54,46.63a2.44,2.44,0,0,0,1.95-.86,3.32,3.32,0,0,0,.74-2.24,3.29,3.29,0,0,0-.74-2.22A2.44,2.44,0,0,0,54,40.45a3,3,0,0,0-1.36.35,2.77,2.77,0,0,0-1,.86v3.76a2.75,2.75,0,0,0,1,.86A3,3,0,0,0,54,46.63Z"/><path class="cls-7" d="M66.61,49.12a5.64,5.64,0,0,1-4.07-1.54,5.35,5.35,0,0,1-1.61-4,5.48,5.48,0,0,1,1.55-4A5.25,5.25,0,0,1,66.44,38a5,5,0,0,1,3.85,1.62,6,6,0,0,1,1.47,4.23v0.62h-7.9a2.69,2.69,0,0,0,.95,1.76,3.11,3.11,0,0,0,2.11.7,4.68,4.68,0,0,0,1.53-.29,3.38,3.38,0,0,0,1.31-.77L71,47.65A6.22,6.22,0,0,1,66.61,49.12Zm2.44-6.58a2.69,2.69,0,0,0-.71-1.63,2.42,2.42,0,0,0-1.9-.73,2.39,2.39,0,0,0-1.85.71,2.87,2.87,0,0,0-.77,1.64h5.24Z"/><path class="cls-7" d="M76.58,48.85H73.79V38.23h2.79v3.94H81V38.23h2.79V48.85H81V44.61h-4.4v4.25Z"/><path class="cls-7" d="M89.23,48.85H86.55V38.23h2.79v6.42l4.38-6.42h2.82V48.85H93.74V42.19Z"/><path class="cls-7" d="M105.38,49.12a4,4,0,0,1-3.28-1.63V52.9H99.31V38.23h2.79v1.34A4,4,0,0,1,105.38,38a4.32,4.32,0,0,1,3.4,1.49,6,6,0,0,1,1.31,4.08,6,6,0,0,1-1.31,4.09A4.3,4.3,0,0,1,105.38,49.12Zm-0.88-2.49a2.44,2.44,0,0,0,1.95-.86,3.32,3.32,0,0,0,.74-2.24,3.29,3.29,0,0,0-.74-2.22,2.44,2.44,0,0,0-1.95-.86,3,3,0,0,0-1.36.35,2.77,2.77,0,0,0-1,.86v3.76a2.75,2.75,0,0,0,1,.86A3,3,0,0,0,104.5,46.63Z"/><path class="cls-7" d="M121.15,47.5a6,6,0,0,1-8.17,0,5.91,5.91,0,0,1,0-7.93,6,6,0,0,1,8.17,0A5.88,5.88,0,0,1,121.15,47.5Zm-6.07-1.76a2.42,2.42,0,0,0,2,.89,2.45,2.45,0,0,0,2-.89,3.65,3.65,0,0,0,0-4.4,2.45,2.45,0,0,0-2-.89,2.42,2.42,0,0,0-2,.89A3.7,3.7,0,0,0,115.08,45.74Z"/><path class="cls-7" d="M131.69,48.85h-6.93V38.23h6.73a3.4,3.4,0,0,1,2.4.79,2.53,2.53,0,0,1,.86,1.94,2.42,2.42,0,0,1-1.8,2.42,2.5,2.5,0,0,1,1.45.92A2.63,2.63,0,0,1,135,46,2.71,2.71,0,0,1,134.1,48,3.39,3.39,0,0,1,131.69,48.85Zm-0.77-6.56a1,1,0,0,0,.72-0.25,0.82,0.82,0,0,0,.27-0.63,0.86,0.86,0,0,0-.26-0.65,1,1,0,0,0-.73-0.25h-3.37V42.3h3.37ZM131,46.57a1.17,1.17,0,0,0,.8-0.26,0.92,0.92,0,0,0,.3-0.73,0.94,0.94,0,0,0-.3-0.7,1.11,1.11,0,0,0-.8-0.29h-3.45v2H131Z"/><path class="cls-7" d="M148,48.85h-3.5l-2.82-4.09-1.28,1.36v2.73h-2.79V38.23h2.79V43l4-4.73h3.43L143.7,43Z"/><path class="cls-7" d="M152.1,48.85h-2.68V38.23h2.79v6.42l4.38-6.42h2.82V48.85h-2.79V42.19Z"/></g></svg>