<svg width="18" height="11" viewBox="0 0 18 11" version="1.1" xmlns="http://www.w3.org/2000/svg" xmlns:xlink="http://www.w3.org/1999/xlink"><defs><polygon id="path-1" points="0 0.328542857 0 12 19.9069167 12 19.9069167 0.328542857 7.22801448e-20 0.328542857"/></defs><g id="Tutorial" stroke="none" stroke-width="1" fill="none" fill-rule="evenodd" opacity=".732"><g id="рега" transform="translate(-676.000000, -708.000000)"><g id="arrow-down-sign-to-navigate" transform="translate(674.000000, 708.000000)"><mask id="mask-2" fill="#fff"><use xlink:href="#path-1"/></mask><path d="M10.9531585,10.8272649 C10.6323293,10.8272649 10.3115001,10.700818 10.0677299,10.4500829 L2.36812901,2.53049343 C1.87729033,2.02563079 1.87729033,1.20866001 2.36812901,0.7053394 C2.8574685,0.20294401 3.65174564,0.20294401 4.14138496,0.7053394 L10.9531585,7.71296866 L17.7664312,0.706573029 C18.2560705,0.20294401 19.0500478,0.20294401 19.5396872,0.706573029 C20.0293265,1.20989364 20.0293265,2.02686441 19.5396872,2.53049343 L11.8397865,10.4500829 C11.5963161,10.7020516 11.2742875,10.8272649 10.9531585,10.8272649 L10.9531585,10.8272649 Z" id="Fill-1" fill="#AAB0BC" mask="url(#mask-2)"/></g></g></g></svg>