<?xml version="1.0" encoding="utf-8"?>
<!-- Generator: Adobe Illustrator 19.2.0, SVG Export Plug-In . SVG Version: 6.00 Build 0)  -->
<svg version="1.1" id="Слой_1" xmlns="http://www.w3.org/2000/svg" xmlns:xlink="http://www.w3.org/1999/xlink" x="0px" y="0px"
	 viewBox="0 0 472 78.5" style="enable-background:new 0 0 472 78.5;" xml:space="preserve">
<style type="text/css">
	.st0{clip-path:url(#SVGID_2_);}
	.st1{fill:url(#SVGID_3_);}
	.st2{opacity:0.5;fill:#FFFFFF;enable-background:new    ;}
	.st3{opacity:0.6;fill:#FFFFFF;enable-background:new    ;}
	.st4{fill:#FFFFFF;}
	.st5{fill:#5B6EC0;}
	.st6{fill:#FFCC00;}
	.st7{enable-background:new    ;}
</style>
<title>ВК</title>
<g>
	<defs>
		<path id="SVGID_1_" d="M13,1h447c6.6,0,12,5.4,12,12v53.5c0,6.6-5.4,12-12,12H13c-6.6,0-12-5.4-12-12V13C1,6.4,6.4,1,13,1z"/>
	</defs>
	<clipPath id="SVGID_2_">
		<use xlink:href="#SVGID_1_"  style="overflow:visible;"/>
	</clipPath>
	<g class="st0">
		
			<linearGradient id="SVGID_3_" gradientUnits="userSpaceOnUse" x1="-8.945579e-002" y1="906.8375" x2="462.3405" y2="1009.5275" gradientTransform="matrix(1 0 0 1 0 -920)">
			<stop  offset="0" style="stop-color:#5B6EC0"/>
			<stop  offset="1" style="stop-color:#4BC4E7"/>
		</linearGradient>
		<rect y="0" class="st1" width="472" height="78.5"/>
		<circle class="st2" cx="436.2" cy="38.8" r="130.5"/>
		<circle class="st3" cx="436.2" cy="38.8" r="94.2"/>
		<circle class="st4" cx="436.2" cy="38.8" r="56.1"/>
		<circle class="st2" cx="436.3" cy="39.3" r="130.5"/>
		<circle class="st3" cx="436.3" cy="39.3" r="94.2"/>
		<circle class="st4" cx="436.3" cy="39.3" r="56.1"/>
		<path class="st5" d="M452.6,44.5c1.7,1.5,3.3,3.2,4.8,4.8c0.7,0.8,1.2,1.6,1.7,2.5c0.7,1.3,0.1,2.7-1.1,2.8h-7.2
			c-1.7,0.1-3.4-0.6-4.6-1.9c-1-1-1.9-2.1-2.9-3.1c-0.4-0.4-0.8-0.8-1.3-1.2c-0.6-0.5-1.6-0.5-2.1,0.2c-0.1,0.1-0.2,0.3-0.3,0.4
			c-0.5,1-0.8,2.2-0.8,3.3c-0.1,1.7-0.6,2.1-2.3,2.2c-3.6,0.3-7.1-0.5-10.3-2.2c-2.7-1.6-5.1-3.8-6.9-6.4
			c-3.6-5.1-6.7-10.5-9.1-16.2c-0.6-1.3-0.1-2,1.3-2c2.3,0,4.7,0,7,0c0.9,0,1.7,0.6,2,1.5c1.3,3.1,2.9,6,4.8,8.8
			c0.5,0.8,1.1,1.4,1.8,2c0.4,0.4,1.1,0.5,1.5,0c0.2-0.2,0.3-0.4,0.3-0.6c0.2-0.6,0.4-1.2,0.4-1.8c0.2-2.2,0.2-4.3-0.1-6.5
			c-0.1-1.3-1-2.3-2.3-2.5c-0.7-0.1-0.6-0.4-0.3-0.8c0.5-0.7,1.3-1.1,2.2-1.1h8.1c1.3,0.3,1.6,0.8,1.7,2.1v9c0,0.5,0.3,2,1.1,2.3
			c0.7,0.1,1.3-0.2,1.6-0.8c1.9-2.1,3.4-4.5,4.6-7c0.5-1.1,1-2.3,1.5-3.4c0.2-0.8,1-1.3,1.8-1.3h7.8c0.2,0,0.5,0,0.7,0
			c1.3,0.2,1.7,0.8,1.3,2.1c-0.7,1.9-1.8,3.8-3.1,5.4c-1.3,1.8-2.7,3.5-4,5.4C451,42.3,451.1,43.1,452.6,44.5z"/>
	</g>
</g>
<path class="st6" d="M88,9.6h141.1c4.9,0.1,8.9,4,8.9,8.9l0,0c0,5-4,9-8.9,9H88c-5,0-9-4-8.9-9l0,0C79.1,13.7,83.1,9.7,88,9.6z"/>
<g class="st7">
	<path d="M95.8,22.7V16h-4.4v6.7h-0.9v-7.5h6.3v7.5H95.8z"/>
	<path d="M98.5,22.7v-7.5h3c1.5,0,2.4,1,2.4,2.3s-0.9,2.3-2.4,2.3h-2.1v3H98.5z M102.9,17.5c0-0.8-0.6-1.4-1.5-1.4h-2v2.9h2
		C102.3,18.9,102.9,18.3,102.9,17.5z"/>
	<path d="M105.1,22.7v-7.5h4.9V16h-4v2.4h3.9v0.8h-3.9v2.6h4v0.8H105.1z"/>
	<path d="M111,21.6l0.6-0.6c0.5,0.6,1.3,1,2.3,1c1.2,0,1.9-0.5,1.9-1.4c0-0.9-0.8-1.3-2-1.3h-1.5v-0.8h1.5c1,0,1.8-0.4,1.8-1.2
		c0-0.8-0.8-1.3-1.8-1.3c-0.9,0-1.6,0.3-2.1,0.9l-0.5-0.6c0.6-0.7,1.5-1.2,2.7-1.2c1.5,0,2.7,0.7,2.7,2c0,1.1-0.9,1.6-1.6,1.8
		c0.7,0.1,1.7,0.6,1.7,1.9c0,1.3-1.1,2.2-2.8,2.2C112.5,22.9,111.5,22.3,111,21.6z"/>
	<path d="M118.2,22.7v-7.5h0.9v5.9l4.3-5.9h1v7.5h-0.9v-6l-4.4,6H118.2z"/>
	<path d="M125.6,22c0.9-0.1,1.4-0.4,1.7-3l0.5-3.8h4.6v6.7h0.7v2.2h-0.9v-1.4h-5.6v1.4h-0.9V22z M127.1,21.9h4.4V16h-2.8l-0.4,3
		C128.1,20.6,127.7,21.5,127.1,21.9z"/>
	<path d="M134.3,22.7v-7.5h4.9V16h-4v2.4h3.9v0.8h-3.9v2.6h4v0.8H134.3z"/>
	<path d="M146.1,22.7v-3.5h-4.4v3.5h-0.9v-7.5h0.9v3.2h4.4v-3.2h0.9v7.5H146.1z"/>
	<path d="M150.6,22.7V16h-2.4v-0.8h5.7V16h-2.4v6.7H150.6z"/>
	<path d="M154.9,19c0-2.3,1.7-3.9,3.9-3.9c1.3,0,2.3,0.6,2.9,1.5l-0.8,0.4c-0.4-0.6-1.2-1.1-2.1-1.1c-1.6,0-2.9,1.3-2.9,3.1
		c0,1.8,1.3,3.1,2.9,3.1c0.9,0,1.6-0.5,2.1-1.1l0.8,0.4c-0.6,0.9-1.5,1.5-2.9,1.5C156.6,22.9,154.9,21.3,154.9,19z"/>
	<path d="M167.4,22.7l-2.9-3.4l-0.8,0.9v2.5h-0.9v-7.5h0.9v3.9l3.3-3.9h1.2l-3.1,3.6l3.4,4H167.4z"/>
	<path d="M169.6,22.7v-7.5h0.9v5.9l4.3-5.9h1v7.5h-0.9v-6l-4.4,6H169.6z"/>
	<path d="M177.6,22.7v-7.5h0.9v5.9l4.3-5.9h1v7.5h-0.9v-6l-4.4,6H177.6z M180.7,14.8c-0.8,0-1.5-0.4-2-1l0.4-0.4
		c0.4,0.5,0.9,0.8,1.6,0.8c0.7,0,1.2-0.3,1.6-0.8l0.4,0.4C182.3,14.4,181.6,14.8,180.7,14.8z"/>
	<path d="M188.2,19c0-2.3,1.7-3.9,3.9-3.9c1.3,0,2.3,0.6,2.9,1.5l-0.8,0.4c-0.4-0.6-1.2-1.1-2.1-1.1c-1.6,0-2.9,1.3-2.9,3.1
		c0,1.8,1.3,3.1,2.9,3.1c0.9,0,1.6-0.5,2.1-1.1l0.8,0.4c-0.6,0.9-1.5,1.5-2.9,1.5C189.9,22.9,188.2,21.3,188.2,19z"/>
	<path d="M198,22.7V16h-2.4v-0.8h5.7V16H199v6.7H198z"/>
	<path d="M208,22.7l-0.7-1.7h-3.7l-0.7,1.7h-1.1l3-7.5h1.2l3,7.5H208z M205.4,16.2l-1.6,4.1h3.2L205.4,16.2z"/>
	<path d="M211.9,22.7V16h-2.4v-0.8h5.7V16h-2.4v6.7H211.9z"/>
	<path d="M215.8,22.3l0.4-0.7c0.3,0.3,0.6,0.5,1,0.5c0.6,0,0.8-0.3,1.3-1.1l0.1-0.3l-2.9-5.5h1.1l2.4,4.7l2.4-4.7h1.1l-3.3,6.2
		c-0.5,0.9-1,1.5-2,1.5C216.6,22.9,216,22.6,215.8,22.3z"/>
	<path d="M223.2,19c0-2.3,1.7-3.9,3.9-3.9c1.3,0,2.3,0.6,2.9,1.5l-0.8,0.4c-0.4-0.6-1.2-1.1-2.1-1.1c-1.6,0-2.9,1.3-2.9,3.1
		c0,1.8,1.3,3.1,2.9,3.1c0.9,0,1.6-0.5,2.1-1.1l0.8,0.4c-0.6,0.9-1.5,1.5-2.9,1.5C224.9,22.9,223.2,21.3,223.2,19z"/>
</g>
<g class="st7">
	<path class="st4" d="M82,49.8h-8V35.1h7.7c1.3,0,2.4,0.4,3.1,1.1c0.7,0.7,1.1,1.6,1.1,2.7c0,0.9-0.2,1.6-0.7,2.2
		c-0.5,0.6-1.1,1-1.8,1.1c0.8,0.1,1.5,0.5,2,1.2c0.5,0.7,0.8,1.5,0.8,2.4c0,1.1-0.4,2.1-1.1,2.8S83.3,49.8,82,49.8z M81.1,41
		c0.5,0,0.9-0.1,1.3-0.4c0.3-0.3,0.5-0.7,0.5-1.1s-0.2-0.9-0.5-1.2s-0.7-0.5-1.2-0.5h-3.9V41H81.1z M81.2,47.1c0.6,0,1-0.2,1.4-0.5
		c0.3-0.3,0.5-0.7,0.5-1.2c0-0.5-0.2-0.9-0.5-1.2s-0.8-0.5-1.4-0.5h-4v3.4H81.2z"/>
	<path class="st4" d="M101.2,49.8h-3.9l-4.4-5.9l-1.1,1.4v4.5h-3.1V35.1h3.1v6.6l5.2-6.6h3.9L94.9,42L101.2,49.8z"/>
	<path class="st4" d="M107.1,45.7h-5.3v-2.4h5.3V45.7z"/>
	<path class="st4" d="M118.1,48.5c-1,1.1-2.4,1.6-4.1,1.6c-1.7,0-3.1-0.5-4.1-1.6c-1-1.1-1.5-2.4-1.5-4s0.5-2.9,1.5-4
		c1-1.1,2.4-1.6,4.1-1.6c1.7,0,3.1,0.5,4.1,1.6c1,1.1,1.5,2.4,1.5,4S119.2,47.4,118.1,48.5z M112.1,46.7c0.5,0.6,1.1,0.9,2,0.9
		s1.5-0.3,2-0.9c0.5-0.6,0.7-1.3,0.7-2.2c0-0.9-0.2-1.6-0.7-2.2c-0.5-0.6-1.2-0.9-2-0.9s-1.5,0.3-2,0.9c-0.5,0.6-0.7,1.3-0.7,2.2
		C111.3,45.4,111.6,46.1,112.1,46.7z"/>
	<path class="st4" d="M127.8,50.1c-1.3,0-2.4-0.5-3.3-1.6v5.4h-2.8V39.2h2.8v1.3c0.8-1.1,1.9-1.6,3.3-1.6c1.4,0,2.5,0.5,3.4,1.5
		c0.9,1,1.3,2.4,1.3,4.1c0,1.7-0.4,3.1-1.3,4.1C130.3,49.6,129.2,50.1,127.8,50.1z M126.9,47.6c0.8,0,1.5-0.3,1.9-0.9
		c0.5-0.6,0.7-1.3,0.7-2.2c0-0.9-0.2-1.6-0.7-2.2c-0.5-0.6-1.1-0.9-1.9-0.9c-0.5,0-0.9,0.1-1.4,0.4s-0.8,0.5-1,0.9v3.8
		c0.2,0.3,0.6,0.6,1,0.9C126.1,47.5,126.5,47.6,126.9,47.6z"/>
	<path class="st4" d="M138.2,38.9c1.1,0,2.1,0.5,2.8,1.6v-5.4h2.8v5.4c0.7-1.1,1.7-1.6,2.8-1.6c1.2,0,2.2,0.5,2.9,1.5
		c0.8,1,1.1,2.4,1.1,4.1c0,1.7-0.4,3.1-1.1,4.1c-0.8,1-1.7,1.5-2.9,1.5c-1.2,0-2.1-0.5-2.8-1.6v5.4H141v-5.4
		c-0.7,1.1-1.7,1.6-2.8,1.6c-1.2,0-2.2-0.5-2.9-1.5c-0.8-1-1.1-2.4-1.1-4.1s0.4-3.1,1.1-4.1C136,39.4,137,38.9,138.2,38.9z
		 M139.1,41.4c-0.6,0-1.1,0.3-1.6,0.9c-0.4,0.6-0.6,1.3-0.6,2.2c0,0.9,0.2,1.6,0.6,2.2c0.4,0.6,0.9,0.9,1.6,0.9
		c0.4,0,0.7-0.1,1.1-0.4c0.4-0.2,0.6-0.5,0.8-0.9v-3.8c-0.2-0.3-0.5-0.6-0.8-0.9S139.5,41.4,139.1,41.4z M145.8,47.6
		c0.6,0,1.2-0.3,1.6-0.9s0.6-1.3,0.6-2.2c0-0.9-0.2-1.6-0.6-2.2s-0.9-0.9-1.6-0.9c-0.4,0-0.7,0.1-1.1,0.4s-0.6,0.5-0.8,0.9v3.8
		c0.2,0.3,0.5,0.6,0.8,0.9C145,47.5,145.4,47.6,145.8,47.6z"/>
	<path class="st4" d="M162.1,48.5c-1,1.1-2.4,1.6-4.1,1.6c-1.7,0-3.1-0.5-4.1-1.6c-1-1.1-1.5-2.4-1.5-4s0.5-2.9,1.5-4
		c1-1.1,2.4-1.6,4.1-1.6c1.7,0,3.1,0.5,4.1,1.6c1,1.1,1.5,2.4,1.5,4S163.1,47.4,162.1,48.5z M156,46.7c0.5,0.6,1.1,0.9,2,0.9
		s1.5-0.3,2-0.9c0.5-0.6,0.7-1.3,0.7-2.2c0-0.9-0.2-1.6-0.7-2.2c-0.5-0.6-1.2-0.9-2-0.9s-1.5,0.3-2,0.9c-0.5,0.6-0.7,1.3-0.7,2.2
		C155.3,45.4,155.5,46.1,156,46.7z"/>
	<path class="st4" d="M173.9,39.2v2.4h-5.4v8.2h-2.8V39.2H173.9z"/>
	<path class="st4" d="M181.8,50.1c-1.3,0-2.4-0.5-3.3-1.6v5.4h-2.8V39.2h2.8v1.3c0.8-1.1,1.9-1.6,3.3-1.6c1.4,0,2.5,0.5,3.4,1.5
		c0.9,1,1.3,2.4,1.3,4.1c0,1.7-0.4,3.1-1.3,4.1C184.3,49.6,183.2,50.1,181.8,50.1z M180.9,47.6c0.8,0,1.5-0.3,1.9-0.9
		c0.5-0.6,0.7-1.3,0.7-2.2c0-0.9-0.2-1.6-0.7-2.2c-0.5-0.6-1.1-0.9-1.9-0.9c-0.5,0-0.9,0.1-1.4,0.4s-0.8,0.5-1,0.9v3.8
		c0.2,0.3,0.6,0.6,1,0.9C180,47.5,180.4,47.6,180.9,47.6z"/>
	<path class="st4" d="M197.7,49.8h-2.8v-1.1c-0.8,0.9-1.9,1.4-3.4,1.4c-1,0-1.8-0.3-2.6-0.9s-1.1-1.5-1.1-2.6c0-1.1,0.4-2,1.1-2.6
		s1.6-0.9,2.6-0.9c1.5,0,2.6,0.4,3.4,1.3V43c0-0.5-0.2-1-0.6-1.3c-0.4-0.3-1-0.5-1.7-0.5c-1.2,0-2.2,0.4-3.1,1.3l-1.1-1.9
		c1.3-1.1,2.8-1.7,4.6-1.7c1.4,0,2.5,0.3,3.3,0.9c0.9,0.6,1.3,1.7,1.3,3.1V49.8z M192.7,48.2c1,0,1.8-0.3,2.2-0.9v-1.3
		c-0.5-0.6-1.2-0.9-2.2-0.9c-0.6,0-1,0.1-1.4,0.4s-0.6,0.7-0.6,1.2c0,0.5,0.2,0.9,0.6,1.1S192.1,48.2,192.7,48.2z"/>
	<path class="st4" d="M204.1,38.9c1.1,0,2.1,0.5,2.8,1.6v-5.4h2.8v5.4c0.7-1.1,1.7-1.6,2.8-1.6c1.2,0,2.2,0.5,2.9,1.5
		c0.8,1,1.1,2.4,1.1,4.1c0,1.7-0.4,3.1-1.1,4.1c-0.8,1-1.7,1.5-2.9,1.5c-1.2,0-2.1-0.5-2.8-1.6v5.4h-2.8v-5.4
		c-0.7,1.1-1.7,1.6-2.8,1.6c-1.2,0-2.2-0.5-2.9-1.5c-0.8-1-1.1-2.4-1.1-4.1s0.4-3.1,1.1-4.1C201.9,39.4,202.9,38.9,204.1,38.9z
		 M205,41.4c-0.6,0-1.1,0.3-1.6,0.9c-0.4,0.6-0.6,1.3-0.6,2.2c0,0.9,0.2,1.6,0.6,2.2c0.4,0.6,0.9,0.9,1.6,0.9c0.4,0,0.7-0.1,1.1-0.4
		c0.4-0.2,0.6-0.5,0.8-0.9v-3.8c-0.2-0.3-0.5-0.6-0.8-0.9S205.4,41.4,205,41.4z M211.6,47.6c0.6,0,1.2-0.3,1.6-0.9s0.6-1.3,0.6-2.2
		c0-0.9-0.2-1.6-0.6-2.2s-0.9-0.9-1.6-0.9c-0.4,0-0.7,0.1-1.1,0.4s-0.6,0.5-0.8,0.9v3.8c0.2,0.3,0.5,0.6,0.8,0.9
		C210.9,47.5,211.3,47.6,211.6,47.6z"/>
	<path class="st4" d="M221.7,49.8H219V39.2h2.8v6.4l4.4-6.4h2.8v10.6h-2.8v-6.7L221.7,49.8z"/>
	<path class="st4" d="M234.5,49.8h-3.2l2.5-3.8c-0.7-0.2-1.2-0.5-1.7-1.1c-0.5-0.6-0.7-1.3-0.7-2.2c0-1,0.3-1.8,1-2.5
		c0.7-0.7,1.6-1,2.7-1h6.4v10.6h-2.8v-3.7h-2.2L234.5,49.8z M235.6,43.8h3.2v-2.3h-3.2c-0.4,0-0.7,0.1-0.9,0.3
		c-0.2,0.2-0.4,0.5-0.4,0.8c0,0.4,0.1,0.6,0.3,0.8C234.9,43.7,235.2,43.8,235.6,43.8z"/>
</g>
</svg>
