<?xml version="1.0" encoding="utf-8"?>
<!-- Generator: Adobe Illustrator 19.2.0, SVG Export Plug-In . SVG Version: 6.00 Build 0)  -->
<svg version="1.1" id="Слой_1" xmlns="http://www.w3.org/2000/svg" xmlns:xlink="http://www.w3.org/1999/xlink" x="0px" y="0px"
	 viewBox="0 0 472 78.5" style="enable-background:new 0 0 472 78.5;" xml:space="preserve">
<style type="text/css">
	.st0{clip-path:url(#SVGID_2_);}
	.st1{fill:url(#SVGID_3_);}
	.st2{opacity:0.6;fill:#FFFFFF;enable-background:new    ;}
	.st3{opacity:0.8;fill:#FFFFFF;enable-background:new    ;}
	.st4{fill:#FFFFFF;}
	.st5{fill:#5B6EC0;}
	.st6{font-family:'ProximaNova-Bold';}
	.st7{font-size:112.9px;}
	.st8{enable-background:new    ;}
</style>
<title>Пунктуация</title>
<g>
	<defs>
		<path id="SVGID_1_" d="M13,1h447c6.6,0,12,5.4,12,12v53.5c0,6.6-5.4,12-12,12H13c-6.6,0-12-5.4-12-12V13C1,6.4,6.4,1,13,1z"/>
	</defs>
	<clipPath id="SVGID_2_">
		<use xlink:href="#SVGID_1_"  style="overflow:visible;"/>
	</clipPath>
	<g class="st0">
		
			<linearGradient id="SVGID_3_" gradientUnits="userSpaceOnUse" x1="-8.945579e-002" y1="906.8375" x2="462.3405" y2="1009.5275" gradientTransform="matrix(1 0 0 1 0 -920)">
			<stop  offset="0" style="stop-color:#5B6EC0"/>
			<stop  offset="1" style="stop-color:#4BC4E7"/>
		</linearGradient>
		<rect y="0" class="st1" width="472" height="78.5"/>
		<circle class="st2" cx="435.3" cy="39.8" r="130.5"/>
		<circle class="st3" cx="435.3" cy="39.8" r="94.2"/>
		<circle class="st4" cx="435.3" cy="39.8" r="56.1"/>
		<text transform="matrix(1 0 0 1 421.33 42.63)" class="st5 st6 st7">,</text>
	</g>
</g>
<g class="st8">
	<path class="st4" d="M110.2,49.8h-3.1V37.9h-6.9v11.9H97V35.1h13.2V49.8z"/>
	<path class="st4" d="M112.7,54l0.4-2.5c0.3,0.1,0.6,0.2,0.9,0.2c0.7,0,1.2-0.3,1.5-0.8l0.4-0.9l-4.3-10.8h3l2.8,7.4l2.8-7.4h3
		l-5,12.4c-0.4,0.9-0.9,1.6-1.5,2c-0.7,0.4-1.5,0.6-2.5,0.6C113.5,54.1,113.1,54.1,112.7,54z"/>
	<path class="st4" d="M127.1,49.8h-2.8V39.2h2.8v3.9h4.4v-3.9h2.8v10.6h-2.8v-4.2h-4.4V49.8z"/>
	<path class="st4" d="M147.5,49.8H144l-2.8-4.1l-1.3,1.4v2.7h-2.8V39.2h2.8v4.7l4-4.7h3.4l-4.2,4.8L147.5,49.8z"/>
	<path class="st4" d="M153.6,49.8h-2.8v-8.2h-3v-2.4h8.8v2.4h-3V49.8z"/>
	<path class="st4" d="M158,54l0.4-2.5c0.3,0.1,0.6,0.2,0.9,0.2c0.7,0,1.2-0.3,1.5-0.8l0.4-0.9l-4.3-10.8h3l2.8,7.4l2.8-7.4h3
		l-5,12.4c-0.4,0.9-0.9,1.6-1.5,2c-0.7,0.4-1.5,0.6-2.5,0.6C158.8,54.1,158.4,54.1,158,54z"/>
	<path class="st4" d="M178.8,49.8H176v-1.1c-0.8,0.9-1.9,1.4-3.4,1.4c-1,0-1.8-0.3-2.6-0.9s-1.1-1.5-1.1-2.6c0-1.1,0.4-2,1.1-2.6
		s1.6-0.9,2.6-0.9c1.5,0,2.6,0.4,3.4,1.3V43c0-0.5-0.2-1-0.6-1.3c-0.4-0.3-1-0.5-1.7-0.5c-1.2,0-2.2,0.4-3.1,1.3l-1.1-1.9
		c1.3-1.1,2.8-1.7,4.6-1.7c1.4,0,2.5,0.3,3.3,0.9c0.9,0.6,1.3,1.7,1.3,3.1V49.8z M173.8,48.2c1,0,1.8-0.3,2.2-0.9v-1.3
		c-0.5-0.6-1.2-0.9-2.2-0.9c-0.6,0-1,0.1-1.4,0.4s-0.6,0.7-0.6,1.2c0,0.5,0.2,0.9,0.6,1.1S173.2,48.2,173.8,48.2z"/>
	<path class="st4" d="M189.9,52.5v-2.7h-8.4V39.2h2.8v8.2h4.4v-8.2h2.8v8.2h1.2v5.1H189.9z"/>
	<path class="st4" d="M197.2,49.8h-2.7V39.2h2.8v6.4l4.4-6.4h2.8v10.6h-2.8v-6.7L197.2,49.8z"/>
	<path class="st4" d="M210.1,49.8h-3.2l2.5-3.8c-0.7-0.2-1.2-0.5-1.7-1.1c-0.5-0.6-0.7-1.3-0.7-2.2c0-1,0.3-1.8,1-2.5
		c0.7-0.7,1.6-1,2.7-1h6.4v10.6h-2.8v-3.7h-2.2L210.1,49.8z M211.1,43.8h3.2v-2.3h-3.2c-0.4,0-0.7,0.1-0.9,0.3
		c-0.2,0.2-0.4,0.5-0.4,0.8c0,0.4,0.1,0.6,0.3,0.8C210.4,43.7,210.7,43.8,211.1,43.8z"/>
</g>
<path class="st4" d="M105.1,10.6H210c4.7,0,8.5,3.8,8.5,8.5V20c0,4.7-3.8,8.5-8.5,8.5H105.1c-4.7,0-8.5-3.8-8.5-8.5v-0.9
	C96.6,14.4,100.4,10.6,105.1,10.6z"/>
<g class="st8">
	<path class="st5" d="M130,21.4c0,1.6-1,2.4-3.1,2.4h-2.3v-8.1h4.9v1.1h-3.6V19h1C128.9,19,130,19.8,130,21.4z M125.9,22.7h0.9
		c0.6,0,1.1-0.1,1.4-0.3c0.3-0.2,0.4-0.5,0.4-1c0-0.4-0.1-0.8-0.4-1c-0.3-0.2-0.8-0.3-1.5-0.3h-0.8V22.7z"/>
	<path class="st5" d="M136.1,23.8h-4.6v-8.1h4.6v1.1h-3.2v2.2h3v1.1h-3v2.5h3.2V23.8z"/>
	<path class="st5" d="M141.3,16.8c-0.8,0-1.4,0.3-1.8,0.8c-0.4,0.5-0.7,1.3-0.7,2.2c0,1,0.2,1.7,0.6,2.2c0.4,0.5,1,0.8,1.8,0.8
		c0.3,0,0.7,0,1-0.1c0.3-0.1,0.7-0.2,1-0.3v1.1c-0.6,0.2-1.3,0.4-2.1,0.4c-1.2,0-2.1-0.4-2.7-1.1c-0.6-0.7-0.9-1.7-0.9-3.1
		c0-0.8,0.2-1.6,0.5-2.2c0.3-0.6,0.8-1.1,1.3-1.4c0.6-0.3,1.3-0.5,2-0.5c0.8,0,1.6,0.2,2.3,0.5l-0.5,1.1c-0.3-0.1-0.6-0.2-0.9-0.3
		C142,16.8,141.7,16.8,141.3,16.8z"/>
	<path class="st5" d="M151.2,23.8h-1.3v-6.9h-3.6v6.9H145v-8.1h6.2V23.8z"/>
	<path class="st5" d="M159.4,23.8h-1.3v-6.9h-2.3c-0.3,2.4-0.5,4-0.7,4.8c-0.2,0.8-0.4,1.4-0.7,1.8c-0.3,0.3-0.7,0.5-1.3,0.5
		c-0.3,0-0.5,0-0.8-0.1v-1.1c0.2,0.1,0.4,0.1,0.6,0.1c0.3,0,0.5-0.2,0.6-0.5c0.1-0.3,0.3-1,0.5-2.1s0.4-2.6,0.6-4.5h4.7V23.8z"/>
	<path class="st5" d="M166.5,23.8l-0.8-2.2h-3.1l-0.8,2.2h-1.4l3-8.1h1.4l3,8.1H166.5z M165.4,20.4l-0.8-2.2
		c-0.1-0.1-0.1-0.4-0.2-0.7c-0.1-0.3-0.2-0.5-0.2-0.7c-0.1,0.5-0.2,0.9-0.4,1.5l-0.7,2.1H165.4z"/>
	<path class="st5" d="M171.8,23.8h-1.3v-6.9h-2.4v-1.1h6.1v1.1h-2.4V23.8z"/>
	<path class="st5" d="M181.8,23.8h-1.3v-3.6h-3.7v3.6h-1.3v-8.1h1.3v3.3h3.7v-3.3h1.3V23.8z"/>
	<path class="st5" d="M191,19.8c0,1.3-0.3,2.3-1,3.1c-0.7,0.7-1.6,1.1-2.8,1.1c-1.2,0-2.2-0.4-2.8-1.1c-0.7-0.7-1-1.7-1-3.1
		s0.3-2.4,1-3.1c0.7-0.7,1.6-1.1,2.8-1.1c1.2,0,2.1,0.4,2.8,1.1C190.7,17.4,191,18.5,191,19.8z M184.9,19.8c0,1,0.2,1.7,0.6,2.3
		c0.4,0.5,1,0.8,1.8,0.8c0.8,0,1.4-0.3,1.8-0.8c0.4-0.5,0.6-1.3,0.6-2.3c0-1-0.2-1.7-0.6-2.2s-1-0.8-1.8-0.8c-0.8,0-1.4,0.3-1.8,0.8
		S184.9,18.8,184.9,19.8z"/>
</g>
</svg>
