<?xml version="1.0" encoding="utf-8"?>
<!-- Generator: Adobe Illustrator 19.2.0, SVG Export Plug-In . SVG Version: 6.00 Build 0)  -->
<svg version="1.1" id="Слой_1" xmlns="http://www.w3.org/2000/svg" xmlns:xlink="http://www.w3.org/1999/xlink" x="0px" y="0px"
	 viewBox="0 0 472 78.5" style="enable-background:new 0 0 472 78.5;" xml:space="preserve">
<style type="text/css">
	.st0{clip-path:url(#SVGID_2_);}
	.st1{fill:url(#SVGID_3_);}
	.st2{fill:#FFCC00;}
	.st3{enable-background:new    ;}
	.st4{fill:#FFFFFF;}
</style>
<title>Курс</title>
<g>
	<defs>
		<path id="SVGID_1_" d="M13,1h447c6.6,0,12,5.4,12,12v53.5c0,6.6-5.4,12-12,12H13c-6.6,0-12-5.4-12-12V13C1,6.4,6.4,1,13,1z"/>
	</defs>
	<clipPath id="SVGID_2_">
		<use xlink:href="#SVGID_1_"  style="overflow:visible;"/>
	</clipPath>
	<g class="st0">
		
			<linearGradient id="SVGID_3_" gradientUnits="userSpaceOnUse" x1="-8.945579e-002" y1="906.8375" x2="462.3405" y2="1009.5275" gradientTransform="matrix(1 0 0 1 0 -920)">
			<stop  offset="0" style="stop-color:#5B6EC0"/>
			<stop  offset="1" style="stop-color:#4BC4E7"/>
		</linearGradient>
		<rect y="0" class="st1" width="472" height="78.5"/>
	</g>
</g>
<path class="st2" d="M168.5,9.6h141.1c4.9,0,8.9,4,9,8.9l0,0c0,5-4,9-9,9H168.5c-5,0-9-4-8.9-9l0,0C159.5,13.7,163.5,9.7,168.5,9.6z
	"/>
<g class="st3">
	<path d="M176.3,22.7V16h-4.4v6.7H171v-7.5h6.3v7.5H176.3z"/>
	<path d="M179,22.7v-7.5h3c1.5,0,2.4,1,2.4,2.3s-0.9,2.3-2.4,2.3H180v3H179z M183.4,17.5c0-0.8-0.6-1.4-1.5-1.4h-2v2.9h2
		C182.8,18.9,183.4,18.3,183.4,17.5z"/>
	<path d="M185.6,22.7v-7.5h4.9V16h-4v2.4h3.9v0.8h-3.9v2.6h4v0.8H185.6z"/>
	<path d="M191.5,21.6l0.6-0.6c0.5,0.6,1.3,1,2.3,1c1.2,0,1.9-0.5,1.9-1.4c0-0.9-0.8-1.3-2-1.3h-1.5v-0.8h1.5c1,0,1.8-0.4,1.8-1.2
		c0-0.8-0.8-1.3-1.8-1.3c-0.9,0-1.6,0.3-2.1,0.9l-0.5-0.6c0.6-0.7,1.5-1.2,2.7-1.2c1.5,0,2.7,0.7,2.7,2c0,1.1-0.9,1.6-1.6,1.8
		c0.7,0.1,1.7,0.6,1.7,1.9c0,1.3-1.1,2.2-2.8,2.2C193,22.9,192,22.3,191.5,21.6z"/>
	<path d="M198.7,22.7v-7.5h0.9v5.9l4.3-5.9h1v7.5H204v-6l-4.4,6H198.7z"/>
	<path d="M206.1,22c0.9-0.1,1.4-0.4,1.7-3l0.5-3.8h4.6v6.7h0.7v2.2h-0.9v-1.4h-5.6v1.4h-0.9V22z M207.6,21.9h4.4V16h-2.8l-0.4,3
		C208.6,20.6,208.2,21.5,207.6,21.9z"/>
	<path d="M214.8,22.7v-7.5h4.9V16h-4v2.4h3.9v0.8h-3.9v2.6h4v0.8H214.8z"/>
	<path d="M226.6,22.7v-3.5h-4.4v3.5h-0.9v-7.5h0.9v3.2h4.4v-3.2h0.9v7.5H226.6z"/>
	<path d="M231.1,22.7V16h-2.4v-0.8h5.7V16h-2.4v6.7H231.1z"/>
	<path d="M235.4,19c0-2.3,1.7-3.9,3.9-3.9c1.3,0,2.3,0.6,2.9,1.5l-0.8,0.4c-0.4-0.6-1.2-1.1-2.1-1.1c-1.6,0-2.9,1.3-2.9,3.1
		c0,1.8,1.3,3.1,2.9,3.1c0.9,0,1.6-0.5,2.1-1.1l0.8,0.4c-0.6,0.9-1.5,1.5-2.9,1.5C237.1,22.9,235.4,21.3,235.4,19z"/>
	<path d="M247.9,22.7l-2.9-3.4l-0.8,0.9v2.5h-0.9v-7.5h0.9v3.9l3.3-3.9h1.2l-3.1,3.6l3.4,4H247.9z"/>
	<path d="M250.1,22.7v-7.5h0.9v5.9l4.3-5.9h1v7.5h-0.9v-6l-4.4,6H250.1z"/>
	<path d="M258.1,22.7v-7.5h0.9v5.9l4.3-5.9h1v7.5h-0.9v-6l-4.4,6H258.1z M261.2,14.8c-0.8,0-1.5-0.4-2-1l0.4-0.4
		c0.4,0.5,0.9,0.8,1.6,0.8c0.7,0,1.2-0.3,1.6-0.8l0.4,0.4C262.8,14.4,262.1,14.8,261.2,14.8z"/>
	<path d="M268.7,19c0-2.3,1.7-3.9,3.9-3.9c1.3,0,2.3,0.6,2.9,1.5l-0.8,0.4c-0.4-0.6-1.2-1.1-2.1-1.1c-1.6,0-2.9,1.3-2.9,3.1
		c0,1.8,1.3,3.1,2.9,3.1c0.9,0,1.6-0.5,2.1-1.1l0.8,0.4c-0.6,0.9-1.5,1.5-2.9,1.5C270.4,22.9,268.7,21.3,268.7,19z"/>
	<path d="M278.5,22.7V16h-2.4v-0.8h5.7V16h-2.4v6.7H278.5z"/>
	<path d="M288.5,22.7l-0.7-1.7h-3.7l-0.7,1.7h-1.1l3-7.5h1.2l3,7.5H288.5z M285.9,16.2l-1.6,4.1h3.2L285.9,16.2z"/>
	<path d="M292.4,22.7V16H290v-0.8h5.7V16h-2.4v6.7H292.4z"/>
	<path d="M296.3,22.3l0.4-0.7c0.3,0.3,0.6,0.5,1,0.5c0.6,0,0.8-0.3,1.3-1.1l0.1-0.3l-2.9-5.5h1.1l2.4,4.7l2.4-4.7h1.1l-3.3,6.2
		c-0.5,0.9-1,1.5-2,1.5C297.1,22.9,296.5,22.6,296.3,22.3z"/>
	<path d="M303.7,19c0-2.3,1.7-3.9,3.9-3.9c1.3,0,2.3,0.6,2.9,1.5l-0.8,0.4c-0.4-0.6-1.2-1.1-2.1-1.1c-1.6,0-2.9,1.3-2.9,3.1
		c0,1.8,1.3,3.1,2.9,3.1c0.9,0,1.6-0.5,2.1-1.1l0.8,0.4c-0.6,0.9-1.5,1.5-2.9,1.5C305.4,22.9,303.7,21.3,303.7,19z"/>
</g>
<g class="st3">
	<path class="st4" d="M91.6,49.8h-11v-2.4c3.1-2.3,5.2-4,6.2-5c1-1,1.5-1.9,1.5-2.8c0-0.6-0.2-1.1-0.7-1.4c-0.5-0.3-1-0.5-1.7-0.5
		c-1.5,0-2.9,0.6-3.9,1.7l-1.8-2.1c0.7-0.8,1.5-1.4,2.5-1.8c1-0.4,2-0.6,3.1-0.6c1.6,0,3,0.4,4,1.3c1.1,0.9,1.6,2,1.6,3.4
		c0,1.2-0.5,2.4-1.4,3.5c-0.9,1.2-2.4,2.5-4.5,3.9h6V49.8z"/>
	<path class="st4" d="M103,48.9c-0.9,0.8-2.1,1.1-3.4,1.1s-2.5-0.4-3.4-1.1c-0.9-0.8-1.6-1.7-2-2.8s-0.6-2.3-0.6-3.7
		s0.2-2.5,0.6-3.7c0.4-1.1,1.1-2,2-2.8c0.9-0.7,2.1-1.1,3.4-1.1s2.5,0.4,3.4,1.1c0.9,0.7,1.6,1.7,2,2.8c0.4,1.1,0.6,2.3,0.6,3.7
		s-0.2,2.5-0.6,3.7S103.9,48.2,103,48.9z M97.4,46c0.5,0.9,1.2,1.3,2.2,1.3s1.7-0.4,2.2-1.3c0.5-0.9,0.7-2,0.7-3.5s-0.2-2.6-0.7-3.5
		c-0.5-0.9-1.2-1.3-2.2-1.3s-1.7,0.4-2.2,1.3c-0.5,0.9-0.7,2-0.7,3.5S96.9,45.1,97.4,46z"/>
	<path class="st4" d="M117.3,50.1c-2.1,0-3.8-0.6-4.9-1.7l1.3-1.7c1,0.8,2.2,1.2,3.7,1.2c0.7,0,1.2-0.1,1.6-0.3
		c0.4-0.2,0.6-0.5,0.6-0.8c0-0.8-0.8-1.2-2.4-1.2h-2.2v-2.2h2.2c1.5,0,2.2-0.4,2.2-1.1c0-0.3-0.2-0.6-0.6-0.8s-0.9-0.3-1.5-0.3
		c-1.4,0-2.5,0.4-3.3,1.2l-1.4-1.7c1.2-1.2,2.7-1.8,4.5-1.8c1.6,0,2.9,0.2,3.8,0.8c0.9,0.5,1.4,1.2,1.4,2.1c0,0.6-0.3,1.2-0.8,1.6
		c-0.5,0.5-1.2,0.7-2,0.9c0.7,0,1.4,0.3,2.1,0.7c0.6,0.5,0.9,1,0.9,1.8c0,1-0.5,1.7-1.4,2.3C120.1,49.8,118.9,50.1,117.3,50.1z"/>
	<path class="st4" d="M133.7,49.8h-2.8v-1.1c-0.8,0.9-1.9,1.4-3.4,1.4c-1,0-1.8-0.3-2.6-0.9s-1.1-1.5-1.1-2.6c0-1.1,0.4-2,1.1-2.6
		s1.6-0.9,2.6-0.9c1.5,0,2.6,0.4,3.4,1.3V43c0-0.5-0.2-1-0.6-1.3c-0.4-0.3-1-0.5-1.7-0.5c-1.2,0-2.2,0.4-3.1,1.3l-1.1-1.9
		c1.3-1.1,2.8-1.7,4.6-1.7c1.4,0,2.5,0.3,3.3,0.9c0.9,0.6,1.3,1.7,1.3,3.1V49.8z M128.6,48.2c1,0,1.8-0.3,2.2-0.9v-1.3
		c-0.5-0.6-1.2-0.9-2.2-0.9c-0.6,0-1,0.1-1.4,0.4s-0.6,0.7-0.6,1.2c0,0.5,0.2,0.9,0.6,1.1S128.1,48.2,128.6,48.2z"/>
	<path class="st4" d="M139.2,49.8h-2.8V39.2h2.8v3.9h4.4v-3.9h2.8v10.6h-2.8v-4.2h-4.4V49.8z"/>
	<path class="st4" d="M152,49.8h-3.2l2.5-3.8c-0.7-0.2-1.2-0.5-1.7-1.1c-0.5-0.6-0.7-1.3-0.7-2.2c0-1,0.3-1.8,1-2.5
		c0.7-0.7,1.6-1,2.7-1h6.4v10.6h-2.8v-3.7h-2.2L152,49.8z M153.1,43.8h3.2v-2.3h-3.2c-0.4,0-0.7,0.1-0.9,0.3
		c-0.2,0.2-0.4,0.5-0.4,0.8c0,0.4,0.1,0.6,0.3,0.8C152.4,43.7,152.7,43.8,153.1,43.8z"/>
	<path class="st4" d="M166.6,49.8h-2.8v-8.2h-3v-2.4h8.8v2.4h-3V49.8z"/>
	<path class="st4" d="M174,49.8h-2.7V39.2h2.8v6.4l4.4-6.4h2.8v10.6h-2.8v-6.7L174,49.8z"/>
	<path class="st4" d="M186.8,49.8h-2.7V39.2h2.8v6.4l4.4-6.4h2.8v10.6h-2.8v-6.7L186.8,49.8z M192.9,36.2c-1,1.3-2.2,1.9-3.9,1.9
		c-1.6,0-2.9-0.6-3.9-1.9l1.2-1c0.6,0.9,1.5,1.4,2.6,1.4c1.1,0,2-0.5,2.6-1.4L192.9,36.2z"/>
	<path class="st4" d="M212.9,49.8h-3.5l-2.8-4.1l-1.3,1.4v2.7h-2.8V39.2h2.8v4.7l4-4.7h3.4l-4.2,4.8L212.9,49.8z"/>
	<path class="st4" d="M213.9,54l0.4-2.5c0.3,0.1,0.6,0.2,0.9,0.2c0.7,0,1.2-0.3,1.5-0.8L217,50l-4.3-10.8h3l2.8,7.4l2.8-7.4h3
		l-5,12.4c-0.4,0.9-0.9,1.6-1.5,2c-0.7,0.4-1.5,0.6-2.5,0.6C214.7,54.1,214.3,54.1,213.9,54z"/>
	<path class="st4" d="M231.6,50.1c-1.3,0-2.4-0.5-3.3-1.6v5.4h-2.8V39.2h2.8v1.3c0.8-1.1,1.9-1.6,3.3-1.6c1.4,0,2.5,0.5,3.4,1.5
		c0.9,1,1.3,2.4,1.3,4.1c0,1.7-0.4,3.1-1.3,4.1C234.1,49.6,233,50.1,231.6,50.1z M230.7,47.6c0.8,0,1.5-0.3,1.9-0.9
		c0.5-0.6,0.7-1.3,0.7-2.2c0-0.9-0.2-1.6-0.7-2.2c-0.5-0.6-1.1-0.9-1.9-0.9c-0.5,0-0.9,0.1-1.4,0.4s-0.8,0.5-1,0.9v3.8
		c0.2,0.3,0.6,0.6,1,0.9C229.8,47.5,230.3,47.6,230.7,47.6z"/>
	<path class="st4" d="M243.3,50.1c-1.6,0-3-0.5-4-1.6c-1.1-1-1.6-2.4-1.6-4c0-1.6,0.5-3,1.6-4c1.1-1,2.4-1.6,4-1.6
		c1.9,0,3.3,0.6,4.2,1.9l-1.8,1.7c-0.5-0.8-1.3-1.1-2.2-1.1c-0.9,0-1.5,0.3-2.1,0.8s-0.8,1.3-0.8,2.2s0.3,1.7,0.8,2.2
		s1.2,0.9,2.1,0.9c1,0,1.7-0.4,2.2-1.1l1.8,1.7C246.6,49.4,245.2,50.1,243.3,50.1z"/>
	<path class="st4" d="M258.5,49.8h-2.8v-1.1c-0.8,0.9-1.9,1.4-3.4,1.4c-1,0-1.8-0.3-2.6-0.9c-0.8-0.6-1.1-1.5-1.1-2.6
		c0-1.1,0.4-2,1.1-2.6c0.7-0.6,1.6-0.9,2.6-0.9c1.5,0,2.6,0.4,3.4,1.3V43c0-0.5-0.2-1-0.6-1.3c-0.4-0.3-1-0.5-1.7-0.5
		c-1.2,0-2.2,0.4-3.1,1.3l-1.1-1.9c1.3-1.1,2.8-1.7,4.6-1.7c1.4,0,2.5,0.3,3.3,0.9c0.9,0.6,1.3,1.7,1.3,3.1V49.8z M253.5,48.2
		c1,0,1.8-0.3,2.2-0.9v-1.3c-0.5-0.6-1.2-0.9-2.2-0.9c-0.6,0-1,0.1-1.4,0.4c-0.4,0.3-0.6,0.7-0.6,1.2c0,0.5,0.2,0.9,0.6,1.1
		C252.4,48,252.9,48.2,253.5,48.2z"/>
	<path class="st4" d="M273.9,50.1c-2.2,0-4-0.7-5.5-2.1c-1.4-1.4-2.2-3.2-2.2-5.4s0.7-4,2.2-5.4c1.4-1.4,3.3-2.1,5.5-2.1
		c2.2,0,4.1,0.7,5.5,2.1c1.4,1.4,2.2,3.2,2.2,5.5c0,2.2-0.7,4-2.2,5.5C278,49.4,276.2,50.1,273.9,50.1z M270.7,45.9
		c0.8,0.9,1.9,1.4,3.2,1.4c1.3,0,2.4-0.5,3.2-1.4s1.2-2.1,1.2-3.5c0-1.4-0.4-2.5-1.2-3.5c-0.8-0.9-1.9-1.4-3.2-1.4
		c-1.3,0-2.4,0.5-3.2,1.4c-0.8,0.9-1.2,2.1-1.2,3.5C269.5,43.9,269.9,45,270.7,45.9z"/>
	<path class="st4" d="M286.9,49.8h-3.1V35.1h10.4v2.8h-7.3V49.8z"/>
	<path class="st4" d="M301.4,50.1c-2.7,0-4.8-1.2-6.1-3.6l2.7-1.3c0.3,0.6,0.8,1.1,1.4,1.5c0.6,0.4,1.3,0.6,2.1,0.6
		c1.1,0,2.1-0.3,2.9-1c0.8-0.7,1.3-1.5,1.6-2.6h-7V41h7c-0.3-1-0.8-1.8-1.6-2.4c-0.8-0.6-1.7-0.9-2.8-0.9c-0.7,0-1.4,0.2-2.1,0.6
		s-1.1,0.9-1.4,1.5l-2.7-1.3c1.3-2.4,3.4-3.6,6.1-3.6c2.2,0,4.1,0.7,5.6,2.1c1.5,1.4,2.2,3.2,2.2,5.5s-0.7,4.1-2.2,5.5
		C305.6,49.4,303.7,50.1,301.4,50.1z"/>
	<path class="st4" d="M319.7,49.8H317V39.2h2.8v6.4l4.4-6.4h2.8v10.6h-2.8v-6.7L319.7,49.8z"/>
	<path class="st4" d="M328.8,50.1v-2.3c0.4,0,0.8-0.3,1.1-0.8c0.3-0.5,0.5-1.4,0.6-2.7l0.7-5.1h8.6v10.6H337v-8.2h-3.4l-0.4,3
		c-0.2,1.9-0.7,3.2-1.4,4.1C331.2,49.6,330.2,50.1,328.8,50.1z"/>
	<path class="st4" d="M345.3,49.8h-2.7V39.2h2.8v6.4l4.4-6.4h2.8v10.6h-2.8v-6.7L345.3,49.8z"/>
	<path class="st4" d="M371.4,49.8H361V35.1h10.4v2.8h-7.3V41h7.1v2.8h-7.1v3.3h7.3V49.8z"/>
	<path class="st4" d="M377,49.8h-3.1V35.1h10.4v2.8H377V49.8z"/>
	<path class="st4" d="M391.5,50.1c-2.7,0-4.8-1.2-6.1-3.6l2.7-1.3c0.3,0.6,0.8,1.1,1.4,1.5c0.6,0.4,1.3,0.6,2.1,0.6
		c1.1,0,2.1-0.3,2.9-1c0.8-0.7,1.3-1.5,1.6-2.6h-7V41h7c-0.3-1-0.8-1.8-1.6-2.4c-0.8-0.6-1.7-0.9-2.8-0.9c-0.7,0-1.4,0.2-2.1,0.6
		c-0.6,0.4-1.1,0.9-1.4,1.5l-2.7-1.3c1.3-2.4,3.4-3.6,6.1-3.6c2.2,0,4.1,0.7,5.6,2.1c1.5,1.4,2.2,3.2,2.2,5.5s-0.7,4.1-2.2,5.5
		C395.6,49.4,393.7,50.1,391.5,50.1z"/>
</g>
</svg>
