<?xml version="1.0" encoding="utf-8"?>
<!-- Generator: Adobe Illustrator 19.2.0, SVG Export Plug-In . SVG Version: 6.00 Build 0)  -->
<svg version="1.1" id="Слой_1" xmlns="http://www.w3.org/2000/svg" xmlns:xlink="http://www.w3.org/1999/xlink" x="0px" y="0px"
	 viewBox="0 0 472 78.5" style="enable-background:new 0 0 472 78.5;" xml:space="preserve">
<style type="text/css">
	.st0{clip-path:url(#SVGID_2_);}
	.st1{fill:url(#SVGID_3_);}
	.st2{opacity:0.5;fill:#FFFFFF;enable-background:new    ;}
	.st3{opacity:0.6;fill:#FFFFFF;enable-background:new    ;}
	.st4{fill:#FFFFFF;}
	.st5{fill:#E51F1F;}
	.st6{fill:#FFCC00;}
	.st7{enable-background:new    ;}
</style>
<title>Ютуб</title>
<g>
	<defs>
		<path id="SVGID_1_" d="M13,1h447c6.6,0,12,5.4,12,12v53.5c0,6.6-5.4,12-12,12H13c-6.6,0-12-5.4-12-12V13C1,6.4,6.4,1,13,1z"/>
	</defs>
	<clipPath id="SVGID_2_">
		<use xlink:href="#SVGID_1_"  style="overflow:visible;"/>
	</clipPath>
	<g class="st0">
		
			<linearGradient id="SVGID_3_" gradientUnits="userSpaceOnUse" x1="-8.945498e-002" y1="93.1625" x2="462.3405" y2="-9.5275" gradientTransform="matrix(1 0 0 -1 0 80)">
			<stop  offset="0" style="stop-color:#5B6EC0"/>
			<stop  offset="1" style="stop-color:#4BC4E7"/>
		</linearGradient>
		<rect y="0" class="st1" width="472" height="78.5"/>
		<circle class="st2" cx="436.2" cy="38.8" r="130.5"/>
		<circle class="st3" cx="436.2" cy="38.8" r="94.2"/>
		<circle class="st4" cx="436.2" cy="38.8" r="56.1"/>
		<path id="YouTube" class="st5" d="M452.5,52.6h-3v-1.7c0-0.8,0.6-1.4,1.4-1.4h0.2c0.8,0,1.4,0.6,1.4,1.4L452.5,52.6z M441.4,48.9
			c-0.7-0.1-1.3,0.4-1.4,1.1v8.4c0.1,0.8,0.9,1.3,1.6,1.1c0.6-0.1,1-0.5,1.1-1.1V50C442.7,49.3,442.1,48.8,441.4,48.9L441.4,48.9
			L441.4,48.9z M459.5,44.2v16c-0.1,4-3.4,7.1-7.4,7h-30.4c-4,0.1-7.3-3-7.4-7v-16c0.1-4,3.4-7.1,7.4-7h30.4
			C456.1,37.1,459.4,40.2,459.5,44.2z M423.8,61.9V45h3.8v-2.5h-10V45h3.1v16.9L423.8,61.9L423.8,61.9L423.8,61.9z M435.1,47.6h-3.1
			v9c0,0.7,0,1.5,0,2.2c-0.3,0.7-1.4,1.4-1.9,0.1c0-0.7,0-1.5,0-2.2v-9h-3.2v11.7c-0.1,0.9,0.2,1.7,0.8,2.3c1.4,1,4.1-0.2,4.8-1.6
			v1.9h2.5L435.1,47.6L435.1,47.6L435.1,47.6z M445.1,57.9v-7.5c0-2.8-2.1-4.6-5-2.3v-5.6h-3.1v19.2h2.6l0.2-1.2
			C443,63.6,445.1,61.5,445.1,57.9L445.1,57.9L445.1,57.9z M454.9,56.9h-2.4v1.6c0,0.7-0.6,1.3-1.3,1.3h-0.5c-0.7,0-1.3-0.6-1.3-1.3
			V55h5.4v-2c0-1.3,0-2.5-0.2-3.8c-0.4-2.7-4.1-3.1-6-1.7c-0.6,0.4-1.1,1.1-1.3,1.8c-0.3,1-0.4,2.1-0.4,3.2v4.5
			C447,64.3,456,63.2,454.9,56.9L454.9,56.9L454.9,56.9z M442.9,32.7c0.1,0.4,0.4,0.7,0.8,1c0.4,0.2,0.8,0.4,1.3,0.3
			c0.4,0,0.9-0.1,1.2-0.4c0.4-0.3,0.7-0.7,0.9-1.1l-0.1,1.2h3.5V18.8h-2.8v11.6c-0.1,0.6-0.7,1.1-1.3,1c-0.5-0.1-0.9-0.5-1-1V18.8
			h-2.9v10c0,0.9,0,1.7,0.1,2.6C442.6,31.8,442.7,32.2,442.9,32.7L442.9,32.7z M432.2,24.3c0-1.1,0.1-2.3,0.4-3.4
			c0.4-1.6,2-2.8,3.7-2.7c0.7,0,1.4,0.1,2.1,0.5c0.6,0.3,1,0.7,1.4,1.2c0.3,0.5,0.5,1,0.6,1.5c0.1,0.8,0.2,1.6,0.2,2.4v3.8
			c0,1,0,2-0.2,3c-0.1,0.6-0.3,1.3-0.7,1.8c-0.3,0.5-0.8,1-1.4,1.2c-0.6,0.3-1.2,0.4-1.9,0.4c-0.7,0-1.4-0.1-2-0.3
			c-0.5-0.2-1-0.5-1.3-1c-0.3-0.5-0.5-1.1-0.6-1.7c-0.2-1-0.2-2-0.2-2.9L432.2,24.3L432.2,24.3L432.2,24.3L432.2,24.3z M435,30.1
			c-0.1,0.8,0.5,1.5,1.2,1.6s1.5-0.5,1.6-1.2c0-0.1,0-0.2,0-0.3v-7.9c0.1-0.8-0.5-1.5-1.2-1.6s-1.5,0.5-1.6,1.2c0,0.1,0,0.2,0,0.3
			V30.1z M425.3,34.2h3.3V22.7l3.9-9.8h-3.6l-2.1,7.3l-2.1-7.3h-3.6l4.1,9.8L425.3,34.2L425.3,34.2z"/>
	</g>
</g>
<path class="st6" d="M88,9.6h141.1c4.9,0,8.9,4,8.9,8.9l0,0c0,4.9-4,9-8.9,9H88c-4.9,0-8.9-4-8.9-9l0,0C79,13.6,83,9.6,88,9.6z"/>
<g class="st7">
	<path d="M95.8,22.7V16h-4.4v6.7h-0.9v-7.5h6.3v7.5H95.8z"/>
	<path d="M98.5,22.7v-7.5h3c1.5,0,2.4,1,2.4,2.3s-0.9,2.3-2.4,2.3h-2.1v3H98.5z M102.9,17.5c0-0.8-0.6-1.4-1.5-1.4h-2v2.9h2
		C102.3,18.9,102.9,18.3,102.9,17.5z"/>
	<path d="M105.1,22.7v-7.5h4.9V16h-4v2.4h3.9v0.8h-3.9v2.6h4v0.8H105.1z"/>
	<path d="M111,21.6l0.6-0.6c0.5,0.6,1.3,1,2.3,1c1.2,0,1.9-0.5,1.9-1.4c0-0.9-0.8-1.3-2-1.3h-1.5v-0.8h1.5c1,0,1.8-0.4,1.8-1.2
		c0-0.8-0.8-1.3-1.8-1.3c-0.9,0-1.6,0.3-2.1,0.9l-0.5-0.6c0.6-0.7,1.5-1.2,2.7-1.2c1.5,0,2.7,0.7,2.7,2c0,1.1-0.9,1.6-1.6,1.8
		c0.7,0.1,1.7,0.6,1.7,1.9c0,1.3-1.1,2.2-2.8,2.2C112.5,22.9,111.5,22.3,111,21.6z"/>
	<path d="M118.2,22.7v-7.5h0.9v5.9l4.3-5.9h1v7.5h-0.9v-6l-4.4,6H118.2z"/>
	<path d="M125.6,22c0.9-0.1,1.4-0.4,1.7-3l0.5-3.8h4.6v6.7h0.7v2.2h-0.9v-1.4h-5.6v1.4h-0.9V22z M127.1,21.9h4.4V16h-2.8l-0.4,3
		C128.1,20.6,127.7,21.5,127.1,21.9z"/>
	<path d="M134.3,22.7v-7.5h4.9V16h-4v2.4h3.9v0.8h-3.9v2.6h4v0.8H134.3z"/>
	<path d="M146.1,22.7v-3.5h-4.4v3.5h-0.9v-7.5h0.9v3.2h4.4v-3.2h0.9v7.5H146.1z"/>
	<path d="M150.6,22.7V16h-2.4v-0.8h5.7V16h-2.4v6.7H150.6z"/>
	<path d="M154.9,19c0-2.3,1.7-3.9,3.9-3.9c1.3,0,2.3,0.6,2.9,1.5l-0.8,0.4c-0.4-0.6-1.2-1.1-2.1-1.1c-1.6,0-2.9,1.3-2.9,3.1
		c0,1.8,1.3,3.1,2.9,3.1c0.9,0,1.6-0.5,2.1-1.1l0.8,0.4c-0.6,0.9-1.5,1.5-2.9,1.5C156.6,22.9,154.9,21.3,154.9,19z"/>
	<path d="M167.4,22.7l-2.9-3.4l-0.8,0.9v2.5h-0.9v-7.5h0.9v3.9l3.3-3.9h1.2l-3.1,3.6l3.4,4H167.4z"/>
	<path d="M169.6,22.7v-7.5h0.9v5.9l4.3-5.9h1v7.5h-0.9v-6l-4.4,6H169.6z"/>
	<path d="M177.6,22.7v-7.5h0.9v5.9l4.3-5.9h1v7.5h-0.9v-6l-4.4,6H177.6z M180.7,14.8c-0.8,0-1.5-0.4-2-1l0.4-0.4
		c0.4,0.5,0.9,0.8,1.6,0.8c0.7,0,1.2-0.3,1.6-0.8l0.4,0.4C182.3,14.4,181.6,14.8,180.7,14.8z"/>
	<path d="M188.2,19c0-2.3,1.7-3.9,3.9-3.9c1.3,0,2.3,0.6,2.9,1.5l-0.8,0.4c-0.4-0.6-1.2-1.1-2.1-1.1c-1.6,0-2.9,1.3-2.9,3.1
		c0,1.8,1.3,3.1,2.9,3.1c0.9,0,1.6-0.5,2.1-1.1l0.8,0.4c-0.6,0.9-1.5,1.5-2.9,1.5C189.9,22.9,188.2,21.3,188.2,19z"/>
	<path d="M198,22.7V16h-2.4v-0.8h5.7V16H199v6.7H198z"/>
	<path d="M208,22.7l-0.7-1.7h-3.7l-0.7,1.7h-1.1l3-7.5h1.2l3,7.5H208z M205.4,16.2l-1.6,4.1h3.2L205.4,16.2z"/>
	<path d="M211.9,22.7V16h-2.4v-0.8h5.7V16h-2.4v6.7H211.9z"/>
	<path d="M215.8,22.3l0.4-0.7c0.3,0.3,0.6,0.5,1,0.5c0.6,0,0.8-0.3,1.3-1.1l0.1-0.3l-2.9-5.5h1.1l2.4,4.7l2.4-4.7h1.1l-3.3,6.2
		c-0.5,0.9-1,1.5-2,1.5C216.6,22.9,216,22.6,215.8,22.3z"/>
	<path d="M223.2,19c0-2.3,1.7-3.9,3.9-3.9c1.3,0,2.3,0.6,2.9,1.5l-0.8,0.4c-0.4-0.6-1.2-1.1-2.1-1.1c-1.6,0-2.9,1.3-2.9,3.1
		c0,1.8,1.3,3.1,2.9,3.1c0.9,0,1.6-0.5,2.1-1.1l0.8,0.4c-0.6,0.9-1.5,1.5-2.9,1.5C224.9,22.9,223.2,21.3,223.2,19z"/>
</g>
<g class="st7">
	<path class="st4" d="M50.2,49.8H47v-6l-5.7-8.7H45l3.7,5.9l3.6-5.9h3.6l-5.6,8.7V49.8z"/>
	<path class="st4" d="M66.1,48.5c-1,1.1-2.4,1.6-4.1,1.6c-1.7,0-3.1-0.5-4.1-1.6c-1-1.1-1.5-2.4-1.5-4s0.5-2.9,1.5-4
		c1-1.1,2.4-1.6,4.1-1.6c1.7,0,3.1,0.5,4.1,1.6c1,1.1,1.5,2.4,1.5,4S67.1,47.4,66.1,48.5z M60,46.7c0.5,0.6,1.1,0.9,2,0.9
		s1.5-0.3,2-0.9c0.5-0.6,0.7-1.3,0.7-2.2c0-0.9-0.2-1.6-0.7-2.2c-0.5-0.6-1.2-0.9-2-0.9s-1.5,0.3-2,0.9c-0.5,0.6-0.7,1.3-0.7,2.2
		C59.3,45.4,59.5,46.1,60,46.7z"/>
	<path class="st4" d="M79.7,49.8h-2.8v-1.3c-1,1.1-2.2,1.6-3.7,1.6c-1.1,0-2-0.3-2.6-0.9c-0.6-0.6-0.9-1.4-0.9-2.5v-7.5h2.8v6.4
		c0,1.3,0.7,2,2,2c1,0,1.8-0.4,2.4-1.2v-7.2h2.8V49.8z"/>
	<path class="st4" d="M89,49.8h-3.1V37.9h-4.3v-2.8h11.7v2.8H89V49.8z"/>
	<path class="st4" d="M105.2,49.8h-2.8v-1.3c-1,1.1-2.2,1.6-3.7,1.6c-1.1,0-2-0.3-2.6-0.9c-0.6-0.6-0.9-1.4-0.9-2.5v-7.5H98v6.4
		c0,1.3,0.7,2,2,2c1,0,1.8-0.4,2.4-1.2v-7.2h2.8V49.8z"/>
	<path class="st4" d="M110.8,49.8H108V35.1h2.8v5.4c0.8-1.1,1.9-1.6,3.3-1.6c1.4,0,2.5,0.5,3.4,1.5c0.9,1,1.3,2.4,1.3,4.1
		c0,1.7-0.4,3.1-1.3,4.1c-0.9,1-2,1.5-3.4,1.5c-1.3,0-2.4-0.5-3.3-1.6V49.8z M110.8,46.4c0.2,0.3,0.6,0.6,1,0.8
		c0.5,0.2,0.9,0.3,1.4,0.3c0.8,0,1.5-0.3,2-0.8c0.5-0.6,0.7-1.3,0.7-2.2s-0.2-1.7-0.7-2.2c-0.5-0.6-1.2-0.9-2-0.9
		c-0.5,0-0.9,0.1-1.4,0.4s-0.8,0.5-1,0.9V46.4z"/>
	<path class="st4" d="M125.9,50.1c-1.6,0-3-0.5-4.1-1.5c-1.1-1-1.6-2.4-1.6-4c0-1.6,0.5-2.9,1.6-4c1-1.1,2.4-1.6,3.9-1.6
		c1.6,0,2.9,0.5,3.9,1.6c1,1.1,1.5,2.5,1.5,4.2v0.6h-7.9c0.1,0.7,0.4,1.3,0.9,1.8c0.5,0.5,1.2,0.7,2.1,0.7c0.5,0,1-0.1,1.5-0.3
		c0.6-0.2,1-0.4,1.3-0.8l1.2,1.8C129.2,49.6,127.7,50.1,125.9,50.1z M128.3,43.5c0-0.6-0.3-1.1-0.7-1.6c-0.4-0.5-1.1-0.7-1.9-0.7
		c-0.8,0-1.4,0.2-1.8,0.7s-0.7,1-0.8,1.6H128.3z"/>
	<path class="st4" d="M137.6,45.7h-5.3v-2.4h5.3V45.7z"/>
	<path class="st4" d="M148.7,48.5c-1,1.1-2.4,1.6-4.1,1.6c-1.7,0-3.1-0.5-4.1-1.6c-1-1.1-1.5-2.4-1.5-4s0.5-2.9,1.5-4
		c1-1.1,2.4-1.6,4.1-1.6c1.7,0,3.1,0.5,4.1,1.6c1,1.1,1.5,2.4,1.5,4S149.7,47.4,148.7,48.5z M142.6,46.7c0.5,0.6,1.1,0.9,2,0.9
		s1.5-0.3,2-0.9c0.5-0.6,0.7-1.3,0.7-2.2c0-0.9-0.2-1.6-0.7-2.2c-0.5-0.6-1.2-0.9-2-0.9s-1.5,0.3-2,0.9c-0.5,0.6-0.7,1.3-0.7,2.2
		C141.9,45.4,142.1,46.1,142.6,46.7z"/>
	<path class="st4" d="M158.3,50.1c-1.3,0-2.4-0.5-3.3-1.6v5.4h-2.8V39.2h2.8v1.3c0.8-1.1,1.9-1.6,3.3-1.6c1.4,0,2.5,0.5,3.4,1.5
		c0.9,1,1.3,2.4,1.3,4.1c0,1.7-0.4,3.1-1.3,4.1C160.9,49.6,159.7,50.1,158.3,50.1z M157.5,47.6c0.8,0,1.5-0.3,1.9-0.9
		c0.5-0.6,0.7-1.3,0.7-2.2c0-0.9-0.2-1.6-0.7-2.2c-0.5-0.6-1.1-0.9-1.9-0.9c-0.5,0-0.9,0.1-1.4,0.4s-0.8,0.5-1,0.9v3.8
		c0.2,0.3,0.6,0.6,1,0.9C156.6,47.5,157,47.6,157.5,47.6z"/>
	<path class="st4" d="M168.7,38.9c1.1,0,2.1,0.5,2.8,1.6v-5.4h2.8v5.4c0.7-1.1,1.7-1.6,2.8-1.6c1.2,0,2.2,0.5,2.9,1.5
		c0.8,1,1.1,2.4,1.1,4.1c0,1.7-0.4,3.1-1.1,4.1c-0.8,1-1.7,1.5-2.9,1.5c-1.2,0-2.1-0.5-2.8-1.6v5.4h-2.8v-5.4
		c-0.7,1.1-1.7,1.6-2.8,1.6c-1.2,0-2.2-0.5-2.9-1.5c-0.8-1-1.1-2.4-1.1-4.1s0.4-3.1,1.1-4.1C166.5,39.4,167.5,38.9,168.7,38.9z
		 M169.6,41.4c-0.6,0-1.1,0.3-1.6,0.9c-0.4,0.6-0.6,1.3-0.6,2.2c0,0.9,0.2,1.6,0.6,2.2c0.4,0.6,0.9,0.9,1.6,0.9
		c0.4,0,0.7-0.1,1.1-0.4c0.4-0.2,0.6-0.5,0.8-0.9v-3.8c-0.2-0.3-0.5-0.6-0.8-0.9S170,41.4,169.6,41.4z M176.3,47.6
		c0.6,0,1.2-0.3,1.6-0.9s0.6-1.3,0.6-2.2c0-0.9-0.2-1.6-0.6-2.2s-0.9-0.9-1.6-0.9c-0.4,0-0.7,0.1-1.1,0.4s-0.6,0.5-0.8,0.9v3.8
		c0.2,0.3,0.5,0.6,0.8,0.9C175.6,47.5,175.9,47.6,176.3,47.6z"/>
	<path class="st4" d="M192.6,48.5c-1,1.1-2.4,1.6-4.1,1.6c-1.7,0-3.1-0.5-4.1-1.6c-1-1.1-1.5-2.4-1.5-4s0.5-2.9,1.5-4
		c1-1.1,2.4-1.6,4.1-1.6c1.7,0,3.1,0.5,4.1,1.6c1,1.1,1.5,2.4,1.5,4S193.6,47.4,192.6,48.5z M186.5,46.7c0.5,0.6,1.1,0.9,2,0.9
		s1.5-0.3,2-0.9c0.5-0.6,0.7-1.3,0.7-2.2c0-0.9-0.2-1.6-0.7-2.2c-0.5-0.6-1.2-0.9-2-0.9s-1.5,0.3-2,0.9c-0.5,0.6-0.7,1.3-0.7,2.2
		C185.8,45.4,186.1,46.1,186.5,46.7z"/>
	<path class="st4" d="M204.4,39.2v2.4H199v8.2h-2.8V39.2H204.4z"/>
	<path class="st4" d="M212.3,50.1c-1.3,0-2.4-0.5-3.3-1.6v5.4h-2.8V39.2h2.8v1.3c0.8-1.1,1.9-1.6,3.3-1.6c1.4,0,2.5,0.5,3.4,1.5
		c0.9,1,1.3,2.4,1.3,4.1c0,1.7-0.4,3.1-1.3,4.1C214.8,49.6,213.7,50.1,212.3,50.1z M211.4,47.6c0.8,0,1.5-0.3,1.9-0.9
		c0.5-0.6,0.7-1.3,0.7-2.2c0-0.9-0.2-1.6-0.7-2.2c-0.5-0.6-1.1-0.9-1.9-0.9c-0.5,0-0.9,0.1-1.4,0.4s-0.8,0.5-1,0.9v3.8
		c0.2,0.3,0.6,0.6,1,0.9C210.5,47.5,211,47.6,211.4,47.6z"/>
	<path class="st4" d="M228.2,49.8h-2.8v-1.1c-0.8,0.9-1.9,1.4-3.4,1.4c-1,0-1.8-0.3-2.6-0.9s-1.1-1.5-1.1-2.6c0-1.1,0.4-2,1.1-2.6
		s1.6-0.9,2.6-0.9c1.5,0,2.6,0.4,3.4,1.3V43c0-0.5-0.2-1-0.6-1.3c-0.4-0.3-1-0.5-1.7-0.5c-1.2,0-2.2,0.4-3.1,1.3l-1.1-1.9
		c1.3-1.1,2.8-1.7,4.6-1.7c1.4,0,2.5,0.3,3.3,0.9c0.9,0.6,1.3,1.7,1.3,3.1V49.8z M223.2,48.2c1,0,1.8-0.3,2.2-0.9v-1.3
		c-0.5-0.6-1.2-0.9-2.2-0.9c-0.6,0-1,0.1-1.4,0.4s-0.6,0.7-0.6,1.2c0,0.5,0.2,0.9,0.6,1.1S222.6,48.2,223.2,48.2z"/>
	<path class="st4" d="M234.6,38.9c1.1,0,2.1,0.5,2.8,1.6v-5.4h2.8v5.4c0.7-1.1,1.7-1.6,2.8-1.6c1.2,0,2.2,0.5,2.9,1.5
		c0.8,1,1.1,2.4,1.1,4.1c0,1.7-0.4,3.1-1.1,4.1c-0.8,1-1.7,1.5-2.9,1.5c-1.2,0-2.1-0.5-2.8-1.6v5.4h-2.8v-5.4
		c-0.7,1.1-1.7,1.6-2.8,1.6c-1.2,0-2.2-0.5-2.9-1.5c-0.8-1-1.1-2.4-1.1-4.1s0.4-3.1,1.1-4.1C232.4,39.4,233.4,38.9,234.6,38.9z
		 M235.5,41.4c-0.6,0-1.1,0.3-1.6,0.9c-0.4,0.6-0.6,1.3-0.6,2.2c0,0.9,0.2,1.6,0.6,2.2c0.4,0.6,0.9,0.9,1.6,0.9
		c0.4,0,0.7-0.1,1.1-0.4c0.4-0.2,0.6-0.5,0.8-0.9v-3.8c-0.2-0.3-0.5-0.6-0.8-0.9S235.9,41.4,235.5,41.4z M242.2,47.6
		c0.6,0,1.2-0.3,1.6-0.9c0.4-0.6,0.6-1.3,0.6-2.2c0-0.9-0.2-1.6-0.6-2.2c-0.4-0.6-0.9-0.9-1.6-0.9c-0.4,0-0.7,0.1-1.1,0.4
		s-0.6,0.5-0.8,0.9v3.8c0.2,0.3,0.5,0.6,0.8,0.9C241.4,47.5,241.8,47.6,242.2,47.6z"/>
	<path class="st4" d="M252.2,49.8h-2.7V39.2h2.8v6.4l4.4-6.4h2.8v10.6h-2.8v-6.7L252.2,49.8z"/>
	<path class="st4" d="M265.1,49.8h-3.2l2.5-3.8c-0.7-0.2-1.2-0.5-1.7-1.1c-0.5-0.6-0.7-1.3-0.7-2.2c0-1,0.3-1.8,1-2.5
		c0.7-0.7,1.6-1,2.7-1h6.4v10.6h-2.8v-3.7h-2.2L265.1,49.8z M266.1,43.8h3.2v-2.3h-3.2c-0.4,0-0.7,0.1-0.9,0.3
		c-0.2,0.2-0.4,0.5-0.4,0.8c0,0.4,0.1,0.6,0.3,0.8S265.7,43.8,266.1,43.8z"/>
</g>
</svg>
