<?xml version="1.0" encoding="utf-8"?>
<!-- Generator: Adobe Illustrator 19.2.0, SVG Export Plug-In . SVG Version: 6.00 Build 0)  -->
<svg version="1.1" id="Слой_1" xmlns="http://www.w3.org/2000/svg" xmlns:xlink="http://www.w3.org/1999/xlink" x="0px" y="0px"
	 viewBox="0 0 472 78.5" style="enable-background:new 0 0 472 78.5;" xml:space="preserve">
<style type="text/css">
	.st0{clip-path:url(#SVGID_2_);}
	.st1{fill:url(#SVGID_3_);}
	.st2{opacity:0.6;fill:#FFFFFF;enable-background:new    ;}
	.st3{opacity:0.8;fill:#FFFFFF;enable-background:new    ;}
	.st4{fill:#FFFFFF;}
	.st5{enable-background:new    ;}
	.st6{fill:#5B6EC0;}
</style>
<title>ОГЭ</title>
<g>
	<defs>
		<path id="SVGID_1_" d="M13,1h447c6.6,0,12,5.4,12,12v53.5c0,6.6-5.4,12-12,12H13c-6.6,0-12-5.4-12-12V13C1,6.4,6.4,1,13,1z"/>
	</defs>
	<clipPath id="SVGID_2_">
		<use xlink:href="#SVGID_1_"  style="overflow:visible;"/>
	</clipPath>
	<g class="st0">
		
			<linearGradient id="SVGID_3_" gradientUnits="userSpaceOnUse" x1="-8.945579e-002" y1="906.8375" x2="462.3405" y2="1009.5275" gradientTransform="matrix(1 0 0 1 0 -920)">
			<stop  offset="0" style="stop-color:#5B6EC0"/>
			<stop  offset="1" style="stop-color:#4BC4E7"/>
		</linearGradient>
		<rect y="0" class="st1" width="472" height="78.5"/>
		<circle class="st2" cx="436.1" cy="39.2" r="130.5"/>
		<circle class="st3" cx="436.1" cy="39.2" r="94.2"/>
		<circle class="st4" cx="436.1" cy="39.2" r="56.1"/>
		<g class="st5">
			<path class="st6" d="M408.8,50.9c-3.8,0-6.9-1.2-9.4-3.7c-2.5-2.4-3.7-5.5-3.7-9.3c0-3.8,1.2-6.9,3.7-9.3
				c2.5-2.4,5.6-3.7,9.4-3.7c3.8,0,7,1.2,9.4,3.6c2.5,2.4,3.7,5.5,3.7,9.3c0,3.8-1.2,6.9-3.7,9.3C415.8,49.7,412.6,50.9,408.8,50.9z
				 M403.3,43.8c1.4,1.6,3.2,2.3,5.5,2.3c2.3,0,4.1-0.8,5.5-2.3c1.4-1.6,2.1-3.5,2.1-5.9c0-2.4-0.7-4.4-2.1-5.9
				c-1.4-1.6-3.2-2.3-5.5-2.3c-2.3,0-4.1,0.8-5.5,2.3c-1.4,1.6-2.1,3.5-2.1,5.9C401.2,40.3,401.9,42.3,403.3,43.8z"/>
			<path class="st6" d="M431.1,50.5h-5.3V25.4h17.8v4.7h-12.4V50.5z"/>
			<path class="st6" d="M455.9,50.9c-4.6,0-8.1-2.1-10.5-6.2l4.6-2.2c0.6,1.1,1.4,2,2.4,2.6c1.1,0.7,2.3,1,3.6,1
				c1.9,0,3.5-0.6,4.9-1.7s2.2-2.6,2.7-4.4h-12v-4.7h11.9c-0.5-1.7-1.4-3.1-2.7-4.1c-1.3-1-2.9-1.5-4.7-1.5c-1.3,0-2.5,0.3-3.5,1
				c-1.1,0.7-1.9,1.6-2.4,2.6l-4.6-2.3c2.3-4.1,5.8-6.1,10.5-6.1c3.8,0,7,1.2,9.6,3.6c2.5,2.4,3.8,5.5,3.8,9.4
				c0,3.8-1.3,6.9-3.8,9.4C462.9,49.7,459.7,50.9,455.9,50.9z"/>
		</g>
	</g>
</g>
<g class="st5">
	<path class="st4" d="M93,50.1c-2.2,0-4-0.7-5.5-2.1c-1.4-1.4-2.2-3.2-2.2-5.4s0.7-4,2.2-5.4c1.4-1.4,3.3-2.1,5.5-2.1
		c2.2,0,4.1,0.7,5.5,2.1c1.4,1.4,2.2,3.2,2.2,5.5c0,2.2-0.7,4-2.2,5.5C97,49.4,95.2,50.1,93,50.1z M89.7,45.9
		c0.8,0.9,1.9,1.4,3.2,1.4s2.4-0.5,3.2-1.4c0.8-0.9,1.2-2.1,1.2-3.5c0-1.4-0.4-2.5-1.2-3.5c-0.8-0.9-1.9-1.4-3.2-1.4
		s-2.4,0.5-3.2,1.4c-0.8,0.9-1.2,2.1-1.2,3.5C88.5,43.9,88.9,45,89.7,45.9z"/>
	<path class="st4" d="M106,49.8h-3.1V35.1h10.4v2.8H106V49.8z"/>
	<path class="st4" d="M120.5,50.1c-2.7,0-4.8-1.2-6.1-3.6l2.7-1.3c0.3,0.6,0.8,1.1,1.4,1.5c0.6,0.4,1.3,0.6,2.1,0.6
		c1.1,0,2.1-0.3,2.9-1c0.8-0.7,1.3-1.5,1.6-2.6h-7V41h7c-0.3-1-0.8-1.8-1.6-2.4c-0.8-0.6-1.7-0.9-2.8-0.9c-0.7,0-1.4,0.2-2.1,0.6
		c-0.6,0.4-1.1,0.9-1.4,1.5l-2.7-1.3c1.3-2.4,3.4-3.6,6.1-3.6c2.2,0,4.1,0.7,5.6,2.1c1.5,1.4,2.2,3.2,2.2,5.5s-0.7,4.1-2.2,5.5
		C124.6,49.4,122.7,50.1,120.5,50.1z"/>
	<path class="st4" d="M135,45.7h-5.3v-2.4h5.3V45.7z"/>
	<path class="st4" d="M141.8,49.8H139v-8.2h-3v-2.4h8.8v2.4h-3V49.8z"/>
	<path class="st4" d="M152.6,50.1c-1.3,0-2.4-0.5-3.3-1.6v5.4h-2.8V39.2h2.8v1.3c0.8-1.1,1.9-1.6,3.3-1.6c1.4,0,2.5,0.5,3.4,1.5
		c0.9,1,1.3,2.4,1.3,4.1c0,1.7-0.4,3.1-1.3,4.1C155.2,49.6,154,50.1,152.6,50.1z M151.7,47.6c0.8,0,1.5-0.3,1.9-0.9
		c0.5-0.6,0.7-1.3,0.7-2.2c0-0.9-0.2-1.6-0.7-2.2c-0.5-0.6-1.1-0.9-1.9-0.9c-0.5,0-0.9,0.1-1.4,0.4s-0.8,0.5-1,0.9v3.8
		c0.2,0.3,0.6,0.6,1,0.9C150.9,47.5,151.3,47.6,151.7,47.6z"/>
	<path class="st4" d="M164.4,50.1c-1.6,0-3-0.5-4.1-1.5c-1.1-1-1.6-2.4-1.6-4c0-1.6,0.5-2.9,1.6-4c1-1.1,2.4-1.6,3.9-1.6
		c1.6,0,2.9,0.5,3.9,1.6c1,1.1,1.5,2.5,1.5,4.2v0.6h-7.9c0.1,0.7,0.4,1.3,0.9,1.8c0.5,0.5,1.2,0.7,2.1,0.7c0.5,0,1-0.1,1.5-0.3
		c0.6-0.2,1-0.4,1.3-0.8l1.2,1.8C167.7,49.6,166.2,50.1,164.4,50.1z M166.8,43.5c0-0.6-0.3-1.1-0.7-1.6c-0.4-0.5-1.1-0.7-1.9-0.7
		c-0.8,0-1.4,0.2-1.8,0.7s-0.7,1-0.8,1.6H166.8z"/>
	<path class="st4" d="M174.3,49.8h-2.8V39.2h2.8v3.9h4.4v-3.9h2.8v10.6h-2.8v-4.2h-4.4V49.8z"/>
	<path class="st4" d="M193.5,49.8h-2.8v-1.1c-0.8,0.9-1.9,1.4-3.4,1.4c-1,0-1.8-0.3-2.6-0.9s-1.1-1.5-1.1-2.6c0-1.1,0.4-2,1.1-2.6
		s1.6-0.9,2.6-0.9c1.5,0,2.6,0.4,3.4,1.3V43c0-0.5-0.2-1-0.6-1.3c-0.4-0.3-1-0.5-1.7-0.5c-1.2,0-2.2,0.4-3.1,1.3l-1.1-1.9
		c1.3-1.1,2.8-1.7,4.6-1.7c1.4,0,2.5,0.3,3.3,0.9c0.9,0.6,1.3,1.7,1.3,3.1V49.8z M188.4,48.2c1,0,1.8-0.3,2.2-0.9v-1.3
		c-0.5-0.6-1.2-0.9-2.2-0.9c-0.6,0-1,0.1-1.4,0.4s-0.6,0.7-0.6,1.2c0,0.5,0.2,0.9,0.6,1.1S187.9,48.2,188.4,48.2z"/>
	<path class="st4" d="M198.4,49.8h-3.5l4.3-5.8l-4.2-4.8h3.4l3.3,3.8v-3.8h2.8V43l3.3-3.8h3.4L207,44l4.3,5.8h-3.5l-2.8-4.1
		l-0.5,0.5v3.5h-2.8v-3.5l-0.5-0.5L198.4,49.8z"/>
	<path class="st4" d="M217.7,50.1c-1.6,0-3-0.5-4.1-1.5c-1.1-1-1.6-2.4-1.6-4c0-1.6,0.5-2.9,1.6-4c1-1.1,2.4-1.6,3.9-1.6
		c1.6,0,2.9,0.5,3.9,1.6c1,1.1,1.5,2.5,1.5,4.2v0.6H215c0.1,0.7,0.4,1.3,0.9,1.8c0.5,0.5,1.2,0.7,2.1,0.7c0.5,0,1-0.1,1.5-0.3
		c0.6-0.2,1-0.4,1.3-0.8l1.2,1.8C221.1,49.6,219.6,50.1,217.7,50.1z M216.3,35.3c0.3,0.3,0.4,0.6,0.4,1c0,0.4-0.1,0.8-0.4,1.1
		c-0.3,0.3-0.6,0.4-1,0.4s-0.8-0.1-1.1-0.4s-0.4-0.6-0.4-1.1c0-0.4,0.1-0.8,0.4-1s0.6-0.4,1.1-0.4S216,35,216.3,35.3z M220.2,43.5
		c0-0.6-0.3-1.1-0.7-1.6c-0.4-0.5-1.1-0.7-1.9-0.7c-0.8,0-1.4,0.2-1.8,0.7s-0.7,1-0.8,1.6H220.2z M221,35.3c0.3,0.3,0.4,0.6,0.4,1
		c0,0.4-0.1,0.8-0.4,1.1c-0.3,0.3-0.6,0.4-1.1,0.4c-0.4,0-0.8-0.1-1.1-0.4c-0.3-0.3-0.4-0.6-0.4-1.1c0-0.4,0.1-0.8,0.4-1
		s0.6-0.4,1.1-0.4C220.3,34.9,220.7,35,221,35.3z"/>
	<path class="st4" d="M231,50.1c-1.3,0-2.4-0.5-3.3-1.6v5.4h-2.8V39.2h2.8v1.3c0.8-1.1,1.9-1.6,3.3-1.6c1.4,0,2.5,0.5,3.4,1.5
		c0.9,1,1.3,2.4,1.3,4.1c0,1.7-0.4,3.1-1.3,4.1C233.5,49.6,232.4,50.1,231,50.1z M230.1,47.6c0.8,0,1.5-0.3,1.9-0.9
		c0.5-0.6,0.7-1.3,0.7-2.2c0-0.9-0.2-1.6-0.7-2.2c-0.5-0.6-1.1-0.9-1.9-0.9c-0.5,0-0.9,0.1-1.4,0.4s-0.8,0.5-1,0.9v3.8
		c0.2,0.3,0.6,0.6,1,0.9C229.2,47.5,229.7,47.6,230.1,47.6z"/>
</g>
<path class="st4" d="M105.1,10.6H210c4.7,0,8.5,3.8,8.5,8.5V20c0,4.7-3.8,8.5-8.5,8.5H105.1c-4.7,0-8.5-3.8-8.5-8.5v-0.9
	C96.6,14.4,100.4,10.6,105.1,10.6z"/>
<g class="st5">
	<path class="st6" d="M130,21.4c0,1.6-1,2.4-3.1,2.4h-2.3v-8.1h4.9v1.1h-3.6V19h1C128.9,19,130,19.8,130,21.4z M125.9,22.7h0.9
		c0.6,0,1.1-0.1,1.4-0.3c0.3-0.2,0.4-0.5,0.4-1c0-0.4-0.1-0.8-0.4-1c-0.3-0.2-0.8-0.3-1.5-0.3h-0.8V22.7z"/>
	<path class="st6" d="M136.1,23.8h-4.6v-8.1h4.6v1.1h-3.2v2.2h3v1.1h-3v2.5h3.2V23.8z"/>
	<path class="st6" d="M141.3,16.8c-0.8,0-1.4,0.3-1.8,0.8c-0.4,0.5-0.7,1.3-0.7,2.2c0,1,0.2,1.7,0.6,2.2c0.4,0.5,1,0.8,1.8,0.8
		c0.3,0,0.7,0,1-0.1c0.3-0.1,0.7-0.2,1-0.3v1.1c-0.6,0.2-1.3,0.4-2.1,0.4c-1.2,0-2.1-0.4-2.7-1.1c-0.6-0.7-0.9-1.7-0.9-3.1
		c0-0.8,0.2-1.6,0.5-2.2c0.3-0.6,0.8-1.1,1.3-1.4c0.6-0.3,1.3-0.5,2-0.5c0.8,0,1.6,0.2,2.3,0.5l-0.5,1.1c-0.3-0.1-0.6-0.2-0.9-0.3
		C142,16.8,141.7,16.8,141.3,16.8z"/>
	<path class="st6" d="M151.2,23.8h-1.3v-6.9h-3.6v6.9H145v-8.1h6.2V23.8z"/>
	<path class="st6" d="M159.4,23.8h-1.3v-6.9h-2.3c-0.3,2.4-0.5,4-0.7,4.8c-0.2,0.8-0.4,1.4-0.7,1.8c-0.3,0.3-0.7,0.5-1.3,0.5
		c-0.3,0-0.5,0-0.8-0.1v-1.1c0.2,0.1,0.4,0.1,0.6,0.1c0.3,0,0.5-0.2,0.6-0.5c0.1-0.3,0.3-1,0.5-2.1s0.4-2.6,0.6-4.5h4.7V23.8z"/>
	<path class="st6" d="M166.5,23.8l-0.8-2.2h-3.1l-0.8,2.2h-1.4l3-8.1h1.4l3,8.1H166.5z M165.4,20.4l-0.8-2.2
		c-0.1-0.1-0.1-0.4-0.2-0.7c-0.1-0.3-0.2-0.5-0.2-0.7c-0.1,0.5-0.2,0.9-0.4,1.5l-0.7,2.1H165.4z"/>
	<path class="st6" d="M171.8,23.8h-1.3v-6.9h-2.4v-1.1h6.1v1.1h-2.4V23.8z"/>
	<path class="st6" d="M181.8,23.8h-1.3v-3.6h-3.7v3.6h-1.3v-8.1h1.3v3.3h3.7v-3.3h1.3V23.8z"/>
	<path class="st6" d="M191,19.8c0,1.3-0.3,2.3-1,3.1c-0.7,0.7-1.6,1.1-2.8,1.1c-1.2,0-2.2-0.4-2.8-1.1c-0.7-0.7-1-1.7-1-3.1
		s0.3-2.4,1-3.1c0.7-0.7,1.6-1.1,2.8-1.1c1.2,0,2.1,0.4,2.8,1.1C190.7,17.4,191,18.5,191,19.8z M184.9,19.8c0,1,0.2,1.7,0.6,2.3
		c0.4,0.5,1,0.8,1.8,0.8c0.8,0,1.4-0.3,1.8-0.8c0.4-0.5,0.6-1.3,0.6-2.3c0-1-0.2-1.7-0.6-2.2s-1-0.8-1.8-0.8c-0.8,0-1.4,0.3-1.8,0.8
		S184.9,18.8,184.9,19.8z"/>
</g>
</svg>
