<?xml version="1.0" encoding="utf-8"?>
<!-- Generator: Adobe Illustrator 19.2.0, SVG Export Plug-In . SVG Version: 6.00 Build 0)  -->
<svg version="1.1" id="Слой_1" xmlns="http://www.w3.org/2000/svg" xmlns:xlink="http://www.w3.org/1999/xlink" x="0px" y="0px"
	 viewBox="0 0 472 78.5" style="enable-background:new 0 0 472 78.5;" xml:space="preserve">
<style type="text/css">
	.st0{clip-path:url(#SVGID_2_);}
	.st1{fill:url(#SVGID_3_);}
	.st2{opacity:0.6;fill:#FFFFFF;enable-background:new    ;}
	.st3{opacity:0.8;fill:#FFFFFF;enable-background:new    ;}
	.st4{fill:#FFFFFF;}
	.st5{enable-background:new    ;}
	.st6{fill:#5B6EC0;}
</style>
<title>Орфография</title>
<g>
	<defs>
		<path id="SVGID_1_" d="M13,1h447c6.6,0,12,5.4,12,12v53.5c0,6.6-5.4,12-12,12H13c-6.6,0-12-5.4-12-12V13C1,6.4,6.4,1,13,1z"/>
	</defs>
	<clipPath id="SVGID_2_">
		<use xlink:href="#SVGID_1_"  style="overflow:visible;"/>
	</clipPath>
	<g class="st0">
		
			<linearGradient id="SVGID_3_" gradientUnits="userSpaceOnUse" x1="-8.945579e-002" y1="906.8375" x2="462.3405" y2="1009.5275" gradientTransform="matrix(1 0 0 1 0 -920)">
			<stop  offset="0" style="stop-color:#5B6EC0"/>
			<stop  offset="1" style="stop-color:#4BC4E7"/>
		</linearGradient>
		<rect y="0" class="st1" width="472" height="78.5"/>
		<circle class="st2" cx="435.3" cy="39.8" r="130.5"/>
		<circle class="st3" cx="435.3" cy="39.8" r="94.2"/>
		<circle class="st4" cx="435.3" cy="39.8" r="56.1"/>
		<g class="st5">
			<path class="st6" d="M438.1,50.3h-6.1l-1.5-4.3h-10.8l-1.6,4.3h-6.1l9.7-25.1h6.7L438.1,50.3z M429,41.3l-3.9-10.8l-3.9,10.8H429
				z"/>
			<path class="st6" d="M456.1,50.3h-4.8v-1.9c-1.3,1.6-3.2,2.3-5.8,2.3c-1.6,0-3.1-0.5-4.4-1.6s-1.9-2.5-1.9-4.4
				c0-2,0.6-3.4,1.9-4.4c1.3-1,2.7-1.5,4.4-1.5c2.6,0,4.5,0.7,5.8,2.2v-2.4c0-0.9-0.4-1.7-1.1-2.2c-0.7-0.6-1.7-0.8-2.9-0.8
				c-2,0-3.8,0.7-5.3,2.1l-1.8-3.2c2.2-1.9,4.8-2.9,7.9-2.9c2.3,0,4.2,0.5,5.7,1.6c1.5,1.1,2.2,2.8,2.2,5.3V50.3z M447.4,47.5
				c1.8,0,3.1-0.5,3.8-1.6v-2.3c-0.8-1.1-2.1-1.6-3.8-1.6c-1,0-1.8,0.2-2.4,0.7s-1,1.2-1,2c0,0.8,0.3,1.5,1,2
				C445.7,47.3,446.5,47.5,447.4,47.5z"/>
		</g>
	</g>
</g>
<g class="st5">
	<path class="st4" d="M97,50.1c-2.2,0-4-0.7-5.5-2.1c-1.4-1.4-2.2-3.2-2.2-5.4s0.7-4,2.2-5.4c1.4-1.4,3.3-2.1,5.5-2.1
		c2.2,0,4.1,0.7,5.5,2.1c1.4,1.4,2.2,3.2,2.2,5.5c0,2.2-0.7,4-2.2,5.5C101,49.4,99.2,50.1,97,50.1z M93.7,45.9
		c0.8,0.9,1.9,1.4,3.2,1.4s2.4-0.5,3.2-1.4c0.8-0.9,1.2-2.1,1.2-3.5c0-1.4-0.4-2.5-1.2-3.5c-0.8-0.9-1.9-1.4-3.2-1.4
		s-2.4,0.5-3.2,1.4c-0.8,0.9-1.2,2.1-1.2,3.5C92.5,43.9,92.9,45,93.7,45.9z"/>
	<path class="st4" d="M112.8,50.1c-1.3,0-2.4-0.5-3.3-1.6v5.4h-2.8V39.2h2.8v1.3c0.8-1.1,1.9-1.6,3.3-1.6c1.4,0,2.5,0.5,3.4,1.5
		c0.9,1,1.3,2.4,1.3,4.1c0,1.7-0.4,3.1-1.3,4.1C115.4,49.6,114.2,50.1,112.8,50.1z M112,47.6c0.8,0,1.5-0.3,1.9-0.9
		c0.5-0.6,0.7-1.3,0.7-2.2c0-0.9-0.2-1.6-0.7-2.2c-0.5-0.6-1.1-0.9-1.9-0.9c-0.5,0-0.9,0.1-1.4,0.4s-0.8,0.5-1,0.9v3.8
		c0.2,0.3,0.6,0.6,1,0.9C111.1,47.5,111.5,47.6,112,47.6z"/>
	<path class="st4" d="M123.2,38.9c1.1,0,2.1,0.5,2.8,1.6v-5.4h2.8v5.4c0.7-1.1,1.7-1.6,2.8-1.6c1.2,0,2.2,0.5,2.9,1.5
		c0.8,1,1.1,2.4,1.1,4.1c0,1.7-0.4,3.1-1.1,4.1c-0.8,1-1.7,1.5-2.9,1.5c-1.2,0-2.1-0.5-2.8-1.6v5.4h-2.8v-5.4
		c-0.7,1.1-1.7,1.6-2.8,1.6c-1.2,0-2.2-0.5-2.9-1.5c-0.8-1-1.1-2.4-1.1-4.1s0.4-3.1,1.1-4.1C121,39.4,122,38.9,123.2,38.9z
		 M124.1,41.4c-0.6,0-1.1,0.3-1.6,0.9c-0.4,0.6-0.6,1.3-0.6,2.2c0,0.9,0.2,1.6,0.6,2.2c0.4,0.6,0.9,0.9,1.6,0.9
		c0.4,0,0.7-0.1,1.1-0.4c0.4-0.2,0.6-0.5,0.8-0.9v-3.8c-0.2-0.3-0.5-0.6-0.8-0.9S124.5,41.4,124.1,41.4z M130.8,47.6
		c0.6,0,1.2-0.3,1.6-0.9s0.6-1.3,0.6-2.2c0-0.9-0.2-1.6-0.6-2.2s-0.9-0.9-1.6-0.9c-0.4,0-0.7,0.1-1.1,0.4s-0.6,0.5-0.8,0.9v3.8
		c0.2,0.3,0.5,0.6,0.8,0.9C130.1,47.5,130.4,47.6,130.8,47.6z"/>
	<path class="st4" d="M147.1,48.5c-1,1.1-2.4,1.6-4.1,1.6c-1.7,0-3.1-0.5-4.1-1.6c-1-1.1-1.5-2.4-1.5-4s0.5-2.9,1.5-4
		c1-1.1,2.4-1.6,4.1-1.6c1.7,0,3.1,0.5,4.1,1.6c1,1.1,1.5,2.4,1.5,4S148.2,47.4,147.1,48.5z M141.1,46.7c0.5,0.6,1.1,0.9,2,0.9
		s1.5-0.3,2-0.9c0.5-0.6,0.7-1.3,0.7-2.2c0-0.9-0.2-1.6-0.7-2.2c-0.5-0.6-1.2-0.9-2-0.9s-1.5,0.3-2,0.9c-0.5,0.6-0.7,1.3-0.7,2.2
		C140.3,45.4,140.6,46.1,141.1,46.7z"/>
	<path class="st4" d="M158.9,39.2v2.4h-5.4v8.2h-2.8V39.2H158.9z"/>
	<path class="st4" d="M166.8,50.1c-1.3,0-2.4-0.5-3.3-1.6v5.4h-2.8V39.2h2.8v1.3c0.8-1.1,1.9-1.6,3.3-1.6c1.4,0,2.5,0.5,3.4,1.5
		c0.9,1,1.3,2.4,1.3,4.1c0,1.7-0.4,3.1-1.3,4.1C169.3,49.6,168.2,50.1,166.8,50.1z M165.9,47.6c0.8,0,1.5-0.3,1.9-0.9
		c0.5-0.6,0.7-1.3,0.7-2.2c0-0.9-0.2-1.6-0.7-2.2c-0.5-0.6-1.1-0.9-1.9-0.9c-0.5,0-0.9,0.1-1.4,0.4s-0.8,0.5-1,0.9v3.8
		c0.2,0.3,0.6,0.6,1,0.9C165,47.5,165.5,47.6,165.9,47.6z"/>
	<path class="st4" d="M182.7,49.8h-2.8v-1.1c-0.8,0.9-1.9,1.4-3.4,1.4c-1,0-1.8-0.3-2.6-0.9s-1.1-1.5-1.1-2.6c0-1.1,0.4-2,1.1-2.6
		s1.6-0.9,2.6-0.9c1.5,0,2.6,0.4,3.4,1.3V43c0-0.5-0.2-1-0.6-1.3c-0.4-0.3-1-0.5-1.7-0.5c-1.2,0-2.2,0.4-3.1,1.3l-1.1-1.9
		c1.3-1.1,2.8-1.7,4.6-1.7c1.4,0,2.5,0.3,3.3,0.9c0.9,0.6,1.3,1.7,1.3,3.1V49.8z M177.7,48.2c1,0,1.8-0.3,2.2-0.9v-1.3
		c-0.5-0.6-1.2-0.9-2.2-0.9c-0.6,0-1,0.1-1.4,0.4s-0.6,0.7-0.6,1.2c0,0.5,0.2,0.9,0.6,1.1S177.1,48.2,177.7,48.2z"/>
	<path class="st4" d="M189.1,38.9c1.1,0,2.1,0.5,2.8,1.6v-5.4h2.8v5.4c0.7-1.1,1.7-1.6,2.8-1.6c1.2,0,2.2,0.5,2.9,1.5
		c0.8,1,1.1,2.4,1.1,4.1c0,1.7-0.4,3.1-1.1,4.1c-0.8,1-1.7,1.5-2.9,1.5c-1.2,0-2.1-0.5-2.8-1.6v5.4H192v-5.4
		c-0.7,1.1-1.7,1.6-2.8,1.6c-1.2,0-2.2-0.5-2.9-1.5c-0.8-1-1.1-2.4-1.1-4.1s0.4-3.1,1.1-4.1C186.9,39.4,187.9,38.9,189.1,38.9z
		 M190,41.4c-0.6,0-1.1,0.3-1.6,0.9c-0.4,0.6-0.6,1.3-0.6,2.2c0,0.9,0.2,1.6,0.6,2.2c0.4,0.6,0.9,0.9,1.6,0.9c0.4,0,0.7-0.1,1.1-0.4
		c0.4-0.2,0.6-0.5,0.8-0.9v-3.8c-0.2-0.3-0.5-0.6-0.8-0.9S190.4,41.4,190,41.4z M196.7,47.6c0.6,0,1.2-0.3,1.6-0.9s0.6-1.3,0.6-2.2
		c0-0.9-0.2-1.6-0.6-2.2s-0.9-0.9-1.6-0.9c-0.4,0-0.7,0.1-1.1,0.4s-0.6,0.5-0.8,0.9v3.8c0.2,0.3,0.5,0.6,0.8,0.9
		C196,47.5,196.3,47.6,196.7,47.6z"/>
	<path class="st4" d="M206.7,49.8H204V39.2h2.8v6.4l4.4-6.4h2.8v10.6h-2.8v-6.7L206.7,49.8z"/>
	<path class="st4" d="M219.6,49.8h-3.2l2.5-3.8c-0.7-0.2-1.2-0.5-1.7-1.1c-0.5-0.6-0.7-1.3-0.7-2.2c0-1,0.3-1.8,1-2.5
		c0.7-0.7,1.6-1,2.7-1h6.4v10.6h-2.8v-3.7h-2.2L219.6,49.8z M220.6,43.8h3.2v-2.3h-3.2c-0.4,0-0.7,0.1-0.9,0.3
		c-0.2,0.2-0.4,0.5-0.4,0.8c0,0.4,0.1,0.6,0.3,0.8C219.9,43.7,220.2,43.8,220.6,43.8z"/>
</g>
<path class="st4" d="M105.1,10.6H210c4.7,0,8.5,3.8,8.5,8.5V20c0,4.7-3.8,8.5-8.5,8.5H105.1c-4.7,0-8.5-3.8-8.5-8.5v-0.9
	C96.6,14.4,100.4,10.6,105.1,10.6z"/>
<g class="st5">
	<path class="st6" d="M130,21.4c0,1.6-1,2.4-3.1,2.4h-2.3v-8.1h4.9v1.1h-3.6V19h1C128.9,19,130,19.8,130,21.4z M125.9,22.7h0.9
		c0.6,0,1.1-0.1,1.4-0.3c0.3-0.2,0.4-0.5,0.4-1c0-0.4-0.1-0.8-0.4-1c-0.3-0.2-0.8-0.3-1.5-0.3h-0.8V22.7z"/>
	<path class="st6" d="M136.1,23.8h-4.6v-8.1h4.6v1.1h-3.2v2.2h3v1.1h-3v2.5h3.2V23.8z"/>
	<path class="st6" d="M141.3,16.8c-0.8,0-1.4,0.3-1.8,0.8c-0.4,0.5-0.7,1.3-0.7,2.2c0,1,0.2,1.7,0.6,2.2c0.4,0.5,1,0.8,1.8,0.8
		c0.3,0,0.7,0,1-0.1c0.3-0.1,0.7-0.2,1-0.3v1.1c-0.6,0.2-1.3,0.4-2.1,0.4c-1.2,0-2.1-0.4-2.7-1.1c-0.6-0.7-0.9-1.7-0.9-3.1
		c0-0.8,0.2-1.6,0.5-2.2c0.3-0.6,0.8-1.1,1.3-1.4c0.6-0.3,1.3-0.5,2-0.5c0.8,0,1.6,0.2,2.3,0.5l-0.5,1.1c-0.3-0.1-0.6-0.2-0.9-0.3
		C142,16.8,141.7,16.8,141.3,16.8z"/>
	<path class="st6" d="M151.2,23.8h-1.3v-6.9h-3.6v6.9H145v-8.1h6.2V23.8z"/>
	<path class="st6" d="M159.4,23.8h-1.3v-6.9h-2.3c-0.3,2.4-0.5,4-0.7,4.8c-0.2,0.8-0.4,1.4-0.7,1.8c-0.3,0.3-0.7,0.5-1.3,0.5
		c-0.3,0-0.5,0-0.8-0.1v-1.1c0.2,0.1,0.4,0.1,0.6,0.1c0.3,0,0.5-0.2,0.6-0.5c0.1-0.3,0.3-1,0.5-2.1s0.4-2.6,0.6-4.5h4.7V23.8z"/>
	<path class="st6" d="M166.5,23.8l-0.8-2.2h-3.1l-0.8,2.2h-1.4l3-8.1h1.4l3,8.1H166.5z M165.4,20.4l-0.8-2.2
		c-0.1-0.1-0.1-0.4-0.2-0.7c-0.1-0.3-0.2-0.5-0.2-0.7c-0.1,0.5-0.2,0.9-0.4,1.5l-0.7,2.1H165.4z"/>
	<path class="st6" d="M171.8,23.8h-1.3v-6.9h-2.4v-1.1h6.1v1.1h-2.4V23.8z"/>
	<path class="st6" d="M181.8,23.8h-1.3v-3.6h-3.7v3.6h-1.3v-8.1h1.3v3.3h3.7v-3.3h1.3V23.8z"/>
	<path class="st6" d="M191,19.8c0,1.3-0.3,2.3-1,3.1c-0.7,0.7-1.6,1.1-2.8,1.1c-1.2,0-2.2-0.4-2.8-1.1c-0.7-0.7-1-1.7-1-3.1
		s0.3-2.4,1-3.1c0.7-0.7,1.6-1.1,2.8-1.1c1.2,0,2.1,0.4,2.8,1.1C190.7,17.4,191,18.5,191,19.8z M184.9,19.8c0,1,0.2,1.7,0.6,2.3
		c0.4,0.5,1,0.8,1.8,0.8c0.8,0,1.4-0.3,1.8-0.8c0.4-0.5,0.6-1.3,0.6-2.3c0-1-0.2-1.7-0.6-2.2s-1-0.8-1.8-0.8c-0.8,0-1.4,0.3-1.8,0.8
		S184.9,18.8,184.9,19.8z"/>
</g>
</svg>
