<?xml version="1.0" encoding="utf-8"?>
<!-- Generator: Adobe Illustrator 21.0.2, SVG Export Plug-In . SVG Version: 6.00 Build 0)  -->
<svg version="1.1" id="Слой_1" xmlns="http://www.w3.org/2000/svg" xmlns:xlink="http://www.w3.org/1999/xlink" x="0px" y="0px"
	 viewBox="0 0 164.5 100" style="enable-background:new 0 0 164.5 100;" xml:space="preserve">
<style type="text/css">
	.st0{fill:none;stroke:url(#SVGID_1_);stroke-width:3.685;stroke-linecap:round;stroke-linejoin:round;}
	.st1{enable-background:new    ;}
	.st2{fill:#F8F7F7;}
</style>
<g id="_x35_">
	<g id="_x31__2_">
		
			<linearGradient id="SVGID_1_" gradientUnits="userSpaceOnUse" x1="1.6575" y1="18.7" x2="58.9425" y2="18.7" gradientTransform="matrix(1 0 0 1 0 32)">
			<stop  offset="0" style="stop-color:#F7C476"/>
			<stop  offset="1" style="stop-color:#F1636E"/>
		</linearGradient>
		<path class="st0" d="M32.9,4.7c9.6,3.8,16.3,13.2,16.3,24.1c0,14.3-11.6,26-26,26c-2.3,0-4.6-0.3-6.8-0.9 M21.3,43.4
			C11.9,47.6,3.5,57.7,3.5,69c0,7.6,3.3,14.5,8.5,19.2 M11.9,88.2c4.7,5.2,11.6,8.5,19.2,8.5c14.3,0,26-11.6,26-26
			c0-8-3.6-15.1-9.3-19.9 M24,41.8c7.9-4.4,13.3-12.9,13.3-22.6c0-5.4-1.6-10.3-4.4-14.5 M30.6,66.9c-8.1,0-14.6,6.5-14.6,14.6
			s6.5,14.6,14.6,14.6s14.6-6.5,14.6-14.6S38.6,66.9,30.6,66.9z M25.3,41.1c-0.9,0.4-9.7,5.7-11.3,7.1 M16.4,53.9c0,0.1,0,0.2,0,0.4
			c0,6.4,4.7,11.8,10.8,12.8 M28.7,54.2c2.2,1.8,5,2.8,8.1,2.8c7.2,0,13-5.8,13-13c0-2.5-0.7-4.9-2-6.9"/>
		<g class="st1">
			<path class="st2" d="M85.1,15.6c0,0.9-0.5,1.4-1.4,1.4H70.8v9.7h10c1,0,1.4,0.5,1.4,1.4c0,0.9-0.5,1.4-1.4,1.4h-10v11.1
				c0,0.9-0.5,1.4-1.4,1.4c-0.9,0-1.4-0.5-1.4-1.4V15.6c0-0.4,0.1-0.7,0.4-1c0.3-0.3,0.6-0.4,1-0.4h14.3
				C84.6,14.2,85.1,14.7,85.1,15.6z"/>
			<path class="st2" d="M115.6,28.1c0,3.8-1.4,7.1-4.2,9.8c-2.8,2.7-6.2,4.1-10.1,4.1c-3.9,0-7.3-1.4-10.1-4.1
				c-2.8-2.7-4.2-6-4.2-9.8c0-3.8,1.4-7.1,4.2-9.8c2.8-2.7,6.2-4.1,10.1-4.1c3.9,0,7.3,1.4,10.1,4.1C114.2,21,115.6,24.3,115.6,28.1
				z M112.8,28.1c0-3.1-1.1-5.7-3.4-7.8c-2.2-2.2-4.9-3.3-8.1-3.3c-3.1,0-5.8,1.1-8.1,3.3c-2.2,2.2-3.4,4.8-3.4,7.8
				c0,3.1,1.1,5.7,3.4,7.9c2.2,2.2,4.9,3.3,8.1,3.3c3.1,0,5.8-1.1,8.1-3.3C111.7,33.8,112.8,31.2,112.8,28.1z"/>
			<path class="st2" d="M141.4,40.6c0,0.4-0.2,0.7-0.5,1c-0.3,0.3-0.7,0.4-1,0.4c-0.4,0-0.8-0.2-1.1-0.5L130,30.4l-8.9,11
				c-0.3,0.4-0.7,0.5-1.1,0.5c-0.4,0-0.7-0.1-1-0.4s-0.5-0.6-0.5-1c0-0.3,0.1-0.6,0.3-0.9l9.3-11.6l-9.3-11.6
				c-0.2-0.3-0.3-0.6-0.3-0.9c0-0.4,0.2-0.7,0.5-1s0.7-0.4,1-0.4c0.4,0,0.8,0.2,1.1,0.6l8.9,11l8.9-11.1c0.3-0.4,0.7-0.5,1.1-0.5
				c0.4,0,0.7,0.1,1,0.4c0.3,0.3,0.5,0.6,0.5,1c0,0.3-0.1,0.6-0.3,0.9l-9.3,11.6l9.3,11.6C141.3,40,141.4,40.3,141.4,40.6z"/>
		</g>
		<g class="st1">
			<path class="st2" d="M94.7,90.6c0,0.4-0.2,0.7-0.5,0.9c-0.3,0.3-0.7,0.4-1,0.4c-0.6,0-1-0.3-1.2-0.8L88,83.6
				c-0.2,0-0.3,0.1-0.5,0.1H73.3c-0.2,0-0.4,0-0.5-0.1l-3.9,7.6c-0.3,0.5-0.7,0.8-1.2,0.8c-0.4,0-0.7-0.1-1.1-0.4
				c-0.3-0.3-0.5-0.6-0.5-1c0-0.2,0.1-0.5,0.2-0.7L79,65.3c0.3-0.7,0.8-1,1.4-1s1.1,0.3,1.4,1L94.5,90
				C94.6,90.2,94.7,90.4,94.7,90.6z M86.6,80.9l-6.2-12.1l-6.2,12.1H86.6z"/>
			<path class="st2" d="M115.7,90.6c0,0.4-0.1,0.7-0.4,1c-0.3,0.3-0.6,0.4-1,0.4c-0.4,0-0.7-0.1-1-0.4L102,80.7
				c-0.4-0.3-0.6-0.6-0.6-0.9v10.8c0,0.9-0.5,1.4-1.4,1.4c-0.9,0-1.4-0.5-1.4-1.4v-25c0-0.9,0.5-1.4,1.4-1.4h7.2
				c2.4,0,4.4,0.8,6.1,2.4s2.5,3.6,2.5,5.9s-0.8,4.2-2.5,5.9c-1.7,1.6-3.7,2.4-6.1,2.4l-0.8,0l9,8.7
				C115.5,89.9,115.7,90.2,115.7,90.6z M112.8,72.6c0-1.5-0.6-2.8-1.7-3.9c-1.1-1.1-2.5-1.6-4-1.6h-5.7v12.3
				c0.1-0.8,0.7-1.1,1.7-1.1h4c1.6,0,2.9-0.5,4-1.6C112.3,75.4,112.8,74.1,112.8,72.6z"/>
			<path class="st2" d="M138.6,65.6c0,0.9-0.5,1.4-1.4,1.4H130v23.6c0,0.9-0.5,1.4-1.4,1.4s-1.4-0.5-1.4-1.4V67H120
				c-1,0-1.4-0.5-1.4-1.4c0-0.9,0.5-1.4,1.4-1.4h17.1C138.1,64.2,138.6,64.7,138.6,65.6z"/>
			<path class="st2" d="M156.7,83.7c0,2.3-0.8,4.2-2.5,5.9c-1.7,1.6-3.7,2.4-6.1,2.4c-1.5,0-2.9-0.4-4.3-1.1c-1.4-0.8-2.4-1.8-3.1-3
				c-0.1-0.3-0.2-0.5-0.2-0.7c0-0.4,0.2-0.7,0.5-1c0.3-0.3,0.7-0.4,1.1-0.4c0.4,0,0.8,0.2,1.2,0.7c0.1,0.2,0.4,0.5,0.7,0.9
				c1.1,1.2,2.5,1.8,4.3,1.8c1.6,0,2.9-0.5,4-1.6c1.1-1.1,1.7-2.4,1.7-3.9c0-1.5-0.6-2.8-1.7-3.9c-1.1-1.1-2.5-1.6-4-1.6
				c-2,0-3.6-0.7-5-2c-1.4-1.4-2.1-3-2.1-4.9s0.7-3.5,2.1-4.9c1.4-1.4,3.1-2,5-2c1.2,0,2.4,0.3,3.6,0.9c1.1,0.6,2,1.5,2.6,2.5
				c0.1,0.3,0.2,0.5,0.2,0.7c0,0.4-0.2,0.7-0.5,1c-0.3,0.3-0.6,0.4-1,0.4c-0.3,0-0.9-0.5-1.8-1.4c-0.9-0.9-1.9-1.4-3.1-1.4
				c-1.2,0-2.2,0.4-3,1.2s-1.3,1.8-1.3,2.9s0.4,2.1,1.3,2.9s1.8,1.2,3,1.2c2.4,0,4.4,0.8,6.1,2.4C155.9,79.4,156.7,81.4,156.7,83.7z
				"/>
		</g>
	</g>
</g>
</svg>
